<svg xmlns="http://www.w3.org/2000/svg" xmlns:xlink="http://www.w3.org/1999/xlink" viewBox="0 0 278.57 278.57"><defs><style>.cls-1{fill:none;}.cls-2{fill:#ececec;}.cls-3{fill:#ffdf33;opacity:0.2;}.cls-4{fill:gold;}.cls-5{fill:#162f35;}.cls-6{fill:#d0d5d7;}.cls-7{clip-path:url(#clip-path);}.cls-8{clip-path:url(#clip-path-2);}.cls-9{clip-path:url(#clip-path-3);}.cls-10{clip-path:url(#clip-path-4);}.cls-11{fill:#45595d;}.cls-12{opacity:0.8;}.cls-13{fill:#4d4d4d;}.cls-14{fill:#fff;}</style><clipPath id="clip-path"><path class="cls-1" d="M208.17,178.09h-.1c-3.86,0-7,4.19-7,9.35s3.14,9.36,7,9.36h.1Z"/></clipPath><clipPath id="clip-path-2"><path class="cls-1" d="M224,162.24h-.16c-6.39,0-11.57,6.93-11.57,15.47s5.18,15.46,11.57,15.46H224Z"/></clipPath><clipPath id="clip-path-3"><path class="cls-1" d="M56.22,179.82h.1c3.87,0,7,4.19,7,9.36s-3.14,9.35-7,9.35h-.1Z"/></clipPath><clipPath id="clip-path-4"><path class="cls-1" d="M40.37,164h.16c6.39,0,11.57,6.93,11.57,15.47S46.92,194.9,40.53,194.9h-.16Z"/></clipPath></defs><title>Asset 1</title><g id="Layer_2" data-name="Layer 2"><g id="Layer_1-2" data-name="Layer 1"><path class="cls-2" d="M222.72,141.17c.42-3-3.89-5.56-7.12-5.82-1.54-.12-3.15.11-4.61-.4-3.16-1.1-4.43-5.19-7.52-6.49-2.31-1-5-.11-7.21,1s-4.45,2.54-6.95,2.7c-2.18.14-4.54-.67-6.45.4-1.41.79-2.16,2.42-3.46,3.39a8.35,8.35,0,0,1-4.54,1.23,12.71,12.71,0,0,0-4.68.76,3.7,3.7,0,0,0-2.34,3.75Z"/><path class="cls-2" d="M76.77,114.71c.42-3-3.88-5.56-7.12-5.82-1.54-.13-3.14.11-4.61-.4-3.16-1.1-4.43-5.19-7.52-6.5-2.31-1-5-.1-7.21,1s-4.45,2.55-7,2.71c-2.18.14-4.54-.67-6.44.39-1.42.8-2.16,2.43-3.47,3.4a8.35,8.35,0,0,1-4.54,1.23,12.62,12.62,0,0,0-4.67.76,3.69,3.69,0,0,0-2.35,3.75Z"/><path class="cls-2" d="M258.78,104.18c.28-2-2.59-3.72-4.75-3.89A12.11,12.11,0,0,1,251,100c-2.12-.73-3-3.47-5-4.34-1.55-.65-3.32-.07-4.82.68s-3,1.7-4.64,1.81c-1.46.09-3-.44-4.31.27-.94.52-1.44,1.62-2.31,2.26a5.56,5.56,0,0,1-3,.82,8.68,8.68,0,0,0-3.13.51,2.48,2.48,0,0,0-1.56,2.51Z"/><circle class="cls-3" cx="139.28" cy="139.28" r="139.28"/><path class="cls-4" d="M81.47,137.93l3.78-5.39c.56-.81,1.16-1.58,1.78-2.34l5-6,14.62-19.57q3.84-5.77,7.69-11.53a34.26,34.26,0,0,1,5.81-6.68l4.13-3.68a28.61,28.61,0,0,0,2.28-2.26c3.2-3.55,6.16-3.93,7.14-4,3.58-.25,6.41,2,10.67,5.46A44,44,0,0,1,150,87.28a62.48,62.48,0,0,1,8.17,12.32c3.94,7.14,5.92,7.36,14.84,18.33,7.22,8.88,10.7,14.63,14.37,19.83,23.47,33.28,42.77,50.63,52.38,60,1.38,1.33.19,3.87-1.55,3.29a143.08,143.08,0,0,0-107.63,5.86,1.47,1.47,0,0,1-1.52-.17c-4.64-3.52-15.91-10.87-31.43-10.62a50.86,50.86,0,0,0-27.7,9,1.48,1.48,0,0,1-1.42.17,64.59,64.59,0,0,0-22.39-4.88,63.16,63.16,0,0,0-15.55,1.4c-1.67.35-2.71-2-1.45-3.29,6.55-6.81,18.68-18.66,33.21-37.65,1.13-1.48,4.52-6,9.59-11.92,2.51-2.92,4.74-5.37,6.49-7.24A33.7,33.7,0,0,0,81.47,137.93Z"/><rect class="cls-5" x="222.75" y="181.84" width="2.24" height="28.66"/><rect class="cls-5" x="207.4" y="189.94" width="1.35" height="17.34"/><ellipse class="cls-6" cx="208.07" cy="187.44" rx="7" ry="9.36"/><path class="cls-5" d="M208.17,178.09h-.1c-3.86,0-7,4.19-7,9.35s3.14,9.36,7,9.36h.1Z"/><g class="cls-7"><rect class="cls-6" x="200.62" y="179.86" width="9.31" height="0.45" transform="translate(99.2 -71.54) rotate(25.88)"/><rect class="cls-6" x="200.62" y="177.37" width="9.31" height="0.45" transform="translate(98.11 -71.79) rotate(25.88)"/><rect class="cls-6" x="200.09" y="182.21" width="9.78" height="0.45" transform="translate(100.2 -71.18) rotate(25.88)"/><rect class="cls-6" x="200.14" y="184.72" width="9.78" height="0.45" transform="translate(101.3 -70.95) rotate(25.88)"/><rect class="cls-6" x="199.64" y="187.06" width="10.15" height="0.45" transform="translate(102.29 -70.58) rotate(25.88)"/><rect class="cls-6" x="199.15" y="189.44" width="10.67" height="0.45" transform="translate(103.3 -70.24) rotate(25.88)"/><rect class="cls-6" x="199.29" y="191.99" width="10.67" height="0.45" transform="translate(104.43 -70.04) rotate(25.88)"/><rect class="cls-6" x="199.29" y="194.48" width="10.67" height="0.45" transform="translate(105.52 -69.79) rotate(25.88)"/></g><ellipse class="cls-6" cx="223.87" cy="177.71" rx="11.57" ry="15.46"/><path class="cls-5" d="M224,162.24h-.16c-6.39,0-11.57,6.93-11.57,15.47s5.18,15.46,11.57,15.46H224Z"/><g class="cls-8"><rect class="cls-6" x="211.54" y="165.18" width="15.38" height="0.74" transform="translate(94.25 -79.09) rotate(25.88)"/><rect class="cls-6" x="211.54" y="161.06" width="15.38" height="0.74" transform="translate(92.46 -79.5) rotate(25.88)"/><rect class="cls-6" x="210.66" y="169.05" width="16.16" height="0.74" transform="translate(95.9 -78.49) rotate(25.88)"/><rect class="cls-6" x="210.75" y="173.21" width="16.16" height="0.74" transform="translate(97.72 -78.11) rotate(25.88)"/><rect class="cls-6" x="209.93" y="177.07" width="16.77" height="0.74" transform="translate(99.36 -77.5) rotate(25.88)"/><rect class="cls-6" x="209.12" y="181" width="17.63" height="0.74" transform="translate(101.03 -76.94) rotate(25.88)"/><rect class="cls-6" x="209.35" y="185.23" width="17.63" height="0.74" transform="translate(102.9 -76.62) rotate(25.88)"/><rect class="cls-6" x="209.35" y="189.34" width="17.63" height="0.74" transform="translate(104.7 -76.21) rotate(25.88)"/></g><rect class="cls-5" x="39.41" y="183.57" width="2.24" height="28.66" transform="translate(81.07 395.8) rotate(180)"/><rect class="cls-5" x="55.65" y="191.68" width="1.35" height="17.34" transform="translate(112.65 400.7) rotate(180)"/><ellipse class="cls-6" cx="56.32" cy="189.18" rx="7" ry="9.36"/><path class="cls-5" d="M56.22,179.82h.1c3.87,0,7,4.19,7,9.36s-3.14,9.35-7,9.35h-.1Z"/><g class="cls-9"><rect class="cls-6" x="54.48" y="181.59" width="9.31" height="0.45" transform="translate(191.7 319.59) rotate(154.12)"/><rect class="cls-6" x="54.48" y="179.11" width="9.31" height="0.45" transform="translate(190.61 314.86) rotate(154.12)"/><rect class="cls-6" x="54.53" y="183.94" width="9.78" height="0.45" transform="translate(193.28 323.92) rotate(154.12)"/><rect class="cls-6" x="54.48" y="186.45" width="9.78" height="0.45" transform="translate(194.28 328.72) rotate(154.12)"/><rect class="cls-6" x="54.61" y="188.79" width="10.15" height="0.45" transform="translate(195.89 333.02) rotate(154.12)"/><rect class="cls-6" x="54.58" y="191.17" width="10.67" height="0.45" transform="translate(197.37 337.43) rotate(154.12)"/><rect class="cls-6" x="54.44" y="193.73" width="10.67" height="0.45" transform="translate(198.21 342.36) rotate(154.12)"/><rect class="cls-6" x="54.44" y="196.21" width="10.67" height="0.45" transform="translate(199.3 347.08) rotate(154.12)"/></g><ellipse class="cls-6" cx="40.53" cy="179.44" rx="11.57" ry="15.46"/><path class="cls-5" d="M40.37,164h.16c6.39,0,11.57,6.93,11.57,15.47S46.92,194.9,40.53,194.9h-.16Z"/><g class="cls-10"><rect class="cls-6" x="37.48" y="166.91" width="15.38" height="0.74" transform="translate(158.83 298.06) rotate(154.12)"/><rect class="cls-6" x="37.48" y="162.8" width="15.38" height="0.74" transform="translate(157.04 290.25) rotate(154.12)"/><rect class="cls-6" x="37.57" y="170.79" width="16.16" height="0.74" transform="translate(161.44 305.22) rotate(154.12)"/><rect class="cls-6" x="37.49" y="174.94" width="16.16" height="0.74" transform="translate(163.1 313.15) rotate(154.12)"/><rect class="cls-6" x="37.7" y="178.8" width="16.77" height="0.74" transform="translate(165.76 320.26) rotate(154.12)"/><rect class="cls-6" x="37.65" y="182.73" width="17.63" height="0.74" transform="translate(168.2 327.56) rotate(154.12)"/><rect class="cls-6" x="37.42" y="186.96" width="17.63" height="0.74" transform="translate(169.6 335.69) rotate(154.12)"/><rect class="cls-6" x="37.42" y="191.07" width="17.63" height="0.74" transform="translate(171.39 343.5) rotate(154.12)"/></g><path class="cls-5" d="M52.38,234.53c-2.73-12,21.39-33.56,46.3-32.88,23,.64,45.4,20.23,42.83,32.19-2.67,12.42-32.07,15.72-47.77,15.28C90.67,249,55.38,247.75,52.38,234.53Z"/><path class="cls-11" d="M257.14,213.55c-11.91-5.6-49.8-21.58-97.57-11.21C106.36,213.89,77.16,250.26,69.8,260a141.43,141.43,0,0,0,47.71,16.83,139.47,139.47,0,0,0,79-10.55,139.91,139.91,0,0,0,60.65-52.76Z"/><path class="cls-6" d="M18.53,208.74a78.88,78.88,0,0,1,49.83.19c7,2.41,27.12,9.71,39.29,30.91a67.93,67.93,0,0,1,8.73,36.82c-3-.53-6.25-1.18-9.59-2C103.3,273.86,100,273,97,272s-6.58-2.23-10.1-3.66c-2.5-1-4.87-2.07-7.1-3.12s-4.63-2.27-7.07-3.6-4.72-2.67-6.85-4c-3.54-2.2-7.32-4.77-11.22-7.77a139.41,139.41,0,0,1-11.07-9.44,139.36,139.36,0,0,1-25-31.7Z"/><g class="cls-12"><path class="cls-13" d="M34.47,213.53a44.09,44.09,0,0,1,11.59-2.13,45.89,45.89,0,0,1,11.81.89,65.73,65.73,0,0,1,11.19,3.77,107.22,107.22,0,0,1,10.6,5.08,45.83,45.83,0,0,1,17,16.35A45.15,45.15,0,0,1,103,260.11a.11.11,0,0,1-.11.11.11.11,0,0,1-.11-.09,61.35,61.35,0,0,0-8.09-21.44,56.15,56.15,0,0,0-6.91-9.07A63.8,63.8,0,0,0,79,222.14a47.3,47.3,0,0,0-10.23-5.43,42.2,42.2,0,0,0-5.57-1.63c-1.88-.43-3.78-.76-5.68-1a82.94,82.94,0,0,0-11.46-1,90.18,90.18,0,0,0-11.57.66.11.11,0,0,1-.05-.22Z"/></g><g class="cls-12"><path class="cls-13" d="M36,219.27a36.94,36.94,0,0,1,10.27-2,38.44,38.44,0,0,1,10.48.8,57.61,57.61,0,0,1,9.89,3.45,102.51,102.51,0,0,1,9.38,4.55,39.48,39.48,0,0,1,20.38,34.75.1.1,0,0,1-.11.1.11.11,0,0,1-.11-.08,56.89,56.89,0,0,0-7.17-19,51.4,51.4,0,0,0-6-8.08c-1.17-1.21-2.36-2.4-3.64-3.51a49.25,49.25,0,0,0-4-3.21,39.71,39.71,0,0,0-9-4.9,35.09,35.09,0,0,0-4.92-1.44c-1.67-.38-3.35-.66-5-.89A79.58,79.58,0,0,0,46.33,219a84.27,84.27,0,0,0-10.25.51.11.11,0,0,1-.12-.1A.12.12,0,0,1,36,219.27Z"/></g><g class="cls-12"><path class="cls-13" d="M37.48,224.84a30.74,30.74,0,0,1,8.71-1.77,32.57,32.57,0,0,1,8.92.63,51,51,0,0,1,8.41,2.92c2.71,1.17,5.41,2.3,8,3.7a32.41,32.41,0,0,1,7.32,5.16,33.63,33.63,0,0,1,5.73,7,32,32,0,0,1,4.64,17.11.11.11,0,0,1-.11.11.12.12,0,0,1-.1-.09,48.26,48.26,0,0,0-6.39-15.91,42.78,42.78,0,0,0-5.2-6.72,51.35,51.35,0,0,0-6.51-5.6,32.48,32.48,0,0,0-7.68-4.07,39.81,39.81,0,0,0-8.47-1.79,76.61,76.61,0,0,0-8.56-.73,84.89,84.89,0,0,0-8.7.3.11.11,0,0,1-.12-.1A.12.12,0,0,1,37.48,224.84Z"/></g><path class="cls-14" d="M115.2,236.49a98.49,98.49,0,0,1,28.11-19.7A111.39,111.39,0,0,1,159.53,211c2.76-.77,5.56-1.42,8.36-2s5.64-1.08,8.5-1.42a113.76,113.76,0,0,1,17.21-.89c5.74.16,11.47.37,17.19,1a146.81,146.81,0,0,1,33.53,7.64.07.07,0,0,1,0,.08.05.05,0,0,1-.07,0A192.18,192.18,0,0,0,210.66,209c-11.36-1-22.82-1.77-34.2-.74a90.24,90.24,0,0,0-32.71,9.48,130.71,130.71,0,0,0-28.46,18.85.06.06,0,0,1-.09,0A.08.08,0,0,1,115.2,236.49Z"/><path class="cls-14" d="M119.8,245.64a87.68,87.68,0,0,1,24.39-18.1,128,128,0,0,1,28.93-9.41c1.24-.27,2.51-.41,3.76-.63s2.51-.4,3.78-.56c2.53-.2,5.06-.52,7.61-.58s5.09-.19,7.64-.06c1.27,0,2.54.06,3.81.13l3.81.31c1.27.1,2.53.26,3.8.44s2.52.31,3.77.54l3.76.69c1.25.22,2.49.53,3.73.79a114.9,114.9,0,0,1,14.58,4.39.06.06,0,1,1,0,.12,154,154,0,0,0-29.72-5.64,125.38,125.38,0,0,0-30.17.74l-3.73.67a36,36,0,0,0-3.71.79l-3.66,1a30.35,30.35,0,0,0-3.62,1.13L155,223.69l-1.76.68c-.59.24-1.15.53-1.72.79l-3.43,1.62c-1.14.53-2.28,1.07-3.38,1.68a122,122,0,0,0-24.79,17.27.05.05,0,0,1-.08,0A0,0,0,0,1,119.8,245.64Z"/><path class="cls-14" d="M125.32,252.78a83.33,83.33,0,0,1,10.43-8.28A76.79,76.79,0,0,1,147.39,238l3.08-1.3L152,236c.52-.21,1.05-.37,1.57-.56l3.16-1.09,1.56-.56c.53-.18,1.06-.32,1.6-.48,4.24-1.29,8.51-2.5,12.87-3.39l3.26-.68c1.1-.21,2.2-.34,3.3-.5s2.2-.34,3.31-.45L186,228c2.21-.23,4.44-.22,6.66-.33,1.12,0,2.23,0,3.34,0s2.23,0,3.34.09a112.45,112.45,0,0,1,26.23,4.47.07.07,0,0,1,.05.08.07.07,0,0,1-.08,0c-4.34-.86-8.7-1.63-13.08-2.17-2.19-.26-4.38-.55-6.58-.68-1.1-.07-2.2-.2-3.3-.25l-3.3-.16a129.34,129.34,0,0,0-26.36,1.48c-2.19.3-4.34.8-6.49,1.3a64.26,64.26,0,0,0-6.37,1.83,92,92,0,0,0-12.18,5.17,126.56,126.56,0,0,0-22.44,14,.06.06,0,0,1-.08,0A.07.07,0,0,1,125.32,252.78Z"/><path class="cls-14" d="M130.84,260.57a84.08,84.08,0,0,1,19.27-11.66c3.48-1.47,7-2.67,10.62-3.82s7.18-2.23,10.83-3.15a85.18,85.18,0,0,1,11.09-2.16,98.89,98.89,0,0,1,11.28-.87,92.7,92.7,0,0,1,22.41,2.45.08.08,0,0,1,0,.08.06.06,0,0,1-.07,0A144.61,144.61,0,0,0,194,240.24a131.06,131.06,0,0,0-22.24,2.36,78.44,78.44,0,0,0-10.85,2.87,103,103,0,0,0-10.32,4.38,170.54,170.54,0,0,0-19.63,10.82.06.06,0,1,1-.07-.1Z"/><path class="cls-14" d="M125.25,240.78A69.76,69.76,0,0,1,140.1,232c2.66-1.12,5.39-2,8.1-3s5.44-1.88,8.18-2.75a77.25,77.25,0,0,1,8.36-2.2c2.82-.58,5.67-1.07,8.54-1.37a79.67,79.67,0,0,1,17.26.07s.06,0,.06.07a.06.06,0,0,1-.06.05c-5.75.13-11.45.44-17.11,1.13a144.37,144.37,0,0,0-16.87,2.91,65.81,65.81,0,0,0-8.22,2.47c-2.67,1-5.25,2.28-7.81,3.54-5.16,2.47-10.2,5.11-15.21,7.94a.08.08,0,0,1-.09,0A.08.08,0,0,1,125.25,240.78Z"/></g></g></svg>