<svg xmlns="http://www.w3.org/2000/svg" viewBox="0 0 1080.62 197.26"><defs><style>.cls-1{fill:gold;}.cls-2{fill:#ffe55c;}</style></defs><title>Asset 34</title><g id="Layer_2" data-name="Layer 2"><g id="Layer_1-2" data-name="Layer 1"><path class="cls-1" d="M822.16,72.17C828.27,59.45,832.8,55.88,836,55.29a12.52,12.52,0,0,0,5-1.91c1.83-1.25,2.28-2.44,4-4.8s1.72-1.81,6.27-7,4.35-5.67,5.34-5.93c3.25-.87,5.36,2.52,13.95,4.88,3.69,1,4.58.74,5,.6,2.85-1.09,2.18-4.69,5.6-11.25,1.79-3.41,2.44-3.34,3.8-6.29a26.05,26.05,0,0,0,2.31-9.9L893,5.85c1-1.7,3.8-5.65,7.75-5.84,3.62-.18,6.37,2.9,10.88,7.94,2.57,2.87,4,5,7.42,10.05,3,4.39,5.52,8,7.26,10.49l8.74,3.3a21.76,21.76,0,0,0,7.59-5.55c2-2.35,1.94-3.48,4.12-5.54,1-1,4.18-4,7.91-4.06s5.63,2.56,10.06,6.16a71,71,0,0,0,13.53,8.54,75.7,75.7,0,0,0,9.73,7.5,79.35,79.35,0,0,0,16.82,8.24,183.31,183.31,0,0,0,20.94,10.65,195.18,195.18,0,0,0,54.5,14.44v98H808.47l-23.93-98Z"/><path class="cls-2" d="M789.22,72.67c5.55-12.72,9.67-16.29,12.56-16.89a10.52,10.52,0,0,0,4.57-1.9c1.66-1.26,2.07-2.44,3.6-4.8s1.56-1.81,5.7-7,4-5.66,4.86-5.92c3-.87,4.87,2.51,12.68,4.87,3.35,1,4.16.74,4.49.6,2.6-1.08,2-4.68,5.1-11.24C844.4,26.93,845,27,846.23,24a28.11,28.11,0,0,0,2.1-9.89l5.25-7.8c.95-1.71,3.46-5.65,7-5.85,3.29-.17,5.8,2.91,9.9,8a88.8,88.8,0,0,1,6.75,10.05c2.73,4.39,5,8,6.59,10.49l7.95,3.3a20,20,0,0,0,6.89-5.55c1.84-2.36,1.77-3.48,3.75-5.55.94-1,3.8-4,7.19-4.05s5.12,2.56,9.15,6.15a63.63,63.63,0,0,0,12.3,8.55,71,71,0,0,0,8.84,7.5,70.13,70.13,0,0,0,15.3,8.24,161.82,161.82,0,0,0,19,10.65,165,165,0,0,0,49.54,14.44v98h-247L755,72.67Z"/><path class="cls-2" d="M1080.62,197.26H0V70.61H1080.62Z"/></g></g></svg>