<svg xmlns="http://www.w3.org/2000/svg" xmlns:xlink="http://www.w3.org/1999/xlink" viewBox="0 0 521.06 356.17"><defs><style>.cls-1{fill:none;}.cls-2{opacity:0.95;}.cls-3{fill:#ececec;}.cls-4{fill:#e1e1e1;}.cls-5{fill:#f5f5f5;}.cls-6{fill:#fafafa;}.cls-7{fill:#fff;}.cls-8{fill:#797979;}.cls-9{fill:#4d4d4d;}.cls-10{fill:#ffd84f;}.cls-11{opacity:0.4;}.cls-12{clip-path:url(#clip-path);}.cls-13{opacity:0.3;}.cls-14{fill:#ffbf9d;}.cls-15{fill:#ff9a6c;}</style><clipPath id="clip-path"><path class="cls-1" d="M108.65,168.08a2.12,2.12,0,0,1,.3,1.09,2.15,2.15,0,1,1-4.29,0,2.12,2.12,0,0,1,.3-1.09h-2.49a2.12,2.12,0,0,1,.3,1.09,2.15,2.15,0,1,1-4.3,0,2.12,2.12,0,0,1,.3-1.09H96.28a2.12,2.12,0,0,1,.3,1.09,2.15,2.15,0,1,1-4.29,0,2.12,2.12,0,0,1,.3-1.09H90.1a2.12,2.12,0,0,1,.3,1.09,2.15,2.15,0,1,1-4.3,0,2.12,2.12,0,0,1,.3-1.09H83.91a2.12,2.12,0,0,1,.3,1.09,2.15,2.15,0,1,1-4.29,0,2.12,2.12,0,0,1,.3-1.09H77.73a2.12,2.12,0,0,1,.3,1.09,2.15,2.15,0,1,1-4-1.09H72.47v44.41h37V168.08Z"/></clipPath></defs><title>Asset 13</title><g id="Layer_2" data-name="Layer 2"><g id="Layer_1-2" data-name="Layer 1"><g class="cls-2"><polygon class="cls-3" points="214.19 39.3 229.3 87.1 218.36 87.1 213.54 70.61 214.19 39.3"/><rect class="cls-4" x="19.06" y="87.05" width="225.66" height="13.49"/><rect class="cls-4" x="50.5" y="97.59" width="10.92" height="20.71"/><rect class="cls-4" x="191.4" y="97.59" width="10.92" height="20.71"/><path class="cls-3" d="M26.72,24.52s-10.13,7.72-.42,17.91a.85.85,0,0,0,.64.27l88.48-.51S123,33.71,116.71,24Z"/><path class="cls-4" d="M95.87,32.58c0,.09-11,.17-24.61.17s-24.61-.08-24.61-.17,11-.18,24.61-.18S95.87,32.48,95.87,32.58Z"/><path class="cls-4" d="M82.1,35.78c0,.1-5.18.18-11.57.18S59,35.88,59,35.78s5.18-.18,11.57-.18S82.1,35.68,82.1,35.78Z"/><path class="cls-4" d="M104.91,41.9c-.06,0,.2-1,.47-2.65a37.52,37.52,0,0,0,.51-6.46,36.79,36.79,0,0,0-.63-6.44c-.31-1.64-.58-2.63-.52-2.65a3.86,3.86,0,0,1,.26.68c.14.45.32,1.1.51,1.92a31.36,31.36,0,0,1,.12,13c-.17.82-.33,1.48-.47,1.93A2.42,2.42,0,0,1,104.91,41.9Z"/><path class="cls-4" d="M111.52,23.84a2.6,2.6,0,0,1,.39.64,6.47,6.47,0,0,1,.39.79,10.39,10.39,0,0,1,.45,1.08,18.78,18.78,0,0,1,.85,2.94A22.28,22.28,0,0,1,114,33a20.66,20.66,0,0,1-.32,3.73,18.2,18.2,0,0,1-.8,2.95c-.13.42-.3.77-.43,1.09s-.27.59-.38.8a2.72,2.72,0,0,1-.39.65c-.06,0,.44-1,1-2.62a20.19,20.19,0,0,0,.71-2.92,22.2,22.2,0,0,0,.29-3.67,21.88,21.88,0,0,0-.35-3.67,21,21,0,0,0-.75-2.91C112,24.81,111.45,23.87,111.52,23.84Z"/><path class="cls-4" d="M40.68,42a3.37,3.37,0,0,1-.41-.59,5.32,5.32,0,0,1-.41-.74,9,9,0,0,1-.48-1,15.71,15.71,0,0,1-.86-2.79,18,18,0,0,1-.34-3.56,17.08,17.08,0,0,1,.44-3.56A15,15,0,0,1,39.55,27c.16-.39.35-.71.5-1a6.72,6.72,0,0,1,.44-.72c.25-.39.4-.6.43-.58s-.51.89-1.13,2.41a16.25,16.25,0,0,0-.85,2.74,18.68,18.68,0,0,0-.4,3.48,19.1,19.1,0,0,0,.3,3.5,17.24,17.24,0,0,0,.78,2.76C40.2,41.12,40.74,42,40.68,42Z"/><path class="cls-4" d="M31.13,44.18a4.22,4.22,0,0,1-.46-.67,8.33,8.33,0,0,1-.46-.83,12.47,12.47,0,0,1-.53-1.14,18.57,18.57,0,0,1-1-3.13,21.88,21.88,0,0,1-.49-4,20.31,20.31,0,0,1,.32-4,18,18,0,0,1,.87-3.16c.15-.45.34-.83.48-1.17a9.45,9.45,0,0,1,.43-.85,3.49,3.49,0,0,1,.42-.69c.07,0-.5,1-1.09,2.79a20.76,20.76,0,0,0-.79,3.14,23.23,23.23,0,0,0-.29,3.94A22.27,22.27,0,0,0,29,38.34a20,20,0,0,0,.92,3.1C30.58,43.16,31.19,44.14,31.13,44.18Z"/><path class="cls-3" d="M112.18,69.13V86.07H79.41V69.13Z"/><path class="cls-4" d="M6.36,77.76c0,.15,0,.3,0,.45a9.69,9.69,0,0,0,9.74,9.08H113.7V86.07H90.54a8.47,8.47,0,0,1-8.47-8.47h0a8.47,8.47,0,0,1,8.47-8.47H113.7V67.34l-97.6.33A9.76,9.76,0,0,0,6.36,77.76Z"/><path class="cls-4" d="M112.18,77.83c0,.1-6.74.18-15.05.18s-15-.08-15-.18,6.74-.18,15-.18S112.18,77.73,112.18,77.83Z"/><path class="cls-4" d="M111.7,81.64c0,.1-6.37.18-14.24.18s-14.23-.08-14.23-.18,6.37-.18,14.23-.18S111.7,81.54,111.7,81.64Z"/><path class="cls-4" d="M112.18,85.13c0,.1-5.74.18-12.8.18s-12.8-.08-12.8-.18S92.31,85,99.38,85,112.18,85,112.18,85.13Z"/><path class="cls-4" d="M112.18,74.4c0,.1-6.6.18-14.74.18S82.7,74.5,82.7,74.4s6.6-.18,14.74-.18S112.18,74.3,112.18,74.4Z"/><path class="cls-4" d="M111.7,71c0,.1-5.87.18-13.12.18S85.47,71.07,85.47,71s5.87-.18,13.11-.18S111.7,70.87,111.7,71Z"/><path class="cls-5" d="M18.18,68a22.49,22.49,0,0,0-2.07,2.46,12.53,12.53,0,0,0,.17,14.51,22.39,22.39,0,0,0,2.13,2.42,3.57,3.57,0,0,1-.7-.52,10.29,10.29,0,0,1-1.63-1.75,12.32,12.32,0,0,1-.18-14.8,11.27,11.27,0,0,1,1.59-1.78A3.15,3.15,0,0,1,18.18,68Z"/><path class="cls-5" d="M14.88,67.59a22.49,22.49,0,0,0-2.07,2.46A12.53,12.53,0,0,0,13,84.56,22.39,22.39,0,0,0,15.11,87a4.2,4.2,0,0,1-.7-.52,10.29,10.29,0,0,1-1.63-1.75,12.32,12.32,0,0,1-.18-14.8,11.91,11.91,0,0,1,1.59-1.79A3.26,3.26,0,0,1,14.88,67.59Z"/><path class="cls-5" d="M81.18,68a22.49,22.49,0,0,0-2.07,2.46,12.53,12.53,0,0,0,.17,14.51,23.81,23.81,0,0,0,2.13,2.42,3.57,3.57,0,0,1-.7-.52,10.71,10.71,0,0,1-1.63-1.75,12.36,12.36,0,0,1-.18-14.8,11.27,11.27,0,0,1,1.59-1.78A3.15,3.15,0,0,1,81.18,68Z"/><path class="cls-5" d="M77.88,67.59a22.49,22.49,0,0,0-2.07,2.46A12.53,12.53,0,0,0,76,84.56,23.81,23.81,0,0,0,78.11,87a4.2,4.2,0,0,1-.7-.52,10.71,10.71,0,0,1-1.63-1.75,12.36,12.36,0,0,1-.18-14.8,11.91,11.91,0,0,1,1.59-1.79A3.26,3.26,0,0,1,77.88,67.59Z"/><path class="cls-5" d="M29.29,80.14l-.1-6.89A5,5,0,0,0,29,71.48a1.65,1.65,0,0,0-1.31-1.1c-.86-.39-2.2.33-2.8,1.33a6.45,6.45,0,0,0-.68,3.37,49.41,49.41,0,0,0,.26,5.44A6.24,6.24,0,0,0,25.06,83a2.32,2.32,0,0,0,2.1,1.26A2.33,2.33,0,0,0,29,82.68,7,7,0,0,0,29.29,80.14Z"/><path class="cls-5" d="M67.18,78.16c0,.1-7.05.18-15.75.18s-15.76-.08-15.76-.18S42.73,78,51.43,78,67.18,78.06,67.18,78.16Z"/><polygon class="cls-5" points="22.75 67.27 22.57 51.22 31.3 51.22 31.61 67.27 22.75 67.27"/><path class="cls-4" d="M30.79,54.08a23,23,0,0,1-4.06.18,23,23,0,0,1-4.06-.18,23,23,0,0,1,4.06-.18A23,23,0,0,1,30.79,54.08Z"/><path class="cls-4" d="M30.79,56.55a23,23,0,0,1-4.06.18,23,23,0,0,1-4.06-.18,24.93,24.93,0,0,1,4.06-.17A24.93,24.93,0,0,1,30.79,56.55Z"/><path class="cls-4" d="M30.79,59a23,23,0,0,1-4.06.18A23,23,0,0,1,22.67,59a23,23,0,0,1,4.06-.18A23,23,0,0,1,30.79,59Z"/><path class="cls-4" d="M30.79,61.51a23,23,0,0,1-4.06.18,23,23,0,0,1-4.06-.18,23,23,0,0,1,4.06-.18A23,23,0,0,1,30.79,61.51Z"/><path class="cls-4" d="M30.79,64a23,23,0,0,1-4.06.18A23,23,0,0,1,22.67,64a23,23,0,0,1,4.06-.18A23,23,0,0,1,30.79,64Z"/><path class="cls-3" d="M22.11,50.8h96.82a45.35,45.35,0,0,1,0,17.35H22.52V67h5.89a2.78,2.78,0,0,0,2.78-2.79v-9.6a2.78,2.78,0,0,0-2.78-2.78h-6.3Z"/><path class="cls-6" d="M45,59.48h1.61a.41.41,0,0,1,.18.05.32.32,0,0,1,.17.3.31.31,0,0,1,0,.1c0,.14-.07.28-.11.42a4.79,4.79,0,0,1-1,1.82,1.92,1.92,0,0,1-1.38.72l-.2,0a1.57,1.57,0,0,1-1.1-.79,3.66,3.66,0,0,1-.48-1.95,5.53,5.53,0,0,1,.19-1.38,4.67,4.67,0,0,1,1-1.87,2,2,0,0,1,1.46-.78,1.4,1.4,0,0,1,.61.14,2,2,0,0,1,.94,1.18.32.32,0,0,1,0,.16.39.39,0,0,1,0,.18.34.34,0,0,1-.3.17l-.11,0a.31.31,0,0,1-.22-.22l0,0a1.52,1.52,0,0,0-.2-.38.91.91,0,0,0-.77-.46.86.86,0,0,0-.53.19,2.93,2.93,0,0,0-.89,1.27,4.87,4.87,0,0,0-.38,1.82,3.24,3.24,0,0,0,.28,1.44.94.94,0,0,0,.84.63,1.15,1.15,0,0,0,.78-.47,4.31,4.31,0,0,0,.83-1.5H45a.39.39,0,0,1-.38-.4.2.2,0,0,1,0-.11A.38.38,0,0,1,45,59.48Z"/><path class="cls-6" d="M50.49,56.33a.73.73,0,0,1,0,.12q.1.34,1.14,6a.19.19,0,0,1,0,.08.39.39,0,0,1,0,.18.33.33,0,0,1-.29.18H51.3a.31.31,0,0,1-.27-.24l-.38-2h-2l-1,2a.21.21,0,0,1,0,.07.39.39,0,0,1-.3.17.33.33,0,0,1-.19-.06.35.35,0,0,1-.16-.29.19.19,0,0,1,0-.1l.29-.66q2.1-4.56,2.5-5.38a.4.4,0,0,1,.34-.25A.37.37,0,0,1,50.49,56.33Zm-.43,1.34L49,59.93H50.5Z"/><path class="cls-6" d="M55.89,62.89H53a.33.33,0,0,1-.19-.06.55.55,0,0,1-.17-.36h0q0-.18.81-6a.51.51,0,0,1,0-.13.31.31,0,0,1,.31-.21.29.29,0,0,1,.16,0,.31.31,0,0,1,.18.3c0,.27-.09.81-.19,1.64-.34,2.55-.51,3.9-.53,4h2.48a.58.58,0,0,1,.19,0,.33.33,0,0,1,.22.33.37.37,0,0,1,0,.11A.41.41,0,0,1,55.89,62.89Z"/><path class="cls-6" d="M59.89,56.33s0,.07,0,.12q.1.34,1.14,6a.19.19,0,0,1,0,.08.39.39,0,0,1,0,.18.33.33,0,0,1-.29.18h-.06a.3.3,0,0,1-.26-.24l-.39-2h-2l-1,2a.11.11,0,0,1,0,.07.39.39,0,0,1-.3.17.35.35,0,0,1-.19-.06.34.34,0,0,1-.15-.29.18.18,0,0,1,0-.1l.29-.66q2.1-4.56,2.5-5.38a.4.4,0,0,1,.34-.25A.41.41,0,0,1,59.89,56.33Zm-.44,1.34-1.07,2.26h1.51Z"/><path class="cls-6" d="M64.53,59.77l.53,1.46c.3.84.45,1.27.45,1.32a.31.31,0,0,1-.05.18.35.35,0,0,1-.29.16.32.32,0,0,1-.29-.24.64.64,0,0,0-.06-.14c-.16-.37-.42-1-.78-2.06L62.39,62.7a.42.42,0,0,1-.31.19.41.41,0,0,1-.18,0,.32.32,0,0,1-.16-.29v-.08a1.1,1.1,0,0,1,.17-.28c.56-.71,1.17-1.56,1.84-2.55l-.2-.55q-.93-2.51-.93-2.58a.34.34,0,0,1,0-.18.3.3,0,0,1,.28-.18.37.37,0,0,1,.33.2l1,2.62,2-2.65a.4.4,0,0,1,.31-.16.29.29,0,0,1,.16,0,.32.32,0,0,1,.17.31.34.34,0,0,1,0,.16Z"/><path class="cls-6" d="M71.76,56.18a.32.32,0,0,1,.16,0,.33.33,0,0,1,.18.3c-.47,3.77-.74,5.81-.79,6.11a3.63,3.63,0,0,1-.62,1.59,2.27,2.27,0,0,1-1.94,1,2.32,2.32,0,0,1-.93-.25,2.06,2.06,0,0,1-1-.9.35.35,0,0,1,0-.17.41.41,0,0,1,0-.18.34.34,0,0,1,.3-.17.33.33,0,0,1,.26.14,1.85,1.85,0,0,0,1.5.85A1.49,1.49,0,0,0,70,63.91a3.22,3.22,0,0,0,.64-1.83,1.71,1.71,0,0,1-.43.46,1.83,1.83,0,0,1-1,.34H69a1.57,1.57,0,0,1-1.11-.8,3.57,3.57,0,0,1-.49-2c0-.35,0-.71,0-1.09,0-.59.19-1.43.39-2.51a.3.3,0,0,1,0-.1.32.32,0,0,1,.31-.24.35.35,0,0,1,.17,0,.32.32,0,0,1,.17.28,11.85,11.85,0,0,1-.16,1.33,19.09,19.09,0,0,0-.23,2,4.17,4.17,0,0,0,.26,1.58c.2.47.49.71.87.71h.11a1.59,1.59,0,0,0,.88-.7A4.37,4.37,0,0,0,71,59.84l.44-3.33a.57.57,0,0,1,0-.14A.33.33,0,0,1,71.76,56.18Z"/><path class="cls-5" d="M115.3,68.37c-.1,0-.18-4-.18-8.9s.08-8.9.18-8.9.18,4,.18,8.9S115.4,68.37,115.3,68.37Z"/><path class="cls-4" d="M36.06,68.37c-.1,0-.18-4-.18-8.9s.08-8.9.18-8.9.18,4,.18,8.9S36.16,68.37,36.06,68.37Z"/><path class="cls-5" d="M117,68.37c-.1,0-.18-4-.18-8.9s.08-8.9.18-8.9.18,4,.18,8.9S117.1,68.37,117,68.37Z"/><path class="cls-4" d="M34.47,68.37c-.1,0-.18-4-.18-8.9s.08-8.9.18-8.9.18,4,.18,8.9S34.57,68.37,34.47,68.37Z"/><path class="cls-4" d="M91.82,53.5l0,0L102,61.73l.09.07-.11,0-1.37.36L92,64.46h0l-7.83-3.33-2.22-1-.58-.25-.15-.07,0,0s0,0,0,0l.15.06.6.24,2.22.93L92,64.36h0l8.63-2.28,1.37-.36,0,.1L91.75,53.54h0v0"/><polygon class="cls-4" points="101.11 60.44 101.67 60.97 102.42 60.81 102.09 61.5 102.48 62.16 101.72 62.07 101.21 62.64 101.06 61.88 100.36 61.58 101.03 61.21 101.11 60.44"/><polygon class="cls-4" points="91.3 63.7 91.68 64.02 92.15 63.88 91.97 64.34 92.25 64.75 91.75 64.72 91.44 65.11 91.32 64.63 90.86 64.46 91.28 64.19 91.3 63.7"/><polygon class="cls-4" points="80.45 59.25 81.06 59.29 81.44 58.81 81.59 59.4 82.16 59.61 81.64 59.93 81.62 60.54 81.15 60.15 80.57 60.32 80.79 59.75 80.45 59.25"/><polygon class="cls-4" points="105.7 53.63 106.31 53.67 106.68 53.19 106.84 53.78 107.41 53.99 106.89 54.32 106.87 54.93 106.4 54.54 105.82 54.7 106.04 54.14 105.7 53.63"/><polygon class="cls-4" points="91.32 53.23 91.71 53.26 91.95 52.95 92.05 53.33 92.41 53.46 92.08 53.67 92.07 54.06 91.77 53.81 91.4 53.92 91.54 53.56 91.32 53.23"/><path class="cls-4" d="M106.55,54.06s-3.31-.07-7.39-.25-7.39-.34-7.39-.38,3.31.07,7.4.24S106.56,54,106.55,54.06Z"/><path class="cls-4" d="M110.27,50.65H12.07c-1.29-2.92-1.6-5.69,0-8.18h98.2A9.48,9.48,0,0,1,110.27,50.65Z"/><rect class="cls-3" x="32.4" y="44.81" width="53.2" height="2.97"/><path class="cls-4" d="M15.84,50.69a2.82,2.82,0,0,1-.78-1,7.17,7.17,0,0,1-.52-5.91,2.88,2.88,0,0,1,.59-1.11,7.62,7.62,0,0,1-.35,1.18,8.47,8.47,0,0,0-.26,2.91,8.29,8.29,0,0,0,.77,2.82C15.61,50.27,15.88,50.66,15.84,50.69Z"/><path class="cls-4" d="M18,50.69a2.75,2.75,0,0,1-.77-1,7.17,7.17,0,0,1-.52-5.91,2.73,2.73,0,0,1,.59-1.11,9.31,9.31,0,0,1-.35,1.18,8.33,8.33,0,0,0,.5,5.73A9.94,9.94,0,0,1,18,50.69Z"/><path class="cls-5" d="M106.3,50.5a17.1,17.1,0,0,0,.69-4,17,17,0,0,0-.64-4,7.23,7.23,0,0,1,1,4A7.13,7.13,0,0,1,106.3,50.5Z"/><path class="cls-5" d="M104.47,50.48c-.11,0,.31-1.75.3-3.91s-.42-3.89-.31-3.92a9.5,9.5,0,0,1,.66,3.92A9.57,9.57,0,0,1,104.47,50.48Z"/><polygon class="cls-4" points="146.8 0 214.19 0 214.19 87.94 147.26 87.94 146.8 0"/><rect class="cls-7" x="141.91" y="0.43" width="67" height="87.05" transform="translate(350.81 87.91) rotate(180)"/><path class="cls-4" d="M209.24.1V87.81H141.57V.1Zm-.66,87.05V.76H142.24V87.15Z"/><rect class="cls-7" x="148.89" y="9.87" width="51.3" height="68.19"/><path class="cls-4" d="M148.79,9.86s0,.11,0,.33,0,.54,0,1c0,.85,0,2.1,0,3.71,0,3.25,0,8,0,14,0,12,0,29,.08,49.2l-.16-.16h51.3l-.17.17c0-25.39,0-48.93,0-68.19l.14.14-37.25-.07-10.37,0-2.73,0h-1l.92,0h2.7l10.34,0,37.34-.07h.14v.14c0,19.26,0,42.8,0,68.19v.17H148.63v-.16c0-20.22.06-37.29.08-49.3,0-6,0-10.71,0-13.95,0-1.61,0-2.84,0-3.69,0-.41,0-.72,0-.94S148.79,9.86,148.79,9.86Z"/><path class="cls-4" d="M141.75,87.48a8.39,8.39,0,0,1,.9-1.47c.6-.89,1.44-2.1,2.41-3.4s1.88-2.47,2.56-3.29a8,8,0,0,1,1.17-1.27,8.35,8.35,0,0,1-1,1.42l-2.47,3.34c-.94,1.25-1.78,2.39-2.49,3.34A8,8,0,0,1,141.75,87.48Z"/><path class="cls-4" d="M141.9.43A49.2,49.2,0,0,1,145.49,5a48.84,48.84,0,0,1,3.3,4.82,48.57,48.57,0,0,1-3.58-4.61A52.46,52.46,0,0,1,141.9.43Z"/><line class="cls-7" x1="208.91" y1="0.43" x2="200.09" y2="10.21"/><path class="cls-4" d="M200.09,10.21a60,60,0,0,1,4.28-5A64.42,64.42,0,0,1,208.91.43a61.38,61.38,0,0,1-4.28,5C202.19,8.13,200.16,10.27,200.09,10.21Z"/><path class="cls-4" d="M208.91,87.48a58.51,58.51,0,0,1-4.34-4.55,55.34,55.34,0,0,1-4.08-4.78,56.38,56.38,0,0,1,4.34,4.55A56.16,56.16,0,0,1,208.91,87.48Z"/><path class="cls-4" d="M151.24,78.05S156.77,61,160,59.13a31.55,31.55,0,0,1,14.41-3.9c7.59-.06,11.21.5,15.67,3.56,5.14,3.54,8.62,19.09,8.62,19.09"/><path class="cls-4" d="M166.55,27.13c-4.72.21-5.87,6.54-5.55,10.16.15,1.71.67,3.57-.19,5.06-.61,1-1.82,1.69-2.33,2.79-.62,1.35,0,2.9.43,4.31s.64,3.2-.49,4.16a41.28,41.28,0,0,0,8.14,1.53,13.71,13.71,0,0,0,8-1.78"/><path class="cls-4" d="M163.18,39.77c-3.11-7.13,1.11-11.49,3.87-13.05a11.47,11.47,0,0,1,5.47-1.19,20.29,20.29,0,0,1,5.55.49,10,10,0,0,1,4.81,2.7c2.26,2.41,2.79,6,2.59,9.28a26,26,0,0,1-3.26,11.12,2.76,2.76,0,0,1-1,1.12,1,1,0,0,1-1.34-.23"/><path class="cls-5" d="M173.69,64.24c3.2.22,6-2.53,6.33-7.46l1.71-25.08-.12,1.73a2,2,0,0,0-1.8-2l-9.95-1A6,6,0,0,0,163.21,36a61.13,61.13,0,0,0,.1,11.33c.93,5.73,5.32,6.45,5.32,6.45L168.29,58a5.8,5.8,0,0,0,5.4,6.28Z"/><path class="cls-4" d="M165.12,39.26a.72.72,0,0,0,.71.74.7.7,0,0,0,.75-.67.74.74,0,0,0-.71-.74A.7.7,0,0,0,165.12,39.26Z"/><path class="cls-4" d="M164.23,38.45c.09.1.65-.31,1.44-.31s1.37.39,1.45.29-.05-.21-.3-.4a2,2,0,0,0-1.17-.35,1.88,1.88,0,0,0-1.14.37C164.27,38.24,164.18,38.41,164.23,38.45Z"/><path class="cls-4" d="M172.71,39.26a.74.74,0,0,0,.71.74.72.72,0,0,0,.76-.67.75.75,0,0,0-.71-.74A.71.71,0,0,0,172.71,39.26Z"/><path class="cls-4" d="M172,38.58c.09.09.65-.32,1.44-.32s1.37.39,1.45.3,0-.22-.3-.4a2.05,2.05,0,0,0-1.17-.36,2,2,0,0,0-1.14.37C172,38.36,172,38.54,172,38.58Z"/><path class="cls-4" d="M169.15,44.45a5,5,0,0,0-1.29-.23c-.2,0-.39-.06-.42-.2a1,1,0,0,1,.13-.59c.19-.49.38-1,.59-1.54a26.65,26.65,0,0,0,1.33-4,26.22,26.22,0,0,0-1.65,3.91l-.57,1.55a1.22,1.22,0,0,0-.1.79.5.5,0,0,0,.33.29,1.18,1.18,0,0,0,.35.05A5.56,5.56,0,0,0,169.15,44.45Z"/><path class="cls-3" d="M168.63,53.81a14.68,14.68,0,0,0,7.67-2.07s-2.05,4-7.78,3.45Z"/><path class="cls-4" d="M169.49,46.35a1.43,1.43,0,0,1,1.27-.53,1.3,1.3,0,0,1,.9.48.82.82,0,0,1,.07.94,1,1,0,0,1-1,.27,3.26,3.26,0,0,1-1-.6,1.05,1.05,0,0,1-.23-.24.28.28,0,0,1,0-.29"/><path class="cls-4" d="M171.48,45c-.13,0-.13.85-.86,1.46S169,47,169,47.09s.21.17.59.18a2.1,2.1,0,0,0,1.38-.49,1.85,1.85,0,0,0,.67-1.22C171.63,45.2,171.54,45,171.48,45Z"/><path class="cls-4" d="M171.64,37.2c.08.21.87.11,1.8.21s1.68.36,1.8.17-.08-.29-.38-.5a3.16,3.16,0,0,0-2.74-.29C171.78,36.92,171.61,37.09,171.64,37.2Z"/><path class="cls-4" d="M164.51,36.16c.14.18.69,0,1.34,0s1.21.11,1.34-.08,0-.27-.28-.44a2,2,0,0,0-1.09-.29,1.83,1.83,0,0,0-1.06.37C164.53,35.89,164.45,36.08,164.51,36.16Z"/><path class="cls-4" d="M167.68,26.38c5.55-3.12,11.51-.94,16,3.57a11.24,11.24,0,0,0,3.17,2.72c1.39.59,3.25.5,4.08,1.77,1,1.48-.34,3.57.37,5.2s2.7,1.93,3.47,3.37c.6,1.13.22,2.51-.06,3.75s-.39,2.76.55,3.63l-11.94,4.53a3,3,0,0,1-1.68.18c-1.7-.33-1.82-1.9-1.66-3.2A5.33,5.33,0,0,0,179.9,49c-.48-1-1.72-1.62-2.15-2.69-.77-1.89,1.36-3.85,1.11-5.88a3.8,3.8,0,0,0-2.43-2.75,35.66,35.66,0,0,0-3.7-1.07,11.06,11.06,0,0,1-6.33-6.35,3.09,3.09,0,0,1,1.28-3.89Z"/><rect class="cls-4" x="407.47" y="30.37" width="107.43" height="111.99"/><rect class="cls-6" x="400.2" y="30.37" width="107.43" height="111.99"/><path class="cls-4" d="M507.66,142.39H400.16v-112h107.5Zm-107.43-.07H507.59V30.4H400.23Z"/><rect class="cls-7" x="414.64" y="45.42" width="78.55" height="81.88"/><path class="cls-4" d="M414.64,127.85a13.32,13.32,0,0,1-1.94,2.25c-1.26,1.33-3,3.12-5,5.06s-3.8,3.68-5.14,4.91a12.35,12.35,0,0,1-2.27,1.9,13.36,13.36,0,0,1,1.93-2.25c1.26-1.32,3-3.12,5-5.07s3.8-3.69,5.14-4.92A12,12,0,0,1,414.64,127.85Z"/><path class="cls-4" d="M493.19,127.65a12.37,12.37,0,0,1,2.25,1.93c1.32,1.26,3.11,3,5.06,5s3.68,3.79,4.91,5.13A12.37,12.37,0,0,1,507.3,142a12.43,12.43,0,0,1-2.24-1.93c-1.32-1.25-3.12-3-5.07-5s-3.69-3.8-4.92-5.14A12,12,0,0,1,493.19,127.65Z"/><path class="cls-4" d="M493,45.64a13.32,13.32,0,0,1,1.94-2.25c1.25-1.33,3-3.12,5-5.06s3.79-3.68,5.13-4.92a13.36,13.36,0,0,1,2.27-1.89,12.4,12.4,0,0,1-1.92,2.25c-1.26,1.32-3,3.12-5,5.07s-3.8,3.69-5.14,4.92A12.57,12.57,0,0,1,493,45.64Z"/><path class="cls-4" d="M414.42,45.84a12.75,12.75,0,0,1-2.25-1.94c-1.33-1.25-3.12-3-5.06-5s-3.68-3.79-4.91-5.13a12.75,12.75,0,0,1-1.9-2.27,12.25,12.25,0,0,1,2.25,1.93c1.32,1.25,3.12,3,5.07,5s3.69,3.8,4.92,5.14A12,12,0,0,1,414.42,45.84Z"/><path class="cls-4" d="M493,127.3s0-.14,0-.39,0-.66,0-1.15c0-1,0-2.5,0-4.42,0-3.88,0-9.52-.08-16.69,0-14.34-.09-34.77-.15-59.23l.3.31-78.32,0h0l.35-.35c0,30.06,0,58.17-.05,81.88l-.3-.3,56.72.16,15.93.08,4.21,0,1.09,0H493a2,2,0,0,1-.34,0l-1.06,0-4.16,0-15.86.08-56.91.15h-.3v-.3c0-23.71,0-51.82,0-81.88v-.34h.36l78.32,0h.3v.3c-.06,24.54-.11,45-.15,59.43,0,7.14-.06,12.76-.08,16.62,0,1.89,0,3.35,0,4.36,0,.47,0,.84,0,1.11A2.13,2.13,0,0,1,493,127.3Z"/><path class="cls-5" d="M470.17,70.41a29.43,29.43,0,0,0-29.58-3.72s-1.47,19.45-1.37,27.92,8.58,9.79,8.58,9.79l0,9.18,20.59.77,3.08-43Z"/><path class="cls-4" d="M447.79,104.28a19.64,19.64,0,0,0,11-3.14s-2.61,6.1-11.06,5.34Z"/><path class="cls-5" d="M470.38,80.15c.15-.06,5.82-1.72,5.64,4.07s-6,4.41-6,4.24S470.38,80.15,470.38,80.15Z"/><path class="cls-4" d="M471.89,86.33s.1.07.27.15a.93.93,0,0,0,.75,0,2.49,2.49,0,0,0,1.23-2.2,3.24,3.24,0,0,0-.24-1.45,1.16,1.16,0,0,0-.73-.8.51.51,0,0,0-.61.26c-.08.15-.05.27-.08.28s-.12-.1-.06-.34a.59.59,0,0,1,.24-.35.74.74,0,0,1,.56-.13,1.41,1.41,0,0,1,1,.93,3.29,3.29,0,0,1,.3,1.62A2.61,2.61,0,0,1,473,86.8a1.11,1.11,0,0,1-.92-.18C471.9,86.47,471.87,86.34,471.89,86.33Z"/><path class="cls-4" d="M443.36,79.72a1.21,1.21,0,0,0,1.17,1.22,1.16,1.16,0,0,0,1.25-1.09,1.21,1.21,0,0,0-1.17-1.22A1.16,1.16,0,0,0,443.36,79.72Z"/><path class="cls-4" d="M442.19,78.61c.15.15,1.07-.52,2.37-.52s2.25.65,2.39.49-.08-.35-.5-.65a3.29,3.29,0,0,0-3.8,0C442.25,78.25,442.11,78.54,442.19,78.61Z"/><path class="cls-4" d="M456.16,80.27a1.21,1.21,0,0,0,1.17,1.22,1.15,1.15,0,0,0,1.24-1.09,1.21,1.21,0,0,0-1.16-1.22A1.15,1.15,0,0,0,456.16,80.27Z"/><path class="cls-4" d="M455,78.85c.15.16,1.06-.52,2.36-.52s2.26.66,2.4.5-.08-.36-.5-.66a3.29,3.29,0,0,0-1.92-.59,3.11,3.11,0,0,0-1.88.61C455.05,78.49,454.91,78.78,455,78.85Z"/><path class="cls-4" d="M450.26,88.5a8.94,8.94,0,0,0-2.11-.38c-.34,0-.65-.1-.71-.32a1.63,1.63,0,0,1,.23-1c.31-.8.63-1.65,1-2.53a45.61,45.61,0,0,0,2.21-6.62,42.9,42.9,0,0,0-2.74,6.42l-.94,2.55a1.91,1.91,0,0,0-.17,1.31.83.83,0,0,0,.54.48,2.1,2.1,0,0,0,.57.08A8,8,0,0,0,450.26,88.5Z"/><path class="cls-4" d="M454.65,73.75c.13.35,1.43.18,3,.37s2.76.6,3,.28c.09-.15-.12-.48-.62-.83a4.93,4.93,0,0,0-2.2-.77,5,5,0,0,0-2.31.27C454.88,73.3,454.59,73.58,454.65,73.75Z"/><path class="cls-4" d="M442.67,74.84c.23.29,1.12,0,2.2,0s2,.2,2.2-.11c.1-.15-.05-.44-.45-.72a3.19,3.19,0,0,0-3.55.1C442.69,74.39,442.57,74.69,442.67,74.84Z"/><path class="cls-4" d="M436.46,61.34a3.12,3.12,0,0,1,1.15-2.79,2.23,2.23,0,0,1,2.88.21,2.59,2.59,0,0,1,2.22-3.14c1.38-.09,2.56,1,3.9,1.32a6.29,6.29,0,0,0,3.95-.45c1.26-.51,2.43-1.21,3.7-1.67a10.83,10.83,0,0,1,13.85,6.36,4.8,4.8,0,0,1,5.1,1.93,7.84,7.84,0,0,1,1.21,5.56,17.39,17.39,0,0,1-1,3.8c0,.11,0,.22,0,.33-.08,4.66-.61,10.13-2.6,10.16-3.46.05-2.64-6.48-2.64-6.48-4.25-1.64-2.66-8-3.73-9s-3.28-3.21-12.19,1.33A17.21,17.21,0,0,1,441.74,70l-.22,0h0l-.07,0a8,8,0,0,1-2.28-1,4.55,4.55,0,0,1-1.89-2.09,2.47,2.47,0,0,1,.49-2.65A5.42,5.42,0,0,1,436.46,61.34Z"/><path class="cls-4" d="M450.27,94.81a4.07,4.07,0,0,0,1.49-.19,2.09,2.09,0,0,0,1.13-1,2.28,2.28,0,0,0,0-1.83,2.91,2.91,0,0,0-.25-.42c-.11-.11-.09-.11-.21-.09s-.3.12-.45.18l-.46.18c-.59.25-1.14.46-1.59.63a5.45,5.45,0,0,1-1.52.46,4.81,4.81,0,0,1,1.38-.79l1.55-.72.46-.2a3.78,3.78,0,0,1,.51-.21.64.64,0,0,1,.41,0,.8.8,0,0,1,.31.24,2.82,2.82,0,0,1,.31.53,2.64,2.64,0,0,1-.08,2.24A2.42,2.42,0,0,1,451.88,95a2.29,2.29,0,0,1-1.21,0C450.39,94.93,450.26,94.84,450.27,94.81Z"/><path class="cls-8" d="M322.6,241.93a13.82,13.82,0,0,1,13.47-11.61c29.15-.39,103.37-1.06,107.36,2.1,5,3.94,7.55,6,7.16,12.21-.36,5.74-6.62,104.89-6.62,104.89H305.07Z"/><path class="cls-9" d="M428.15,349.57a2.8,2.8,0,0,1,0-.29c0-.21,0-.5-.07-.86-.06-.78-.14-1.89-.24-3.3s-.22-3.2-.29-5.24-.2-4.37-.2-6.95c0-1.29,0-2.64-.05-4s0-2.87.06-4.38c0-3,.17-6.26.32-9.66.38-6.8,1-14.27,2.07-22.06s2.45-15.16,3.89-21.81c.77-3.32,1.48-6.48,2.28-9.4.38-1.47.73-2.89,1.12-4.24l1.12-3.88c.69-2.48,1.44-4.69,2.05-6.64s1.19-3.62,1.68-5,.85-2.38,1.11-3.12l.3-.81a1.23,1.23,0,0,1,.12-.27,1.62,1.62,0,0,1-.07.29c-.07.2-.15.48-.26.82-.25.74-.6,1.8-1,3.15s-1,3-1.6,5-1.32,4.17-2,6.65l-1.1,3.89c-.37,1.35-.71,2.77-1.09,4.24-.78,2.92-1.47,6.08-2.23,9.39-1.42,6.66-2.78,14-3.86,21.79s-1.69,15.23-2.1,22c-.15,3.39-.33,6.62-.36,9.65,0,1.51-.08,3-.08,4.37s0,2.75,0,4c0,2.57.09,4.9.14,6.94s.13,3.8.21,5.24.12,2.52.16,3.31c0,.36,0,.64,0,.86A1.29,1.29,0,0,1,428.15,349.57Z"/><path class="cls-9" d="M350,280.22s.07,0,.21-.08a2.33,2.33,0,0,1,.65,0,3,3,0,0,1,2,1.21,3.33,3.33,0,0,1,.2,3.46,4.26,4.26,0,0,1-1.35,1.62,4.16,4.16,0,0,1-2.16.75,3.47,3.47,0,0,1-2.21-.57,2.78,2.78,0,0,1-1.15-1.81,3.78,3.78,0,0,1,1.06-3.33c1.56-1.33,2.94-1.37,2.91-1.24s-.07,0-.21,0a3.13,3.13,0,0,0-.59.2,5.85,5.85,0,0,0-1.89,1.23,3.48,3.48,0,0,0-.88,3,2.41,2.41,0,0,0,1,1.53,3,3,0,0,0,2,.49,3.69,3.69,0,0,0,1.93-.66,4,4,0,0,0,1.24-1.45,3,3,0,0,0-.09-3.1,2.89,2.89,0,0,0-1.81-1.22C350.35,280.18,350,280.27,350,280.22Z"/><path class="cls-9" d="M371.83,267.63a34.9,34.9,0,0,0-3.74,0,17.11,17.11,0,0,0-14,9.81c-1,2.09-1.22,3.52-1.31,3.5a3.42,3.42,0,0,1,.16-1,15.4,15.4,0,0,1,.87-2.62,16.64,16.64,0,0,1,14.27-10,15.27,15.27,0,0,1,2.76.07A3.92,3.92,0,0,1,371.83,267.63Z"/><path class="cls-9" d="M331.54,293.43a2.14,2.14,0,0,1,.32-.72,11.43,11.43,0,0,1,1.22-1.76,13,13,0,0,1,12.82-4.37,11.49,11.49,0,0,1,2,.65,2.2,2.2,0,0,1,.7.37c0,.07-1.05-.4-2.8-.71a13.52,13.52,0,0,0-12.52,4.27C332.12,292.47,331.61,293.47,331.54,293.43Z"/><path class="cls-9" d="M358.42,296.88a5.3,5.3,0,0,1-1.43-1,16,16,0,0,1-4.56-7.11,5.18,5.18,0,0,1-.35-1.72,32.44,32.44,0,0,0,2.52,5.35A31.54,31.54,0,0,0,358.42,296.88Z"/><path class="cls-9" d="M397,281.4s.06,0,.21-.08a1.75,1.75,0,0,1,.65,0,2.94,2.94,0,0,1,2,1.2,3.35,3.35,0,0,1,.2,3.46,4.3,4.3,0,0,1-1.36,1.63,4.09,4.09,0,0,1-2.15.75,3.48,3.48,0,0,1-2.21-.58,2.78,2.78,0,0,1-1.15-1.81,3.75,3.75,0,0,1,1.06-3.32c1.56-1.33,2.94-1.38,2.91-1.25s-.07,0-.21,0a4.08,4.08,0,0,0-.59.2,5.85,5.85,0,0,0-1.89,1.23,3.51,3.51,0,0,0-.89,3,2.48,2.48,0,0,0,1,1.54,3.15,3.15,0,0,0,1.95.49,3.84,3.84,0,0,0,1.92-.66,4,4,0,0,0,1.25-1.46,3,3,0,0,0-.1-3.1,2.82,2.82,0,0,0-1.8-1.21A6.27,6.27,0,0,0,397,281.4Z"/><path class="cls-9" d="M418.73,268.8c0,.09-1.43-.17-3.73,0a17.1,17.1,0,0,0-14,9.82,35,35,0,0,0-1.31,3.49,3.53,3.53,0,0,1,.15-1,14.23,14.23,0,0,1,.88-2.62,16.62,16.62,0,0,1,14.27-10,14.27,14.27,0,0,1,2.76.08A4,4,0,0,1,418.73,268.8Z"/><path class="cls-9" d="M378.45,294.6a2.34,2.34,0,0,1,.32-.72,11.43,11.43,0,0,1,1.22-1.76,13.26,13.26,0,0,1,5.8-4,13.09,13.09,0,0,1,7-.39,11.62,11.62,0,0,1,2,.64,2.85,2.85,0,0,1,.7.37c0,.08-1.05-.4-2.8-.71a13.52,13.52,0,0,0-12.52,4.27C379,293.64,378.52,294.64,378.45,294.6Z"/><path class="cls-9" d="M405.33,298.05a5.13,5.13,0,0,1-1.43-1,15.86,15.86,0,0,1-4.56-7.1,5.25,5.25,0,0,1-.35-1.73,32,32,0,0,0,2.52,5.35A30.86,30.86,0,0,0,405.33,298.05Z"/><path class="cls-10" d="M455.51,211.2c-37.4-36.94-83.95-45.75-83.95-45.75C343.88,182,325.2,209.66,311,242.92c23.85,22.07,54.52,43.22,80.77,45.17C433.25,277.59,455.51,211.2,455.51,211.2Z"/><g class="cls-11"><path d="M455.51,211.2c-37.4-36.94-83.95-45.75-83.95-45.75C343.88,182,325.2,209.66,311,242.92c23.85,22.07,54.52,43.22,80.77,45.17C433.25,277.59,455.51,211.2,455.51,211.2Z"/></g><path class="cls-10" d="M442.18,240.54a1.1,1.1,0,0,1-.09-.26l-.24-.76c-.21-.69-.51-1.69-.89-3-.77-2.61-1.89-6.4-3.29-11.16l.17.09-18.34,5.94.11-.11a.23.23,0,0,1-.27.16.25.25,0,0,1-.12-.12.44.44,0,0,1,0-.14l0-.19,0-.38v-2.25c0-1,0-2,0-3.08,0-2.08,0-4.23,0-6.43s-.09-4.46-.22-6.76a58.39,58.39,0,0,0-.73-7l.26.17-16.67,3.88-10.16,2.35-.22.05-.05-.22c-1.5-7.88-2.93-15.36-4.25-22.26l.25.15a150.44,150.44,0,0,1-26.63,4.66h-.14v-.13c-.7-5.74-1.26-10.3-1.64-13.45-.18-1.55-.32-2.75-.42-3.58,0-.39-.07-.7-.1-.92s0-.32,0-.32a1.24,1.24,0,0,1,.06.31c0,.22.08.53.14.92.11.83.28,2,.49,3.57.41,3.15,1,7.7,1.76,13.43l-.15-.12a154.62,154.62,0,0,0,26.56-4.76l.2-.06,0,.21c1.33,6.9,2.77,14.39,4.29,22.26l-.26-.17,10.16-2.36,16.68-3.87.22,0,0,.22a59.54,59.54,0,0,1,.72,7c.12,2.31.17,4.57.2,6.77s0,4.36,0,6.44c0,1.05,0,2.07,0,3.08v2.24l0,.36v.21s0,0-.05,0-.08,0-.1.05,0,0,0,0-.1-.06-.1-.06l-.1-.05.21-.07,18.38-5.85.13,0,0,.13c1.35,4.78,2.43,8.58,3.17,11.2.36,1.29.63,2.29.83,3,.08.33.15.58.2.77A1,1,0,0,1,442.18,240.54Z"/><path class="cls-6" d="M435,252.29s0-.06-.09-.2l-.22-.59c-.19-.55-.47-1.32-.83-2.33-.72-2.06-1.77-5.06-3.11-8.87l.15.08-21.86,5.83-.2.06,0-.21c-.52-4-1.1-8.34-1.74-12.89s-1.33-9.33-2.21-14.26l.26.17-16,3.72-10.83,2.51-.22.05-.05-.22c-1.5-7.88-2.93-15.36-4.25-22.26l.25.15a150.59,150.59,0,0,1-26.63,4.66h-.14v-.13c-.7-5.74-1.26-10.3-1.64-13.45-.18-1.55-.32-2.75-.42-3.58,0-.39-.07-.7-.1-.92s0-.32,0-.32a1.24,1.24,0,0,1,.06.31l.14.92c.11.83.28,2,.49,3.57.41,3.14,1,7.7,1.76,13.43l-.15-.12A154.62,154.62,0,0,0,374,202.65l.2-.06,0,.21,4.29,22.26-.26-.17,10.83-2.52,16-3.71.22,0,0,.22c.87,4.94,1.54,9.73,2.18,14.29s1.2,8.87,1.7,12.89l-.23-.15,21.9-5.71.1,0,0,.1,3,8.91.77,2.35.19.6Z"/><path class="cls-10" d="M420.39,270.48s0-.23,0-.69l.17-2c.16-1.81.39-4.43.68-7.79l.14.12-22.67,7.53-.19.06,0-.2c-1.79-9.28-3.9-20.26-6.19-32.14l.26.17-13.87,3.22-13,3-.22.05,0-.22c-1.51-7.89-2.94-15.37-4.25-22.27l.24.15a150.59,150.59,0,0,1-26.63,4.66h-.13l0-.13c-.7-5.75-1.26-10.31-1.64-13.45-.18-1.55-.32-2.75-.42-3.58,0-.39-.07-.7-.09-.92a1.45,1.45,0,0,1,0-.31s0,.1.05.3.08.53.14.92c.11.83.28,2,.49,3.57.41,3.14,1,7.69,1.77,13.43l-.15-.12a152.93,152.93,0,0,0,26.55-4.76l.2-.05.05.21c1.32,6.89,2.76,14.37,4.28,22.26l-.26-.17,13-3,13.87-3.21.22-.05,0,.22c2.27,11.89,4.36,22.87,6.12,32.16l-.23-.14,22.72-7.4.15-.05V260c-.34,3.34-.61,6-.79,7.77-.1.88-.17,1.55-.22,2S420.39,270.48,420.39,270.48Z"/><path class="cls-6" d="M390.22,288s0-.05-.06-.16l-.13-.48-.48-1.87c-.41-1.67-1-4.07-1.75-7.1s-1.61-6.78-2.61-11-2.1-9-3.11-14.27l.24.16-26.84,6.25-.22,0,0-.22c-.14-.74-.29-1.53-.45-2.33-1.33-7-2.61-13.67-3.81-19.94l.26.16a149.16,149.16,0,0,1-26.64,4.66h-.14l0-.14c-.69-5.65-1.24-10.21-1.63-13.38-.18-1.56-.32-2.77-.41-3.62,0-.4-.08-.71-.1-.95a1.54,1.54,0,0,1,0-.32,1.43,1.43,0,0,1,.06.32l.14.93c.12.85.29,2.06.5,3.62.42,3.16,1,7.71,1.76,13.36l-.16-.13a154.09,154.09,0,0,0,26.55-4.76l.22-.06,0,.22c1.21,6.27,2.5,13,3.83,19.94.16.8.31,1.59.45,2.32l-.27-.17,26.85-6.21.2,0,0,.2c1,5.23,2.1,10,3,14.27s1.82,7.95,2.53,11,1.25,5.46,1.64,7.13l.42,1.89.1.48Z"/><path class="cls-10" d="M376,284.93a6.44,6.44,0,0,1-.32-1.17c-.18-.83-.42-1.92-.72-3.25-.59-2.77-1.4-6.63-2.28-11l.26.17-2.52.59c-4.95,1.14-9.43,2.16-12.67,2.87l-3.86.82a8.81,8.81,0,0,1-1.42.25,8.22,8.22,0,0,1,1.39-.41l3.82-1c3.22-.79,7.69-1.85,12.64-3l2.52-.58.22-.05,0,.22c.88,4.38,1.63,8.25,2.15,11l.59,3.28A6.48,6.48,0,0,1,376,284.93Z"/><path class="cls-10" d="M344.84,269.55a6.75,6.75,0,0,1-.32-1.19l-.7-3.28c-.57-2.77-1.33-6.61-2.15-10.86-.05-.26-.1-.52-.14-.76l.27.18c-4,1.08-7.66,1.86-10.3,2.33-1.32.24-2.39.42-3.13.52a5.81,5.81,0,0,1-1.16.11,6.59,6.59,0,0,1,1.13-.27l3.1-.65c2.62-.56,6.25-1.38,10.25-2.47l.22-.06,0,.23c.05.24.09.5.14.76.82,4.24,1.53,8.09,2,10.88.22,1.33.41,2.45.56,3.31A7.2,7.2,0,0,1,344.84,269.55Z"/><path class="cls-10" d="M313.52,245.24a8.57,8.57,0,0,1-.56-2.65,8.34,8.34,0,0,1-.12-2.7,8.46,8.46,0,0,1,.56,2.64A8.77,8.77,0,0,1,313.52,245.24Z"/><path class="cls-6" d="M448.48,228.2s0-.07-.05-.21l-.12-.61c-.11-.57-.25-1.37-.44-2.41-.38-2.13-.92-5.21-1.61-9.11l.14.1-12.76,2-.16,0,0-.17-4.51-27,.25.17-17.41,4.05-8.87,2.05-.21,0-.05-.21c-1.88-7.66-3.63-14.92-4.95-21.61l.22.15-25.9,4-.13,0v-.13c-.5-4.15-.9-7.43-1.17-9.71-.13-1.1-.23-2-.3-2.57q0-.42-.06-.66a.58.58,0,0,1,0-.23,1.73,1.73,0,0,1,0,.22l.1.66c.09.6.21,1.46.36,2.57.3,2.27.74,5.55,1.29,9.69l-.15-.11,25.88-4.12.19,0,0,.19c1.33,6.67,3.1,13.93,5,21.59l-.26-.16,8.86-2.06,17.42-4,.22-.06,0,.22c1.67,10.14,3.18,19.38,4.43,27.05l-.19-.14,12.77-2,.12,0,0,.12c.64,3.92,1.15,7,1.5,9.14.16,1,.29,1.85.38,2.42,0,.26.06.46.08.62S448.49,228.2,448.48,228.2Z"/><path class="cls-9" d="M451.33,210.58l-.23.09-.7.21c-.61.2-1.53.4-2.67.83a55,55,0,0,0-9.39,4.17,65.74,65.74,0,0,0-12.31,9,84.78,84.78,0,0,0-12.22,14.08,126.14,126.14,0,0,0-9.37,16.16c-2.53,5.17-4.57,9.93-6.22,14s-2.94,7.31-3.84,9.57l-1,2.6c-.12.28-.21.5-.28.68a1.14,1.14,0,0,1-.11.22,1.21,1.21,0,0,1,.07-.24l.24-.69,1-2.63c.85-2.28,2.09-5.58,3.71-9.63s3.63-8.83,6.15-14a123.27,123.27,0,0,1,9.37-16.23,83.45,83.45,0,0,1,12.31-14.13,64.32,64.32,0,0,1,12.43-8.92,51.69,51.69,0,0,1,9.48-4.06c1.16-.4,2.09-.58,2.71-.76l.71-.17C451.25,210.58,451.33,210.57,451.33,210.58Z"/><path class="cls-3" d="M183.41,135.68l.12,2.28a2,2,0,0,1,1.25-.54,2,2,0,0,1,.21,3.94,1.91,1.91,0,0,1-1.29-.4l.12,2.28a1.94,1.94,0,0,1,1.24-.54,2,2,0,0,1,.21,4,1.94,1.94,0,0,1-1.29-.41l.12,2.29a1.88,1.88,0,0,1,1.24-.54,2,2,0,1,1-1.08,3.53l.12,2.29a1.93,1.93,0,0,1,1.24-.54,2,2,0,1,1-1.08,3.54l.13,2.28a1.94,1.94,0,0,1,1.24-.54,2,2,0,0,1,.21,3.94,1.86,1.86,0,0,1-1.29-.4l.12,2.28a2,2,0,1,1,.16,3l.07,1.42L246,167.33,243,131.89Z"/><path class="cls-5" d="M182.07,134.22l.12,2.28a2,2,0,1,1,1.45,3.4,1.9,1.9,0,0,1-1.29-.4l.12,2.28a2,2,0,1,1,1.45,3.41,2,2,0,0,1-1.29-.41l.12,2.29a1.89,1.89,0,0,1,1.25-.54,2,2,0,1,1-1.09,3.54l.13,2.28a1.94,1.94,0,0,1,1.24-.54,2,2,0,0,1,.21,3.94,1.93,1.93,0,0,1-1.29-.4l.12,2.28a2,2,0,0,1,3.3,1.33,2,2,0,0,1-1.85,2.07,1.9,1.9,0,0,1-1.29-.4l.12,2.28a2,2,0,1,1,1.45,3.41,2,2,0,0,1-1.29-.41l.08,1.42,60.83-3.25L242.9,131Z"/><path class="cls-4" d="M243.25,137.52c0,.12-13.61.95-30.4,1.85s-30.43,1.53-30.43,1.4,13.6-.94,30.4-1.84S243.24,137.4,243.25,137.52Z"/><path class="cls-4" d="M243.53,142.82c0,.12-13.61.94-30.4,1.84s-30.42,1.53-30.43,1.41,13.6-.95,30.41-1.85S243.52,142.7,243.53,142.82Z"/><path class="cls-4" d="M243.81,148.11c0,.12-13.6.95-30.4,1.85S183,151.49,183,151.37s13.61-1,30.41-1.85S243.81,148,243.81,148.11Z"/><path class="cls-4" d="M244.1,153.41c0,.12-13.61,1-30.4,1.85s-30.43,1.53-30.43,1.4,13.6-.94,30.4-1.84S244.09,153.29,244.1,153.41Z"/><path class="cls-4" d="M244.38,158.71c0,.12-13.61.94-30.4,1.84s-30.42,1.53-30.43,1.41,13.61-1,30.41-1.85S244.38,158.59,244.38,158.71Z"/><rect class="cls-10" x="191.2" y="133.75" width="0.42" height="33.15" transform="translate(-7.76 10.44) rotate(-3.06)"/><path class="cls-4" d="M197.81,166.58c-.12,0-.62-7.4-1.11-16.54s-.79-16.56-.66-16.56.61,7.39,1.1,16.54S197.93,166.58,197.81,166.58Z"/><path class="cls-4" d="M187,167.16c-.12,0-.62-7.4-1.11-16.54s-.78-16.56-.66-16.56.61,7.39,1.1,16.54S187.1,167.16,187,167.16Z"/><path class="cls-4" d="M203.74,166.27c-.12,0-.62-7.4-1.11-16.55s-.78-16.55-.66-16.56.61,7.4,1.1,16.54S203.86,166.26,203.74,166.27Z"/><path class="cls-4" d="M209.67,166c-.12,0-.62-7.4-1.11-16.54s-.78-16.56-.66-16.57.61,7.4,1.1,16.54S209.79,165.94,209.67,166Z"/><path class="cls-4" d="M215.6,165.63c-.12,0-.62-7.4-1.11-16.54s-.78-16.56-.66-16.57.61,7.4,1.1,16.55S215.72,165.62,215.6,165.63Z"/><path class="cls-4" d="M221.53,165.31c-.12,0-.62-7.4-1.1-16.54s-.79-16.56-.67-16.56.61,7.4,1.1,16.54S221.65,165.31,221.53,165.31Z"/><path class="cls-4" d="M227.46,165c-.12,0-.62-7.4-1.1-16.54s-.79-16.56-.67-16.57.62,7.4,1.1,16.54S227.58,165,227.46,165Z"/><path class="cls-4" d="M233.39,164.68c-.12,0-.61-7.4-1.1-16.54s-.79-16.56-.67-16.57.62,7.4,1.11,16.54S233.51,164.67,233.39,164.68Z"/><path class="cls-4" d="M239.32,164.36c-.12,0-.61-7.4-1.1-16.54s-.79-16.56-.67-16.57.62,7.4,1.11,16.55S239.44,164.36,239.32,164.36Z"/><path class="cls-9" d="M238.58,144.31a1.31,1.31,0,0,1-.43.07l-1.24.11-4.57.31c-3.87.24-9.21.54-15.1.83s-11.25.52-15.11.64-6.28.13-6.27,0l21.36-1.07,15.1-.7,4.58-.17,1.25,0A2.06,2.06,0,0,1,238.58,144.31Z"/><path class="cls-9" d="M239.81,150.36c0,.12-9.8.67-21.91,1.23s-21.94.9-21.94.78,9.8-.67,21.92-1.22S239.81,150.24,239.81,150.36Z"/><path class="cls-9" d="M240.46,155.66c0,.12-9.8.67-21.91,1.22s-21.94.91-21.94.79,9.8-.67,21.92-1.22S240.46,155.54,240.46,155.66Z"/><path class="cls-4" d="M188.88,137.7a5.33,5.33,0,0,0,1.94,3.41,3.48,3.48,0,1,0,1.28-6.27"/><path class="cls-8" d="M188.73,137.69a2.77,2.77,0,1,0,2.62-2.92A2.77,2.77,0,0,0,188.73,137.69Z"/><path class="cls-8" d="M187.14,136.66a1.66,1.66,0,1,0,1.57-1.75A1.66,1.66,0,0,0,187.14,136.66Z"/><path class="cls-9" d="M188.69,138.2c0-.07.26,0,.6-.17a1.59,1.59,0,0,0,.94-.92,1.7,1.7,0,0,0-.13-1.32c-.16-.33-.36-.48-.32-.54s.3,0,.58.36a1.72,1.72,0,0,1,.28,1.65,1.67,1.67,0,0,1-1.28,1.07C188.92,138.4,188.67,138.25,188.69,138.2Z"/><path class="cls-9" d="M190.08,135.56c.06-.11.47,0,.94-.1s.78-.39.88-.32-.12.59-.78.75S190,135.65,190.08,135.56Z"/><path class="cls-9" d="M190.51,139.76c-.13,0-.24-.51-.68-.92s-1-.49-1-.62.66-.24,1.25.3S190.63,139.78,190.51,139.76Z"/><path class="cls-4" d="M235.64,135.74a5.24,5.24,0,0,0,1.94,3.41,3.47,3.47,0,1,0,1.28-6.27"/><path class="cls-10" d="M241,135a2.67,2.67,0,1,1-2.81-2.53A2.68,2.68,0,0,1,241,135Z"/><path class="cls-10" d="M242.4,133.85a1.6,1.6,0,1,1-1.69-1.52A1.59,1.59,0,0,1,242.4,133.85Z"/><path class="cls-9" d="M241.08,135.48c0,.05-.21.22-.64.2a1.6,1.6,0,0,1-1.35-.9,1.7,1.7,0,0,1,.1-1.61c.24-.36.51-.45.53-.41s-.12.22-.25.55a1.63,1.63,0,0,0,0,1.28,1.48,1.48,0,0,0,1,.78C240.82,135.46,241.06,135.42,241.08,135.48Z"/><path class="cls-9" d="M239.47,133.09c.08.08-.31.5-1,.43s-.94-.59-.83-.65.43.17.88.22S239.4,133,239.47,133.09Z"/><path class="cls-9" d="M239.49,137.17c-.12,0-.28-.63.22-1.23s1.2-.54,1.19-.42-.49.27-.85.7S239.61,137.17,239.49,137.17Z"/><polygon class="cls-4" points="137.41 214.54 187.15 220.88 186.48 202.68 137.41 214.54"/><rect class="cls-8" x="137.96" y="201.02" width="47.91" height="15.9" transform="translate(17.94 -12.74) rotate(4.77)"/><path class="cls-9" d="M179.74,207.8c0,.12-8-.45-17.89-1.28S144,204.94,144,204.81s8,.45,17.88,1.28S179.75,207.67,179.74,207.8Z"/><path class="cls-9" d="M179.64,211.93c0,.12-8-.45-17.88-1.27s-17.86-1.59-17.85-1.71,8,.45,17.89,1.27S179.65,211.81,179.64,211.93Z"/><polygon class="cls-3" points="152.86 197.97 171.36 199.51 170.38 200.34 171.65 201.44 170.14 202.13 171.49 203.33 152.1 201.71 153.31 200.69 152.71 199.59 153.75 199.06 152.86 197.97"/><path class="cls-4" d="M109.22,169.29a2.12,2.12,0,0,1,.3,1.09,2.15,2.15,0,1,1-4.3,0,2.12,2.12,0,0,1,.3-1.09H103a2.12,2.12,0,0,1,.3,1.09,2.15,2.15,0,1,1-4.29,0,2.12,2.12,0,0,1,.3-1.09H96.85a2.12,2.12,0,0,1,.3,1.09,2.15,2.15,0,0,1-4.3,0,2.12,2.12,0,0,1,.3-1.09H90.66a2.12,2.12,0,0,1,.3,1.09,2.15,2.15,0,1,1-4.29,0,2.12,2.12,0,0,1,.3-1.09H84.48a2.12,2.12,0,0,1,.3,1.09,2.15,2.15,0,0,1-4.3,0,2.22,2.22,0,0,1,.3-1.09H78.29a2.12,2.12,0,0,1,.3,1.09,2.15,2.15,0,1,1-4.29,0,2.12,2.12,0,0,1,.3-1.09H73v44.42l38.85,2.13L110,169.29Z"/><g class="cls-12"><path class="cls-5" d="M108.65,168.08a2.12,2.12,0,0,1,.3,1.09,2.15,2.15,0,1,1-4.29,0,2.12,2.12,0,0,1,.3-1.09h-2.49a2.12,2.12,0,0,1,.3,1.09,2.15,2.15,0,1,1-4.3,0,2.12,2.12,0,0,1,.3-1.09H96.28a2.12,2.12,0,0,1,.3,1.09,2.15,2.15,0,1,1-4.29,0,2.12,2.12,0,0,1,.3-1.09H90.1a2.12,2.12,0,0,1,.3,1.09,2.15,2.15,0,1,1-4.3,0,2.12,2.12,0,0,1,.3-1.09H83.91a2.12,2.12,0,0,1,.3,1.09,2.15,2.15,0,1,1-4.29,0,2.12,2.12,0,0,1,.3-1.09H77.73a2.12,2.12,0,0,1,.3,1.09,2.15,2.15,0,1,1-4-1.09H72.47v44.41h37V168.08Z"/><path class="cls-4" d="M70.22,214.54c-.12,0-.33-10.76-.47-24s-.14-24,0-24,.33,10.76.46,24S70.34,214.54,70.22,214.54Z"/><path class="cls-4" d="M76.16,214.48c-.12,0-.33-10.76-.47-24s-.15-24,0-24,.33,10.76.46,24S76.28,214.48,76.16,214.48Z"/><path class="cls-4" d="M79.11,214.48c-.12,0-.33-10.76-.47-24s-.15-24,0-24,.33,10.76.46,24S79.23,214.48,79.11,214.48Z"/><path class="cls-4" d="M85.11,214.48c-.12,0-.33-10.76-.47-24s-.14-24,0-24,.33,10.76.46,24S85.23,214.48,85.11,214.48Z"/><path class="cls-4" d="M91.11,214.48c-.12,0-.33-10.76-.46-24s-.15-24,0-24,.33,10.76.46,24S91.23,214.48,91.11,214.48Z"/><path class="cls-4" d="M97.11,214.48c-.12,0-.33-10.76-.46-24s-.15-24,0-24,.33,10.76.47,24S97.23,214.48,97.11,214.48Z"/><path class="cls-4" d="M102.81,214.48c-.12,0-.33-10.76-.47-24s-.15-24,0-24,.33,10.76.46,24S102.93,214.48,102.81,214.48Z"/><path class="cls-4" d="M108.5,214.48c-.12,0-.33-10.76-.46-24s-.15-24,0-24,.33,10.76.47,24S108.62,214.48,108.5,214.48Z"/><path class="cls-4" d="M82.1,214.42c-.12,0-.33-10.76-.47-24s-.15-24,0-24,.33,10.76.47,24S82.22,214.42,82.1,214.42Z"/><path class="cls-4" d="M88,214.36c-.13,0-.33-10.77-.47-24s-.15-24,0-24,.33,10.76.47,24S88.16,214.36,88,214.36Z"/><path class="cls-4" d="M94,214.3c-.12,0-.33-10.77-.46-24s-.15-24,0-24,.33,10.75.47,24S94.1,214.29,94,214.3Z"/><path class="cls-4" d="M99.91,214.24c-.12,0-.33-10.77-.46-24s-.15-24,0-24,.33,10.76.47,24S100,214.23,99.91,214.24Z"/><path class="cls-4" d="M105.61,214.54c-.12,0-.33-10.76-.47-24s-.15-24,0-24,.33,10.76.47,24S105.73,214.54,105.61,214.54Z"/><path class="cls-4" d="M111.79,214.11c-.12,0-.33-10.76-.46-24s-.15-24.05,0-24.05.33,10.76.47,24S111.91,214.11,111.79,214.11Z"/><path class="cls-4" d="M118.16,208.48c0,.12-10.76.33-24,.46s-24,.14-24,0,10.76-.33,24-.46S118.16,208.36,118.16,208.48Z"/><path class="cls-4" d="M118.41,211.52c0,.12-10.76.32-24,.46s-24,.14-24,0,10.76-.33,24-.46S118.41,211.39,118.41,211.52Z"/><path class="cls-4" d="M118.1,202.54c0,.12-10.76.33-24,.46s-24,.14-24,0,10.76-.33,24-.46S118.1,202.42,118.1,202.54Z"/><path class="cls-4" d="M118,196.6c0,.12-10.76.33-24,.46s-24.05.14-24.05,0,10.76-.33,24-.46S118,196.48,118,196.6Z"/><path class="cls-4" d="M118,190.66c0,.12-10.77.33-24,.46s-24,.14-24,0,10.76-.32,24-.46S118,190.54,118,190.66Z"/><path class="cls-4" d="M117.93,184.72c0,.12-10.77.33-24,.46s-24,.15-24,0,10.76-.32,24-.46S117.92,184.6,117.93,184.72Z"/><path class="cls-4" d="M117.87,178.78c0,.13-10.77.33-24,.46s-24,.15-24,0,10.76-.32,24-.46S117.87,178.66,117.87,178.78Z"/><path class="cls-4" d="M117.81,172.85c0,.12-10.76.32-24,.46s-24,.14-24,0,10.76-.33,24-.46S117.81,172.72,117.81,172.85Z"/><path class="cls-4" d="M117.81,170.47c0,.12-10.76.32-24,.46s-24,.14-24,0,10.76-.33,24-.46S117.81,170.35,117.81,170.47Z"/><path class="cls-4" d="M117.81,175.88c0,.12-10.76.33-24,.46s-24,.14-24,0,10.76-.33,24-.46S117.81,175.76,117.81,175.88Z"/><path class="cls-4" d="M117.81,181.77c0,.12-10.76.33-24,.46s-24,.14-24,0,10.76-.33,24-.46S117.81,181.65,117.81,181.77Z"/><path class="cls-4" d="M117.81,187.66c0,.12-10.76.33-24,.46s-24,.14-24,0,10.76-.32,24-.46S117.81,187.54,117.81,187.66Z"/><path class="cls-4" d="M117.81,193.55c0,.13-10.76.33-24,.46s-24,.15-24,0,10.76-.33,24-.46S117.81,193.43,117.81,193.55Z"/><path class="cls-4" d="M117.81,199.45c0,.12-10.76.32-24,.46s-24,.14-24,0,10.76-.33,24-.46S117.81,199.32,117.81,199.45Z"/><path class="cls-4" d="M117.81,205.34c0,.12-10.76.33-24,.46s-24,.14-24,0,10.76-.33,24-.46S117.81,205.22,117.81,205.34Z"/><path class="cls-1" d="M108.65,168.08a2.12,2.12,0,0,1,.3,1.09,2.15,2.15,0,1,1-4.29,0,2.12,2.12,0,0,1,.3-1.09h-2.49a2.12,2.12,0,0,1,.3,1.09,2.15,2.15,0,1,1-4.3,0,2.12,2.12,0,0,1,.3-1.09H96.28a2.12,2.12,0,0,1,.3,1.09,2.15,2.15,0,1,1-4.29,0,2.12,2.12,0,0,1,.3-1.09H90.1a2.12,2.12,0,0,1,.3,1.09,2.15,2.15,0,1,1-4.3,0,2.12,2.12,0,0,1,.3-1.09H83.91a2.12,2.12,0,0,1,.3,1.09,2.15,2.15,0,1,1-4.29,0,2.12,2.12,0,0,1,.3-1.09H77.73a2.12,2.12,0,0,1,.3,1.09,2.15,2.15,0,1,1-4-1.09H72.47v44.41h37V168.08Z"/></g><path class="cls-4" d="M88.43,174.51a5.29,5.29,0,0,0,1.95,3.41,3.47,3.47,0,1,0,1.28-6.27"/><path class="cls-10" d="M88.37,174.5A2.76,2.76,0,1,0,91,171.59,2.77,2.77,0,0,0,88.37,174.5Z"/><path class="cls-10" d="M86.78,173.48a1.66,1.66,0,1,0,1.57-1.75A1.66,1.66,0,0,0,86.78,173.48Z"/><path class="cls-9" d="M88.32,175c0-.06.26,0,.6-.17a1.59,1.59,0,0,0,1-.91,1.72,1.72,0,0,0-.13-1.33c-.17-.32-.36-.48-.33-.53s.31,0,.59.36a1.76,1.76,0,0,1,.28,1.64A1.68,1.68,0,0,1,89,175.15C88.56,175.21,88.31,175.06,88.32,175Z"/><path class="cls-9" d="M89.71,172.37c.06-.11.48,0,.94-.09s.79-.4.89-.33-.13.6-.79.76S89.64,172.46,89.71,172.37Z"/><path class="cls-9" d="M90.14,176.58c-.12,0-.24-.52-.67-.92s-1-.5-1-.62.67-.25,1.26.3S90.26,176.6,90.14,176.58Z"/><path class="cls-9" d="M105.33,184c0,.12-5.91.22-13.19.22S79,184.07,79,184s5.9-.22,13.18-.22S105.33,183.82,105.33,184Z"/><path class="cls-9" d="M105.33,186.69c0,.12-5.91.22-13.19.22S79,186.81,79,186.69s5.9-.22,13.18-.22S105.33,186.57,105.33,186.69Z"/><path class="cls-9" d="M105.33,189.43c0,.12-5.91.22-13.19.22S79,189.55,79,189.43s5.9-.22,13.18-.22S105.33,189.31,105.33,189.43Z"/><path class="cls-9" d="M105.33,192.17c0,.12-5.91.22-13.19.22S79,192.29,79,192.17s5.9-.22,13.18-.22S105.33,192.05,105.33,192.17Z"/><path class="cls-9" d="M105.33,194.91c0,.12-5.91.22-13.19.22S79,195,79,194.91s5.9-.22,13.18-.22S105.33,194.79,105.33,194.91Z"/><path class="cls-9" d="M105.33,197.65c0,.12-5.91.22-13.19.22S79,197.77,79,197.65s5.9-.22,13.18-.22S105.33,197.53,105.33,197.65Z"/><path class="cls-9" d="M105.33,200.39c0,.12-5.91.22-13.19.22S79,200.51,79,200.39s5.9-.22,13.18-.22S105.33,200.27,105.33,200.39Z"/><path class="cls-9" d="M40.2,326.59a.89.89,0,0,1-.87-.67l-30-114.36a.9.9,0,0,1,1.74-.46l30,114.37a.89.89,0,0,1-.64,1.09Z"/><path class="cls-9" d="M32.27,329.42a.89.89,0,0,1-.87-.67L1.4,214.39a.9.9,0,0,1,.64-1.1.88.88,0,0,1,1.09.64l30,114.37a.88.88,0,0,1-.64,1.09A.91.91,0,0,1,32.27,329.42Z"/><polygon class="cls-9" points="5 209.43 3.55 208.35 80.6 104.66 150.88 118.13 150.54 119.89 81.37 106.64 5 209.43"/><rect class="cls-9" x="-14.86" y="158.75" width="127.36" height="1.8" transform="translate(-108.54 103.88) rotate(-53.48)"/><path class="cls-10" d="M78.68,109.43A5.1,5.1,0,1,0,81.87,103,5.1,5.1,0,0,0,78.68,109.43Z"/><polygon class="cls-10" points="147.56 112.33 146.3 105.01 151.72 104.6 152.12 111.67 147.56 112.33"/><g class="cls-13"><polygon points="147.56 112.33 146.3 105.01 151.72 104.6 152.12 111.67 147.56 112.33"/></g><polyline class="cls-10" points="143.12 111.83 138.11 139 125.45 174.91 196.8 164.62 168 133.28 155.98 109.97 143.12 111.83"/><path class="cls-10" d="M0,212.46a5.66,5.66,0,1,0,5.66-5.66A5.65,5.65,0,0,0,0,212.46Z"/><path class="cls-10" d="M17.61,349.47c0-.38-.06-.75-.06-1.13a22.65,22.65,0,1,1,45.29,0c0,.38,0,.75-.05,1.13Z"/><path class="cls-14" d="M141.13,341c-.28.05-1.46,1.26.23,3.18s11.92,7.15,13.81,4-2.67-5.31-2.67-5.31Z"/><path class="cls-14" d="M152.36,337.62s10.55-1.17,14.86-.62c4.67.6,9.62-1.76,12.56-5a16.77,16.77,0,0,0,3.7-7.46l6.72-4.69s.72-16-9.92-13.38l-12.43.43S143.39,311,139.6,314c0,0-4.61,4.48-5.95,6.21-.51.66-.94,7.23,3.73,9.48,0,0-2.75,3.52-.33,5.51l1.15.86s-1.58,3.52-.1,4.52,13.22,4.57,16.56,2.25-.53-5-2.3-5.23"/><path class="cls-15" d="M139.21,329.09a9,9,0,0,1,1.38.15c.89.11,2.17.27,3.76.38.8.06,1.67.1,2.6.12s1.94,0,3,.08a6.26,6.26,0,0,1,3.23,1,3.58,3.58,0,0,1,1.58,3.25,2.78,2.78,0,0,1-.94,1.67,5,5,0,0,1-1.6.89,14.43,14.43,0,0,1-3.3.61,29.35,29.35,0,0,1-5.64-.11c-1.6-.16-2.88-.38-3.76-.53a8.29,8.29,0,0,1-1.36-.28,8.33,8.33,0,0,1,1.39.11c.88.1,2.17.27,3.76.39a31.08,31.08,0,0,0,5.57,0,14.81,14.81,0,0,0,3.2-.62,4.48,4.48,0,0,0,1.45-.8,2.39,2.39,0,0,0,.79-1.41,3.16,3.16,0,0,0-1.39-2.84,5.9,5.9,0,0,0-3-1c-1-.09-2-.07-3-.11s-1.82-.1-2.61-.18c-1.6-.15-2.88-.36-3.76-.53A7.3,7.3,0,0,1,139.21,329.09Z"/><path class="cls-15" d="M138.36,321.46a10.36,10.36,0,0,1,1.37.16c.88.11,2.16.28,3.74.42s3.47.24,5.57.24a7.47,7.47,0,0,1,3.33.5,2.68,2.68,0,0,1,1.27,1.36,3.3,3.3,0,0,1,.17,1.89,4.5,4.5,0,0,1-2.13,2.92,7.37,7.37,0,0,1-3.2,1.05,33.32,33.32,0,0,1-5.62-.26l-3.75-.38a8.55,8.55,0,0,1-1.37-.2,8.17,8.17,0,0,1,1.39,0l3.76.24a34.81,34.81,0,0,0,5.54.16,6.89,6.89,0,0,0,3-1,4.11,4.11,0,0,0,1.93-2.64,2.49,2.49,0,0,0-1.21-2.79,7.09,7.09,0,0,0-3.13-.47,54.47,54.47,0,0,1-5.6-.34c-1.59-.18-2.86-.39-3.74-.56A7.52,7.52,0,0,1,138.36,321.46Z"/><path class="cls-15" d="M143.8,322.39a12.82,12.82,0,0,1-1-1.94,13,13,0,0,1-1-1.92c.08-.08.84.6,1.4,1.72A3.68,3.68,0,0,1,143.8,322.39Z"/><path class="cls-14" d="M176.07,307.12l-10-1.32s-28.2-5.75-28.47-5-1.67,1-.62,4,17.31,5.7,18,6.66,1.25,6.56,7.63,9.13S173,322.32,173,322.32"/><path class="cls-15" d="M173,322.32a.93.93,0,0,1-.22.05,4.62,4.62,0,0,1-.64.09,13.69,13.69,0,0,1-2.51,0,23.67,23.67,0,0,1-8.81-2.59,11.42,11.42,0,0,1-4.4-4.59,25.64,25.64,0,0,1-1.35-3.28,2.12,2.12,0,0,0-.19-.37.66.66,0,0,0-.29-.19,7.93,7.93,0,0,0-.86-.3c-.59-.18-1.2-.35-1.82-.51-2.48-.64-5.11-1.26-7.79-2.06a40.4,40.4,0,0,1-4.06-1.37,13.48,13.48,0,0,1-2-1,4.72,4.72,0,0,1-.91-.72,1.82,1.82,0,0,1-.34-.51,3.61,3.61,0,0,1-.19-.55,4.07,4.07,0,0,1-.14-2.3,2.59,2.59,0,0,1,.61-1,1.7,1.7,0,0,0,.28-.39s0,0,.06-.11a.3.3,0,0,1,.17-.1l.18,0h.29c1.48.1,2.87.35,4.25.56,2.76.46,5.41.95,7.94,1.43,5,.95,9.57,1.87,13.37,2.65,1,.19,1.86.4,2.71.55l2.45.34,3.91.56,2.47.37.64.1.22.05h-.22l-.65-.07-2.48-.29-3.93-.48-2.45-.31c-.88-.13-1.77-.34-2.73-.52l-13.39-2.56c-2.52-.46-5.17-.94-7.93-1.39-1.37-.21-2.78-.46-4.19-.55h-.33s0,0,0,0,0-.07-.05-.1l0,0c.33.12.08,0,.16.08l0,0a1.64,1.64,0,0,1-.35.5,2.25,2.25,0,0,0-.52.85,3.68,3.68,0,0,0,.14,2,2,2,0,0,0,.44.9,4.31,4.31,0,0,0,.81.64,14.89,14.89,0,0,0,1.92.95c1.32.53,2.67,1,4,1.36,2.67.79,5.29,1.42,7.77,2.08.62.17,1.23.33,1.84.52a9.44,9.44,0,0,1,.89.32,1.1,1.1,0,0,1,.46.32,1.87,1.87,0,0,1,.22.45,25.48,25.48,0,0,0,1.33,3.26A11,11,0,0,0,161,319.6a23.89,23.89,0,0,0,8.66,2.69,18.14,18.14,0,0,0,2.49.09l.65-.05Z"/><path class="cls-15" d="M149.29,337.12a3.17,3.17,0,0,1,1,.05,9.55,9.55,0,0,1,2.72.81,8.74,8.74,0,0,1,1.7,1,3,3,0,0,1,1.25,2,2.42,2.42,0,0,1-1.25,2.23,4.68,4.68,0,0,1-2.68.56,50.25,50.25,0,0,1-9.21-1.36c-1.16-.3-2.08-.6-2.7-.83a4.5,4.5,0,0,1-.95-.41,5.36,5.36,0,0,1,1,.25c.64.18,1.56.43,2.72.69a60.34,60.34,0,0,0,9.16,1.22,4.33,4.33,0,0,0,2.43-.48A2,2,0,0,0,155.6,341a2.65,2.65,0,0,0-1.08-1.71,8.38,8.38,0,0,0-1.61-1A14.32,14.32,0,0,0,149.29,337.12Z"/><path class="cls-10" d="M222.67,279.5s12.5-20.58,15.31-34.16,17.33-35.12,22-40.74,23.42-12.17,23.42-12.17l6.9-3.73,53.51-4.7s35.59,3.74,46.36,13.58,19.2,32.31,19.2,43.55S420.25,349.7,420.25,349.7l-131.84-.18,3-48s-15.92-10.77-20.14-20.14-1.87-4.68-1.87-4.68-15,31.77-20.1,35.52-65,22.12-65,22.12L176,302.94Z"/><path class="cls-10" d="M378.33,201.5c-1.44.45-19.3,46.57-20.56,50.77s0,30.63,0,30.63l5.88,10.9s-1.68,8-.42,11.75l-26.44,5s-6.71-4.62-13,0l-31.19,2.63s9.16.11,6.43,14.15c-2.67,13.75-4.7,16.78-4.7,16.78l109.59-2.5s12.18-.6,10.32-24-7.08-88-7.08-88S399.17,195,378.33,201.5Z"/><path class="cls-9" d="M357.52,279.21a4.7,4.7,0,0,1-.26-.57L356.6,277c-.29-.72-.63-1.61-1-2.66s-.78-2.23-1.14-3.57-.82-2.8-1.17-4.4-.73-3.3-1.07-5.11a86.08,86.08,0,0,1-.92-23.84c.21-1.83.39-3.57.69-5.18.13-.81.24-1.59.39-2.33s.31-1.46.45-2.14c.27-1.36.62-2.57.89-3.64s.54-2,.79-2.72l.55-1.71a4.38,4.38,0,0,1,.22-.58,2.43,2.43,0,0,1-.14.61c-.11.44-.27,1-.47,1.72s-.47,1.66-.71,2.74-.58,2.28-.82,3.65q-.21,1-.42,2.13c-.15.74-.24,1.52-.37,2.33-.28,1.6-.44,3.33-.65,5.15a99.4,99.4,0,0,0-.33,11.91,97.88,97.88,0,0,0,1.25,11.83c.33,1.8.63,3.52,1,5.1s.75,3.05,1.12,4.39.75,2.53,1.07,3.58.64,1.95.9,2.68l.59,1.69A2.43,2.43,0,0,1,357.52,279.21Z"/><path class="cls-9" d="M395.66,329.23s-.11-.11-.29-.32-.44-.59-.73-1-.69-.95-1.17-1.52-1-1.26-1.62-2-1.3-1.49-2.08-2.27-1.61-1.62-2.51-2.48A57.61,57.61,0,0,0,374,310.54c-1.12-.54-2.17-1.07-3.2-1.48s-2-.81-2.86-1.14-1.69-.59-2.4-.83-1.33-.42-1.84-.56l-1.16-.34a1.93,1.93,0,0,1-.4-.15,1.47,1.47,0,0,1,.42.06l1.19.27c.51.11,1.14.26,1.86.49s1.55.43,2.43.77,1.88.65,2.9,1.09,2.11.93,3.24,1.46a54.35,54.35,0,0,1,13.36,9.24c.9.87,1.77,1.69,2.51,2.52s1.44,1.59,2,2.32,1.12,1.41,1.57,2a18.88,18.88,0,0,1,1.12,1.57c.27.4.49.74.67,1A1.54,1.54,0,0,1,395.66,329.23Z"/><path class="cls-9" d="M404.88,323.08c-.06.06-1-1.05-2.86-2.54a28.5,28.5,0,0,0-3.39-2.36,31.45,31.45,0,0,0-4.54-2.2,31,31,0,0,0-4.86-1.37,28.76,28.76,0,0,0-4.11-.48c-2.35-.1-3.81.09-3.82,0a4.66,4.66,0,0,1,1-.17,11.24,11.24,0,0,1,1.21-.11c.47,0,1-.06,1.6,0a26,26,0,0,1,4.17.39,27.3,27.3,0,0,1,9.54,3.62,25.86,25.86,0,0,1,3.38,2.47c.47.38.84.77,1.18,1.09s.62.63.84.88A4.33,4.33,0,0,1,404.88,323.08Z"/><path class="cls-9" d="M394.75,307.65c-.06.08-1.35-.95-3.71-2.11a18.43,18.43,0,0,0-2-.86,24.37,24.37,0,0,0-2.33-.8,29.48,29.48,0,0,0-5.56-1,30.35,30.35,0,0,0-5.64.21c-.85.15-1.67.27-2.42.47a18.43,18.43,0,0,0-2.07.59c-2.5.83-3.92,1.67-4,1.59a4.94,4.94,0,0,1,1-.6,9.19,9.19,0,0,1,1.22-.61,15.3,15.3,0,0,1,1.66-.68,20.63,20.63,0,0,1,2.08-.64c.76-.22,1.58-.36,2.45-.52a26,26,0,0,1,11.37.78,23.91,23.91,0,0,1,2.36.85,18.22,18.22,0,0,1,2,.92,17.6,17.6,0,0,1,1.56.9,11.88,11.88,0,0,1,1.12.76A6.23,6.23,0,0,1,394.75,307.65Z"/><path class="cls-9" d="M330.65,342.24a36.73,36.73,0,0,0,.78-4.69,29.87,29.87,0,0,0,0-5.16,41.12,41.12,0,0,0-1.1-6.21,43.1,43.1,0,0,0-2.1-6,31.33,31.33,0,0,0-2.51-4.5,42.23,42.23,0,0,0-3-3.72,7.36,7.36,0,0,1,1,.85,8.91,8.91,0,0,1,1,1.11l.61.72c.21.26.41.56.63.86a29.78,29.78,0,0,1,2.62,4.51,37.14,37.14,0,0,1,3.24,12.31,28.72,28.72,0,0,1-.06,5.22c0,.36-.08.71-.11,1.05l-.19.93a10.33,10.33,0,0,1-.35,1.47A7.41,7.41,0,0,1,330.65,342.24Z"/><path class="cls-9" d="M312.28,310.57a.68.68,0,0,1,0-.24l-.12-.73c-.09-.66-.23-1.59-.4-2.77-.34-2.42-.79-5.92-1.31-10.24-1-8.66-2.28-20.64-3.25-33.91s-1.47-25.3-1.7-34c-.11-4.36-.17-7.88-.19-10.32,0-1.19,0-2.13,0-2.81v-.73a1.27,1.27,0,0,1,0-.25.87.87,0,0,1,0,.25c0,.19,0,.43,0,.73,0,.67.06,1.61.09,2.81.08,2.46.19,6,.33,10.31.31,8.71.87,20.74,1.83,34s2.16,25.24,3.12,33.9c.49,4.31.89,7.8,1.17,10.25.14,1.19.24,2.12.32,2.79l.07.73A1.18,1.18,0,0,1,312.28,310.57Z"/><path class="cls-9" d="M269.23,277.32a8.52,8.52,0,0,1-.57-1.29c-.34-.84-.84-2-1.48-3.54-1.27-3-3.16-7-5.42-11.45l-5.83-11.25c-.74-1.45-1.32-2.62-1.71-3.44a9.61,9.61,0,0,1-.57-1.3,8.81,8.81,0,0,1,.72,1.22c.47.86,1.09,2,1.83,3.38,1.54,2.85,3.69,6.78,6,11.19s4.11,8.51,5.31,11.53c.6,1.51,1.06,2.74,1.35,3.6A8.63,8.63,0,0,1,269.23,277.32Z"/><path class="cls-9" d="M262.49,261.73a2.78,2.78,0,0,1-.76-.15c-.49-.12-1.18-.32-2-.6a49.35,49.35,0,0,1-6.45-2.65,50.68,50.68,0,0,1-6-3.52c-.73-.51-1.32-.94-1.7-1.25A2.71,2.71,0,0,1,245,253a23.18,23.18,0,0,1,2.45,1.51c1.51.94,3.62,2.18,6,3.39s4.69,2.12,6.35,2.75A22.66,22.66,0,0,1,262.49,261.73Z"/><path class="cls-9" d="M251.18,290.55a4.1,4.1,0,0,1-.91-.55c-.56-.38-1.39-.92-2.43-1.55a51.37,51.37,0,0,0-8.51-4.14,52.13,52.13,0,0,0-9.13-2.47c-1.2-.2-2.18-.34-2.85-.42a5.24,5.24,0,0,1-1-.18,4.65,4.65,0,0,1,1.07,0,28.35,28.35,0,0,1,2.87.29A44.13,44.13,0,0,1,248,288.19c1,.67,1.83,1.24,2.36,1.67A5.6,5.6,0,0,1,251.18,290.55Z"/><path class="cls-9" d="M342.43,184.07s0,.24-.05.69-.13,1.14-.23,2c-.22,1.7-.52,4.16-1,7.18a91.07,91.07,0,0,1-2.36,10.49,49,49,0,0,1-5.31,12.06,36.66,36.66,0,0,1-4.4,5.63l-.17.19-.15-.21a22.2,22.2,0,0,0-12.23-8.2,19.07,19.07,0,0,0-3.84-.51,15.83,15.83,0,0,0-5.47.77c-1.23.43-1.88.75-1.89.71a2.31,2.31,0,0,1,.46-.25,11.61,11.61,0,0,1,1.38-.6,15.25,15.25,0,0,1,5.52-.91,19.6,19.6,0,0,1,3.92.47,22.21,22.21,0,0,1,12.49,8.27l-.33,0a37.53,37.53,0,0,0,4.34-5.58,49.83,49.83,0,0,0,5.29-11.93,98.5,98.5,0,0,0,2.45-10.44c.55-3,.9-5.45,1.17-7.14.13-.81.23-1.46.31-1.95A2.93,2.93,0,0,1,342.43,184.07Z"/><polygon class="cls-10" points="343.14 184.6 335.01 173.83 326.18 174.1 297.47 189.27 343.14 184.6"/><path class="cls-9" d="M305.29,214.82a2.43,2.43,0,0,1-.47,0,10.16,10.16,0,0,1-1.32-.22,16.37,16.37,0,0,1-4.54-1.94,10,10,0,0,0-3.08-1.28,9.05,9.05,0,0,0-3.81,0,8.91,8.91,0,0,0-6.37,5.54l-.46,1.24,0-1.32c0-.33,0-.68,0-1,.1-6.64.11-12.67.38-17,.12-2.18.3-3.94.48-5.15.08-.6.17-1.07.24-1.39a1.6,1.6,0,0,1,.12-.47s-.08.67-.19,1.88-.26,3-.34,5.14c-.19,4.36-.15,10.37-.25,17,0,.35,0,.7,0,1l-.42-.08A9.26,9.26,0,0,1,292,211a9.43,9.43,0,0,1,7.12,1.41,17.68,17.68,0,0,0,4.43,2C304.65,214.74,305.29,214.77,305.29,214.82Z"/><path class="cls-14" d="M335,121.63v64.71a15.68,15.68,0,0,1-3.68,10.1h0a47.42,47.42,0,0,1-13,10.76l-13.05,7.35-10.79-9.63a15.7,15.7,0,0,1-5.23-11.1c-.19-4.71-.19-9.46-.19-9.46s-18.29-1.31-20-19.35c-.81-8.49-1.06-25.89-1.11-41.92a35.09,35.09,0,0,1,32.21-35l.51,0A33.52,33.52,0,0,1,335,121.63Z"/><path class="cls-15" d="M289,184.1a42.08,42.08,0,0,0,23-8.64s-4.49,13.46-22.64,13.32Z"/><path class="cls-9" d="M274,135.21a2.6,2.6,0,0,0,2.7,2.4,2.48,2.48,0,0,0,2.47-2.55,2.58,2.58,0,0,0-2.7-2.39A2.48,2.48,0,0,0,274,135.21Z"/><path class="cls-9" d="M272.56,130.37c.35.31,2.18-1.3,5-1.52s4.92,1,5.2.63c.13-.16-.24-.74-1.18-1.31a7.05,7.05,0,0,0-4.2-.93,6.86,6.86,0,0,0-3.91,1.63C272.63,129.6,272.39,130.23,272.56,130.37Z"/><path class="cls-9" d="M300.43,134.09a2.6,2.6,0,0,0,2.71,2.4A2.47,2.47,0,0,0,305.6,134a2.58,2.58,0,0,0-2.7-2.4A2.48,2.48,0,0,0,300.43,134.09Z"/><path class="cls-9" d="M299.88,128.63c.35.31,2.19-1.3,5-1.52s4.92,1,5.2.63c.13-.16-.24-.74-1.19-1.31a7,7,0,0,0-4.19-.93,6.86,6.86,0,0,0-3.91,1.63C300,127.86,299.71,128.49,299.88,128.63Z"/><path class="cls-9" d="M291.51,150c0-.16-1.75-.31-4.57-.44-.71,0-1.4-.1-1.56-.57a3.66,3.66,0,0,1,.3-2.14q.79-2.65,1.65-5.57c2.28-7.92,3.86-14.42,3.54-14.5s-2.42,6.26-4.7,14.18q-.81,2.92-1.55,5.59a4.06,4.06,0,0,0-.14,2.81,1.74,1.74,0,0,0,1.25.94,4.78,4.78,0,0,0,1.22.07C289.77,150.33,291.52,150.2,291.51,150Z"/><path class="cls-9" d="M299.84,151.28c-.45,0-.21,3-2.61,5.38s-5.64,2.28-5.62,2.71c0,.19.76.52,2.12.45a7.61,7.61,0,0,0,4.71-2.09,6.58,6.58,0,0,0,2-4.49C300.44,152,300,151.25,299.84,151.28Z"/><path class="cls-9" d="M298.27,117.81c.33.73,3.07.15,6.36.27s6,.79,6.37.08c.17-.34-.35-1-1.47-1.65a11,11,0,0,0-9.7-.27C298.67,116.82,298.12,117.46,298.27,117.81Z"/><path class="cls-9" d="M272.92,122.25c.54.59,2.4-.22,4.69-.44s4.28.07,4.68-.63c.17-.33-.19-.94-1.09-1.46a6.81,6.81,0,0,0-7.55.86C272.89,121.29,272.68,122,272.92,122.25Z"/><path class="cls-9" d="M313.77,103.46l.11.07a14.28,14.28,0,0,1,6,8.74c0,.13.05.25.08.36,1.13,5.1,1.44,10.35,2.62,15.43s1,9,6.05,10.1a6.77,6.77,0,0,0,7.09-2.88,4.38,4.38,0,0,0,.44-2.41c-.06-12.51,2.45-17.37,1.35-30.38A11,11,0,0,0,332.27,94c-2.89-1.73-6.38-3.48-9.29-1.79s-6.35,7.67-8.5,10.26"/><path class="cls-14" d="M329.6,130.31c.3-.16,12.11-4.7,12.73,7.68s-11.92,10.45-12,10.1S329.6,130.31,329.6,130.31Z"/><path class="cls-15" d="M333.91,143.21c0-.05.22.14.6.29a2.2,2.2,0,0,0,1.61-.05c1.28-.55,2.28-2.68,2.22-4.92a7,7,0,0,0-.76-3.05,2.47,2.47,0,0,0-1.7-1.57,1.09,1.09,0,0,0-1.24.65c-.15.36-.06.6-.13.62s-.27-.19-.2-.71a1.4,1.4,0,0,1,.45-.8,1.64,1.64,0,0,1,1.18-.37,3,3,0,0,1,2.35,1.8,7.39,7.39,0,0,1,.92,3.41c.05,2.5-1.11,4.9-2.88,5.51a2.31,2.31,0,0,1-2-.23C334,143.5,333.87,143.23,333.91,143.21Z"/><path class="cls-9" d="M323.56,94c2.63-5.19-6.28-11.59-12.54-13s-14,2.22-19.92,4.73c-3.73,1.59-7.39,3.68-11.43,3.84a27.37,27.37,0,0,1-8-1.34,20,20,0,0,0-8-.91c-2.68.41-5.34,2.07-6.15,4.66s.93,5.89,3.64,6c-3.57-1.59-8.31,1.28-8.55,5.19s4.12,7.33,7.86,6.18c-1.86-1.19-4.37,1.24-4,3.41s2.52,3.6,4.61,4.32c5.34,1.84,11.28.62,16.46-1.62s9.89-5.43,15-7.8,13.69-6.55,19.14-5.12c4,1.06,7.13,5.54,9.25,4.31a7.55,7.55,0,0,0,3.44-5.87,21.72,21.72,0,0,0-.82-7"/><path class="cls-8" d="M259.62,97.82c.1-.07.71.87,2.16,2.2a17,17,0,0,0,7.22,3.84,15.65,15.65,0,0,0,11.73-1.45c4-2.22,7.33-6.29,11.17-10.17s8.48-7,13.32-7.82,9.44.55,12.15,3.11a10.83,10.83,0,0,1,3.46,7.75,8.24,8.24,0,0,1-.35,2.31c-.18.51-.3.76-.34.74a19.48,19.48,0,0,0,.21-3,10.64,10.64,0,0,0-3.57-7.13c-2.55-2.28-6.86-3.5-11.35-2.64s-8.93,3.74-12.67,7.57-7.15,8-11.48,10.3a16.85,16.85,0,0,1-19.84-3A11.29,11.29,0,0,1,260,98.54C259.71,98.09,259.58,97.85,259.62,97.82Z"/><path class="cls-8" d="M332.7,129.51s-.56-.3-1.11-1.24a8.26,8.26,0,0,1-1-4.42c-.06-4,3.11-8.56,3.1-14.09a12.45,12.45,0,0,0-2-7.26,9.43,9.43,0,0,0-4.91-3.58,8.05,8.05,0,0,0-4.17-.22c-1,.24-1.49.51-1.55.42s.4-.47,1.41-.88a7.73,7.73,0,0,1,4.54-.16,10,10,0,0,1,5.6,3.77,13.06,13.06,0,0,1,2.28,7.92,22.59,22.59,0,0,1-1.73,8,23.2,23.2,0,0,0-1.73,6.14A9.63,9.63,0,0,0,332.7,129.51Z"/><rect class="cls-9" x="330.72" y="134.02" width="6.35" height="14.71" rx="1.8" transform="translate(185.06 -189.26) rotate(42.82)"/><path class="cls-9" d="M409.47,243.91s0,.16,0,.49.06.82.11,1.45c.09,1.29.22,3.19.39,5.66.34,5,.82,12.21,1.44,21.4s1.35,20.33,2.19,33c.21,3.18.42,6.46.65,9.84.12,1.68.18,3.4.26,5.14a25.66,25.66,0,0,1,0,2.63,26.51,26.51,0,0,1-.15,2.66l-.33,2.68-.57,2.68c-.25.88-.56,1.75-.83,2.64s-.71,1.73-1.17,2.55c-1.77,3.29-4.53,6.36-8.37,7.62h0l-82.57,0H294l.08-.28,2.38-8.48c.39-1.4.78-2.8,1.17-4.18a29.63,29.63,0,0,0,1-4.17,18,18,0,0,0-.73-8.29,10.18,10.18,0,0,0-2-3.56,5.83,5.83,0,0,0-3.36-2l-1.73-.27,1.73-.14,31.18-2.62-.1,0a10.63,10.63,0,0,1,6.72-2.06,13.45,13.45,0,0,1,6.51,2.07l-.14,0,26.44-5-.12.2a11.16,11.16,0,0,1-.46-3.11,27.47,27.47,0,0,1,.09-3,46.4,46.4,0,0,1,.8-5.69v.09L357.67,283l0,0v0c-.41-9.73-.56-17.4-.49-22.63,0-2.62.13-4.63.27-6a11.44,11.44,0,0,1,.22-1.52l.12-.5s0,.17-.08.51a11.89,11.89,0,0,0-.2,1.52c-.11,1.35-.19,3.35-.2,6,0,5.23.15,12.9.6,22.62v-.05c1.8,3.33,3.75,7,5.89,10.9l0,0v.05a50.3,50.3,0,0,0-.78,5.67,24.57,24.57,0,0,0-.07,3,11,11,0,0,0,.44,3l.06.17-.17,0-26.43,5.07h-.07l-.07,0a13.09,13.09,0,0,0-6.31-2,10.27,10.27,0,0,0-6.48,2l0,0h-.06l-31.18,2.65V313a6.16,6.16,0,0,1,3.65,2.11,10.77,10.77,0,0,1,2.05,3.7,18.47,18.47,0,0,1,.75,8.49,28.72,28.72,0,0,1-1,4.22l-1.17,4.19q-1.19,4.2-2.38,8.48l-.21-.28h26.18l82.57.07H403a12.66,12.66,0,0,0,4.79-2.95,17.84,17.84,0,0,0,3.33-4.47c.45-.8.77-1.67,1.15-2.5s.58-1.74.83-2.61.38-1.77.57-2.64l.33-2.66a25.76,25.76,0,0,0,.15-2.63c0-.88.09-1.75,0-2.61-.08-1.73-.14-3.44-.26-5.13q-.31-5.06-.63-9.83c-.8-12.72-1.51-23.86-2.09-33.06s-1-16.44-1.33-21.4c-.15-2.47-.26-4.37-.34-5.67,0-.63-.06-1.12-.08-1.45S409.47,243.91,409.47,243.91Z"/><path class="cls-9" d="M385.57,197.92s-.54.34-1.51.93a34.49,34.49,0,0,0-3.9,2.8A45.84,45.84,0,0,0,370,213.75a100.35,100.35,0,0,0-6.75,14.37l-1.75,4.49-.49,1.22c-.12.28-.18.42-.2.41a2.57,2.57,0,0,1,.12-.44c.11-.33.24-.75.41-1.25.37-1.08.91-2.63,1.62-4.54a89.69,89.69,0,0,1,6.67-14.48A43.88,43.88,0,0,1,380,201.41a29.42,29.42,0,0,1,4-2.71c.49-.29.9-.47,1.16-.6S385.56,197.9,385.57,197.92Z"/><g class="cls-13"><path d="M352.53,230.14a56,56,0,0,0-4.72,25.24c.32,8.59,1.35,17.19.51,25.73s-3.81,17.27-10.18,23a8.16,8.16,0,0,0-2.06,2.29,2.31,2.31,0,0,0,.4,2.82,3.31,3.31,0,0,0,2.65.28c6.1-1.06,12.28-1.82,18.39-2.88,1.3-.23,5.71-1.09,5.71-1.09a23.73,23.73,0,0,1-.38-5c.2-1.53.8-6.73.8-6.73a9.78,9.78,0,0,0-1.17-2.17,50.22,50.22,0,0,1-5.07-13,58.74,58.74,0,0,1-4-12.53c-2.68-11.06-2.6-22-.9-36"/></g><g class="cls-13"><path d="M285.63,217.55l1.5,3.8a1.53,1.53,0,0,0,.73,1c.75.28,1.35-.64,1.71-1.36a9.73,9.73,0,0,1,7.48-5.26c2.57-.3,5.2.45,7.73-.08a34.6,34.6,0,0,0-7-3.47,11.54,11.54,0,0,0-7.65-.07,7.06,7.06,0,0,0-4.63,5.77"/></g><g class="cls-13"><path d="M306.49,214.34a41.73,41.73,0,0,1,8.94.81,13.91,13.91,0,0,1,7.66,4.41c2,2.48,2.8,5.75,3.62,8.86.16.59.45,1.3,1.06,1.37a1.52,1.52,0,0,0,1-.4c5.05-3.71,8.39-9.39,10.21-15.38s2.25-12.31,2.35-18.57c-2.41,4.31-3.46,9.22-5,13.9s-4,9.39-8.08,12.09a4.1,4.1,0,0,0-.94-3,9.19,9.19,0,0,0-2.46-2,23.5,23.5,0,0,0-18.79-2.3"/></g><path class="cls-14" d="M293.37,313.76H283s-23.32-8.43-28.11-7.62c-4.32.72-20.13,11.22-23.23,13.3a2,2,0,0,0-.75,1h0a3.4,3.4,0,0,0,1.88,4.31l.33.13-.14.47a5.61,5.61,0,0,0-.24,1.89,2.28,2.28,0,0,0,4.24,1l-.6,1.06a2.71,2.71,0,0,0-.33,1.42l.06,1a2.56,2.56,0,0,0,1.78,2.32h0a2.59,2.59,0,0,0,2.72-.71c2-2.2,6.33-6.62,9.26-7.11a69.65,69.65,0,0,1,9.57-.48,3.25,3.25,0,0,1,3,2.07h0c-1.74.13-13.85,6.44-18.14,8.71a4.56,4.56,0,0,0-2.49,3.45c-.16,1.34.52,2.74,3.17,2.13,5.7-1.34,16-6.05,16-6.05s5.29-1.51,8.72.91c4.82,3.4,7,4.64,11.16,3.27a34.88,34.88,0,0,0,7.19-3.34l8.15-.81S303.91,316.71,293.37,313.76Z"/><path class="cls-15" d="M262.58,317.69c0,.09-1.65-.43-4.38-.6a22.59,22.59,0,0,0-18.85,8c-1.76,2.09-2.51,3.63-2.59,3.58a6.06,6.06,0,0,1,.52-1.08,19.83,19.83,0,0,1,1.83-2.7,21.94,21.94,0,0,1,19.11-8.15,18.88,18.88,0,0,1,3.22.54A5.78,5.78,0,0,1,262.58,317.69Z"/><path class="cls-15" d="M260.11,312a18.88,18.88,0,0,0-4.56-.79,19.76,19.76,0,0,0-10.6,3,42.58,42.58,0,0,0-8.55,7.23c-1,1-1.74,1.84-2.34,2.49a6.21,6.21,0,0,1-.9.88,7,7,0,0,1,.77-1c.51-.63,1.27-1.52,2.24-2.59a39.26,39.26,0,0,1,8.55-7.4,19.49,19.49,0,0,1,10.84-2.94,13.37,13.37,0,0,1,3.39.62,8.91,8.91,0,0,1,.87.34C260,312,260.12,312,260.11,312Z"/><path class="cls-7" d="M394.75,77.59a34.51,34.51,0,0,0-28.31,54.24L362.3,144.7,375,140.38a34.51,34.51,0,1,0,19.77-62.79Z"/><path class="cls-9" d="M385.65,111.83a3,3,0,1,1-2.89-3.06A3,3,0,0,1,385.65,111.83Z"/><path class="cls-9" d="M397.56,112.19a3,3,0,1,1-2.89-3.07A3,3,0,0,1,397.56,112.19Z"/><path class="cls-9" d="M409.48,111.06a3,3,0,1,1-4-1.21A3,3,0,0,1,409.48,111.06Z"/><path class="cls-9" d="M395.81,77.35a3.86,3.86,0,0,1,.6,0l1.77.1c.39,0,.82,0,1.3.1l1.55.26,1.82.32,2,.56a33.28,33.28,0,0,1,9.73,4.6,35.43,35.43,0,0,1,9.9,10.23,35.79,35.79,0,0,1,5.29,16.4,37.88,37.88,0,0,1,0,4.76c-.08.81-.09,1.63-.24,2.44s-.29,1.62-.44,2.44a34.79,34.79,0,0,1-3.6,9.6,37.48,37.48,0,0,1-6.6,8.53,36.31,36.31,0,0,1-9.33,6.28,33.16,33.16,0,0,1-11.23,3.08,21,21,0,0,1-3,.16,25,25,0,0,1-3,0,36,36,0,0,1-6-.94,35.18,35.18,0,0,1-11.81-5.39l.36,0-12.33,4.53-.73.26.23-.74q2-6.64,4-12.92l.06.33A34.93,34.93,0,0,1,360,117.28a31.73,31.73,0,0,1-.24-7.64,25.78,25.78,0,0,1,.45-3.66q.18-.89.33-1.77c.13-.58.33-1.14.48-1.71a34.86,34.86,0,0,1,14.19-19.41,33.14,33.14,0,0,1,8.22-4l1.84-.6,1.75-.39,1.59-.34c.51-.09,1-.12,1.46-.18.93-.09,1.74-.22,2.45-.24h2.89a1.7,1.7,0,0,1,.37,0,2.24,2.24,0,0,1-.37,0l-1.09,0-1.79.07c-.7,0-1.51.19-2.42.29a34.67,34.67,0,0,0-28.48,24.87c-.15.56-.34,1.11-.46,1.68s-.21,1.16-.32,1.75a23.35,23.35,0,0,0-.43,3.58,31,31,0,0,0,.27,7.49,34.41,34.41,0,0,0,6,14.76l.11.15-.05.17q-1.92,6.27-3.95,12.93l-.5-.48,12.32-4.53.2-.08.17.12a34.3,34.3,0,0,0,17.39,6.19,26.22,26.22,0,0,0,2.94,0,21.74,21.74,0,0,0,2.91-.16,32.49,32.49,0,0,0,11-3,36,36,0,0,0,9.13-6.13,36.9,36.9,0,0,0,6.48-8.33,34.6,34.6,0,0,0,3.56-9.39q.22-1.22.45-2.4c.14-.79.15-1.6.23-2.38a36.69,36.69,0,0,0,.07-4.68,34.48,34.48,0,0,0-14.79-26.31A33.18,33.18,0,0,0,404.78,79l-2-.6L401,78.05l-1.54-.3c-.47-.06-.9-.09-1.29-.13l-1.75-.18A4.68,4.68,0,0,1,395.81,77.35Z"/><path class="cls-9" d="M471,341.23a8.5,8.5,0,0,0-5.6,3.11,6.18,6.18,0,0,0-.79,6.21,4.87,4.87,0,0,0,5.44,2.66,3.09,3.09,0,0,0,6.16.11,3.68,3.68,0,0,0,6.43-2.69c-.07-1-.51-1.87-.63-2.83a30.35,30.35,0,0,1,.12-3.16,2.69,2.69,0,0,0-1.49-2.58"/><path class="cls-9" d="M427.71,347a36.64,36.64,0,0,1,10.77-4.3c2.73-.71,5.65-1.28,8.33-.4a8.22,8.22,0,0,1,5.27,5.56,4.08,4.08,0,0,1-.14,3,4.92,4.92,0,0,1-3.34,2.06c-1,.25-2.27.32-2.83-.54a3.89,3.89,0,0,1-5.67.44,3.75,3.75,0,0,1-7.13-2.1,4.09,4.09,0,0,1-3.6,1.78,3.36,3.36,0,0,1-3-2.56,2.86,2.86,0,0,1,2-3.25"/><path class="cls-9" d="M396.13,346.41a9.27,9.27,0,0,1,3.6-9.64c3.38-2.45,5.77-5.28,10.17-7.91a65.42,65.42,0,0,1,10.78-4.62c8.65-2.88,14.5-3.61,18.05-5.47,3.9-2,9.09-5.24,9.09-5.24L492,317s5.31,32.62-2.73,35.81c0,0-37.41.39-40.35-.91-3.19-1.42-51.88-1.39-51.74-1.06Z"/><path class="cls-9" d="M420,340.18a138.57,138.57,0,0,1-23.71,1.91,43.2,43.2,0,0,0-8.36.54,9.08,9.08,0,0,0-4.56,2.12,4.5,4.5,0,0,0-1.29,4.64,3,3,0,0,0,4.14,1.65,3.37,3.37,0,0,0,6.17,1.18,2.83,2.83,0,0,0,2.7.86,11.27,11.27,0,0,0,2.77-1.07c3.86-1.8,7.95-1.36,12.2-1.33,7.43.06,15.83,0,12.73,0"/><path class="cls-8" d="M422.82,350.68l.63,0h0c0,.15,0,0,0,.08h-.73l-1,0-6.76.08h-4.74c-1.72,0-3.56-.08-5.51,0a17.51,17.51,0,0,0-6,1.07,31.13,31.13,0,0,1-3.07,1.29,3.81,3.81,0,0,1-1.78.1,2.63,2.63,0,0,1-1.61-.92h.35a3.59,3.59,0,0,1-6.56-1.26l.33.14a3,3,0,0,1-3.49-.43,3.2,3.2,0,0,1-1.16-2.06,4.39,4.39,0,0,1,.29-2.3,6.07,6.07,0,0,1,3.13-3.12,14,14,0,0,1,4.11-1.11,35.41,35.41,0,0,1,4.05-.29c5.26,0,10-.05,13.95-.34s7.15-.7,9.35-1l2.54-.33.66-.07.23,0a.66.66,0,0,1-.22.06l-.65.12-2.53.41c-2.2.33-5.39.79-9.36,1.11s-8.71.39-14,.44a34.24,34.24,0,0,0-4,.29,13.94,13.94,0,0,0-4,1.09,5.54,5.54,0,0,0-2.91,2.9,3.29,3.29,0,0,0,.74,3.86,2.62,2.62,0,0,0,3,.39l.27-.17.06.32a3.15,3.15,0,0,0,5.77,1.11l.16-.25.19.23a2.8,2.8,0,0,0,2.94.69,31.85,31.85,0,0,0,3-1.27,17.75,17.75,0,0,1,6.13-1.06c2,0,3.81.06,5.52.07l4.74.05,6.76.05h1.77s0-.07,0,.08h0A2.83,2.83,0,0,1,422.82,350.68Z"/><path class="cls-8" d="M481.9,349a2.37,2.37,0,0,1,.5.65,4,4,0,0,1-.15,3.86,3.32,3.32,0,0,1-1.52,1.3,4,4,0,0,1-4.49-1l.31-.06a3.45,3.45,0,0,1-6.55,0l.25.14a5.42,5.42,0,0,1-5.94-3.36,6.38,6.38,0,0,1,.36-5.36,8.66,8.66,0,0,1,3.53-3.61,12.07,12.07,0,0,1,4.35-1.37,18.38,18.38,0,0,1,4-.07,51.33,51.33,0,0,1,5.64.88l1.52.3.53.12a2.2,2.2,0,0,1-.54,0l-1.54-.21c-1.33-.2-3.25-.57-5.63-.74a14.64,14.64,0,0,0-8.1,1.49,8.28,8.28,0,0,0-3.34,3.44,6,6,0,0,0-.35,5,5,5,0,0,0,5.44,3.12l.19-.05.06.19a3.13,3.13,0,0,0,3.06,2.1,3.17,3.17,0,0,0,2.75-2.06l.1-.3.2.24a3.7,3.7,0,0,0,4.11.93,3.35,3.35,0,0,0,2-2.65,3.78,3.78,0,0,0-.3-2.2C482.08,349.18,481.88,349,481.9,349Z"/><path class="cls-8" d="M488.51,340.5c-.05.05-.51-.4-1.39-.88a7.24,7.24,0,0,0-3.73-.88,7.14,7.14,0,0,0-3.63,1.25c-.83.57-1.24,1.06-1.3,1a3.47,3.47,0,0,1,1.11-1.27,6.6,6.6,0,0,1,7.71-.39A3.33,3.33,0,0,1,488.51,340.5Z"/><path class="cls-8" d="M427.55,352.11s-.12-.06-.33-.22a3.85,3.85,0,0,1-.72-.86A5.19,5.19,0,0,1,426,347a8.2,8.2,0,0,1,4-4.59c2-1.21,4.47-1.87,6.85-2.94a23.13,23.13,0,0,0,9.95-8.7,24.39,24.39,0,0,0,1.89-3.61c.37-.89.55-1.4.58-1.39s0,.14-.08.38-.16.62-.34,1.07a21.09,21.09,0,0,1-1.78,3.71,22.85,22.85,0,0,1-10,9c-2.43,1.08-4.88,1.72-6.83,2.88a8,8,0,0,0-3.87,4.32,5.1,5.1,0,0,0,.32,3.89A5.75,5.75,0,0,0,427.55,352.11Z"/><path class="cls-8" d="M445.14,351.85a4.62,4.62,0,0,0,1,.75,3.69,3.69,0,0,0,3.16,0,4.2,4.2,0,0,0,2.19-4,5.62,5.62,0,0,0-.78-2.72,7,7,0,0,0-2.1-2.22A10,10,0,0,0,442.9,342a17.77,17.77,0,0,0-4.9.75c-1.36.38-2.45.77-3.21,1a8.92,8.92,0,0,1-1.19.37,6.17,6.17,0,0,1,1.13-.53c.74-.31,1.81-.74,3.19-1.17a17.4,17.4,0,0,1,5-.86,10.29,10.29,0,0,1,5.92,1.76,7.4,7.4,0,0,1,2.23,2.37,5.93,5.93,0,0,1,.8,2.93,4.49,4.49,0,0,1-2.46,4.27,3.75,3.75,0,0,1-3.37-.18,2.41,2.41,0,0,1-.71-.62A1.2,1.2,0,0,1,445.14,351.85Z"/><path class="cls-8" d="M440.22,352.46a3.65,3.65,0,0,0,1.41.91,3.89,3.89,0,0,0,1.75.3,2.37,2.37,0,0,0,1.71-1.14,2.75,2.75,0,0,0,.17-2.08,4.93,4.93,0,0,0-.84-1.6,10.89,10.89,0,0,1-1.07-1.37,4.86,4.86,0,0,1,1.31,1.17,4.71,4.71,0,0,1,1,1.69,3,3,0,0,1-.17,2.41,2.69,2.69,0,0,1-2,1.32,4.06,4.06,0,0,1-1.93-.41,3.14,3.14,0,0,1-1.07-.77C440.23,352.65,440.19,352.47,440.22,352.46Z"/><path class="cls-8" d="M433.13,350.88a5.47,5.47,0,0,1,0,.67,3.24,3.24,0,0,0,.46,1.69,3.11,3.11,0,0,0,2,1.47,3.62,3.62,0,0,0,3-.69,4.06,4.06,0,0,0,1.45-2.73,4.48,4.48,0,0,0-.49-2.53,8.25,8.25,0,0,0-1.53-1.92,1.63,1.63,0,0,1,.58.35,4.9,4.9,0,0,1,1.22,1.42,4.6,4.6,0,0,1,.62,2.72,4.37,4.37,0,0,1-1.57,3,3.93,3.93,0,0,1-3.33.74,3.32,3.32,0,0,1-2.2-1.71,3.15,3.15,0,0,1-.36-1.85A1.29,1.29,0,0,1,433.13,350.88Z"/><path class="cls-9" d="M450.66,321.13s9.34,10.28,20.93,9,20.49-12.53,20.49-12.53c1.78-2.83,1.05-5.76.49-7.92s-1.62-4.23-1.63-6.46a19.33,19.33,0,0,1,1.3-5.55c1.23-4.08,1.42-8.4,1.6-12.66.08-1.83,0-4-1.56-5a3.53,3.53,0,0,0-3.27-.06,10,10,0,0,0-2.7,2,114.12,114.12,0,0,0-9.81,10.69,12.76,12.76,0,0,0-15.83,1.28c-5-2.08-6.6-9-11.68-10.81a3.6,3.6,0,0,0-3.35.25c-1.24.92-1.31,2.71-1.26,4.26.21,6.94.46,14.09,3.29,20.44a13.74,13.74,0,0,0,2.71,12.52"/><path class="cls-8" d="M467.61,322.59a4.82,4.82,0,0,1,2.59-1.86,4.74,4.74,0,0,1,3.17.23,1.39,1.39,0,0,1,.65.46.68.68,0,0,1,.06.76.57.57,0,0,0-.86,0,1.32,1.32,0,0,0-.3.91,2.93,2.93,0,0,1-.11,1,1.2,1.2,0,0,1-.86.73,1.21,1.21,0,0,1-1.08-.36,4.22,4.22,0,0,1-.5-.91,1.14,1.14,0,0,0-.74-.68,1.53,1.53,0,0,0-.8.17,1.07,1.07,0,0,1-.8.08c-.25-.11-.37-.51-.14-.67"/><path class="cls-8" d="M471.94,323.88c.07,0,.05.37.18.92a3.57,3.57,0,0,0,1.11,1.82,3.52,3.52,0,0,0,2,.78c.56.05.92,0,.94,0s-.33.25-.95.28a3.23,3.23,0,0,1-3.38-2.86C471.75,324.23,471.89,323.87,471.94,323.88Z"/><path class="cls-8" d="M472,323.33a1.74,1.74,0,0,1,.32,1.14,3.47,3.47,0,0,1-3.81,3.56c-.75-.08-1.14-.35-1.12-.39s.45.09,1.13.08a3.45,3.45,0,0,0,3.49-3.26C472.06,323.78,471.93,323.35,472,323.33Z"/><path class="cls-8" d="M489.88,327.2a22.2,22.2,0,0,0-12.57-1.55,5.81,5.81,0,0,1,1.85-.49,16.57,16.57,0,0,1,9,1.11A5.42,5.42,0,0,1,489.88,327.2Z"/><path class="cls-8" d="M495.25,324.91c0,.06-1.06-.19-2.75-.5a44.06,44.06,0,0,0-6.68-.65,42.9,42.9,0,0,0-6.71.43c-1.7.24-2.75.47-2.76.4a2.24,2.24,0,0,1,.71-.25c.47-.14,1.15-.3,2-.46a34.1,34.1,0,0,1,6.76-.56,34.55,34.55,0,0,1,6.74.79c.85.19,1.53.37,2,.52A2.33,2.33,0,0,1,495.25,324.91Z"/><path class="cls-8" d="M498.1,318.93c0,.06-1.28,0-3.33,0a43.61,43.61,0,0,0-8,.66,28.71,28.71,0,0,0-7.56,2.47c-1.83.92-2.85,1.69-2.9,1.62a3.82,3.82,0,0,1,.68-.58,19,19,0,0,1,2.07-1.31,25.64,25.64,0,0,1,7.63-2.64,37.07,37.07,0,0,1,8-.53c1,0,1.87.1,2.44.16A3.08,3.08,0,0,1,498.1,318.93Z"/><path class="cls-8" d="M449.71,332.33s.16-.19.49-.49a18.28,18.28,0,0,1,1.51-1.13,23.32,23.32,0,0,1,11.67-3.95,17,17,0,0,1,1.88,0,2.15,2.15,0,0,1,.69.09c0,.08-1,.07-2.55.23a27.39,27.39,0,0,0-11.53,3.9C450.53,331.79,449.76,332.39,449.71,332.33Z"/><path class="cls-8" d="M449,327.65a2.27,2.27,0,0,1,.64-.34c.42-.19,1.05-.43,1.83-.7a30.58,30.58,0,0,1,12.79-1.38c.82.1,1.49.2,1.94.3a2.31,2.31,0,0,1,.7.19,26.51,26.51,0,0,1-2.66-.18,37.36,37.36,0,0,0-12.68,1.37C450,327.36,449,327.71,449,327.65Z"/><path class="cls-8" d="M443.12,325.67a3.63,3.63,0,0,1,.87-.4c.57-.23,1.42-.52,2.49-.83a35.93,35.93,0,0,1,17.16-.6c1.09.24,1.95.47,2.54.66a3.82,3.82,0,0,1,.9.34c0,.07-1.33-.31-3.5-.69a40.49,40.49,0,0,0-17,.59C444.43,325.28,443.14,325.74,443.12,325.67Z"/><path class="cls-8" d="M465.62,314.11a3,3,0,0,1-1.3.92,5.77,5.77,0,0,1-7-1.82,3.05,3.05,0,0,1-.69-1.44c.07,0,.31.52.93,1.24a5.93,5.93,0,0,0,6.66,1.73C465.09,314.42,465.57,314.05,465.62,314.11Z"/><path class="cls-8" d="M484.41,310.05a2.25,2.25,0,0,1-.14,1.53,4.69,4.69,0,0,1-2.58,2.63,8.82,8.82,0,0,1-3.62.67,4.61,4.61,0,0,1-1.52-.12,5.76,5.76,0,0,1,1.5-.19,10.55,10.55,0,0,0,3.46-.76,4.78,4.78,0,0,0,2.47-2.35A10.15,10.15,0,0,0,484.41,310.05Z"/><path class="cls-8" d="M451.71,297.61a8.91,8.91,0,0,0,1.41-1.79,4,4,0,0,0,.52-2.34,5,5,0,0,0-1.07-2.29,22.21,22.21,0,0,0-4.63-4.7s-1.34-1-1.94,0c-.4.67-.15,11.76,1.39,12.47S451.71,297.61,451.71,297.61Z"/><path class="cls-8" d="M490,281.77c-2.47,1.93-3.42,5.26-5.26,7.79a7.66,7.66,0,0,0-.89,1.44,2.42,2.42,0,0,0-.14,1.65,3.23,3.23,0,0,0,1.06,1.37,12.7,12.7,0,0,0,3.27,2s2.56.79,3.23-1.54S491.66,280.47,490,281.77Z"/><path class="cls-9" d="M411.58,329.58c-3,.46-9.83-.68-11.83-2.75s-1.44-5.3-.36-8.1a72,72,0,0,1,4.2-8,32,32,0,0,0,4.27-14.29,18.74,18.74,0,0,0-5.05-13.75c-3.55-3.55-9.15-5.15-13.83-3.33-3.86,1.49-6.84,5.93-5.34,9.79.93,2.41,3.27,3.95,4.91,5.94A12.16,12.16,0,0,1,391,305.42c-.88,3.87-3.62,7.09-4.65,10.92-1.58,5.84,1.28,12.33,6.1,16s11.23,4.76,17.24,4.05"/><path class="cls-10" d="M474,327.56s.37,2.26-.41,3.18a2.18,2.18,0,0,1-1.37.8,2.14,2.14,0,0,1-2-1.15,5.28,5.28,0,0,1-.55-2.32s2-.72,2.3-1.89A3.22,3.22,0,0,0,474,327.56Z"/><path class="cls-8" d="M484.24,328.47a3.47,3.47,0,0,1-.65.75,15.56,15.56,0,0,1-2.1,1.71,17.18,17.18,0,0,1-17.06,1.37,14.26,14.26,0,0,1-2.33-1.36,4,4,0,0,1-.77-.63c.05-.07,1.16.81,3.23,1.7a17.75,17.75,0,0,0,16.76-1.34C483.22,329.45,484.18,328.41,484.24,328.47Z"/><path class="cls-8" d="M472.19,343.68c0,.07-.58.38-1.35,1.14a6.87,6.87,0,0,0-1.89,3.67,6.77,6.77,0,0,0,.69,4.07c.49,1,1,1.44.93,1.5a3.7,3.7,0,0,1-1.21-1.35,6.39,6.39,0,0,1,1.27-8.11A3.5,3.5,0,0,1,472.19,343.68Z"/><path class="cls-8" d="M480.41,344.66a8.28,8.28,0,0,0-1.64.45,5.14,5.14,0,0,0-2.62,3,7.44,7.44,0,0,0-.06,4.05c.26,1,.54,1.65.47,1.68a4.21,4.21,0,0,1-.77-1.59,7,7,0,0,1-.06-4.28,5.08,5.08,0,0,1,2.92-3.1A2.52,2.52,0,0,1,480.41,344.66Z"/><path class="cls-8" d="M457.53,339.19a3.77,3.77,0,0,1-.69,1.21,13.9,13.9,0,0,1-2.26,2.52,11.1,11.1,0,0,1-2.88,1.77,3.55,3.55,0,0,1-1.35.39,27.2,27.2,0,0,0,3.94-2.5C456.23,340.89,457.41,339.09,457.53,339.19Z"/><path class="cls-8" d="M447.32,313.84a2.77,2.77,0,0,1-.48.37c-.32.23-.81.56-1.44,1a51.73,51.73,0,0,1-5.64,3,83.37,83.37,0,0,1-8.84,3.42c-3.39,1.11-7.16,2.15-11.05,3.44a66.72,66.72,0,0,0-10.65,4.42,36,36,0,0,0-7.64,5.45,26.88,26.88,0,0,0-4.09,4.83c-.82,1.26-1.18,2-1.22,2a2.66,2.66,0,0,1,.24-.55c.17-.37.45-.88.83-1.53a25.56,25.56,0,0,1,4-5A35.53,35.53,0,0,1,409,329.1a63.49,63.49,0,0,1,10.7-4.48c3.91-1.3,7.69-2.33,11.07-3.42a91.42,91.42,0,0,0,8.83-3.31,58,58,0,0,0,5.68-2.87c.65-.38,1.15-.68,1.48-.89A3.61,3.61,0,0,1,447.32,313.84Z"/><path class="cls-8" d="M451.78,321.35a6,6,0,0,1-1.32-1.5,15.51,15.51,0,0,1-2.79-9.09,6,6,0,0,1,.25-2,24.37,24.37,0,0,0,.85,6.62A24.78,24.78,0,0,0,451.78,321.35Z"/><path class="cls-9" d="M147.57,349.94l-28-70.3a9.19,9.19,0,0,1,8.5-12.67h87.25a9.2,9.2,0,0,1,8.7,6.24l24.05,70.9,28.1.14c2.28,0,4.12,3.35,4.12,5.63h0l-30.92-.36Z"/><path class="cls-10" d="M148.24,283.22a9.72,9.72,0,0,0-5.63,1.5,7.49,7.49,0,0,0-1.54,1.28,11,11,0,0,0-3.1,10c1.06,5.1,4.35,5.8,5.89,6s12.25-2.88,12.25-2.88,3.89-3.3,2.51-7.64C157.43,287.77,154,283.42,148.24,283.22Z"/><path class="cls-5" d="M143.13,300.49s.39,2.73,1.76,3.42,3.91.57,5.86.08,4.86-1.61,5.2-3.12a6.38,6.38,0,0,0-.16-3.56,8.93,8.93,0,0,0-7.19-.66A9.54,9.54,0,0,0,143.13,300.49Z"/><g class="cls-11"><path class="cls-7" d="M151.82,287.47a5.13,5.13,0,1,1-6.23-3.72A5.14,5.14,0,0,1,151.82,287.47Z"/></g><g class="cls-11"><path class="cls-7" d="M138.86,298.64a6.6,6.6,0,0,0,1.46-4.35,6.46,6.46,0,0,0-1.9-4.11,12.5,12.5,0,0,0-.56,5.2A9.39,9.39,0,0,0,138.86,298.64Z"/></g><g class="cls-11"><path class="cls-7" d="M158.92,293.6a6.56,6.56,0,0,1-3.33-3.15,5.78,5.78,0,0,1-.33-4.3,14.2,14.2,0,0,1,2.91,4.1C159.17,292.6,158.92,293.6,158.92,293.6Z"/></g><path class="cls-5" d="M187.88,311.36a5.67,5.67,0,1,1-5.66-5.67A5.65,5.65,0,0,1,187.88,311.36Z"/><path class="cls-9" d="M521.06,349.52c0,.12-116,.22-259.08.22s-259.11-.1-259.11-.22,116-.22,259.11-.22S521.06,349.4,521.06,349.52Z"/><path class="cls-10" d="M80,320.54c-8.26-4.78-12.67-15.92-13-25s3.46-18.61,10.93-23.84c7.87-5.5,19.08-5.4,27.17-.22S117.9,286.4,117.54,296a32.58,32.58,0,0,1-13.34,24.45"/><path class="cls-7" d="M93.15,321.42a10.52,10.52,0,0,1-.15-2.08c0-1.49-.1-3.4-.16-5.69-.13-4.79-.32-11.42-.64-18.73s-.71-13.93-1-18.72c-.14-2.28-.25-4.19-.34-5.68a11.17,11.17,0,0,1,0-2.09,11,11,0,0,1,.33,2.07c.16,1.33.36,3.26.58,5.66.44,4.78.92,11.4,1.25,18.72s.42,14,.4,18.77c0,2.4,0,4.34-.08,5.69A11.59,11.59,0,0,1,93.15,321.42Z"/><path class="cls-9" d="M69.42,293.45c0,.21-1.33.28-2.94.15s-2.89-.41-2.88-.63,1.34-.28,2.94-.14S69.44,293.24,69.42,293.45Z"/><path class="cls-9" d="M69.87,285.28c-.09.19-1.22-.12-2.53-.71s-2.31-1.21-2.23-1.4,1.22.11,2.54.7S70,285.08,69.87,285.28Z"/><path class="cls-9" d="M74.08,279.21c-.11.18-1.39-.43-2.72-1.53s-2.16-2.24-2-2.38,1.21.73,2.5,1.79S74.19,279,74.08,279.21Z"/><path class="cls-9" d="M78.31,273.48c-.2.09-.81-.87-1.37-2.13s-.85-2.36-.66-2.45.81.87,1.37,2.14S78.5,273.4,78.31,273.48Z"/><path class="cls-9" d="M84.94,269.42c-.19.09-.85-.93-1.28-2.34s-.48-2.62-.27-2.65.58,1.07,1,2.42S85.14,269.33,84.94,269.42Z"/><path class="cls-9" d="M96,264.84c.2.07.08.94-.28,1.94s-.8,1.76-1,1.69-.08-.94.27-1.94S95.82,264.77,96,264.84Z"/><path class="cls-9" d="M104.23,268.37c.15.16-.38.88-1.18,1.61s-1.55,1.21-1.7,1,.38-.88,1.18-1.61S104.09,268.21,104.23,268.37Z"/><path class="cls-9" d="M111.46,273c.12.17-.52.82-1.43,1.44s-1.75,1-1.87.8.52-.83,1.43-1.44S111.34,272.86,111.46,273Z"/><path class="cls-9" d="M116.6,280c.08.2-.93.82-2.26,1.39s-2.49.87-2.57.67.93-.82,2.26-1.39S116.51,279.8,116.6,280Z"/><path class="cls-9" d="M118.62,287.59c0,.22-1,.52-2.3.68s-2.37.12-2.4-.09,1-.52,2.3-.68S118.59,287.38,118.62,287.59Z"/><path class="cls-9" d="M119.67,296.94c-.08.2-1.18-.09-2.45-.64s-2.23-1.16-2.14-1.36,1.18.1,2.45.65S119.76,296.75,119.67,296.94Z"/><path class="cls-9" d="M118.75,305c-.07.2-1.46-.13-2.91-1.09s-2.32-2.08-2.16-2.22,1.21.69,2.58,1.58S118.82,304.76,118.75,305Z"/><path class="cls-9" d="M114.57,312.27c-.13.16-1.23-.49-2.29-1.63s-1.63-2.29-1.46-2.41,1,.79,2,1.88S114.7,312.09,114.57,312.27Z"/><path class="cls-9" d="M74.91,313.12c.1.19-1.06,1-2.59,1.79s-2.85,1.29-2.95,1.1,1.06-1,2.59-1.79S74.81,312.93,74.91,313.12Z"/><path class="cls-9" d="M71.29,306.52c.09.19-.84.8-2.08,1.36s-2.31.86-2.39.67.84-.81,2.07-1.37S71.2,306.32,71.29,306.52Z"/><path class="cls-9" d="M68.63,300.67c0,.21-1.12.55-2.56.75s-2.64.2-2.67,0,1.12-.55,2.56-.75S68.6,300.46,68.63,300.67Z"/><path class="cls-9" d="M77.36,297.44c.06.2-1,.72-2.54.89s-2.7-.09-2.68-.3,1.18-.31,2.59-.47S77.3,297.23,77.36,297.44Z"/><path class="cls-9" d="M84.62,290.22c.06.2-.83.65-2,.77s-2.16-.15-2.13-.36.94-.3,2.06-.41S84.55,290,84.62,290.22Z"/><path class="cls-9" d="M86,284.44c-.07.2-1,.05-2.15-.33s-2-.87-1.89-1.07,1-.05,2.15.34S86.07,284.24,86,284.44Z"/><path class="cls-9" d="M88.66,278.59c-.15.15-.81-.29-1.28-1.11s-.52-1.6-.32-1.66.57.55,1,1.28S88.82,278.44,88.66,278.59Z"/><path class="cls-9" d="M85.46,302.54c.05.2-.79.59-1.86.85a7.47,7.47,0,0,1-1.57.23l-.15-.45c.28-.05.46,0,.49,0s-.07.23-.3.4l-.15-.45a6.62,6.62,0,0,1,1.49-.52C84.49,302.38,85.41,302.33,85.46,302.54Z"/><path class="cls-9" d="M87,312.79c.08.2-1,.8-2.37,1.35s-2.58.82-2.66.63,1-.81,2.38-1.35S86.87,312.59,87,312.79Z"/><path class="cls-9" d="M78.76,308.24c.06.2-.64.62-1.59.94s-1.76.42-1.83.22.64-.63,1.58-.95S78.69,308,78.76,308.24Z"/><path class="cls-9" d="M79.38,287.36c0,.21-1.28.09-2.71-.42s-2.46-1.18-2.37-1.37,1.25.15,2.63.64S79.43,287.15,79.38,287.36Z"/><path class="cls-9" d="M99.22,285.1c.11.17-.58.84-1.56,1.48s-1.86,1-2,.84.57-.84,1.55-1.48S99.1,284.92,99.22,285.1Z"/><path class="cls-9" d="M100.29,295.39c0,.21-.68.54-1.63.74s-1.74.18-1.78,0,.68-.54,1.63-.73S100.25,295.18,100.29,295.39Z"/><path class="cls-9" d="M101.55,307c-.09.19-1.14-.1-2.35-.66s-2.11-1.17-2-1.36,1.14.1,2.35.66S101.64,306.78,101.55,307Z"/><path class="cls-9" d="M98.9,318.24c-.17.14-.85-.42-1.53-1.25s-1.09-1.6-.93-1.73.85.42,1.53,1.24S99.06,318.11,98.9,318.24Z"/><path class="cls-9" d="M98.35,277.51c.13.17-.32.74-1.09,1.12s-1.5.41-1.55.21.51-.55,1.2-.9S98.22,277.34,98.35,277.51Z"/><path class="cls-9" d="M108.07,287.9c.07.2-.83.69-2.06.86s-2.23-.06-2.21-.27,1-.33,2.11-.5S108,287.69,108.07,287.9Z"/><path class="cls-9" d="M106.14,278.58c.09.18-.8.82-2.07,1.23s-2.37.4-2.4.19,1-.54,2.16-.93S106,278.38,106.14,278.58Z"/><path class="cls-9" d="M110.19,302.34c0,.21-1.53.34-3.37,0s-3.22-1-3.15-1.19,1.51.11,3.29.43S110.2,302.12,110.19,302.34Z"/><path class="cls-9" d="M106.58,315.88c-.13.17-1.25-.5-2.37-1.63s-1.78-2.25-1.62-2.38,1.08.75,2.17,1.84S106.72,315.71,106.58,315.88Z"/><path class="cls-7" d="M90.7,267.56a34.86,34.86,0,0,0-6.78,5.36,33.1,33.1,0,0,0-8.44,18.66A41.65,41.65,0,0,0,76,303a86.61,86.61,0,0,0,2.14,9.18c.74,2.58,1.42,4.65,1.88,6.09a14.31,14.31,0,0,1,.65,2.25,11.93,11.93,0,0,1-.93-2.15c-.55-1.41-1.31-3.46-2.13-6a79.54,79.54,0,0,1-2.32-9.22,41.37,41.37,0,0,1-.57-11.65,32.54,32.54,0,0,1,8.82-18.95,24,24,0,0,1,5.06-4,15.93,15.93,0,0,1,1.54-.8C90.49,267.61,90.69,267.53,90.7,267.56Z"/><path class="cls-7" d="M101.25,321c-.17-.09,1.74-3,3.47-8.31a47,47,0,0,0,2.08-21.36A40.43,40.43,0,0,0,103.51,280a26.78,26.78,0,0,0-5.62-7.82,20.32,20.32,0,0,0-5.5-3.47c-1.43-.6-2.29-.74-2.27-.81a2.15,2.15,0,0,1,.63.05,11.82,11.82,0,0,1,1.75.48,18.73,18.73,0,0,1,5.75,3.34,26.53,26.53,0,0,1,5.9,7.93,39.36,39.36,0,0,1,3.42,11.59,45.48,45.48,0,0,1-2.33,21.64c-.44,1.34-1,2.48-1.42,3.51s-.91,1.87-1.28,2.55A16.33,16.33,0,0,1,101.25,321Z"/><polygon class="cls-9" points="71.29 319.21 113.92 319.21 114.18 327.74 71.29 327.74 71.29 319.21"/><polygon class="cls-9" points="74.91 323.48 77.36 349.52 108.53 349.52 111.03 323.76 74.91 323.48"/><path class="cls-8" d="M114.18,327.84c0,.22-9.6.39-21.44.39s-21.44-.17-21.44-.39,9.6-.38,21.44-.38S114.18,327.63,114.18,327.84Z"/><path class="cls-8" d="M109.85,335.78a6.5,6.5,0,0,1-.91,1.63,23.55,23.55,0,0,1-3.31,3.9l-.19.19-.2-.21A61.5,61.5,0,0,0,96.89,334l.47,0-3.71,3.25L89.28,341l-.25.21-.24-.2-7.12-6,.42-.05c-1.47,1.8-2.71,3.3-3.69,4.49A10.86,10.86,0,0,1,77,341.08a10.06,10.06,0,0,1,1.19-1.79l3.48-4.65.18-.24.23.2,7.23,5.85h-.49l4.37-3.83,3.71-3.24.23-.2.24.18a54.85,54.85,0,0,1,8.32,7.55l-.39,0A42.25,42.25,0,0,0,109.85,335.78Z"/></g></g></g></svg>