<svg xmlns="http://www.w3.org/2000/svg" viewBox="0 0 1079.11 504.92"><defs><style>.cls-1{fill:gold;}.cls-2{fill:#ffe55c;}.cls-3{fill:none;}</style></defs><title>Asset 40</title><g id="Layer_2" data-name="Layer 2"><g id="Layer_1-2" data-name="Layer 1"><path class="cls-1" d="M744.84,93.49c7.91-16.48,13.78-21.1,17.89-21.87a16,16,0,0,0,6.52-2.47c2.36-1.62,2.94-3.16,5.12-6.21s2.24-2.35,8.12-9.13c6-7,5.64-7.34,6.93-7.68,4.21-1.13,6.94,3.26,18.07,6.32,4.78,1.31,5.93,1,6.41.78,3.69-1.41,2.82-6.08,7.26-14.57,2.31-4.42,3.16-4.33,4.91-8.16a33.16,33.16,0,0,0,3-12.82q3.75-5,7.48-10.1c1.36-2.21,4.93-7.32,10-7.57,4.69-.23,8.26,3.76,14.1,10.29,3.32,3.72,5.16,6.51,9.61,13,3.9,5.69,7.15,10.37,9.4,13.59L891,41.18A28.22,28.22,0,0,0,900.84,34c2.62-3.06,2.52-4.51,5.34-7.19,1.35-1.27,5.42-5.14,10.25-5.25,4.64-.11,7.29,3.31,13,8A91,91,0,0,0,947,40.6a97.29,97.29,0,0,0,12.6,9.71A103,103,0,0,0,981.38,61a237.23,237.23,0,0,0,27.13,13.79,252.68,252.68,0,0,0,70.6,18.71v127h-352l-31-127Z"/><path class="cls-2" d="M702.17,94.14C709.36,77.66,714.7,73,718.43,72.26a13.56,13.56,0,0,0,5.93-2.46c2.15-1.63,2.68-3.16,4.66-6.22s2-2.35,7.38-9.13c5.5-7,5.13-7.33,6.29-7.68,3.83-1.12,6.32,3.27,16.43,6.32,4.35,1.32,5.4,1,5.83.78,3.36-1.41,2.56-6.07,6.6-14.57,2.1-4.41,2.87-4.32,4.47-8.15a36.18,36.18,0,0,0,2.72-12.82q3.4-5.05,6.8-10.1C786.77,6,790,.9,794.67.65c4.26-.22,7.5,3.77,12.81,10.3,3,3.71,4.7,6.5,8.74,13,3.55,5.7,6.5,10.37,8.55,13.6l10.29,4.27A26.12,26.12,0,0,0,844,34.64c2.38-3.05,2.29-4.51,4.85-7.18,1.22-1.28,4.93-5.14,9.32-5.26,4.22-.1,6.63,3.32,11.85,8A83.09,83.09,0,0,0,886,41.25,90.27,90.27,0,0,0,897.41,51a90.57,90.57,0,0,0,19.81,10.68,211.63,211.63,0,0,0,24.66,13.79,213.5,213.5,0,0,0,64.18,18.71v127h-320l-28.19-127Z"/><path class="cls-2" d="M1079.09,504.92H0V85.85H1079.09Z"/><path class="cls-3" d="M1079.09,504.92H0V85.85H1079.09Z"/></g></g></svg>