<svg xmlns="http://www.w3.org/2000/svg" viewBox="0 0 508.78 462.97"><defs><style>.cls-1{opacity:0.95;}.cls-2{fill:#ececec;}.cls-3{fill:#f5f5f5;}.cls-4{fill:#e1e1e1;}.cls-5{fill:#ffd800;}.cls-6{fill:#1a2e35;}.cls-7{fill:#375a64;}.cls-8{opacity:0.3;}.cls-9{fill:#ffbf9d;}.cls-10{fill:#ff9a6c;}.cls-11{opacity:0.6;}.cls-12{fill:#fff;}</style></defs><title>Asset 12</title><g id="Layer_2" data-name="Layer 2"><g id="Layer_1-2" data-name="Layer 1"><g class="cls-1"><path class="cls-2" d="M502,50.35c.63-4.51-5.74-8.22-10.53-8.6-2.28-.19-4.65.16-6.81-.59-4.68-1.63-6.55-7.68-11.12-9.61-3.42-1.44-7.35-.16-10.66,1.51s-6.59,3.76-10.29,4c-3.22.2-6.71-1-9.53.58-2.1,1.17-3.2,3.59-5.13,5s-4.36,1.69-6.71,1.82-4.78.15-6.91,1.13-3.91,3.24-3.47,5.55Z"/><path class="cls-3" d="M408.28,303.07c.85-1.14-36.29-59.71-36.29-59.71l-26.57-4.2-27.36,35.76-11.61-5.44-81.26,31.74-56.94-72.57-8.69,9-22.82-33.93L122.1,236.21l-22.59,56-15.28-11.4L41.79,324h406S407.42,304.22,408.28,303.07Z"/><path class="cls-4" d="M467,323c0,.15-101.55.27-226.79.27S13.35,323.11,13.35,323s101.53-.28,226.81-.28S467,322.81,467,323Z"/><path class="cls-4" d="M447.27,338.54c0,.15-26.39.28-58.94.28s-58.95-.13-58.95-.28,26.39-.27,58.95-.27S447.27,338.39,447.27,338.54Z"/><path class="cls-2" d="M82.7,96.14c.63-6.6-5.85-12-10.72-12.59-2.33-.27-4.74.24-6.94-.86-4.77-2.39-6.67-11.24-11.33-14-3.47-2.11-7.48-.24-10.85,2.2s-6.7,5.51-10.47,5.85c-3.28.31-6.83-1.44-9.7.86-2.14,1.71-3.26,5.25-5.23,7.33S13,87.36,10.64,87.54s-4.87.23-7,1.66A8.76,8.76,0,0,0,.07,97.31Z"/><path class="cls-3" d="M450.45,185.19c.79-5.73-7.31-10.46-13.4-10.95-2.9-.23-5.92.21-8.67-.75-6-2.07-8.34-9.77-14.15-12.22-4.35-1.83-9.35-.2-13.56,1.92s-8.38,4.79-13.09,5.09c-4.09.26-8.54-1.26-12.12.74-2.67,1.49-4.07,4.57-6.53,6.38s-5.54,2.16-8.53,2.32-6.08.19-8.8,1.44-5,4.12-4.4,7.05Z"/><path class="cls-3" d="M321.3,25.37c.55-4.05-5.16-7.38-9.46-7.73-2-.16-4.17.15-6.12-.53-4.2-1.46-5.88-6.89-10-8.63-3.07-1.29-6.6-.14-9.58,1.36s-5.91,3.38-9.23,3.59c-2.89.19-6-.88-8.56.53-1.88,1-2.87,3.22-4.6,4.5s-3.92,1.52-6,1.63a17.05,17.05,0,0,0-6.21,1c-1.92.88-3.5,2.91-3.11,5Z"/><path class="cls-4" d="M430.23,346.62a2.94,2.94,0,0,1-.67.06l-1.92.05-7,.09-23.23.08-23.22-.08-7-.09-1.91-.05a2.94,2.94,0,0,1-.67-.06,5,5,0,0,1,.67-.05l1.91-.05,7-.09,23.22-.08,23.23.08,7,.09,1.92.05A5,5,0,0,1,430.23,346.62Z"/><path class="cls-5" d="M469.19,410a6.2,6.2,0,0,1,2.53,4.16,11,11,0,0,1-.45,4.95c-.92,3.09-3.28,6-5.67,8.14-2.24-2.8-2.13-7-2-9.06.3-3.33,2.86-9.17,5.54-8.19"/><path class="cls-5" d="M467.76,433a5.34,5.34,0,0,1,2.58-4.67,7.05,7.05,0,0,1,5.4-.68,2.93,2.93,0,0,1,2.07,1.41,2.29,2.29,0,0,1-.37,2.27,4.74,4.74,0,0,1-2,1.35c-2.57,1-5.24,1.57-7.71.32"/><path class="cls-6" d="M462.62,442.07a6,6,0,0,1,.21-.63c.17-.44.38-1,.64-1.7a18.52,18.52,0,0,1,2.81-5.28,11.39,11.39,0,0,1,4.79-3.56,7.49,7.49,0,0,1,1.77-.43,3.62,3.62,0,0,1,.49,0h.17a11.28,11.28,0,0,0-2.37.61,11.78,11.78,0,0,0-4.67,3.55,20.38,20.38,0,0,0-2.84,5.2c-.29.71-.53,1.28-.7,1.67A3.74,3.74,0,0,1,462.62,442.07Z"/><path class="cls-6" d="M467.63,414.59a1.27,1.27,0,0,1,0,.29c0,.21-.06.48-.1.82-.08.71-.23,1.75-.41,3-.37,2.55-.93,6.06-1.64,9.92s-1.42,7.35-2,9.86c-.27,1.26-.51,2.27-.68,3-.08.33-.15.6-.2.8s-.08.28-.08.28a.92.92,0,0,1,0-.29l.15-.81c.15-.73.36-1.75.61-3,.51-2.52,1.21-6,1.91-9.86s1.29-7.37,1.71-9.91l.48-3c.06-.34.11-.61.14-.82A1.24,1.24,0,0,1,467.63,414.59Z"/><path class="cls-5" d="M462.82,434.09A12.43,12.43,0,0,0,457.74,424c-.81-.59-1.92-1.07-2.77-.54s-.9,1.75-.71,2.73a10.62,10.62,0,0,0,8.45,8.2"/><path class="cls-6" d="M457.64,427a3.5,3.5,0,0,1,.52.35c.16.12.36.26.58.45s.47.39.72.66a9.74,9.74,0,0,1,.8.86,12.23,12.23,0,0,1,.83,1.08,13.43,13.43,0,0,1,1.45,2.75,13.28,13.28,0,0,1,.74,3,13,13,0,0,1,.08,1.35,8.78,8.78,0,0,1-.05,1.18c0,.37-.09.69-.12,1a6.87,6.87,0,0,1-.15.72,3.91,3.91,0,0,1-.18.6c-.05,0,.19-.87.29-2.3a11,11,0,0,0,0-1.16,10.73,10.73,0,0,0-.1-1.34,14.08,14.08,0,0,0-.74-3,14.37,14.37,0,0,0-1.41-2.71,10.64,10.64,0,0,0-.8-1.07c-.25-.34-.53-.61-.77-.88C458.34,427.57,457.61,427.06,457.64,427Z"/><path class="cls-6" d="M471.73,134.35a71.47,71.47,0,0,1,12.64,0,74.1,74.1,0,0,1-12.64,0Z"/><path class="cls-6" d="M446.44,134.35a71.47,71.47,0,0,1,12.64,0,74.1,74.1,0,0,1-12.64,0Z"/><path class="cls-6" d="M421.17,133.79a56.13,56.13,0,0,1,6.31.17,45.36,45.36,0,0,1,6.32.39,31.14,31.14,0,0,1-6.34.16A26.46,26.46,0,0,1,421.17,133.79Z"/><path class="cls-6" d="M398.81,123.55a61.63,61.63,0,0,0,4.7,4.15c2.81,2,5.45,3.09,5.37,3.26a5.7,5.7,0,0,1-1.77-.58,21.88,21.88,0,0,1-3.92-2.23A14.34,14.34,0,0,1,398.81,123.55Z"/><path class="cls-6" d="M391.91,99.66c.13,0,.31,2.81.74,6.27s1,6.21.86,6.24A21.67,21.67,0,0,1,392.1,106C391.67,102.51,391.74,99.65,391.91,99.66Z"/><path class="cls-6" d="M382.69,76.63a20,20,0,0,1,4,5,19,19,0,0,1,2.65,5.77c-.16.06-1.28-2.54-3.12-5.48S382.56,76.74,382.69,76.63Z"/><path class="cls-6" d="M361.93,62.74a20.34,20.34,0,0,1,6,2.12,21,21,0,0,1,5.36,3.4c-.1.14-2.48-1.39-5.6-2.91S361.88,62.89,361.93,62.74Z"/><path class="cls-6" d="M336.92,61.77a20.77,20.77,0,0,1,6.23-1.17,36.61,36.61,0,0,1,4.49-.06,6.65,6.65,0,0,1,1.85.19,5.62,5.62,0,0,1-1.85.2c-1.15,0-2.71.08-4.45.22C339.73,61.4,337,61.93,336.92,61.77Z"/><path class="cls-6" d="M315,73.59a20.1,20.1,0,0,1,4.62-4.34,20.49,20.49,0,0,1,5.51-3.16c.08.15-2.39,1.53-5.18,3.6S315.07,73.71,315,73.59Z"/><path class="cls-6" d="M303.9,95.84A19.07,19.07,0,0,1,305,89.58a19.07,19.07,0,0,1,2.61-5.79c.15.08-1.08,2.62-2.08,5.95S304.07,95.86,303.9,95.84Z"/><path class="cls-6" d="M303.33,121.11a37,37,0,0,1-.18-6.32,37.25,37.25,0,0,1,.36-6.32,36.34,36.34,0,0,1,.19,6.32A37.71,37.71,0,0,1,303.33,121.11Z"/><path class="cls-6" d="M303,146.4a37.24,37.24,0,0,1-.18-6.33,36.59,36.59,0,0,1,.37-6.32,37.24,37.24,0,0,1,.18,6.33A35.43,35.43,0,0,1,303,146.4Z"/><path class="cls-6" d="M302.6,171.68a37,37,0,0,1-.18-6.32,37.13,37.13,0,0,1,.36-6.32,36.34,36.34,0,0,1,.19,6.32A37.82,37.82,0,0,1,302.6,171.68Z"/><path class="cls-6" d="M295.62,195.51c-.13-.1,1.47-2.43,3-5.55s2.36-5.82,2.52-5.78a18.6,18.6,0,0,1-2,6A19.09,19.09,0,0,1,295.62,195.51Z"/><path class="cls-6" d="M275.8,210.61c-.06-.15,2.56-1.2,5.6-2.88s5.34-3.32,5.44-3.19a27.73,27.73,0,0,1-11,6.07Z"/><path class="cls-6" d="M250.86,213.54a39.12,39.12,0,0,1,6.32-.26h2.46l2,0a6.78,6.78,0,0,1,1.86.11,5.92,5.92,0,0,1-1.84.27l-2,.15c-.76,0-1.59,0-2.46,0A34.62,34.62,0,0,1,250.86,213.54Z"/><path class="cls-6" d="M227,206.26c.09-.14,2.48,1.36,5.64,2.81s5.83,2.34,5.79,2.5a20.57,20.57,0,0,1-6-2A20.35,20.35,0,0,1,227,206.26Z"/><path class="cls-6" d="M211.21,187c.15,0,1.2,2.57,3,5.56s3.51,5.2,3.38,5.31a19.52,19.52,0,0,1-3.86-5A18.73,18.73,0,0,1,211.21,187Z"/><path class="cls-6" d="M208.81,162a37.11,37.11,0,0,1,.27,6.32,37.11,37.11,0,0,1-.27,6.32,35.3,35.3,0,0,1-.28-6.32A35.3,35.3,0,0,1,208.81,162Z"/><path class="cls-6" d="M208.81,136.73a37.11,37.11,0,0,1,.27,6.32,37.11,37.11,0,0,1-.27,6.32,35.3,35.3,0,0,1-.28-6.32A35.3,35.3,0,0,1,208.81,136.73Z"/><path class="cls-6" d="M208.81,111.44a37.11,37.11,0,0,1,.27,6.32,37.11,37.11,0,0,1-.27,6.32,35.3,35.3,0,0,1-.28-6.32A35.3,35.3,0,0,1,208.81,111.44Z"/><path class="cls-6" d="M208.81,86.15a37.28,37.28,0,0,1,.27,6.33,37.11,37.11,0,0,1-.27,6.32,35.3,35.3,0,0,1-.28-6.32A35.46,35.46,0,0,1,208.81,86.15Z"/><path class="cls-6" d="M208.75,60.87a5.93,5.93,0,0,1,.25,1.85c.05,1.14.08,2.72.08,4.47a37.11,37.11,0,0,1-.27,6.32,35.3,35.3,0,0,1-.28-6.32c0-1.75,0-3.33.08-4.47A6.71,6.71,0,0,1,208.75,60.87Z"/><path class="cls-6" d="M199.21,38a19.25,19.25,0,0,1,4,4.9,19.07,19.07,0,0,1,2.69,5.75c-.15.06-1.3-2.53-3.16-5.46S199.09,38.06,199.21,38Z"/><path class="cls-6" d="M178,24.89a20.38,20.38,0,0,1,6.08,1.83,20.36,20.36,0,0,1,5.5,3.15c-.09.14-2.53-1.28-5.72-2.65S177.93,25.05,178,24.89Z"/><path class="cls-6" d="M152.87,24.07a20.74,20.74,0,0,1,6.26-1c1.76-.1,3.35,0,4.49,0a6.28,6.28,0,0,1,1.85.19,6.28,6.28,0,0,1-1.85.19c-1.15.06-2.73.05-4.46.15C155.69,23.77,152.9,24.23,152.87,24.07Z"/><path class="cls-6" d="M130.6,35.32a20,20,0,0,1,4.74-4.22,20.32,20.32,0,0,1,5.59-3c.07.15-2.43,1.47-5.27,3.46S130.72,35.44,130.6,35.32Z"/><path class="cls-6" d="M118.9,57.23A18.69,18.69,0,0,1,120.15,51a18.79,18.79,0,0,1,2.78-5.7c.14.08-1.16,2.59-2.26,5.88S119.07,57.25,118.9,57.23Z"/><path class="cls-6" d="M118.47,82.49a36.46,36.46,0,0,1-.28-6.32,36.46,36.46,0,0,1,.28-6.32,37.11,37.11,0,0,1,.27,6.32A37.11,37.11,0,0,1,118.47,82.49Z"/><path class="cls-6" d="M118.47,107.78a36.46,36.46,0,0,1-.28-6.32,36.53,36.53,0,0,1,.28-6.33,37.19,37.19,0,0,1,.27,6.33A37.11,37.11,0,0,1,118.47,107.78Z"/><path class="cls-6" d="M117.83,133c-.16,0,.32-2.82.36-6.29a36.55,36.55,0,0,1,.28-6.32,36,36,0,0,1,.27,6.33A19,19,0,0,1,117.83,133Z"/><path class="cls-6" d="M105.43,154.55c-.11-.12,2-2,4.16-4.73s3.67-5.09,3.82-5a19.43,19.43,0,0,1-3.4,5.36A19.69,19.69,0,0,1,105.43,154.55Z"/><path class="cls-6" d="M82.85,165.18c0-.16,2.76-.67,6.07-1.69s5.91-2.16,6-2A20,20,0,0,1,89.08,164,20.57,20.57,0,0,1,82.85,165.18Z"/><path class="cls-6" d="M57.59,166a36.59,36.59,0,0,1,6.32-.37,36.58,36.58,0,0,1,6.33.19,37.25,37.25,0,0,1-6.32.36A37.24,37.24,0,0,1,57.59,166Z"/><path class="cls-6" d="M32.31,166.38a37.25,37.25,0,0,1,6.32-.36,37,37,0,0,1,6.32.18,35.33,35.33,0,0,1-6.32.37A36.34,36.34,0,0,1,32.31,166.38Z"/><path class="cls-6" d="M7,166.74a35.16,35.16,0,0,1,6.31-.37,36.5,36.5,0,0,1,6.33.19,37.25,37.25,0,0,1-6.32.36A37,37,0,0,1,7,166.74Z"/><path class="cls-5" d="M173.06,7.52a7.52,7.52,0,1,0-14,3.8h0l0,0c.29.48.65.83,1,1.34l4.36,5.78a1.36,1.36,0,0,0,2.17,0l4.29-5.68A16.57,16.57,0,0,0,172,11.34l0,0h0A7.54,7.54,0,0,0,173.06,7.52Zm-7.52,3.27a3.31,3.31,0,1,1,3.31-3.31A3.31,3.31,0,0,1,165.54,10.79Z"/><path class="cls-5" d="M458.17,118.85a7.52,7.52,0,0,0-14.92-1.33,7.39,7.39,0,0,0,.92,5.13h0l0,0c.29.48.65.83,1,1.34l4.36,5.78a1.36,1.36,0,0,0,2.17,0l4.29-5.68a16.05,16.05,0,0,0,1.1-1.45v0h0A7.44,7.44,0,0,0,458.17,118.85Zm-7.52,3.27a3.31,3.31,0,1,1,3.31-3.31A3.31,3.31,0,0,1,450.65,122.12Z"/><path class="cls-7" d="M352.5,44.38a7.52,7.52,0,1,0-14,3.8h0l0,0c.29.49.65.83,1,1.35l4.37,5.78a1.36,1.36,0,0,0,2.17,0l4.29-5.69a16.57,16.57,0,0,0,1.09-1.45l0,0h0A7.41,7.41,0,0,0,352.5,44.38ZM345,47.66a3.31,3.31,0,1,1,3.31-3.31A3.31,3.31,0,0,1,345,47.66Z"/><path class="cls-7" d="M42.56,144.49a9.3,9.3,0,0,0-18.45-1.65,9.21,9.21,0,0,0,1.14,6.34h0l0,0c.35.6.8,1,1.25,1.66l5.4,7.15a1.68,1.68,0,0,0,2.68,0l5.31-7a19.83,19.83,0,0,0,1.35-1.79l0,0h0A9.14,9.14,0,0,0,42.56,144.49Zm-9.3,4a4.1,4.1,0,1,1,4.09-4.1A4.1,4.1,0,0,1,33.26,148.54Z"/><path class="cls-7" d="M210,163.31c-5.73-.49-11.49,1-16.7,3.47-5.51,2.58-10.72,6.38-13.47,11.81s-2.44,12.69,1.89,17c-8.31,2.21-14.56,9.6-17.18,17.79s-2.06,17.09-.4,25.52c.79,4,2.19,8.42,5.87,10.14,2.37,1.12,5.26.86,7.49,2.22s3.23,3.85,4.63,6a17.92,17.92,0,0,0,25.59,4.55l17-90.58C221.46,166.47,215.77,163.79,210,163.31Z"/><path class="cls-6" d="M221.49,173.05a11.11,11.11,0,0,1-1.17,1.42c-.79.89-1.93,2.16-3.39,3.69A72.83,72.83,0,0,1,204.43,189,36.08,36.08,0,0,1,189,195a24.3,24.3,0,0,1-5,.1,13.32,13.32,0,0,1-1.36-.17,1.69,1.69,0,0,1-.47-.1,14.12,14.12,0,0,1,1.84.06,28.11,28.11,0,0,0,5-.28,37.43,37.43,0,0,0,15.14-6,81.15,81.15,0,0,0,12.52-10.67l3.51-3.57A13.86,13.86,0,0,1,221.49,173.05Z"/><path class="cls-6" d="M188.26,200.2c-.06,0-.33-.42-.56-1.23a8.26,8.26,0,0,1-.16-3.27,8.12,8.12,0,0,1,1.16-3.06c.47-.7.87-1,.92-1a15.81,15.81,0,0,0-1.53,4.14A16.54,16.54,0,0,0,188.26,200.2Z"/><path class="cls-6" d="M194,203.56a1.81,1.81,0,0,1,.24.49c.13.34.35.82.57,1.47a47.57,47.57,0,0,1,1.61,5.55,41.11,41.11,0,0,1,0,19,31.8,31.8,0,0,1-9.82,16.13,25.19,25.19,0,0,1-4.77,3.27,14.12,14.12,0,0,1-1.43.67,1.58,1.58,0,0,1-.51.19s.66-.37,1.83-1a27.21,27.21,0,0,0,4.62-3.37,32.35,32.35,0,0,0,9.55-16,42.49,42.49,0,0,0,.19-18.75,55.81,55.81,0,0,0-1.44-5.56A20.37,20.37,0,0,1,194,203.56Z"/><path class="cls-6" d="M196.94,217.83a7.16,7.16,0,0,1-1.29-.28c-.82-.22-2-.52-3.49-.86a85,85,0,0,0-11.66-1.89,86.86,86.86,0,0,0-11.81-.22c-1.51.08-2.73.16-3.58.23a6.61,6.61,0,0,1-1.32.05,6,6,0,0,1,1.3-.26c.84-.14,2.06-.28,3.58-.41a70.37,70.37,0,0,1,23.59,2.12c1.47.39,2.65.75,3.45,1A5.9,5.9,0,0,1,196.94,217.83Z"/><g class="cls-8"><path d="M182.92,194.86h0c5.74,3.7,13.47,3.27,19.56.17s10.54-8.88,12.9-15.29C207.43,188.88,195.64,195.54,182.92,194.86Z"/></g><g class="cls-8"><path d="M179.85,250.29a16.16,16.16,0,0,0,12.07-6.75c2.64-3.83,3.85-8.48,4.42-13.1a61.57,61.57,0,0,1-5.78,11.39A28.09,28.09,0,0,1,186,246.4a29.78,29.78,0,0,1-6.16,3.89"/></g><path class="cls-6" d="M185.81,215.11a9.93,9.93,0,0,1,.75,2.75c.17.86.38,1.85.69,3a3.53,3.53,0,0,1,0,1.94,1.77,1.77,0,0,1-1.71,1.29,2,2,0,0,1-1.62-1.4,3.6,3.6,0,0,1,0-1.93c.31-1.15.64-2.12.9-3a15.24,15.24,0,0,1,1-2.67,14,14,0,0,1-.59,2.78c-.24.9-.49,1.89-.77,3a3.08,3.08,0,0,0,0,1.65,1.46,1.46,0,0,0,1.15,1,1.24,1.24,0,0,0,1.16-.92,3.08,3.08,0,0,0,0-1.65c-.27-1.11-.45-2.17-.57-3A24.83,24.83,0,0,1,185.81,215.11Z"/><path class="cls-6" d="M210.74,181.21a31.73,31.73,0,0,1-3.37-2,78.21,78.21,0,0,0-8.26-4.48,38.41,38.41,0,0,0-8.89-2.85c-2.37-.42-3.86-.43-3.86-.53a3.79,3.79,0,0,1,1-.07,22.77,22.77,0,0,1,2.87.22,33.79,33.79,0,0,1,9.06,2.73,59.85,59.85,0,0,1,8.24,4.65c1,.67,1.8,1.23,2.35,1.63S210.77,181.18,210.74,181.21Z"/><path class="cls-6" d="M209.16,180.51c.06,0,.12.35-.18.81a1.81,1.81,0,0,1-1.86.77h0l-.34-.07.16-.32a2.58,2.58,0,0,1,1.48-1.3c.49-.16.81-.1.81,0s-.27.16-.65.38a2.94,2.94,0,0,0-1.15,1.19l-.18-.39h0a1.67,1.67,0,0,0,1.44-.48C209,180.78,209.08,180.49,209.16,180.51Z"/><path class="cls-9" d="M298.26,178.48s-4.24-5.55-4.21-7.8l1.75-13.06s.76-1.31,1.94.87c1.09,2,.47,5.11.47,5.11l.73,3.07,1.59-2.32,1.79-8.72s1.15-6.31,2.13-5.65,1.26,2.49.76,5.21-1.12,6.17-1.12,6.17-.13,1.08.89-.73,2.12-9.41,2.51-10.44.55-3.74,2.1-3.6.64,3.62.64,3.62l-1.49,11.24s1.45-4.52,1.73-5.29.71-3.24,1.23-4.59,1.31-2,2-2a1.29,1.29,0,0,1,1.21,1.29l-2.3,9.61s-1.28,4.39-1.19,4.67,1.7-1.83,1.7-1.83l1.24-3.12s1-4.42,2.21-4.55,1.23.77,1.23.77l-1.95,8.08-3.58,9.15-3.39,6.93s-4.72-.74-4.9-.49S298.26,178.48,298.26,178.48Z"/><path class="cls-10" d="M306.63,174.59a15.33,15.33,0,0,1-1-2,7.11,7.11,0,0,0-3.5-3.74,3.84,3.84,0,0,0-2.48-.19l-.27.09-.07-.31c-.31-1.34-.72-2.57-.92-3.42s-.28-1.38-.21-1.39a7.24,7.24,0,0,1,.52,1.3,36.14,36.14,0,0,1,1.14,3.44l-.34-.22a4.24,4.24,0,0,1,2.84.17,5.81,5.81,0,0,1,2.45,1.91,9.19,9.19,0,0,1,1.21,2.19A6.33,6.33,0,0,1,306.63,174.59Z"/><path class="cls-5" d="M261.71,172.16l23.37,34.92,10.5-30.44,14.36,3.54s-5.86,40.92-8.1,45-9.25,9.92-17.87,8.74-26-24.47-26-24.47Z"/><path class="cls-6" d="M288,221.1a31.82,31.82,0,0,0-.43-7.59,31.47,31.47,0,0,0-2.77-7.09,6.57,6.57,0,0,1,1.34,1.84,18.3,18.3,0,0,1,2.31,10.61A6.09,6.09,0,0,1,288,221.1Z"/><g class="cls-8"><path d="M263.48,216.87a5.47,5.47,0,0,0,2.85-4.07,16.38,16.38,0,0,0-.15-5.13c-.95-6.89-2.27-14.07-3.21-21l.36,29.44"/></g><g class="cls-8"><path d="M288.21,219.4a2.83,2.83,0,0,0,2.13-1.68,5.4,5.4,0,0,0,.38-2.79,10.59,10.59,0,0,0-5.77-8.42,23.53,23.53,0,0,1,3.26,12.89"/></g><path class="cls-5" d="M288.57,399.69l13.35,30.4L340.11,414c-1.76-3.54-26.13-1.74-26.13-1.74l-8.47-20.64Z"/><g class="cls-11"><path class="cls-12" d="M303,414.8a1.68,1.68,0,0,0-.32,2.23,1.63,1.63,0,0,0,2.21.34,1.78,1.78,0,0,0,.33-2.36,1.69,1.69,0,0,0-2.34-.11"/></g><g class="cls-11"><path class="cls-12" d="M301.92,430.09l-1.2-3.13,37.06-14.25s2,0,2.33,1.3Z"/></g><path class="cls-6" d="M314.7,412.37c.07.19-.83.67-1.49,1.65s-.82,2-1,2-.38-1.19.45-2.37S314.67,412.19,314.7,412.37Z"/><path class="cls-6" d="M320.43,412c.12.16-.55.82-.86,1.87s-.13,2-.32,2-.75-.93-.35-2.23S320.35,411.82,320.43,412Z"/><path class="cls-6" d="M324.57,415.68c-.16.11-.81-.71-.76-1.93s.75-2,.89-1.88-.16.9-.19,1.9S324.74,415.58,324.57,415.68Z"/><path class="cls-6" d="M312.25,407.39c0,.2-1,.31-2,.82s-1.7,1.2-1.87,1.08.35-1.12,1.56-1.71S312.28,407.21,312.25,407.39Z"/><path class="cls-5" d="M154.77,429.51l-1.64-16.23,13.55-17.06-16.6-10.68-.44.66-8.46,12.74-11,8.65,17.41,28.59,16.95-1.13S163.07,431.06,154.77,429.51Z"/><g class="cls-11"><polygon class="cls-12" points="130.21 407.6 147.62 436.18 164.57 435.05 162.49 432.63 148.65 432.79 132.54 405.75 130.21 407.6"/></g><path class="cls-6" d="M154.16,422.06c-.11.18-1.13-.31-2.44-.18s-2.23.73-2.37.57.72-1.19,2.31-1.31S154.31,421.92,154.16,422.06Z"/><path class="cls-6" d="M153.62,418.05c-.17.13-1-.82-2.36-1s-2.4.51-2.53.35.12-.37.58-.66a3.13,3.13,0,0,1,2.05-.43,3.07,3.07,0,0,1,1.87.94C153.6,417.66,153.7,418,153.62,418.05Z"/><path class="cls-6" d="M153.38,412.86c-.18.1-.82-.84-2-1.16s-2.24.12-2.34-.06.14-.33.6-.54a3,3,0,0,1,3.53,1C153.42,412.5,153.46,412.81,153.38,412.86Z"/><path class="cls-6" d="M157.65,408.54c-.2.08-.74-.85-1.84-1.46s-2.16-.64-2.18-.85,1.22-.57,2.55.2S157.85,408.5,157.65,408.54Z"/><path class="cls-6" d="M159.62,404.91c-.08.06-.68-.58-1.6-1.67l-1.57-1.94a5.29,5.29,0,0,1-.87-1.32,1.37,1.37,0,0,1,0-1,1.08,1.08,0,0,1,1-.61,3.18,3.18,0,0,1,1.64.72,6,6,0,0,1,1.1,1.1,5.72,5.72,0,0,1,1.06,2.39,3.2,3.2,0,0,1-.23,2.34,16.71,16.71,0,0,0-.29-2.22,5.7,5.7,0,0,0-1.08-2.08,5.29,5.29,0,0,0-1-.94,2.63,2.63,0,0,0-1.21-.56.29.29,0,0,0-.31.18.65.65,0,0,0,0,.48,6,6,0,0,0,.73,1.13l1.45,2A6.92,6.92,0,0,1,159.62,404.91Z"/><path class="cls-6" d="M160.26,405.37c-.08,0-.07-.89.78-2a4.25,4.25,0,0,1,5-1.24.78.78,0,0,1,.31.58,1,1,0,0,1-.17.55,2.86,2.86,0,0,1-.57.58,8,8,0,0,1-1.16.76,7.16,7.16,0,0,1-2.18.77,3.5,3.5,0,0,1-2.11,0c0-.12.8-.12,2-.46a8,8,0,0,0,2-.86,6.93,6.93,0,0,0,1-.73,1.76,1.76,0,0,0,.41-.41c.07-.15.06-.11,0-.15a1.49,1.49,0,0,0-.51-.15,3.35,3.35,0,0,0-.63,0,3.91,3.91,0,0,0-1.2.16,4.26,4.26,0,0,0-1.77,1.05C160.58,404.62,160.38,405.41,160.26,405.37Z"/><g class="cls-11"><path class="cls-12" d="M143.7,406.17a2,2,0,1,1-2.15-1.87A2,2,0,0,1,143.7,406.17Z"/></g><path class="cls-5" d="M233.31,117.59a34.48,34.48,0,0,1,3.71-10,14.58,14.58,0,0,1,8-6.64,19.44,19.44,0,0,1,10.77.27,17.91,17.91,0,0,1,6.59,4c3.14,2.73,4.77,7,6.1,11"/><path class="cls-5" d="M270.75,116.53a15.25,15.25,0,0,0-5.76-9.65,20,20,0,0,0-10.64-3.6c-5.92-.45-12.84,1.15-16.9,5.48-3.93,4.18-6.42,10.21-5.92,15.48.23,2.38,2.53,8.8,4.35,10.35l33.9-.88C271.81,130.46,271.36,120.32,270.75,116.53Z"/><path class="cls-9" d="M270.11,123.63a18.74,18.74,0,0,0-18.64-17.26h-1c-10.46.59-15.81,9.8-14.93,20.24l1.88,48.24h24l-.21-15.7s10.06-1.54,10.21-11.6C271.49,142.7,270.82,132.69,270.11,123.63Z"/><path class="cls-10" d="M261.3,159.13a24.33,24.33,0,0,1-13.17-3.88s3.08,7.24,13.12,6.36Z"/><path class="cls-6" d="M266.19,131.58A1.43,1.43,0,0,1,264.8,133a1.36,1.36,0,0,1-1.47-1.3,1.43,1.43,0,0,1,1.38-1.44A1.37,1.37,0,0,1,266.19,131.58Z"/><path class="cls-6" d="M267.93,128.55c-.17.18-1.26-.62-2.81-.62s-2.67.77-2.84.58.1-.42.59-.78a4,4,0,0,1,2.28-.7,3.86,3.86,0,0,1,2.24.73C267.86,128.13,268,128.46,267.93,128.55Z"/><path class="cls-6" d="M251.33,132.27a1.43,1.43,0,0,1-1.38,1.44,1.37,1.37,0,0,1-1.48-1.3,1.44,1.44,0,0,1,1.39-1.44A1.36,1.36,0,0,1,251.33,132.27Z"/><path class="cls-6" d="M252.73,129.32c-.18.19-1.27-.62-2.81-.62s-2.68.77-2.85.58.1-.42.6-.78a3.92,3.92,0,0,1,2.27-.7,3.81,3.81,0,0,1,2.24.73C252.65,128.9,252.82,129.24,252.73,129.32Z"/><path class="cls-6" d="M258.33,140.27a10.52,10.52,0,0,1,2.51-.44c.4,0,.77-.12.84-.39a2,2,0,0,0-.27-1.17c-.36-1-.75-2-1.16-3-1.61-4.28-2.77-7.8-2.6-7.86s1.62,3.35,3.23,7.64c.39,1.05.76,2.06,1.11,3a2.24,2.24,0,0,1,.2,1.55,1,1,0,0,1-.65.57,2.94,2.94,0,0,1-.67.1A9.71,9.71,0,0,1,258.33,140.27Z"/><path class="cls-6" d="M253.78,141.33c.25,0,.25,1.67,1.69,2.86s3.21,1,3.23,1.25-.4.32-1.16.34a4.17,4.17,0,0,1-2.69-.95,3.62,3.62,0,0,1-1.31-2.39C253.48,141.74,253.67,141.32,253.78,141.33Z"/><path class="cls-6" d="M253.52,125.82c-.15.42-1.69.24-3.5.48s-3.27.74-3.52.37c-.11-.18.14-.58.73-1a6.17,6.17,0,0,1,5.35-.65C253.25,125.29,253.59,125.62,253.52,125.82Z"/><path class="cls-6" d="M268.31,124.08c-.3.39-1.63.15-3.19.3s-2.86.52-3.2.19c-.15-.17,0-.54.57-.93a5.23,5.23,0,0,1,2.53-.83,5.09,5.09,0,0,1,2.61.44C268.22,123.56,268.44,123.9,268.31,124.08Z"/><path class="cls-9" d="M237.07,134.06c-.17-.08-6.9-2.06-6.69,4.81s7.06,5.25,7.07,5.06S237.07,134.06,237.07,134.06Z"/><path class="cls-10" d="M235.87,141.38s-.11.09-.31.19a1.21,1.21,0,0,1-.9.05,3,3,0,0,1-1.45-2.62,4,4,0,0,1,.29-1.73,1.35,1.35,0,0,1,.87-.94.61.61,0,0,1,.72.3c.09.19,0,.33.09.34s.14-.12.08-.4a.8.8,0,0,0-.28-.42.94.94,0,0,0-.67-.16,1.71,1.71,0,0,0-1.22,1.11,4,4,0,0,0-.36,1.93,3.12,3.12,0,0,0,1.84,2.91,1.29,1.29,0,0,0,1.09-.21C235.87,141.55,235.9,141.4,235.87,141.38Z"/><path class="cls-6" d="M241.58,113.62l3.4-2.93,10.81,1.65,7.58-2,2,2.19c-.85,1.14,1-3.75-.77-5.06-3.72-2.83-6.87-2.73-11.55-2.81s-14.19,5.61-17.57,8.84c-2.71,2.58-2.7,4.81-2.7,4.81-.43,3.72,1.65,7.94,2.48,11.59.43,1.88,1.25,7.58,1.25,7.58h0c1.58,0,2.17-1.27,1.93-2.83l-.3-6.12A9.27,9.27,0,0,0,241,117.77C240.56,117.22,239.69,114.66,241.58,113.62Z"/><path class="cls-6" d="M240.18,115.26a5,5,0,0,1,4.8-3.16,8.45,8.45,0,0,1,5.47,2.5,6.24,6.24,0,0,0,1.23,1,1.59,1.59,0,0,0,1.52.09c.14-.07.3-.19.45-.14a.55.55,0,0,1,.26.22,4.12,4.12,0,0,0,1.59,1.51,1.75,1.75,0,0,0,2-.31,2.69,2.69,0,0,0,2.84.48A2.73,2.73,0,0,0,262,115a2.51,2.51,0,0,0,2.5-1,5.09,5.09,0,0,0-1.27-7.8,9.22,9.22,0,0,0-3.32-1,43,43,0,0,0-5.44-.41,6.74,6.74,0,0,0-2.37.29c-1.05.37-1.92,1.23-3,1.36a5.21,5.21,0,0,1-2.09-.33,8,8,0,0,0-3-.44c-2,.18-3.67,1.62-5,3.14a8.41,8.41,0,0,0-2.1,3.65,3.57,3.57,0,0,0,1.34,3.77,1.76,1.76,0,0,0,1.6.21,1.05,1.05,0,0,0,.57-1.37"/><path class="cls-5" d="M235.43,131c-.74-5.25.14-11.58,4-16.1s10.6-7.25,15.08-6.4c3.5.66,11.09.93,13.87,8.24l-.39-6s-3.39-6.85-13.35-6.65-14.31,1.38-19.13,7.25a13.5,13.5,0,0,0-2.75,13.39A35.39,35.39,0,0,0,235.43,131Z"/><path class="cls-6" d="M262.88,105.54a1.65,1.65,0,0,1-.36-.12c-.24-.08-.58-.24-1-.39a24.9,24.9,0,0,0-3.9-1,27.27,27.27,0,0,0-5.95-.35,24.05,24.05,0,0,0-7.14,1.42,23,23,0,0,0-6.29,3.64,17.17,17.17,0,0,0-2.27,2.23c-.34.37-.61.77-.9,1.13s-.52.75-.74,1.11a21.23,21.23,0,0,0-1.76,3.61c-.18.45-.29.8-.38,1a1.49,1.49,0,0,1-.14.35,2.54,2.54,0,0,1,.1-.37c.07-.24.16-.6.33-1a19.76,19.76,0,0,1,1.71-3.67c.21-.37.47-.74.73-1.13s.56-.77.9-1.15a17.47,17.47,0,0,1,2.28-2.27,23.05,23.05,0,0,1,6.35-3.69,23.92,23.92,0,0,1,7.21-1.42,26.79,26.79,0,0,1,6,.4,23.15,23.15,0,0,1,3.9,1.09c.45.16.78.33,1,.43Z"/><path class="cls-6" d="M236.09,122.17a1.05,1.05,0,0,1-.31-.15,4.87,4.87,0,0,1-.74-.54,6.12,6.12,0,0,1-1.73-2.5,6.19,6.19,0,0,1-.32-3,4.35,4.35,0,0,1,.22-.9c.07-.21.12-.32.14-.31s-.12.47-.19,1.23a6.51,6.51,0,0,0,2,5.38C235.7,121.89,236.11,122.13,236.09,122.17Z"/><path class="cls-6" d="M239,116.14a2.59,2.59,0,0,1-.87-.63,5.62,5.62,0,0,1-1.38-2.19,5.06,5.06,0,0,1-.2-2.58,2.71,2.71,0,0,1,.35-1s-.1.4-.18,1a5.37,5.37,0,0,0,.26,2.48,6.26,6.26,0,0,0,1.27,2.15C238.69,115.87,239,116.1,239,116.14Z"/><path class="cls-6" d="M243.72,111.73a2.2,2.2,0,0,1-.73-.51,5.81,5.81,0,0,1-1.33-1.69,5.28,5.28,0,0,1-.56-2.08,2.29,2.29,0,0,1,.07-.89,7.89,7.89,0,0,0,.7,2.86A9.84,9.84,0,0,0,243.72,111.73Z"/><path class="cls-6" d="M248.26,104a2.17,2.17,0,0,1,.44.66,9.13,9.13,0,0,1,.68,1.78,8.29,8.29,0,0,1,.27,1.89,2.17,2.17,0,0,1-.06.79c-.08,0-.07-1.21-.44-2.62S248.2,104,248.26,104Z"/><path class="cls-6" d="M257,103.78a1.84,1.84,0,0,1,.35.71,5.12,5.12,0,0,1,.25,1.89,5.25,5.25,0,0,1-.46,1.85,1.76,1.76,0,0,1-.43.66,8.67,8.67,0,0,0,.65-2.53A8.36,8.36,0,0,0,257,103.78Z"/><path class="cls-6" d="M262.64,105.36a2.23,2.23,0,0,1,.46.72,5.09,5.09,0,0,1,.47,2,5,5,0,0,1-.36,2,2.12,2.12,0,0,1-.42.75,8.1,8.1,0,0,0,.54-2.78A8,8,0,0,0,262.64,105.36Z"/><path class="cls-6" d="M268,110.1a1.64,1.64,0,0,1,.12.68,4.7,4.7,0,0,1-.26,1.65,4.82,4.82,0,0,1-.84,1.45,1.68,1.68,0,0,1-.52.45,9,9,0,0,0,1.13-2A9.56,9.56,0,0,0,268,110.1Z"/><path class="cls-6" d="M270.78,116a3.29,3.29,0,0,1-1.82,2.75c0-.06.58-.5,1.08-1.26A16.41,16.41,0,0,0,270.78,116Z"/><path class="cls-6" d="M271.14,122.63c.07,0,0,.41-.35.73s-.77.34-.77.28.31-.18.61-.46S271.08,122.61,271.14,122.63Z"/><path class="cls-6" d="M235.38,128.1a5.1,5.1,0,0,1-3.76-2.57,14.53,14.53,0,0,0,1.71,1.53A14.07,14.07,0,0,0,235.38,128.1Z"/><path class="cls-6" d="M235.93,131.43s-.34.39-1,.43-1-.26-1-.31.45.11,1,.07S235.9,131.37,235.93,131.43Z"/><g class="cls-8"><path d="M262.06,105.31a19.25,19.25,0,0,0-14.81-2.69,19.77,19.77,0,0,0-12.18,9.19s6.21-7.86,15.11-8.13S262.06,105.31,262.06,105.31Z"/></g><path class="cls-7" d="M255.18,131.8a9.34,9.34,0,0,0-.2-1.24,5.06,5.06,0,0,0-1.87-2.76,4.89,4.89,0,0,0-2.12-.93,5.09,5.09,0,0,0-2.63.22,4.77,4.77,0,0,0-1.27.69,4.59,4.59,0,0,0-1.05,1.06,5,5,0,0,0,0,5.92,4.59,4.59,0,0,0,1.05,1.06,4.77,4.77,0,0,0,1.27.69,5.09,5.09,0,0,0,2.63.22,4.89,4.89,0,0,0,2.12-.93A5.06,5.06,0,0,0,255,133a9.34,9.34,0,0,0,.2-1.24,3.76,3.76,0,0,1-.11,1.26,5.14,5.14,0,0,1-1.86,2.88,5.15,5.15,0,0,1-4.93.77,5.34,5.34,0,0,1-2.43-1.81,5.23,5.23,0,0,1-1-3.1,5.18,5.18,0,0,1,1-3.09A4.68,4.68,0,0,1,247,127.6a4.84,4.84,0,0,1,1.32-.71,5.15,5.15,0,0,1,4.93.77,5.14,5.14,0,0,1,1.86,2.88A3.76,3.76,0,0,1,255.18,131.8Z"/><path class="cls-7" d="M270.49,131.2a9.34,9.34,0,0,0-.2-1.24,5.12,5.12,0,0,0-1.87-2.76,4.89,4.89,0,0,0-2.12-.93,5.13,5.13,0,0,0-2.64.22,4.71,4.71,0,0,0-1.26.69,4.84,4.84,0,0,0-1.06,1.06,5,5,0,0,0,0,5.92,4.84,4.84,0,0,0,1.06,1.06,4.42,4.42,0,0,0,1.26.68,5,5,0,0,0,2.64.23,4.89,4.89,0,0,0,2.12-.93,5.15,5.15,0,0,0,1.87-2.76,9.34,9.34,0,0,0,.2-1.24,4.14,4.14,0,0,1-.11,1.26,5.14,5.14,0,0,1-1.86,2.88,5.26,5.26,0,0,1-2.19,1,5.2,5.2,0,0,1-2.74-.22,4.89,4.89,0,0,1-1.33-.71,5.08,5.08,0,0,1-1.11-1.11,5.21,5.21,0,0,1,0-6.19,5.56,5.56,0,0,1,1.11-1.11,5.14,5.14,0,0,1,1.33-.7,5.2,5.2,0,0,1,2.74-.22,5.17,5.17,0,0,1,4.05,3.87A4.14,4.14,0,0,1,270.49,131.2Z"/><path class="cls-7" d="M260.42,129.25s-.29-.2-.8-.45a4.31,4.31,0,0,0-2.12-.44,4.39,4.39,0,0,0-2.06.68c-.48.31-.72.57-.75.54a2.07,2.07,0,0,1,.65-.68,4,4,0,0,1,2.14-.77,4,4,0,0,1,2.22.52A1.87,1.87,0,0,1,260.42,129.25Z"/><path class="cls-7" d="M245.29,130.85c0,.06-2,.76-4.6,1.55s-4.65,1.39-4.67,1.33,2-.76,4.6-1.55S245.27,130.79,245.29,130.85Z"/><path class="cls-12" d="M249.87,136.05a2.21,2.21,0,0,1-.89-.12,4.84,4.84,0,0,1-3.11-2.9,2.15,2.15,0,0,1-.18-.89s.11.33.34.83a5.56,5.56,0,0,0,1.22,1.7,5.46,5.46,0,0,0,1.78,1.1C249.54,136,249.88,136,249.87,136.05Z"/><path class="cls-12" d="M262.43,134.37s-.33-.06-.69-.45a3.82,3.82,0,0,1-.84-1.81,5,5,0,0,1,.05-2c.12-.5.3-.77.33-.75s-.09.3-.17.79a5.88,5.88,0,0,0,0,1.91,4.08,4.08,0,0,0,.73,1.74A5.87,5.87,0,0,0,262.43,134.37Z"/><path class="cls-6" d="M255,141.69c0-.05.15-.32.44-.6s.56-.48.6-.44-.15.32-.43.6S255.06,141.73,255,141.69Z"/><path class="cls-6" d="M255.75,142.14c-.05,0,.14-.37.43-.73s.56-.63.61-.59-.14.37-.42.74S255.81,142.18,255.75,142.14Z"/><path class="cls-6" d="M256.5,142.71c-.05,0,.07-.38.28-.77s.42-.68.48-.65-.07.38-.27.77S256.56,142.74,256.5,142.71Z"/><path class="cls-6" d="M257.66,142.71c-.06,0-.1-.24-.08-.53s.1-.51.16-.51.1.24.08.53S257.73,142.71,257.66,142.71Z"/><path class="cls-6" d="M258.76,142.89c-.06,0-.12-.21-.12-.47s.06-.47.12-.47.12.21.12.47S258.83,142.89,258.76,142.89Z"/><path class="cls-6" d="M259.8,143c-.07,0-.18-.25-.26-.59s-.09-.62,0-.64.18.25.25.59S259.86,143,259.8,143Z"/><path class="cls-6" d="M236,144.23a1.63,1.63,0,0,1-2.91,1.28,2,2,0,0,1-.36-1.61,1.77,1.77,0,0,1,.77-1.1,1.45,1.45,0,0,1,1.17-.29,2.65,2.65,0,0,0-1.08.42,1.78,1.78,0,0,0-.65,1,1.93,1.93,0,0,0,.34,1.42,1.38,1.38,0,0,0,1.28.57,1.47,1.47,0,0,0,1-.63A3.23,3.23,0,0,0,236,144.23Z"/><path class="cls-6" d="M221.82,299.26c1.27,0,54,54.83,54,58.65s7.82,42.45,11.65,48.4,6,4.55,6,4.55L311,402.7s-9.7-60.09-11.82-66.89-42.33-59.92-42.33-59.92l-38,7.22Z"/><path class="cls-6" d="M202.36,271.78l-11,67.66s-34.25,34.28-36.37,38.1c0,0-3.83-1.27-5.1,2.13a71.29,71.29,0,0,0-2.38,9.73l17,14.26s44.92-37.25,49.17-42.77,22.06-42,25.46-51.32,7.42-30.07,7.42-30.07Z"/><path class="cls-7" d="M284.62,345.63a7.81,7.81,0,0,1-.76,2.12,29.52,29.52,0,0,1-2.7,4.71,25.43,25.43,0,0,1-3.55,4.12,5.81,5.81,0,0,1-1.82,1.33,20.48,20.48,0,0,1,1.55-1.6,38.67,38.67,0,0,0,3.37-4.16C283.13,348.72,284.46,345.56,284.62,345.63Z"/><path class="cls-7" d="M197.55,344.11a7.29,7.29,0,0,1-5.88-4.76,31.07,31.07,0,0,0,2.62,2.78A29.81,29.81,0,0,0,197.55,344.11Z"/><path class="cls-7" d="M162.2,386.37a12.12,12.12,0,0,1-6.46-9,31,31,0,0,0,2.59,5A30.26,30.26,0,0,0,162.2,386.37Z"/><path class="cls-7" d="M216.49,281.82a2.63,2.63,0,0,1-.22.76,14.52,14.52,0,0,1-.89,2,21.93,21.93,0,0,1-10.23,9.58,14.53,14.53,0,0,1-2,.76,2.57,2.57,0,0,1-.77.17c0-.09,1-.46,2.62-1.28A24.81,24.81,0,0,0,215,284.35C216,282.82,216.4,281.78,216.49,281.82Z"/><path class="cls-7" d="M243.35,299.1a12.64,12.64,0,0,1-.6,1.73c-.46,1.18-1.07,2.74-1.8,4.63-1.56,3.91-3.76,9.28-6.38,15.14s-5.18,11.06-7.06,14.82c-.92,1.81-1.69,3.31-2.26,4.44a13.25,13.25,0,0,1-.9,1.59,11.9,11.9,0,0,1,.71-1.69c.53-1.15,1.24-2.67,2.1-4.51,1.79-3.8,4.28-9,6.91-14.88s4.87-11.19,6.52-15.05c.8-1.87,1.47-3.41,2-4.57A9.84,9.84,0,0,1,243.35,299.1Z"/><path class="cls-5" d="M234.11,162s-11.58,4.66-14.29,12.82c-1.37,4.12-9.37,34.28-9.37,34.28s-10.55,57.9-9.1,63.42l60.35,9.27h0a9.3,9.3,0,0,0,2.11-6.46l-1-17.36.71-74.37a11.35,11.35,0,0,0-.12-1.65l-2.12-13.74.68-5.92-27.06-7.15Z"/><path class="cls-5" d="M232.49,157.36h0a3.33,3.33,0,0,1,4.15-2.71l24.74,6.53a3.35,3.35,0,0,1,2.48,3.42l-.06,1.08a3.35,3.35,0,0,1-4.32,3l-24.68-7.61A3.33,3.33,0,0,1,232.49,157.36Z"/><path class="cls-6" d="M261.71,168.35a5.58,5.58,0,0,1-1.28-.24l-3.44-.87c-2.89-.75-6.88-1.83-11.28-3.06l-5.87-1.65h0a14.19,14.19,0,0,1-2.18-.51,4.83,4.83,0,0,1-1-.42,1.73,1.73,0,0,1-.45-.33,3,3,0,0,1-.3-.46,3.37,3.37,0,0,1-.23-1.85,5.76,5.76,0,0,1,.41-1.5,6.78,6.78,0,0,1,1.14-1.86c.34-.37.58-.52.6-.5a8.51,8.51,0,0,0-1.45,2.47,4.09,4.09,0,0,0-.08,3.05c.22.53.84.73,1.49.95a14.53,14.53,0,0,0,2.11.46h0l5.89,1.62c4.4,1.23,8.37,2.37,11.24,3.22l3.38,1A7.07,7.07,0,0,1,261.71,168.35Z"/><path class="cls-6" d="M262,172.57a3.19,3.19,0,0,1,.1.55c.05.42.11.94.18,1.57.15,1.37.34,3.36.53,5.81.39,4.91.78,11.71,1,19.22s.2,14.32,0,19.25c-.07,2.46-.18,4.45-.28,5.83,0,.63-.1,1.15-.13,1.58a3.56,3.56,0,0,1-.08.55,2.07,2.07,0,0,1,0-.56c0-.42,0-1,0-1.58,0-1.38.08-3.37.1-5.83.07-4.92,0-11.72-.19-19.22s-.55-14.3-.84-19.21c-.14-2.39-.26-4.36-.35-5.82,0-.63-.06-1.16-.08-1.58A1.78,1.78,0,0,1,262,172.57Z"/><path class="cls-6" d="M244.41,157.08a21.53,21.53,0,0,0-1,3.06,21.47,21.47,0,0,0,0,3.21,5.33,5.33,0,0,1,1-6.27Z"/><path class="cls-6" d="M251.43,158.7c.06,0,.32.28.52.9a5.08,5.08,0,0,1,.14,2.52A5.22,5.22,0,0,1,251,164.4c-.43.49-.79.68-.83.63a10.83,10.83,0,0,0,1.37-3A10.61,10.61,0,0,0,251.43,158.7Z"/><path class="cls-6" d="M258.28,160.59c.05,0,.34.25.6.85a4.6,4.6,0,0,1,.29,2.48,4.5,4.5,0,0,1-1.07,2.27c-.43.48-.79.67-.83.61a9.07,9.07,0,0,0,1.36-3A9.33,9.33,0,0,0,258.28,160.59Z"/><path class="cls-7" d="M254.71,177.32c-2.27-6.72-7.8-12.59-14.76-14s-13.5.09-18.47,5.88l-6.29,13.44c2.81-1.56,7.3-10.68,12.54-13.78s11.05-3.16,15.35,1.15c3.19,3.19,5.54,7.76,5.47,12.27-.15,8.85-3.83,17.14-6.51,25.57-3.44,10.83-6.16,22.37-14.1,30.49-6.38,6.54-14.92,10.43-23.25,14.17-2,1.61-6.5,7.48-4.16,8.45s10.85-2.13,13.27-2.87c6-1.84,12.28-3.8,16.86-8.13,4.25-4,6.56-9.62,8.75-15,4.24-10.46,7-21.37,11.22-31.84C254.24,194.19,257.8,186.44,254.71,177.32Z"/><path class="cls-9" d="M245.09,289.94l-4.81-8.12-16.1,5.61h0s1.11,14.3,3.17,14.72a4.42,4.42,0,0,0,3.59-1s1.2,3.73,3.61,3.88c.73.05,1.13.07,1.34.07.43.34,2.88,2.09,4.9,1.46,0,0,1.86,4,3.36,3.61s2.47-5.27,2.47-5.27Z"/><path class="cls-5" d="M230.55,167a16.87,16.87,0,0,0-11,12.49c-3.17,15.16-10.72,54.81-10.41,60.43.4,7.12,13.95,49.24,13.95,49.24l19-5.72-8.62-47.49S247,191.53,248,184.77C249.17,177.4,242.78,162.73,230.55,167Z"/><path class="cls-6" d="M230.55,167a10,10,0,0,1,1.48-.48,10.55,10.55,0,0,1,4.49-.23,11.29,11.29,0,0,1,6.28,3.47A21.73,21.73,0,0,1,248.32,184a14.87,14.87,0,0,1-.4,3.08c-.21,1-.47,2.07-.73,3.14-1.08,4.24-2.36,8.78-3.75,13.61-2.79,9.66-6.05,20.47-9.65,32.16v-.12c2.65,14.56,5.57,30.6,8.64,47.49l0,.24-.23.07-8.9,2.67-10.13,3-.26.08-.08-.26c-2.81-8.64-5.47-17.08-7.92-25.24-1.21-4.08-2.39-8.09-3.46-12-.52-2-1.06-3.93-1.5-5.88-.24-1-.45-1.94-.63-2.92a20.8,20.8,0,0,1-.41-2.94,47,47,0,0,1,.52-5.78q.39-2.82.82-5.55c.58-3.63,1.2-7.15,1.79-10.55,1.22-6.78,2.41-13.08,3.52-18.82s2.16-10.89,3-15.43a58.15,58.15,0,0,1,1.44-6.29,18.41,18.41,0,0,1,2.49-4.81,16.63,16.63,0,0,1,5.58-4.92,12.67,12.67,0,0,1,2.38-1l-.6.27a15.33,15.33,0,0,0-1.73.85,17,17,0,0,0-5.46,4.95,18.53,18.53,0,0,0-2.43,4.77,61.4,61.4,0,0,0-1.38,6.26c-.87,4.55-1.87,9.72-3,15.46s-2.26,12-3.45,18.82c-.59,3.4-1.2,6.91-1.76,10.55q-.44,2.72-.81,5.54a47,47,0,0,0-.51,5.69,20.45,20.45,0,0,0,.41,2.87c.18,1,.39,1.93.63,2.9.45,1.94,1,3.89,1.51,5.86,1.07,3.94,2.25,7.94,3.47,12,2.46,8.15,5.12,16.59,7.93,25.22l-.34-.17,10.13-3.05,8.9-2.67-.19.31c-3.06-16.88-6-32.93-8.59-47.49v-.12c3.63-11.68,6.91-22.48,9.73-32.12,1.41-4.83,2.71-9.36,3.8-13.59A29.07,29.07,0,0,0,248,184a20.05,20.05,0,0,0-.78-5.63,20.28,20.28,0,0,0-4.57-8.44,11.15,11.15,0,0,0-6.14-3.47,10.67,10.67,0,0,0-4.45.15c-.5.09-.86.24-1.11.3Z"/><path class="cls-6" d="M233.74,235.67a28.37,28.37,0,0,0-4.91-2.51c-2.89-1-5.43-.8-5.43-1a11.64,11.64,0,0,1,10.34,3.49Z"/><g class="cls-8"><path d="M218.54,275.83c-8.84-13.13-13.5-31.48-8.39-44.52-1.38,7.81-.06,15,2.27,22.54S217.54,269,218,276.92"/></g><polyline class="cls-3" points="191.32 462.7 165.12 435.06 143.64 436.27 128.43 442.28 118.78 462.7"/><polygon class="cls-4" points="143.64 436.27 165.89 462.7 191.32 462.7 165.12 435.06 143.64 436.27"/><path class="cls-6" d="M118.78,462.7a1.74,1.74,0,0,1,.15-.39c.12-.29.28-.65.48-1.1.45-1,1.09-2.4,1.89-4.16,1.69-3.62,4.06-8.73,6.92-14.87l0-.08.08,0,15.2-6.05,0,0h0l10.32-.59,11.16-.62h.13l.08.09L184,454.71l5.43,5.83,1.44,1.59a4.35,4.35,0,0,1,.47.57,5.06,5.06,0,0,1-.54-.51l-1.51-1.52-5.54-5.73-18.8-19.7.2.09L154,436l-10.32.58.09,0-15.23,6,.13-.12c-2.93,6.1-5.37,11.18-7.09,14.78l-2,4.11-.54,1.07A2.58,2.58,0,0,1,118.78,462.7Z"/><polyline class="cls-2" points="29.97 462.7 39.97 445.34 58.2 440.25 75.26 454.75 75.26 462.7"/><polygon class="cls-4" points="39.97 445.34 75.26 454.75 58.2 440.25 39.97 445.34"/><path class="cls-6" d="M75.26,462.7a3.37,3.37,0,0,1-.05-.54c0-.41,0-.93,0-1.56,0-1.43,0-3.4-.08-5.84l.06.13L58,440.46l.25.05-4.16,1.17L40,445.58l.14-.11L32.88,458l-2.11,3.52-.58.92a1.58,1.58,0,0,1-.22.31,1.37,1.37,0,0,1,.15-.35c.14-.26.31-.57.51-1l2-3.59,7.13-12.58,0-.09.1,0,14.08-4L58.13,440l.14,0,.11.09c6.82,5.86,12.83,11,17,14.58l.06.06v.08c0,2.44-.06,4.41-.08,5.84,0,.63,0,1.15,0,1.56A1.8,1.8,0,0,1,75.26,462.7Z"/><polygon class="cls-3" points="362.51 431.5 337.2 417.07 292.75 433.26 256.84 462.7 383.86 462.05 362.51 431.5"/><polygon class="cls-4" points="256.84 462.7 302.39 436.27 362.51 431.5 336.18 415.91 292.75 433.26 256.84 462.7"/><polygon class="cls-4" points="322.29 462.36 345.03 446.78 365.78 445.3 348.43 449.15 339.43 462.28 322.29 462.36"/><path class="cls-6" d="M256.84,462.7l.16-.16.49-.42,1.92-1.63,7.32-6.09,25.87-21.33,0,0,0,0,31.68-12.86L336,415.44l.12-.06.12.07,26.36,15.85,0,0,0,0,15.42,22.24,4.27,6.22,1.11,1.65c.25.38.36.58.36.58s-.15-.18-.42-.54l-1.16-1.6c-1-1.45-2.51-3.52-4.38-6.16l-15.58-22.12.07.06L336,415.92l.24,0-11.68,4.74-31.7,12.81.06,0-26,21.18-7.41,6-2,1.57-.51.39Z"/><path class="cls-6" d="M366.49,445.25a11.42,11.42,0,0,1-1.65.22l-4.53.4-15.26,1.18.13-.05-2.49,1.72c-5.6,3.83-10.67,7.27-14.37,9.74l-4.38,2.9-1.21.77c-.28.17-.43.25-.44.23s.12-.12.37-.32l1.16-.85,4.28-3.05c3.64-2.55,8.68-6.05,14.28-9.88l2.5-1.71.06,0H345l15.28-1,4.54-.24A9.19,9.19,0,0,1,366.49,445.25Z"/><polygon class="cls-3" points="482.19 447.54 466.99 441.53 441.63 446.13 429.35 462.65 489.51 462.7 482.19 447.54"/><path class="cls-4" d="M441.63,446.13c.74-.13,40.56,1.41,40.56,1.41l-15.2-6Z"/><path class="cls-6" d="M429.35,462.65a1.23,1.23,0,0,1,.19-.33l.63-.91,2.45-3.4,8.82-12,.05-.08.1,0,18.86-3.46,6.49-1.17H467l.08,0,15.19,6.05.08,0,0,.08,5.23,11.07c.6,1.29,1.07,2.32,1.42,3.08.14.33.26.6.36.82a.84.84,0,0,1,.1.29,1.18,1.18,0,0,1-.16-.26l-.42-.79-1.53-3-5.41-11,.12.11-15.22-6H467L460.55,443l-18.87,3.4.14-.1-9,11.91-2.56,3.32-.69.87C429.44,462.56,429.36,462.66,429.35,462.65Z"/><path class="cls-6" d="M508.78,462.7c0,.15-111.5.27-249,.27s-249-.12-249-.27,111.47-.28,249-.28S508.78,462.54,508.78,462.7Z"/></g></g></g></svg>