<svg xmlns="http://www.w3.org/2000/svg" viewBox="0 0 66.11 66.11"><defs><style>.cls-1{fill:#5fa69b;}</style></defs><title>Asset 60</title><g id="Layer_2" data-name="Layer 2"><g id="Layer_1-2" data-name="Layer 1"><path class="cls-1" d="M19.27,29.48c4.7-5,10.21-5.93,17.51-10.41a29.24,29.24,0,0,0,9.53-9.83s11.17,24-1.51,38.35a17.67,17.67,0,0,1-23.13,2.87c-7.68-5-8.44-14.58-2.4-21Z"/><path d="M47.36,8.75a1.17,1.17,0,0,0-2.07-.06,28,28,0,0,1-5.7,6.86,1.16,1.16,0,0,0,1.53,1.73,31.9,31.9,0,0,0,5-5.54,58,58,0,0,1,3.09,11.52,37.81,37.81,0,0,1,.06,12.1,22.93,22.93,0,0,1-5.31,11.46A16.26,16.26,0,0,1,33.85,52.2,17.09,17.09,0,0,1,22.3,49.49a13.74,13.74,0,0,1-2.38-1.93,22,22,0,0,1,3.34-3.43c3.33-2.78,7.19-4.87,10.63-7.52a30.44,30.44,0,0,0,5.65-5.46,1.2,1.2,0,0,0,0-1.63,1.16,1.16,0,0,0-1.63,0c-5.29,6.8-14,9.65-19.5,16.18a11.56,11.56,0,0,1-1.91-5.13,12.86,12.86,0,0,1,3.61-10.3c2.78-2.95,5.95-4.45,9.61-6.19,2-.93,4-1.89,6.21-3.17a1.15,1.15,0,0,0-1.15-2c-2.16,1.23-4.13,2.17-6.05,3.08-3.88,1.84-7.23,3.43-10.31,6.7A15.16,15.16,0,0,0,14.2,40.84,14,14,0,0,0,17,47.66a20.3,20.3,0,0,0-2.82,7.07c-.29,1.45,1.94,2.07,2.23.62A18.5,18.5,0,0,1,18.6,49.5,16.72,16.72,0,0,0,21,51.43a19.53,19.53,0,0,0,10.67,3.21,18.49,18.49,0,0,0,13.95-6.29,25.17,25.17,0,0,0,5.86-12.62,40.09,40.09,0,0,0-.07-12.88,58.29,58.29,0,0,0-4.09-14.1Z"/><path d="M56.43,9.68A33.06,33.06,0,0,0,9.68,56.43a33.1,33.1,0,0,0,37.25,6.64,1,1,0,0,0-.82-1.76A31.12,31.12,0,0,1,1.94,33.06a31.12,31.12,0,0,1,53.12-22A31.12,31.12,0,0,1,50.4,58.9a1,1,0,0,0,1.08,1.61,33.07,33.07,0,0,0,5-50.83Z"/></g></g></svg>