<svg xmlns="http://www.w3.org/2000/svg" viewBox="0 0 66.11 66.11"><defs><style>.cls-1{fill:#5fa69b;}.cls-2{fill:#fff;}</style></defs><title>Asset 62</title><g id="Layer_2" data-name="Layer 2"><g id="Layer_1-2" data-name="Layer 1"><path d="M56.43,9.68A33.06,33.06,0,0,0,9.68,56.43a33.1,33.1,0,0,0,37.25,6.64,1,1,0,0,0-.82-1.76A31.12,31.12,0,0,1,1.94,33.06a31.12,31.12,0,0,1,53.12-22A31.12,31.12,0,0,1,50.4,58.9a1,1,0,0,0,1.08,1.61,33.07,33.07,0,0,0,5-50.83Z"/><path class="cls-1" d="M18.41,19.64A17.26,17.26,0,0,1,31.68,10.8c7.14-.61,13.55,4,16.18,8.64,5,8.86,0,24.29-14.8,35.41C18.93,43.57,13.63,28.68,18.41,19.64Z"/><ellipse class="cls-2" cx="33.06" cy="27.17" rx="12.61" ry="13.03"/><g id="Outline"><path d="M33.06,9.41A17.46,17.46,0,0,0,15.72,27c0,6.18,2.83,13,8.43,20.38a67.53,67.53,0,0,0,8.39,9.17.78.78,0,0,0,1,0A67.53,67.53,0,0,0,42,47.34C47.56,40,50.4,33.14,50.4,27A17.47,17.47,0,0,0,33.06,9.41Zm0,45.44C30.28,52.25,17.29,39.48,17.29,27a15.77,15.77,0,0,1,31.53,0C48.82,39.48,35.84,52.25,33.06,54.85Z"/><path d="M33.06,12.56A14.19,14.19,0,1,0,47.24,26.75,14.19,14.19,0,0,0,33.06,12.56Zm0,26.8A12.61,12.61,0,1,1,45.67,26.75,12.61,12.61,0,0,1,33.06,39.36Z"/><path d="M41.86,30.25,41,31.6,34,20.33l2.11-3.41-1.34-.83-1.69,2.74-1.7-2.74L30,16.92l2.11,3.4-7,11.28-.9-1.35-1.31.88,1.58,2.36h0a.78.78,0,0,0,.65.35H40.94a.77.77,0,0,0,.65-.35h0l1.58-2.36Zm-11.4,2,2.6-4.68,2.6,4.68Zm7,0-3.71-6.69a.82.82,0,0,0-1.14-.24.69.69,0,0,0-.24.24l-3.72,6.69H26.59l6.47-10.45,6.46,10.45Z"/></g></g></g></svg>