<svg width="1080" height="505" viewBox="0 0 1080 505" fill="none" xmlns="http://www.w3.org/2000/svg">
<g clip-path="url(#clip0)">
<path d="M744.84 93.4899C752.75 77.0099 758.62 72.3899 762.73 71.6199C765.058 71.2859 767.285 70.4425 769.25 69.1499C771.61 67.5299 772.19 65.9899 774.37 62.9399C776.55 59.8899 776.61 60.5899 782.49 53.8099C788.49 46.8099 788.13 46.4699 789.42 46.1299C793.63 44.9999 796.36 49.3899 807.49 52.4499C812.27 53.7599 813.42 53.4499 813.9 53.2299C817.59 51.8199 816.72 47.1499 821.16 38.6599C823.47 34.2399 824.32 34.3299 826.07 30.4999C827.917 26.4701 828.937 22.1108 829.07 17.6799C831.57 14.3466 834.063 10.9799 836.55 7.57992C837.91 5.36992 841.48 0.259924 846.55 0.00992422C851.24 -0.220076 854.81 3.76992 860.65 10.2999C863.97 14.0199 865.81 16.8099 870.26 23.2999C874.16 28.9899 877.41 33.6699 879.66 36.8899L891 41.1799C894.763 39.5315 898.122 37.0811 900.84 33.9999C903.46 30.9399 903.36 29.4899 906.18 26.8099C907.53 25.5399 911.6 21.6699 916.43 21.5599C921.07 21.4499 923.72 24.8699 929.43 29.5599C934.846 33.8978 940.741 37.6019 947 40.5999C950.928 44.1751 955.142 47.4226 959.6 50.3099C966.413 54.7189 973.724 58.3071 981.38 60.9999C990.119 66.1725 999.181 70.7787 1008.51 74.7899C1031.01 84.4128 1054.79 90.7153 1079.11 93.4999V220.5H727.11L696.11 93.4999L744.84 93.4899Z" fill="#1E3F46"/>
<path d="M702.17 94.14C709.36 77.66 714.7 73 718.43 72.26C720.575 71.9265 722.609 71.0829 724.36 69.8C726.51 68.17 727.04 66.64 729.02 63.58C731 60.52 731.02 61.23 736.4 54.45C741.9 47.45 741.53 47.12 742.69 46.77C746.52 45.65 749.01 50.04 759.12 53.09C763.47 54.41 764.52 54.09 764.95 53.87C768.31 52.46 767.51 47.8 771.55 39.3C773.65 34.89 774.42 34.98 776.02 31.15C777.7 27.0779 778.621 22.7333 778.74 18.33C781.007 14.9633 783.273 11.5967 785.54 8.23001C786.77 6.00001 790 0.90001 794.67 0.65001C798.93 0.43001 802.17 4.42001 807.48 10.95C810.48 14.66 812.18 17.45 816.22 23.95C819.77 29.65 822.72 34.32 824.77 37.55L835.06 41.82C838.535 40.1184 841.589 37.666 844 34.64C846.38 31.59 846.29 30.13 848.85 27.46C850.07 26.18 853.78 22.32 858.17 22.2C862.39 22.1 864.8 25.52 870.02 30.2C874.896 34.4956 880.26 38.2042 886 41.25C889.526 44.8111 893.343 48.0724 897.41 51C903.544 55.3698 910.198 58.9575 917.22 61.68C925.124 66.8209 933.362 71.4278 941.88 75.47C962.158 85.0381 983.817 91.3522 1006.06 94.18V221.18H686.06L657.87 94.18L702.17 94.14Z" fill="#E4E8E9"/>
<path d="M1079.09 504.92H0V85.8499H1079.09V504.92Z" fill="#FFE55C"/>
<path d="M1079.09 504.92H0V85.8499H1079.09V504.92Z" fill="#E4E8E9"/>
</g>
<defs>
<clipPath id="clip0">
<rect width="1079.11" height="504.92" fill="white"/>
</clipPath>
</defs>
</svg>
