<svg xmlns="http://www.w3.org/2000/svg" viewBox="0 0 66.11 66.11"><defs><style>.cls-1{fill:#5fa69b;stroke:#000;stroke-miterlimit:10;stroke-width:1.2px;}</style></defs><title>Asset 63</title><g id="Layer_2" data-name="Layer 2"><g id="Layer_1-2" data-name="Layer 1"><path d="M56.43,9.68A33.06,33.06,0,0,0,9.68,56.43a33.1,33.1,0,0,0,37.25,6.64,1,1,0,0,0-.82-1.76A31.12,31.12,0,0,1,1.94,33.06a31.12,31.12,0,0,1,53.12-22A31.12,31.12,0,0,1,50.4,58.9a1,1,0,0,0,1.08,1.61,33.07,33.07,0,0,0,5-50.83Z"/><circle class="cls-1" cx="16.31" cy="33.06" r="5.33"/><circle class="cls-1" cx="33.06" cy="33.06" r="5.33"/><circle class="cls-1" cx="49.8" cy="33.06" r="5.33"/></g></g></svg>