<svg xmlns="http://www.w3.org/2000/svg" viewBox="0 0 1081.12 52.08"><defs><style>.cls-1{fill:none;stroke:#1a1a1a;stroke-miterlimit:10;}</style></defs><title>Asset 67</title><g id="Layer_2" data-name="Layer 2"><g id="Layer_1-2" data-name="Layer 1"><path class="cls-1" d="M823.89,51.58h23.63l20.12-.88a137.76,137.76,0,0,0,17.91-13.89c9.46-8.66,10-11.56,14.33-12.79,12.49-3.54,20,16.82,35,16.88,18.36.07,23-30.35,41.34-30.77,11.31-.26,14.58,11.13,38.86,26.68a161.94,161.94,0,0,0,29.22,14.77h36.82"/><path class="cls-1" d="M823.89,42c9.79-.21,17.86-.13,23.63,0,12.87.27,15.45.78,20.12-.89,1.82-.65,4.9-2,17.91-13.88C897.8,16,897.26,15.13,899.88,14.39c12.49-3.53,20,16.82,35,16.88,18.36.07,23-30.35,41.34-30.77,11.31-.25,14.58,11.13,38.86,26.69A162.61,162.61,0,0,0,1044.3,42h36.82"/><path class="cls-1" d="M0,51.58H823.89"/></g></g></svg>