<svg xmlns="http://www.w3.org/2000/svg" xmlns:xlink="http://www.w3.org/1999/xlink" viewBox="0 0 1017.28 979.17"><defs><style>.cls-1{fill:none;}.cls-2{opacity:0.31;}.cls-3{clip-path:url(#clip-path);}.cls-4{opacity:0.4;}.cls-5{fill:#f2f2f2;}.cls-6{fill:#162f35;}.cls-7{fill:#d0d5d7;}.cls-8{clip-path:url(#clip-path-2);}.cls-9{clip-path:url(#clip-path-3);}.cls-10{clip-path:url(#clip-path-4);}.cls-11{clip-path:url(#clip-path-5);}.cls-12{fill:#45595d;}.cls-13{opacity:0.8;}.cls-14{fill:#4d4d4d;}.cls-15{fill:#fff;}</style><clipPath id="clip-path" transform="translate(0 -21.2)"><path class="cls-1" d="M169.84,0h641.6a0,0,0,0,1,0,0V912.95a0,0,0,0,1,0,0H169.84a30,30,0,0,1-30-30V30a30,30,0,0,1,30-30Z"/></clipPath><clipPath id="clip-path-2" transform="translate(0 -21.2)"><path class="cls-1" d="M722.71,556.73h-.41c-15.87,0-28.74,17.2-28.74,38.42s12.87,38.43,28.74,38.43h.41Z"/></clipPath><clipPath id="clip-path-3" transform="translate(0 -21.2)"><path class="cls-1" d="M787.82,491.67h-.67c-26.24,0-47.51,28.43-47.51,63.5s21.27,63.5,47.51,63.5h.67Z"/></clipPath><clipPath id="clip-path-4" transform="translate(0 -21.2)"><path class="cls-1" d="M224.79,577.84h.41c15.87,0,28.74,17.2,28.74,38.42s-12.87,38.42-28.74,38.42h-.41Z"/></clipPath><clipPath id="clip-path-5" transform="translate(0 -21.2)"><path class="cls-1" d="M159.68,512.79h.67c26.24,0,47.51,28.43,47.51,63.5s-21.27,63.5-47.51,63.5h-.67Z"/></clipPath></defs><title>Host Vector</title><g id="Layer_2" data-name="Layer 2"><g id="Layer_1-2" data-name="Layer 1"><g class="cls-2"><g class="cls-3"><g class="cls-4"><path class="cls-5" d="M838.43,405.15c1.73-12.53-15.95-22.83-29.23-23.9-6.34-.52-12.92.45-18.92-1.64-13-4.53-18.19-21.33-30.88-26.68-9.49-4-20.4-.44-29.6,4.19s-18.28,10.45-28.56,11.11c-8.93.57-18.63-2.74-26.45,1.62-5.83,3.26-8.88,10-14.25,13.93s-12.11,4.69-18.62,5.05-13.27.42-19.2,3.14-10.85,9-9.62,15.4Z" transform="translate(0 -21.2)"/><path class="cls-5" d="M239.15,296.49c1.73-12.53-16-22.83-29.23-23.9C203.58,272.08,197,273,191,271c-13-4.53-18.19-21.33-30.88-26.68-9.49-4-20.41-.44-29.6,4.19S112.24,258.91,102,259.57c-8.93.57-18.64-2.74-26.45,1.62-5.83,3.26-8.88,10-14.25,13.93s-12.11,4.7-18.62,5.05-13.27.42-19.2,3.14-10.85,9-9.62,15.4Z" transform="translate(0 -21.2)"/><path class="cls-5" d="M888.51,113.24c1.15-8.37-10.66-15.25-19.53-16-4.23-.34-8.62.31-12.63-1.09-8.68-3-12.15-14.24-20.63-17.82-6.33-2.67-13.62-.29-19.77,2.8s-12.21,7-19.07,7.42c-6,.38-12.45-1.83-17.67,1.08-3.89,2.18-5.93,6.66-9.51,9.3s-8.09,3.14-12.44,3.38-8.86.28-12.82,2.09-7.25,6-6.43,10.29Z" transform="translate(0 -21.2)"/><path class="cls-5" d="M664.51,57.24c1.15-8.37-10.66-15.25-19.53-16-4.23-.34-8.62.31-12.63-1.09-8.68-3-12.15-14.24-20.63-17.82-6.33-2.67-13.62-.29-19.77,2.8s-12.21,7-19.07,7.42c-6,.38-12.45-1.83-17.67,1.08-3.89,2.18-5.93,6.66-9.51,9.3s-8.09,3.14-12.44,3.38-8.86.28-12.82,2.09-7.25,6-6.43,10.29Z" transform="translate(0 -21.2)"/><path class="cls-5" d="M398.51,99.24c1.15-8.37-10.66-15.25-19.53-16-4.23-.34-8.62.31-12.63-1.09-8.68-3-12.15-14.24-20.63-17.82-6.33-2.67-13.62-.29-19.77,2.8s-12.21,7-19.07,7.42c-6,.38-12.45-1.83-17.67,1.08-3.89,2.18-5.93,6.66-9.51,9.3s-8.09,3.14-12.44,3.38-8.86.28-12.82,2.09-7.25,6-6.43,10.29Z" transform="translate(0 -21.2)"/><path class="cls-5" d="M258.46,391.84,274,369.69q3.46-4.95,7.33-9.59L302,335.23l60-80.35,31.56-47.34a143.09,143.09,0,0,1,23.85-27.43l17-15.1a120.79,120.79,0,0,0,9.38-9.28c13.11-14.57,25.27-16.16,29.29-16.43,14.72-1,26.34,8.35,43.81,22.41a180.13,180.13,0,0,1,22.92,22.13c18.24,20.95,27.77,40,33.58,50.6,16.14,29.31,24.3,30.21,60.91,75.26,29.66,36.48,43.95,60.06,59,81.42C789.69,527.8,868.94,599,908.42,637.36c5.66,5.5.75,15.9-6.37,13.51-66.27-22.24-164.19-43-279.67-25.34a599.71,599.71,0,0,0-162.29,49.4,6,6,0,0,1-6.24-.69c-19.05-14.43-65.33-44.62-129.06-43.61-54.35.86-94.57,24-113.73,37.11a6.07,6.07,0,0,1-5.83.67,264.91,264.91,0,0,0-91.94-20,260.5,260.5,0,0,0-63.85,5.73c-6.84,1.47-11.13-8.14-6-13.5C70.38,612.67,120.21,564,179.85,486c4.63-6.06,18.55-24.7,39.38-48.93,10.31-12,19.48-22,26.66-29.71A138.93,138.93,0,0,0,258.46,391.84Z" transform="translate(0 -21.2)"/><rect class="cls-6" x="782.55" y="550.93" width="9.19" height="117.68"/><rect class="cls-6" x="719.52" y="584.21" width="5.56" height="71.2"/><ellipse class="cls-7" cx="722.3" cy="573.94" rx="28.75" ry="38.42"/><path class="cls-6" d="M722.71,556.73h-.41c-15.87,0-28.74,17.2-28.74,38.42s12.87,38.43,28.74,38.43h.41Z" transform="translate(0 -21.2)"/><g class="cls-8"><rect class="cls-7" x="691.68" y="564.01" width="38.21" height="1.85" transform="translate(317.9 -274.81) rotate(25.88)"/><rect class="cls-7" x="691.68" y="553.79" width="38.21" height="1.85" transform="translate(313.44 -275.83) rotate(25.88)"/><rect class="cls-7" x="689.5" y="573.65" width="40.16" height="1.85" transform="translate(321.99 -273.32) rotate(25.88)"/><rect class="cls-7" x="689.71" y="583.96" width="40.16" height="1.85" transform="translate(326.51 -272.37) rotate(25.88)"/><rect class="cls-7" x="687.67" y="593.56" width="41.67" height="1.85" transform="translate(330.57 -270.85) rotate(25.88)"/><rect class="cls-7" x="685.66" y="603.32" width="43.8" height="1.85" transform="translate(334.74 -269.46) rotate(25.88)"/><rect class="cls-7" x="686.25" y="613.82" width="43.8" height="1.85" transform="translate(339.38 -268.66) rotate(25.88)"/><rect class="cls-7" x="686.25" y="624.04" width="43.8" height="1.85" transform="translate(343.84 -267.64) rotate(25.88)"/></g><ellipse class="cls-7" cx="787.15" cy="533.96" rx="47.51" ry="63.5"/><path class="cls-6" d="M787.82,491.67h-.67c-26.24,0-47.51,28.43-47.51,63.5s21.27,63.5,47.51,63.5h.67Z" transform="translate(0 -21.2)"/><g class="cls-9"><rect class="cls-7" x="736.53" y="503.71" width="63.15" height="3.06" transform="translate(297.59 -305.82) rotate(25.88)"/><rect class="cls-7" x="736.53" y="486.82" width="63.15" height="3.06" transform="translate(290.22 -307.51) rotate(25.88)"/><rect class="cls-7" x="732.93" y="519.63" width="66.37" height="3.06" transform="translate(304.34 -303.35) rotate(25.88)"/><rect class="cls-7" x="733.27" y="536.68" width="66.37" height="3.06" transform="translate(311.82 -301.79) rotate(25.88)"/><rect class="cls-7" x="729.91" y="552.55" width="68.87" height="3.06" transform="translate(318.53 -299.28) rotate(25.88)"/><rect class="cls-7" x="726.59" y="568.68" width="72.39" height="3.06" transform="translate(325.42 -296.98) rotate(25.88)"/><rect class="cls-7" x="727.56" y="586.04" width="72.39" height="3.06" transform="translate(333.09 -295.66) rotate(25.88)"/><rect class="cls-7" x="727.56" y="602.92" width="72.39" height="3.06" transform="translate(340.46 -293.97) rotate(25.88)"/></g><rect class="cls-6" x="155.76" y="593.25" width="9.19" height="117.68" transform="translate(320.71 1282.97) rotate(180)"/><rect class="cls-6" x="222.42" y="626.53" width="5.56" height="71.2" transform="translate(450.39 1303.06) rotate(180)"/><ellipse class="cls-7" cx="225.2" cy="595.06" rx="28.75" ry="38.42"/><path class="cls-6" d="M224.79,577.84h.41c15.87,0,28.74,17.2,28.74,38.42s-12.87,38.42-28.74,38.42h-.41Z" transform="translate(0 -21.2)"/><g class="cls-10"><rect class="cls-7" x="217.61" y="585.13" width="38.21" height="1.85" transform="translate(705.52 988.78) rotate(154.12)"/><rect class="cls-7" x="217.61" y="574.91" width="38.21" height="1.85" transform="translate(701.06 969.37) rotate(154.12)"/><rect class="cls-7" x="217.84" y="594.76" width="40.16" height="1.85" transform="translate(712.01 1006.56) rotate(154.12)"/><rect class="cls-7" x="217.64" y="605.08" width="40.16" height="1.85" transform="translate(716.12 1026.25) rotate(154.12)"/><rect class="cls-7" x="218.16" y="614.68" width="41.67" height="1.85" transform="translate(722.74 1043.93) rotate(154.12)"/><rect class="cls-7" x="218.04" y="624.44" width="43.8" height="1.85" transform="translate(728.8 1062.05) rotate(154.12)"/><rect class="cls-7" x="217.45" y="634.94" width="43.8" height="1.85" transform="translate(732.27 1082.26) rotate(154.12)"/><rect class="cls-7" x="217.45" y="645.16" width="43.8" height="1.85" transform="translate(736.73 1101.67) rotate(154.12)"/></g><ellipse class="cls-7" cx="160.35" cy="555.07" rx="47.51" ry="63.5"/><path class="cls-6" d="M159.68,512.79h.67c26.24,0,47.51,28.43,47.51,63.5s-21.27,63.5-47.51,63.5h-.67Z" transform="translate(0 -21.2)"/><g class="cls-11"><rect class="cls-7" x="147.82" y="524.82" width="63.15" height="3.06" transform="translate(570.56 900.4) rotate(154.12)"/><rect class="cls-7" x="147.82" y="507.94" width="63.15" height="3.06" transform="translate(563.19 868.31) rotate(154.12)"/><rect class="cls-7" x="148.2" y="540.75" width="66.37" height="3.06" transform="translate(581.29 929.78) rotate(154.12)"/><rect class="cls-7" x="147.86" y="557.8" width="66.37" height="3.06" transform="translate(588.09 962.32) rotate(154.12)"/><rect class="cls-7" x="148.72" y="573.66" width="68.87" height="3.06" transform="translate(599.02 991.54) rotate(154.12)"/><rect class="cls-7" x="148.53" y="589.79" width="72.39" height="3.06" transform="translate(609.04 1021.49) rotate(154.12)"/><rect class="cls-7" x="147.56" y="607.15" width="72.39" height="3.06" transform="translate(614.77 1054.89) rotate(154.12)"/><rect class="cls-7" x="147.56" y="624.04" width="72.39" height="3.06" transform="translate(622.14 1086.97) rotate(154.12)"/></g><path class="cls-5" d="M139,788.49c-11.21-49.42,87.83-137.8,190.13-135,94.61,2.6,186.42,83,175.87,132.14-11,51-131.67,64.58-196.17,62.74C296.24,848,151.3,842.78,139,788.49Z" transform="translate(0 -21.2)"/><path class="cls-12" d="M1017.28,708C966,682.87,802.82,611,597.1,657.65,368,709.58,242.22,873.09,210.55,917c47.51,28.26,117.13,61,205.45,75.66a574.89,574.89,0,0,0,144.81,5.45,579.46,579.46,0,0,0,195.32-52.85c81.28-38.38,138.37-88.2,173.08-123.49A622.12,622.12,0,0,0,978.8,764.5,629.67,629.67,0,0,0,1017.28,708Z" transform="translate(0 -21.2)"/><path class="cls-7" d="M0,682.6c27.7-9.1,109.7-32,204.6.75C233.35,693.28,316,723.23,366,810.28,402,873,403.05,934,401.8,961.46c-12.51-2.17-25.67-4.83-39.39-8.09-14.31-3.39-27.79-7.1-40.4-11-22.23-6.8-37.82-13.56-41.47-15-57.83-23.11-154.09,28.49-179.86-1.19-19.44-22.38,24.92-63.76,2-113.46C92.94,791.61,79,791.3,51.91,758A575.15,575.15,0,0,1,0,682.6Z" transform="translate(0 -21.2)"/><g class="cls-13"><path class="cls-14" d="M65.45,702.28a180.41,180.41,0,0,1,47.6-8.77q6.08-.32,12.18-.25c2,0,4.06.08,6.09.17s4.06.14,6.09.33a160.92,160.92,0,0,1,24.13,3.4c15.9,3.47,31.1,9.29,45.93,15.48C222.25,719,236.9,725.56,251,733.5a188.15,188.15,0,0,1,69.72,67.14,174.54,174.54,0,0,1,11.08,21.87c.85,1.86,1.54,3.78,2.3,5.67l1.12,2.85,1,2.89c.67,1.92,1.35,3.84,1.92,5.8s1.23,3.88,1.75,5.85a179.8,179.8,0,0,1,6.77,47.95.43.43,0,0,1-.44.45.45.45,0,0,1-.44-.37c-1.55-7.87-3.27-15.64-5.34-23.3-.52-1.92-1.09-3.81-1.63-5.72l-1.73-5.67c-.6-1.88-1.25-3.74-1.88-5.61l-2-5.57c-1.38-3.68-2.82-7.34-4.4-10.94l-1.14-2.71-1.23-2.67c-.84-1.77-1.6-3.58-2.51-5.32-3.42-7.05-7.28-13.86-11.37-20.51-1.06-1.64-2-3.33-3.12-5l-3.3-4.84c-2.11-3.29-4.52-6.36-6.82-9.52l-1.75-2.36c-.6-.76-1.23-1.51-1.85-2.27L292,777.11l-.93-1.14-1-1.09-2-2.18c-1.32-1.44-2.6-2.92-4-4.34l-4.14-4.17L278,762.1l-2.15-2-4.32-4-4.45-3.86-2.22-2-2.3-1.85c-1.53-1.24-3-2.52-4.58-3.75-3.15-2.38-6.27-4.82-9.54-7a193,193,0,0,0-42-22.32c-14.9-5.63-30.63-8.6-46.2-10.84-7.8-1.1-15.6-2.12-23.44-2.81s-15.7-1.13-23.58-1.21c-4,0-7.9,0-11.85.06-2,.06-4,.12-5.93.22s-4,.18-5.94.29c-7.92.49-15.84,1.24-23.83,2.13a.45.45,0,0,1-.49-.4A.44.44,0,0,1,65.45,702.28Z" transform="translate(0 -21.2)"/></g><g class="cls-13"><path class="cls-14" d="M71.88,725.82a136.63,136.63,0,0,1,20.74-5.54A160.08,160.08,0,0,1,114,717.66c3.6-.19,7.2-.28,10.81-.25,1.81,0,3.61.09,5.41.15s3.61.14,5.41.3A134.6,134.6,0,0,1,157.07,721c14.09,3.21,27.51,8.58,40.6,14.2,3.27,1.4,6.54,2.87,9.76,4.35l4.85,2.22,4.84,2.27c6.44,3.07,12.84,6.28,19.08,9.83A161.35,161.35,0,0,1,314.34,853.9a158.07,158.07,0,0,1,5.53,42.61.46.46,0,0,1-.46.44.45.45,0,0,1-.43-.36c-1.45-7-3-13.84-4.89-20.61-.94-3.38-2-6.73-3-10.07s-2.25-6.61-3.44-9.88c-.57-1.64-1.25-3.24-1.88-4.86s-1.32-3.22-2-4.81-1.33-3.2-2.07-4.77-1.42-3.16-2.21-4.7c-3-6.24-6.38-12.27-9.94-18.18-.93-1.46-1.81-2.94-2.71-4.41s-1.95-2.85-2.9-4.29-1.87-2.9-2.89-4.29L278,801.54a196.76,196.76,0,0,0-13.18-16c-4.79-5-9.71-9.89-15-14.45-1.3-1.15-2.58-2.34-3.95-3.42l-4-3.37c-2.75-2.14-5.47-4.36-8.33-6.37a158,158,0,0,0-17.8-11.27c-3.11-1.65-6.26-3.24-9.47-4.71s-6.42-2.9-9.71-4.14c-13.17-5.06-27.12-7.59-40.88-9.55-6.89-1-13.78-1.87-20.7-2.52s-13.87-1-20.84-1.16-14,0-21,.39-14,1-21.12,1.7a.45.45,0,0,1-.49-.4A.46.46,0,0,1,71.88,725.82Z" transform="translate(0 -21.2)"/></g><g class="cls-13"><path class="cls-14" d="M77.83,748.7a112.36,112.36,0,0,1,17.58-4.92,132.2,132.2,0,0,1,18.18-2.36,142.85,142.85,0,0,1,18.39,0A111.68,111.68,0,0,1,150.19,744c12,2.7,23.37,7.37,34.54,12,5.6,2.36,11.1,4.79,16.62,7.27s11,5.08,16.42,7.93a144.05,144.05,0,0,1,15.72,9.51q1.89,1.34,3.74,2.71c1.22.94,2.41,1.92,3.61,2.89,2.44,1.88,4.66,4,7,6.07,1.16,1,2.21,2.16,3.32,3.23s2.22,2.15,3.28,3.29l3.1,3.44c1,1.15,2.09,2.29,3,3.52,1.94,2.41,3.95,4.78,5.67,7.35s3.57,5.08,5.13,7.75c12.77,21.24,19.63,46,19,70.25a.45.45,0,0,1-.46.44.47.47,0,0,1-.43-.35h0c-1.36-5.88-2.81-11.68-4.5-17.38-.86-2.85-1.78-5.66-2.71-8.47l-1.5-4.16-1.58-4.13c-1.09-2.73-2.22-5.44-3.45-8.1-.57-1.35-1.2-2.67-1.84-4s-1.25-2.64-1.95-3.92l-2-3.87-2.13-3.83c-.71-1.26-1.5-2.49-2.23-3.75s-1.51-2.49-2.3-3.71a177.43,177.43,0,0,0-21.37-27.59c-2.07-2.06-4.08-4.19-6.26-6.14-1.08-1-2.13-2-3.23-3s-2.22-1.92-3.32-2.9-2.23-1.91-3.37-2.84-2.24-1.93-3.42-2.82L218.8,778c-1.17-.9-2.39-1.74-3.59-2.62A131.7,131.7,0,0,0,200,766a136.26,136.26,0,0,0-16.35-7.29c-11.24-4.07-23.12-5.89-34.79-7.35-5.85-.73-11.68-1.45-17.53-2s-11.73-.89-17.63-1-11.82-.05-17.77.14-11.91.65-18,1.08a.45.45,0,0,1-.48-.41A.46.46,0,0,1,77.83,748.7Z" transform="translate(0 -21.2)"/></g><path class="cls-15" d="M397,796.55A403,403,0,0,1,451,751.06a385.21,385.21,0,0,1,61.31-35.4l4-1.85,4.08-1.71,8.18-3.4c2.73-1.13,5.52-2.11,8.27-3.17s5.51-2.13,8.3-3.07l8.39-2.82,4.19-1.41c1.4-.45,2.82-.85,4.23-1.28l8.46-2.58c2.8-.91,5.68-1.58,8.5-2.39s5.67-1.6,8.52-2.34l8.58-2.11,4.29-1.07,4.32-.93,8.63-1.89c11.57-2.21,23.15-4.47,34.88-5.84a464.72,464.72,0,0,1,70.65-3.65c11.8.23,23.58.74,35.33,1.32,5.87.25,11.77.71,17.66,1.09l8.82.75c2.94.24,5.88.52,8.81.86a604.85,604.85,0,0,1,69.8,11.63,580.65,580.65,0,0,1,67.84,19.74.26.26,0,0,1,.16.33.26.26,0,0,1-.31.16A794.08,794.08,0,0,0,788.91,683.6c-5.82-.64-11.66-1.07-17.49-1.6l-17.54-1.2c-11.73-.75-23.44-1.44-35.15-1.84a571.58,571.58,0,0,0-70.23,1.62l-8.75.88L631,682.59l-4.36.57-4.34.71-8.68,1.47L605,687.11l-4.31.9-4.27,1-8.54,2.12c-2.84.76-5.65,1.6-8.47,2.4-5.66,1.56-11.2,3.51-16.76,5.38-1.38.48-2.77.94-4.15,1.44L554.42,702l-8.2,3.16c-2.74,1-5.41,2.27-8.11,3.39S532.7,710.76,530,712l-8,3.7-4,1.86-3.93,2-7.86,3.89-7.78,4.07c-5.22,2.64-10.25,5.62-15.4,8.4-2.55,1.42-5,3-7.57,4.44s-5.05,3-7.5,4.55l-7.45,4.65c-2.46,1.58-4.88,3.22-7.33,4.83l-3.66,2.42-3.6,2.51c-2.4,1.68-4.84,3.31-7.21,5l-7.1,5.18c-2.38,1.71-4.68,3.52-7,5.28l-3.5,2.67-3.45,2.73c-2.3,1.82-4.64,3.59-6.89,5.48s-4.56,3.7-6.8,5.6l-6.74,5.68a.25.25,0,0,1-.36,0A.26.26,0,0,1,397,796.55Z" transform="translate(0 -21.2)"/><path class="cls-15" d="M415.82,834.09a355.85,355.85,0,0,1,46.81-41.49c4.2-3.12,8.46-6.14,12.77-9.1l6.55-4.32,6.63-4.19c8.89-5.51,18.06-10.58,27.43-15.21l3.53-1.71c1.18-.57,2.36-1.14,3.56-1.65l7.18-3.16c2.39-1,4.76-2.14,7.18-3.12l7.29-2.87c2.44-.94,4.85-1.94,7.3-2.83l7.39-2.59c2.47-.84,4.9-1.79,7.37-2.6l7.45-2.39c2.48-.79,4.94-1.67,7.44-2.39l7.5-2.2,3.75-1.11,1.87-.56,1.9-.49,7.55-2c10.09-2.64,20.25-5,30.5-7,2.55-.56,5.13-1,7.7-1.42l7.72-1.33c5.16-.79,10.34-1.49,15.52-2.16l7.8-.8c2.6-.26,5.2-.55,7.81-.7,5.21-.35,10.43-.77,15.65-.91l7.84-.31,7.84-.09c5.23-.12,10.46,0,15.69.09q15.69.38,31.31,1.89a478.1,478.1,0,0,1,61.84,10.11,462.2,462.2,0,0,1,59.87,18.07.25.25,0,0,1-.16.48c-20-5.77-40.16-10.78-60.54-14.61a602.94,602.94,0,0,0-61.51-8.62c-5.15-.51-10.32-.83-15.47-1.22-2.59-.18-5.17-.26-7.75-.4s-5.17-.33-7.76-.37c-5.17-.14-10.34-.38-15.51-.35l-7.76,0-7.76.17a507.56,507.56,0,0,0-61.89,5.27l-7.68,1.26-3.84.63-3.81.76c-5.09,1-10.2,2-15.22,3.27s-10.09,2.46-15.06,4L582.17,736c-2.49.74-4.92,1.64-7.39,2.46L567.43,741c-2.44.88-4.84,1.87-7.25,2.82L553,746.74c-2.39,1-4.74,2.11-7.11,3.16l-7.09,3.18c-2.35,1.09-4.65,2.29-7,3.43L524.83,760c-2.33,1.13-4.57,2.44-6.88,3.61q-13.71,7.27-27,15.28l-6.6,4.07-6.53,4.2-6.47,4.29c-2.16,1.43-4.26,2.94-6.39,4.4a550.59,550.59,0,0,0-48.77,38.65.26.26,0,0,1-.36-.37Z" transform="translate(0 -21.2)"/><path class="cls-15" d="M438.52,863.44a335.74,335.74,0,0,1,42.81-34l5.72-3.77,5.79-3.67,5.88-3.54,5.93-3.44,6-3.33,6.07-3.18c2-1,4.09-2.06,6.15-3.05l6.23-2.86c16.65-7.58,33.94-13.55,51.32-19l6.52-2,6.57-1.89c2.18-.63,4.36-1.29,6.56-1.9l6.6-1.76c4.39-1.22,8.83-2.27,13.25-3.38s8.89-2,13.34-3l3.35-.73,3.36-.65,6.72-1.29c4.49-.83,9-1.5,13.52-2.23s9.06-1.21,13.6-1.69,9.1-1,13.66-1.23l6.84-.49,6.84-.35c4.57-.26,9.14-.34,13.71-.46,9.14-.17,18.29,0,27.42.43a460.33,460.33,0,0,1,54.46,6A445.72,445.72,0,0,1,850,779.26a.26.26,0,0,1,.17.32.25.25,0,0,1-.29.18c-17.84-3.61-35.74-6.66-53.72-8.94s-36-3.85-54.11-4.52c-4.52-.23-9-.3-13.56-.44-2.26-.05-4.53,0-6.79-.06s-4.52-.09-6.78,0c-4.52,0-9,0-13.57.2l-6.78.22-6.77.35a533,533,0,0,0-54,5.78c-4.46.78-8.95,1.47-13.38,2.42l-6.68,1.35c-2.22.46-4.41,1-6.62,1.57l-6.61,1.62c-2.19.59-4.37,1.23-6.55,1.85s-4.37,1.25-6.54,1.9l-6.47,2.12c-17.23,5.74-33.81,13.22-50,21.28a518.53,518.53,0,0,0-47.44,26.31c-15.36,9.6-30.14,20.11-44.64,31.11a.25.25,0,0,1-.36-.05A.25.25,0,0,1,438.52,863.44Z" transform="translate(0 -21.2)"/><path class="cls-15" d="M461.15,895.41a322.69,322.69,0,0,1,37.94-26.59c3.32-2,6.63-4,10-5.84l5.08-2.82,5.14-2.69c1.72-.89,3.41-1.82,5.15-2.67l5.24-2.51c1.75-.83,3.48-1.69,5.25-2.46l5.33-2.31c14.24-6.07,28.94-10.93,43.61-15.68s29.47-9.15,44.46-12.94c7.46-2,15-3.6,22.6-5.21,7.62-1.35,15.24-2.73,22.93-3.64l5.75-.77,5.78-.6,5.78-.59,2.89-.29,2.89-.21c3.87-.28,7.73-.57,11.6-.74l11.61-.37a377.91,377.91,0,0,1,92,10,.26.26,0,0,1,.19.31.27.27,0,0,1-.28.2c-15.3-1.94-30.59-3.48-45.9-4.34s-30.64-1.14-46-.76a537.63,537.63,0,0,0-91.32,9.7c-3.76.75-7.55,1.43-11.28,2.35s-7.49,1.71-11.21,2.7-7.39,2.09-11.09,3.14-7.3,2.4-11,3.59c-14.53,5-28.55,11.4-42.39,18l-5.19,2.46-5.16,2.53-5.17,2.52-5.13,2.58-5.14,2.59-5.07,2.7c-1.68.91-3.4,1.76-5.08,2.69l-5,2.77c-3.37,1.83-6.68,3.77-10,5.65l-9.94,5.83c-6.58,4-13.11,8-19.66,12.1a.26.26,0,0,1-.35-.08A.27.27,0,0,1,461.15,895.41Z" transform="translate(0 -21.2)"/><path class="cls-15" d="M438.21,814.16a266.71,266.71,0,0,1,29.35-19.89c2.57-1.47,5.11-3,7.71-4.4s5.2-2.83,7.84-4.16,5.27-2.7,8-3.94,5.38-2.48,8.11-3.63c10.9-4.62,22.16-8.32,33.29-12.23s22.31-7.68,33.57-11.28c5.63-1.83,11.31-3.47,17-5,2.87-.75,5.75-1.43,8.62-2.13s5.79-1.26,8.68-1.9A354.87,354.87,0,0,1,635.45,740a339,339,0,0,1,35.47-1.79,305.3,305.3,0,0,1,35.4,2.07.25.25,0,0,1,.23.28.27.27,0,0,1-.25.23c-11.8.28-23.54.71-35.25,1.45s-23.38,1.77-35,3.18-23.23,3-34.78,4.94-23,4.36-34.48,7A256.48,256.48,0,0,0,533,767.47c-11,4.17-21.56,9.39-32.09,14.55l-15.78,7.73c-5.26,2.6-10.46,5.29-15.67,8-10.41,5.42-20.64,11.18-31,16.86a.26.26,0,0,1-.28-.43Z" transform="translate(0 -21.2)"/></g></g></g></g></g></svg>