<svg xmlns="http://www.w3.org/2000/svg" xmlns:xlink="http://www.w3.org/1999/xlink" viewBox="0 0 1017.28 1035.17"><defs><style>.cls-1{fill:none;}.cls-2{opacity:0.1;}.cls-3{clip-path:url(#clip-path);}.cls-4{opacity:0.4;}.cls-5{fill:#162f35;}.cls-6{fill:#d0d5d7;}.cls-7{clip-path:url(#clip-path-2);}.cls-8{clip-path:url(#clip-path-3);}.cls-9{clip-path:url(#clip-path-4);}.cls-10{clip-path:url(#clip-path-5);}.cls-11{fill:#45595d;}.cls-12{opacity:0.8;}.cls-13{fill:#4d4d4d;}.cls-14{fill:#fff;}</style><clipPath id="clip-path"><path class="cls-1" d="M169.84,34.8h641.6a0,0,0,0,1,0,0V947.75a0,0,0,0,1,0,0H169.84a30,30,0,0,1-30-30V64.8A30,30,0,0,1,169.84,34.8Z"/></clipPath><clipPath id="clip-path-2"><path class="cls-1" d="M722.71,591.53h-.41c-15.87,0-28.74,17.2-28.74,38.42s12.87,38.42,28.74,38.42h.41Z"/></clipPath><clipPath id="clip-path-3"><path class="cls-1" d="M787.82,526.47h-.67c-26.24,0-47.51,28.43-47.51,63.5s21.27,63.5,47.51,63.5h.67Z"/></clipPath><clipPath id="clip-path-4"><path class="cls-1" d="M224.79,612.64h.41c15.87,0,28.74,17.21,28.74,38.43s-12.87,38.42-28.74,38.42h-.41Z"/></clipPath><clipPath id="clip-path-5"><path class="cls-1" d="M159.68,547.58h.67c26.24,0,47.51,28.43,47.51,63.5s-21.27,63.51-47.51,63.51l-.67,0Z"/></clipPath></defs><title>Yatri Vecto</title><g id="Layer_2" data-name="Layer 2"><g id="Layer_1-2" data-name="Layer 1"><g class="cls-2"><g class="cls-3"><g class="cls-4"><path class="cls-5" d="M838.43,439.94c1.73-12.52-15.95-22.83-29.23-23.9-6.34-.51-12.92.46-18.92-1.63-13-4.53-18.19-21.33-30.88-26.68-9.49-4-20.41-.44-29.6,4.19S711.52,402.37,701.24,403c-8.93.57-18.63-2.75-26.45,1.62-5.83,3.25-8.88,10-14.25,13.92s-12.11,4.7-18.62,5.05-13.27.42-19.2,3.14-10.85,9-9.62,15.41Z"/><path class="cls-5" d="M239.15,331.28c1.73-12.52-16-22.83-29.23-23.9-6.34-.51-12.92.46-18.92-1.63-13-4.53-18.19-21.33-30.88-26.68-9.49-4-20.41-.44-29.6,4.19S112.24,293.71,102,294.37c-8.93.57-18.64-2.74-26.45,1.62-5.83,3.25-8.88,10-14.25,13.93S49.15,314.61,42.64,315s-13.27.42-19.2,3.13-10.85,9-9.62,15.41Z"/><path class="cls-5" d="M888.51,148c1.15-8.36-10.66-15.25-19.53-16-4.23-.34-8.62.3-12.63-1.09-8.68-3-12.15-14.25-20.63-17.82-6.33-2.67-13.62-.29-19.77,2.8s-12.21,7-19.07,7.42c-6,.38-12.45-1.84-17.67,1.08-3.89,2.17-5.93,6.66-9.51,9.3s-8.09,3.14-12.44,3.37-8.86.28-12.82,2.1-7.25,6-6.43,10.29Z"/><path class="cls-5" d="M664.51,36c1.15-8.36-10.66-15.25-19.53-16-4.23-.34-8.62.3-12.63-1.09-8.68-3-12.15-14.25-20.63-17.82C605.39-1.51,598.1.87,592,4s-12.21,7-19.07,7.42c-6,.38-12.45-1.84-17.67,1.08-3.89,2.17-5.93,6.66-9.51,9.3s-8.09,3.14-12.44,3.37-8.86.28-12.82,2.1-7.25,6-6.43,10.29Z"/><path class="cls-5" d="M398.51,134c1.15-8.36-10.66-15.25-19.53-16-4.23-.34-8.62.3-12.63-1.09-8.68-3-12.15-14.25-20.63-17.82-6.33-2.67-13.62-.29-19.77,2.8s-12.21,7-19.07,7.42c-6,.38-12.45-1.84-17.67,1.08-3.89,2.17-5.93,6.66-9.51,9.3s-8.09,3.14-12.44,3.37-8.86.28-12.82,2.1-7.25,6-6.43,10.29Z"/><path class="cls-5" d="M258.46,426.64,274,404.49q3.46-5,7.33-9.59L302,370l60-80.35,31.56-47.34a142.75,142.75,0,0,1,23.85-27.43l17-15.11a120.66,120.66,0,0,0,9.38-9.27c13.11-14.57,25.27-16.16,29.29-16.44,14.72-1,26.34,8.35,43.81,22.42a180.13,180.13,0,0,1,22.92,22.13c18.24,21,27.77,40,33.58,50.59,16.14,29.32,24.3,30.22,60.91,75.26,29.66,36.49,43.95,60.07,59,81.43,96.36,136.67,175.61,207.89,215.09,246.24,5.66,5.49.75,15.9-6.37,13.51-66.27-22.24-164.19-43-279.67-25.34a599.71,599.71,0,0,0-162.29,49.4,6,6,0,0,1-6.24-.69c-19.05-14.43-65.33-44.62-129.06-43.61-54.35.86-94.57,24-113.73,37.1a6,6,0,0,1-5.83.67,265.16,265.16,0,0,0-91.94-20,261,261,0,0,0-63.85,5.72c-6.84,1.48-11.13-8.14-6-13.5,26.91-27.95,76.74-76.62,136.38-154.6,4.63-6.06,18.55-24.71,39.38-48.93,10.31-12,19.48-22,26.66-29.71A140.78,140.78,0,0,0,258.46,426.64Z"/><rect class="cls-5" x="782.55" y="606.93" width="9.19" height="117.68"/><rect class="cls-5" x="719.52" y="640.21" width="5.56" height="71.2"/><ellipse class="cls-6" cx="722.3" cy="629.94" rx="28.75" ry="38.42"/><path class="cls-5" d="M722.71,591.53h-.41c-15.87,0-28.74,17.2-28.74,38.42s12.87,38.42,28.74,38.42h.41Z"/><g class="cls-7"><rect class="cls-6" x="691.68" y="598.81" width="38.21" height="1.85" transform="translate(333.09 -250.11) rotate(25.88)"/><rect class="cls-6" x="691.68" y="588.59" width="38.21" height="1.85" transform="translate(328.63 -251.14) rotate(25.88)"/><rect class="cls-6" x="689.5" y="608.44" width="40.16" height="1.85" transform="translate(337.18 -248.62) rotate(25.88)"/><rect class="cls-6" x="689.71" y="618.76" width="40.16" height="1.85" transform="translate(341.7 -247.68) rotate(25.88)"/><rect class="cls-6" x="687.67" y="628.36" width="41.67" height="1.85" transform="translate(345.76 -246.16) rotate(25.88)"/><rect class="cls-6" x="685.66" y="638.12" width="43.8" height="1.85" transform="translate(349.93 -244.76) rotate(25.88)"/><rect class="cls-6" x="686.25" y="648.62" width="43.8" height="1.85" transform="translate(354.57 -243.97) rotate(25.88)"/><rect class="cls-6" x="686.25" y="658.84" width="43.8" height="1.85" transform="translate(359.03 -242.94) rotate(25.88)"/></g><ellipse class="cls-6" cx="787.15" cy="589.96" rx="47.51" ry="63.5"/><path class="cls-5" d="M787.82,526.47h-.67c-26.24,0-47.51,28.43-47.51,63.5s21.27,63.5,47.51,63.5h.67Z"/><g class="cls-8"><rect class="cls-6" x="736.53" y="538.51" width="63.15" height="3.06" transform="translate(312.78 -281.12) rotate(25.88)"/><rect class="cls-6" x="736.53" y="521.62" width="63.15" height="3.06" transform="translate(305.41 -282.82) rotate(25.88)"/><rect class="cls-6" x="732.93" y="554.43" width="66.37" height="3.06" transform="translate(319.53 -278.66) rotate(25.88)"/><rect class="cls-6" x="733.27" y="571.48" width="66.37" height="3.06" transform="translate(327.01 -277.1) rotate(25.88)"/><rect class="cls-6" x="729.91" y="587.34" width="68.87" height="3.06" transform="translate(333.72 -274.58) rotate(25.88)"/><rect class="cls-6" x="726.59" y="603.47" width="72.39" height="3.06" transform="translate(340.61 -272.28) rotate(25.88)"/><rect class="cls-6" x="727.56" y="620.83" width="72.39" height="3.06" transform="translate(348.28 -270.97) rotate(25.88)"/><rect class="cls-6" x="727.56" y="637.72" width="72.39" height="3.06" transform="translate(355.65 -269.27) rotate(25.88)"/></g><rect class="cls-5" x="155.76" y="628.05" width="9.19" height="117.68" transform="translate(320.71 1373.77) rotate(180)"/><rect class="cls-5" x="222.42" y="661.32" width="5.56" height="71.2" transform="translate(450.39 1393.85) rotate(180)"/><ellipse class="cls-6" cx="225.2" cy="651.06" rx="28.75" ry="38.42"/><path class="cls-5" d="M224.79,612.64h.41c15.87,0,28.74,17.21,28.74,38.43s-12.87,38.42-28.74,38.42h-.41Z"/><g class="cls-9"><rect class="cls-6" x="217.61" y="619.92" width="38.21" height="1.85" transform="translate(720.71 1076.09) rotate(154.12)"/><rect class="cls-6" x="217.61" y="609.7" width="38.21" height="1.85" transform="translate(716.25 1056.68) rotate(154.12)"/><rect class="cls-6" x="217.84" y="629.56" width="40.16" height="1.85" transform="translate(727.2 1093.87) rotate(154.12)"/><rect class="cls-6" x="217.64" y="639.88" width="40.16" height="1.85" transform="translate(731.31 1113.56) rotate(154.12)"/><rect class="cls-6" x="218.16" y="649.47" width="41.67" height="1.85" transform="translate(737.93 1131.23) rotate(154.12)"/><rect class="cls-6" x="218.04" y="659.23" width="43.8" height="1.85" transform="translate(743.98 1149.36) rotate(154.12)"/><rect class="cls-6" x="217.45" y="669.74" width="43.8" height="1.85" transform="translate(747.45 1169.57) rotate(154.12)"/><rect class="cls-6" x="217.45" y="679.95" width="43.8" height="1.85" transform="translate(751.91 1188.98) rotate(154.12)"/></g><ellipse class="cls-6" cx="160.35" cy="611.07" rx="47.51" ry="63.5"/><path class="cls-5" d="M159.68,547.58h.67c26.24,0,47.51,28.43,47.51,63.5s-21.27,63.51-47.51,63.51l-.67,0Z"/><g class="cls-10"><rect class="cls-6" x="147.82" y="559.62" width="63.15" height="3.06" transform="translate(585.75 987.7) rotate(154.12)"/><rect class="cls-6" x="147.82" y="542.73" width="63.15" height="3.06" transform="translate(578.38 955.62) rotate(154.12)"/><rect class="cls-6" x="148.2" y="575.54" width="66.37" height="3.06" transform="translate(596.48 1017.08) rotate(154.12)"/><rect class="cls-6" x="147.86" y="592.6" width="66.37" height="3.06" transform="translate(603.28 1049.63) rotate(154.12)"/><rect class="cls-6" x="148.72" y="608.46" width="68.87" height="3.06" transform="translate(614.21 1078.84) rotate(154.12)"/><rect class="cls-6" x="148.53" y="624.59" width="72.39" height="3.06" transform="translate(624.23 1108.8) rotate(154.12)"/><rect class="cls-6" x="147.56" y="641.95" width="72.39" height="3.06" transform="translate(629.96 1142.2) rotate(154.12)"/><rect class="cls-6" x="147.56" y="658.83" width="72.39" height="3.06" transform="translate(637.33 1174.28) rotate(154.12)"/></g><path class="cls-5" d="M139,823.28c-11.21-49.41,87.83-137.8,190.13-135,94.61,2.6,186.42,83,175.87,132.14-11,51-131.67,64.59-196.17,62.74C296.24,882.82,151.3,877.58,139,823.28Z"/><path class="cls-11" d="M1017.28,742.84c-51.26-25.18-214.46-97-420.18-50.39C368,744.38,242.22,907.89,210.55,951.79c47.51,28.26,117.13,61,205.45,75.67a577.54,577.54,0,0,0,340.13-47.4c81.28-38.39,138.37-88.2,173.08-123.49a622.33,622.33,0,0,0,49.59-57.28A629.6,629.6,0,0,0,1017.28,742.84Z"/><path class="cls-6" d="M0,717.4c27.7-9.11,109.7-32,204.6.75C233.35,728.08,316,758,366,845.08c36,62.72,37.09,123.67,35.84,151.18-12.51-2.18-25.67-4.83-39.39-8.09-14.31-3.4-27.79-7.1-40.4-11-13.14-4.19-27-9.14-41.47-15-10.28-4.18-20-8.49-29.17-12.83s-19-9.31-29-14.76-19.38-11-28.14-16.41c-14.52-9-30-19.59-46.08-31.89A574.53,574.53,0,0,1,0,717.4Z"/><g class="cls-12"><path class="cls-13" d="M65.45,737.07a180.8,180.8,0,0,1,47.6-8.76q6.08-.31,12.18-.26c2,0,4.06.09,6.09.18s4.06.14,6.09.33a159.64,159.64,0,0,1,24.13,3.4c15.9,3.47,31.1,9.29,45.93,15.48S236.9,760.35,251,768.29a188.18,188.18,0,0,1,69.72,67.15,175.1,175.1,0,0,1,11.08,21.86c.85,1.86,1.54,3.79,2.3,5.68l1.12,2.85,1,2.88c.67,1.93,1.35,3.85,1.92,5.8s1.23,3.89,1.75,5.86a179.72,179.72,0,0,1,6.77,47.94.43.43,0,0,1-.44.45.45.45,0,0,1-.44-.36c-1.55-7.87-3.27-15.65-5.34-23.31-.52-1.91-1.09-3.81-1.63-5.71l-1.73-5.67c-.6-1.88-1.25-3.75-1.88-5.62l-2-5.56c-1.38-3.69-2.82-7.35-4.4-10.94l-1.14-2.71-1.23-2.68c-.84-1.77-1.6-3.57-2.51-5.31-3.42-7-7.28-13.86-11.37-20.51-1.06-1.64-2-3.34-3.12-5l-3.3-4.84c-2.11-3.29-4.52-6.37-6.82-9.52l-1.75-2.36c-.6-.77-1.23-1.51-1.85-2.27L292,811.9l-.93-1.13-1-1.09-2-2.18c-1.32-1.45-2.6-2.92-4-4.35L280.07,799,278,796.9l-2.15-2-4.32-4L267.07,787l-2.22-1.94-2.3-1.85c-1.53-1.25-3-2.52-4.58-3.75-3.15-2.38-6.27-4.82-9.54-7.06a193,193,0,0,0-42-22.31c-14.9-5.64-30.63-8.61-46.2-10.84-7.8-1.1-15.6-2.12-23.44-2.81s-15.7-1.14-23.58-1.21c-4,0-7.9,0-11.85,0-2,.07-4,.13-5.93.23s-4,.17-5.94.28c-7.92.5-15.84,1.24-23.83,2.13a.45.45,0,0,1-.49-.39A.45.45,0,0,1,65.45,737.07Z"/></g><g class="cls-12"><path class="cls-13" d="M71.88,760.62a136.67,136.67,0,0,1,20.74-5.55A160.06,160.06,0,0,1,114,752.46q5.4-.3,10.81-.25c1.81,0,3.61.08,5.41.15s3.61.13,5.41.3a135.73,135.73,0,0,1,21.41,3.1c14.09,3.21,27.51,8.59,40.6,14.2,3.27,1.41,6.54,2.88,9.76,4.35l4.85,2.23,4.84,2.26c6.44,3.07,12.84,6.29,19.08,9.84A161.35,161.35,0,0,1,314.34,888.7a158,158,0,0,1,5.53,42.6.45.45,0,0,1-.46.44.44.44,0,0,1-.43-.36c-1.45-7-3-13.83-4.89-20.6-.94-3.38-2-6.74-3-10.07s-2.25-6.61-3.44-9.88c-.57-1.65-1.25-3.25-1.88-4.87s-1.32-3.21-2-4.81-1.33-3.2-2.07-4.76-1.42-3.17-2.21-4.71c-3-6.23-6.38-12.27-9.94-18.17-.93-1.46-1.81-2.94-2.71-4.41s-1.95-2.85-2.9-4.29-1.87-2.9-2.89-4.29L278,836.34a195.05,195.05,0,0,0-13.18-16c-4.79-5-9.71-9.89-15-14.45-1.3-1.15-2.58-2.34-3.95-3.42l-4-3.37c-2.75-2.15-5.47-4.36-8.33-6.37a156.63,156.63,0,0,0-17.8-11.27c-3.11-1.65-6.26-3.25-9.47-4.72s-6.42-2.89-9.71-4.14c-13.17-5-27.12-7.58-40.88-9.55-6.89-1-13.78-1.87-20.7-2.51s-13.87-1-20.84-1.16-14,0-21,.38-14,1-21.12,1.71a.45.45,0,0,1-.19-.87Z"/></g><g class="cls-12"><path class="cls-13" d="M77.83,783.5a111.28,111.28,0,0,1,17.58-4.92,133.77,133.77,0,0,1,18.18-2.37,144.68,144.68,0,0,1,18.39,0,112.77,112.77,0,0,1,18.21,2.56c12,2.71,23.37,7.38,34.54,12,5.6,2.35,11.1,4.79,16.62,7.27s11,5.07,16.42,7.93a142.5,142.5,0,0,1,15.72,9.51c1.26.89,2.51,1.78,3.74,2.71s2.41,1.92,3.61,2.88c2.44,1.89,4.66,4,7,6.08,1.16,1,2.21,2.15,3.32,3.22s2.22,2.16,3.28,3.29l3.1,3.45c1,1.14,2.09,2.29,3,3.51,1.94,2.41,3.95,4.78,5.67,7.36s3.57,5.08,5.14,7.75c12.76,21.24,19.62,46,19,70.24a.45.45,0,0,1-.89.09h0c-1.36-5.89-2.81-11.69-4.5-17.38-.86-2.85-1.78-5.67-2.71-8.47l-1.5-4.17L279.22,892c-1.09-2.73-2.22-5.44-3.45-8.1-.57-1.35-1.2-2.67-1.84-4s-1.25-2.64-1.95-3.93l-2-3.87-2.13-3.82c-.71-1.27-1.5-2.49-2.23-3.76s-1.51-2.49-2.3-3.7a177.43,177.43,0,0,0-21.37-27.59c-2.07-2.06-4.08-4.19-6.26-6.15-1.08-1-2.13-2-3.23-3s-2.22-1.92-3.32-2.89-2.23-1.91-3.37-2.84-2.25-1.93-3.42-2.82l-3.51-2.73c-1.17-.9-2.39-1.74-3.59-2.61a130.41,130.41,0,0,0-15.17-9.4,136.19,136.19,0,0,0-16.35-7.28c-11.24-4.07-23.12-5.89-34.79-7.36-5.85-.72-11.68-1.44-17.53-2s-11.73-.89-17.63-1-11.82,0-17.77.14-11.91.65-18,1.08a.45.45,0,0,1-.48-.42A.46.46,0,0,1,77.83,783.5Z"/></g><path class="cls-14" d="M397,831.35A403,403,0,0,1,451,785.86a384.45,384.45,0,0,1,61.31-35.4l4-1.86,4.08-1.7,8.18-3.41c2.73-1.13,5.52-2.1,8.27-3.16s5.51-2.13,8.3-3.07l8.39-2.83,4.19-1.41c1.4-.44,2.82-.85,4.23-1.27l8.46-2.58c2.8-.92,5.68-1.58,8.5-2.4s5.67-1.59,8.52-2.34l8.58-2.1,4.29-1.07,4.32-.93,8.63-1.9c11.57-2.2,23.15-4.46,34.88-5.84a464.72,464.72,0,0,1,70.65-3.65c11.8.23,23.58.75,35.33,1.33,5.87.25,11.77.7,17.66,1.08l8.82.76c2.94.24,5.88.51,8.81.86a607,607,0,0,1,69.8,11.62,580.7,580.7,0,0,1,67.84,19.75.26.26,0,0,1,.16.33.28.28,0,0,1-.31.16A792.22,792.22,0,0,0,788.91,718.4c-5.82-.64-11.66-1.07-17.49-1.61l-17.54-1.19c-11.73-.76-23.44-1.44-35.15-1.85a569.61,569.61,0,0,0-70.23,1.63l-8.75.88L631,717.38l-4.36.58-4.34.7-8.68,1.48L605,721.9l-4.31.9-4.27,1L587.9,726c-2.83.77-5.64,1.61-8.46,2.41-5.66,1.56-11.2,3.51-16.76,5.38-1.38.48-2.77.94-4.15,1.44l-4.11,1.58-8.2,3.15c-2.74,1.05-5.41,2.27-8.11,3.39s-5.41,2.25-8.07,3.48l-8,3.7-4,1.86-3.93,2-7.87,3.88-7.77,4.08c-5.22,2.63-10.25,5.61-15.4,8.4-2.55,1.42-5,3-7.57,4.44s-5.05,2.95-7.5,4.54l-7.45,4.65c-2.46,1.58-4.88,3.22-7.33,4.83l-3.66,2.43-3.6,2.51c-2.4,1.67-4.84,3.3-7.21,5l-7.1,5.18c-2.38,1.71-4.68,3.53-7,5.29l-3.5,2.67L417.74,815c-2.3,1.82-4.64,3.6-6.89,5.48s-4.56,3.71-6.8,5.61l-6.74,5.68a.25.25,0,0,1-.36,0A.25.25,0,0,1,397,831.35Z"/><path class="cls-14" d="M415.82,868.89a355.2,355.2,0,0,1,46.81-41.5q6.3-4.67,12.77-9.09L482,814l6.63-4.19c8.89-5.51,18.06-10.58,27.43-15.21l3.53-1.71c1.18-.56,2.35-1.13,3.56-1.65l7.18-3.16c2.39-1,4.76-2.14,7.18-3.12l7.29-2.86c2.44-1,4.85-1.94,7.3-2.84l7.39-2.58c2.47-.85,4.9-1.79,7.37-2.61l7.45-2.38c2.48-.8,4.94-1.67,7.44-2.4l7.5-2.19L593,766l1.87-.56,1.9-.49,7.55-2c10.09-2.63,20.25-5,30.5-7,2.55-.57,5.13-1,7.7-1.42l7.72-1.34c5.16-.79,10.34-1.49,15.52-2.15l7.8-.81c2.6-.25,5.2-.54,7.81-.69,5.21-.36,10.43-.77,15.65-.92l7.84-.3,7.84-.09c5.23-.13,10.46,0,15.69.08q15.67.39,31.31,1.89a481.56,481.56,0,0,1,61.84,10.11,461.73,461.73,0,0,1,59.87,18.07.26.26,0,0,1,.15.33.26.26,0,0,1-.31.16c-20-5.78-40.16-10.78-60.54-14.61a602.94,602.94,0,0,0-61.51-8.62c-5.15-.52-10.32-.83-15.47-1.22-2.58-.19-5.17-.27-7.75-.4s-5.17-.33-7.76-.37c-5.17-.15-10.34-.39-15.51-.35l-7.76,0-7.76.18a505.58,505.58,0,0,0-61.89,5.27l-7.68,1.26-3.84.63-3.81.76c-5.09,1-10.2,1.95-15.22,3.27s-10.09,2.46-15.06,4l-7.47,2.2c-2.49.75-4.92,1.65-7.39,2.46l-7.35,2.56c-2.44.89-4.84,1.87-7.25,2.83L553,781.53c-2.39,1-4.74,2.11-7.11,3.16l-7.09,3.19c-2.35,1.08-4.65,2.29-7,3.42l-6.95,3.45c-2.33,1.14-4.57,2.45-6.88,3.61q-13.71,7.29-27,15.29l-6.6,4.07-6.53,4.2-6.47,4.29c-2.16,1.43-4.26,2.94-6.39,4.4a548.65,548.65,0,0,0-48.77,38.64.25.25,0,0,1-.36,0A.25.25,0,0,1,415.82,868.89Z"/><path class="cls-14" d="M438.52,898.24a335.81,335.81,0,0,1,42.81-34l5.72-3.77,5.79-3.67,5.88-3.53,5.93-3.44,6-3.33,6.07-3.18c2-1,4.09-2.06,6.15-3l6.23-2.86c16.65-7.58,33.94-13.56,51.32-19l6.52-2.06,6.57-1.88c2.18-.64,4.36-1.3,6.56-1.91l6.6-1.75c4.39-1.23,8.83-2.28,13.25-3.38s8.89-2,13.34-3l3.35-.73L640,803l6.72-1.29c4.49-.84,9-1.5,13.52-2.23s9.06-1.21,13.6-1.69,9.1-1,13.66-1.23l6.84-.5,6.84-.34c4.57-.27,9.14-.34,13.71-.46,9.14-.18,18.29,0,27.42.42a462.46,462.46,0,0,1,54.46,6A443.8,443.8,0,0,1,850,814.06a.25.25,0,0,1,.17.32.26.26,0,0,1-.29.18c-17.84-3.61-35.74-6.66-53.72-8.94s-36-3.86-54.11-4.52c-4.52-.23-9-.3-13.56-.44-2.26,0-4.53,0-6.79-.07s-4.52-.08-6.78,0c-4.52,0-9,0-13.57.2l-6.78.21-6.78.36a533,533,0,0,0-54,5.77c-4.46.79-8.95,1.48-13.38,2.43l-6.68,1.35c-2.22.45-4.41,1-6.62,1.56l-6.61,1.63c-2.19.59-4.37,1.23-6.55,1.84s-4.37,1.25-6.54,1.91l-6.47,2.12c-17.23,5.74-33.81,13.21-50,21.27a521,521,0,0,0-47.44,26.32c-15.36,9.6-30.14,20.1-44.64,31.11a.26.26,0,0,1-.36,0A.25.25,0,0,1,438.52,898.24Z"/><path class="cls-14" d="M461.15,930.21a324,324,0,0,1,37.94-26.6c3.32-2,6.63-4,10-5.84l5.08-2.81,5.14-2.69c1.72-.89,3.41-1.83,5.15-2.67l5.24-2.51c1.74-.83,3.48-1.7,5.25-2.47l5.33-2.3c14.24-6.07,28.94-10.93,43.61-15.68s29.47-9.15,44.46-12.94c7.46-2,15-3.6,22.6-5.21,7.62-1.36,15.24-2.73,22.93-3.65l5.75-.76,5.78-.61,5.78-.59,2.89-.29,2.89-.21c3.87-.28,7.73-.56,11.6-.73l11.61-.37a377.91,377.91,0,0,1,92,10.05.26.26,0,0,1,.19.31.25.25,0,0,1-.28.19c-15.3-1.93-30.59-3.47-45.9-4.34s-30.64-1.14-46-.75A538.64,538.64,0,0,0,629,856.43c-3.76.76-7.55,1.43-11.28,2.35s-7.49,1.71-11.21,2.7-7.39,2.1-11.09,3.15-7.3,2.4-11,3.58c-14.53,5-28.55,11.41-42.39,18l-5.19,2.46-5.16,2.53-5.17,2.52-5.13,2.59-5.14,2.58-5.07,2.71c-1.68.91-3.4,1.76-5.08,2.68l-5,2.78c-3.37,1.83-6.68,3.77-10,5.65l-9.94,5.83c-6.58,4-13.11,8-19.66,12.1a.26.26,0,0,1-.35-.08A.27.27,0,0,1,461.15,930.21Z"/><path class="cls-14" d="M438.21,849a266.79,266.79,0,0,1,29.35-19.9c2.57-1.46,5.11-3,7.71-4.4s5.2-2.83,7.84-4.16,5.27-2.7,8-3.93,5.37-2.49,8.11-3.63c10.9-4.62,22.16-8.33,33.29-12.23S554.78,793,566,789.43c5.63-1.84,11.31-3.47,17-5,2.87-.74,5.75-1.42,8.62-2.13s5.79-1.26,8.68-1.9c11.59-2.42,23.3-4.35,35.09-5.61A339,339,0,0,1,670.92,773a305.29,305.29,0,0,1,35.4,2.06.27.27,0,0,1,.23.29.26.26,0,0,1-.25.22c-11.8.28-23.54.72-35.25,1.46s-23.38,1.77-35,3.18-23.22,3-34.77,4.94-23,4.36-34.48,7A256.48,256.48,0,0,0,533,802.27c-11,4.16-21.56,9.39-32.09,14.54l-15.78,7.74c-5.26,2.59-10.46,5.29-15.67,8-10.41,5.42-20.64,11.18-31,16.86a.26.26,0,0,1-.28-.43Z"/></g></g></g></g></g></svg>