<svg xmlns="http://www.w3.org/2000/svg" viewBox="0 0 66.11 66.11"><defs><style>.cls-1{fill:#5fa69b;}.cls-2{fill:#fff;}.cls-3{stroke:#000;stroke-miterlimit:10;stroke-width:0.25px;}</style></defs><title>Asset 61</title><g id="Layer_2" data-name="Layer 2"><g id="Layer_1-2" data-name="Layer 1"><path d="M56.43,9.68A33.06,33.06,0,0,0,9.68,56.43a33.1,33.1,0,0,0,37.25,6.64,1,1,0,0,0-.82-1.76A31.12,31.12,0,0,1,1.94,33.06a31.12,31.12,0,0,1,53.12-22A31.12,31.12,0,0,1,50.4,58.9a1,1,0,0,0,1.08,1.61,33.07,33.07,0,0,0,5-50.83Z"/><path class="cls-1" d="M53.17,24a10,10,0,0,0-3-5.19,10.85,10.85,0,0,0-8.26-2.63,8,8,0,0,0-.84.1C37.8,16.83,35,19.47,33,22.5c-.32-.5-.67-1-1-1.45-1.88-2.39-4.33-4.31-7.09-4.77a11.51,11.51,0,0,0-2.93-.1,10.61,10.61,0,0,0-6.17,2.63,10,10,0,0,0-3,5.19,18.56,18.56,0,0,0,1.06,10.88,26.87,26.87,0,0,0,1.75,3.82c.29.56.61,1.1.95,1.63a31.5,31.5,0,0,0,4.65,5.4,68.34,68.34,0,0,0,10.74,8.09l.68.42a.71.71,0,0,0,.72,0,69.82,69.82,0,0,0,11.43-8.51,31,31,0,0,0,4.63-5.4,16.19,16.19,0,0,0,1-1.61,28.33,28.33,0,0,0,1.76-3.84A18.49,18.49,0,0,0,53.17,24Z"/><path class="cls-2" d="M22.79,45.63a65.68,65.68,0,0,0,7.14,5.63q1.88,1.29,3.82,2.47L33,54.94c-1.31-.81-2.61-1.64-3.88-2.52a65.2,65.2,0,0,1-7.3-5.75Z"/><path d="M26.57,49.07l-.13,0a.31.31,0,0,0-.13.06.28.28,0,0,0-.11.08.47.47,0,0,0-.1.1.75.75,0,0,0-.14.52.62.62,0,0,0,.09.26.7.7,0,0,0,.43.34.68.68,0,0,0,.54-.08.76.76,0,0,0,.21-.19.69.69,0,0,0,0-.78.7.7,0,0,0-.7-.34Z"/><path class="cls-2" d="M51.67,29.35,51,28.64a2.12,2.12,0,0,0-3.07,2.93l.07.08L49.3,33h0L48,31.65l-.07-.08-2.42-2.43h0a2.12,2.12,0,1,0-3,3l1,1h0a2.12,2.12,0,0,0-3,3L42,37.65a2.12,2.12,0,1,0-3,3l4,4.07-.09.16,1.38,2.38A27,27,0,0,0,52,37.66a26.53,26.53,0,0,0,2.23-7ZM47.33,37l0,0-3.83-3.87Z"/><path class="cls-2" d="M27.8,37.65a2.12,2.12,0,0,0-3,0h0l1.51-1.52a2.12,2.12,0,0,0-3-3l1-1a2.12,2.12,0,1,0-3-3h0l-2.42,2.43-.07.08L17.46,33h0l1.34-1.34.07-.08a2.12,2.12,0,0,0-3.07-2.93l-.71.71-.33.32-2.13,1a25,25,0,0,0,3.9,10.68,23.91,23.91,0,0,0,5.75,6L24,44.59h0l3.85-3.93A2.13,2.13,0,0,0,27.8,37.65Zm-4.52-4.48-3.7,3.74v0Z"/><path class="cls-3" d="M51.14,18.2a11.19,11.19,0,0,0-9.37-2.63,12.41,12.41,0,0,0-8.39,5.73A12.41,12.41,0,0,0,25,15.57a11.22,11.22,0,0,0-9.37,2.63c-3.08,2.82-4.18,7.59-3,13.09l0,.05a.75.75,0,0,0,.13.25s0,0,0,.05l.06,0,.11.08a.59.59,0,0,0,.26.07l.07,0,.07,0h.07l.06,0a.75.75,0,0,0,.13-.06l.12-.08.05,0,2.49-2.49h0a1.41,1.41,0,0,1,2,2L14.24,35.2a.7.7,0,0,0,.31,1.18.7.7,0,0,0,.69-.18l4-4h0l0,0,2.46-2.45s0,0,0,0a1.44,1.44,0,0,1,2,0,1.42,1.42,0,0,1,0,2h0l-7.54,7.53a.69.69,0,0,0-.18.68.7.7,0,0,0,1.18.32l6.54-6.53,0,0a1.41,1.41,0,0,1,2,2l-1.5,1.5h0l-5.47,5.47a.71.71,0,0,0,1,1l5.47-5.47a1.42,1.42,0,0,1,2,0,1.4,1.4,0,0,1,0,2h0l-5.49,5.49a.7.7,0,0,0,0,1l0,0h0q1.07,1,2.16,1.89a.75.75,0,0,0,.52.16.7.7,0,0,0,.48-.26.72.72,0,0,0-.09-1c-.53-.44-1-.9-1.55-1.36l4.95-5,0,0a2.83,2.83,0,0,0,0-4A2.75,2.75,0,0,0,27,36.42a2.82,2.82,0,0,0-1.65-4.55,2.82,2.82,0,0,0-.54-3.22,2.9,2.9,0,0,0-4,0s0,0,0,0l-.77.77a2.92,2.92,0,0,0-.72-1.27,2.83,2.83,0,0,0-4,0s0,0,0,0l-1.53,1.54c-.64-4.43.36-8.18,2.82-10.44A9.92,9.92,0,0,1,24.76,17a11.26,11.26,0,0,1,8,6.05.73.73,0,0,0,.62.34A.75.75,0,0,0,34,23,11.26,11.26,0,0,1,42,17a9.92,9.92,0,0,1,8.18,2.27c2.46,2.26,3.46,6,2.82,10.44l-1.54-1.54a2.82,2.82,0,0,0-4.73,1.27L46,28.64l0,0a2.82,2.82,0,0,0-4.51,3.25,2.82,2.82,0,0,0-1.65,4.55,2.81,2.81,0,0,0-1.33,4.72v0l5,5a73.23,73.23,0,0,1-10,7.38c-1.17-.72-2.32-1.46-3.45-2.24l-.58-.4a.69.69,0,0,0-1,.17.71.71,0,0,0,.17,1l.59.4Q31,53.74,33,54.94h0a.7.7,0,0,0,.74,0,74.09,74.09,0,0,0,11.18-8.27h0l.07-.11a.41.41,0,0,0,.07-.11,1.31,1.31,0,0,0,.06-.27.59.59,0,0,0,0-.13.31.31,0,0,0,0-.13.75.75,0,0,0-.07-.12L45,45.67h0l-5.49-5.49h0a1.41,1.41,0,0,1,0-2,1.43,1.43,0,0,1,2,0l5.46,5.47a.71.71,0,0,0,1-1l-5.47-5.47h0L41,35.65a1.41,1.41,0,1,1,2-2h0l6.52,6.53a.71.71,0,0,0,1-1L44,32.66h0l-1-1h0a1.41,1.41,0,1,1,2-2h0l2.39,2.39.09.1h0l4.06,4.05a.71.71,0,0,0,1-1l-4.06-4.06s0,0,0,0h0a1.41,1.41,0,0,1,.05-1.95,1.46,1.46,0,0,1,2,0l2.5,2.5,0,0a.89.89,0,0,0,.25.14l.06,0,.14,0h0a.7.7,0,0,0,.25-.05l.07,0a.49.49,0,0,0,.15-.1l0,0s0,0,0-.05l.09-.14,0-.1a.14.14,0,0,0,0-.06C55.32,25.79,54.22,21,51.14,18.2Z"/></g></g></svg>