<svg width="276" height="200" viewBox="0 0 276 200" fill="none" xmlns="http://www.w3.org/2000/svg">
<path d="M131 200C186.228 200 231 155.228 231 100C231 44.7715 186.228 0 131 0C75.7715 0 31 44.7715 31 100C31 155.228 75.7715 200 131 200Z" fill="#F5F5F5"/>
<path d="M258.201 105.157L221.663 104.843L221.351 141.5L257.888 141.813L258.201 105.157Z" fill="#E0E0E0"/>
<path d="M258.168 109.519C258.168 109.519 252.307 113.532 245.055 118.432C237.802 123.332 231.895 127.298 231.886 127.28C231.877 127.261 237.747 123.267 244.999 118.367C252.252 113.467 258.15 109.473 258.168 109.519Z" fill="#ECECEC"/>
<path d="M257.836 117.97C257.836 117.97 251.975 121.982 244.713 126.882C237.452 131.782 231.563 135.749 231.554 135.73C231.545 135.712 237.415 131.718 244.667 126.818C251.92 121.918 257.817 117.951 257.836 117.97Z" fill="#ECECEC"/>
<path d="M258.03 126.115C258.03 126.115 252.953 129.601 246.659 133.844C240.364 138.088 235.25 141.527 235.231 141.509C235.213 141.49 240.309 138.032 246.612 133.779C252.916 129.527 258.03 126.115 258.03 126.115Z" fill="#ECECEC"/>
<path d="M250.428 105.082C250.428 105.082 246.263 107.948 241.102 111.433C235.941 114.919 231.73 117.739 231.721 117.72C231.712 117.702 235.886 114.854 241.047 111.369C246.207 107.883 250.419 105.063 250.428 105.082Z" fill="#ECECEC"/>
<path d="M257.856 134.898C257.856 134.898 255.736 136.461 253.091 138.347C250.446 140.233 248.29 141.74 248.272 141.721C248.253 141.703 250.391 140.159 253.045 138.273C255.699 136.387 257.846 134.88 257.856 134.898Z" fill="#ECECEC"/>
<path d="M232.161 104.933L195.623 104.619L195.311 141.276L231.848 141.59L232.161 104.933Z" fill="#ECECEC"/>
<path d="M60.4436 176.17L28.835 176.235L29.1022 144.19L60.7201 144.458L60.4436 176.17Z" fill="#E0E0E0"/>
<path d="M60.4714 148.618C60.4714 148.618 55.403 152.095 49.1273 156.329C42.8517 160.564 37.7832 164.021 37.7832 164.021C37.7832 164.021 42.8517 160.554 49.1273 156.311C55.403 152.067 60.4622 148.6 60.4714 148.618Z" fill="#ECECEC"/>
<path d="M60.1855 155.932C60.1855 155.932 55.117 159.399 48.8414 163.642C42.5657 167.886 37.4604 171.307 37.4512 171.288C37.442 171.27 42.5196 167.821 48.7953 163.578C55.071 159.334 60.1763 155.913 60.1855 155.932Z" fill="#ECECEC"/>
<path d="M60.3513 162.995C60.3513 162.995 55.9556 166 50.5185 169.68C45.0815 173.359 40.6489 176.327 40.6397 176.309C40.6304 176.29 45.0262 173.295 50.4725 169.615C55.9187 165.935 60.3421 162.977 60.3513 162.995Z" fill="#ECECEC"/>
<path d="M53.7808 144.782C53.7808 144.782 50.1776 147.259 45.7081 150.273C41.2387 153.287 37.5986 155.7 37.5894 155.7C37.5802 155.7 41.1926 153.223 45.662 150.209C50.1315 147.195 53.7715 144.763 53.7808 144.782Z" fill="#ECECEC"/>
<path d="M60.2036 170.567C60.2036 170.567 58.3605 171.926 56.0843 173.553C53.8081 175.181 51.9282 176.494 51.919 176.475C51.9098 176.457 53.7621 175.125 56.0382 173.498C58.3144 171.871 60.1944 170.558 60.2036 170.567Z" fill="#ECECEC"/>
<path d="M37.9654 144.639L6.35791 144.368L6.08759 176.078L37.6951 176.35L37.9654 144.639Z" fill="#F5F5F5"/>
<path d="M65.558 15.1052V45.3193H22.3103L20.7529 15.3086L65.558 15.1052Z" fill="#E0E0E0"/>
<path d="M20.7529 15.318L20.7529 45.2546H64.0098V15.318L20.7529 15.318Z" fill="white"/>
<path d="M64.2126 45.458H20.541V15.1052H64.2126V45.458ZM20.9557 45.0419H63.7979V15.5213H20.9557V45.0419Z" fill="#E0E0E0"/>
<path d="M59.3195 19.0344H25.4346V41.5378H59.3195V19.0344Z" fill="white"/>
<path d="M59.3195 19.0345H56.8129H49.8277H25.4346L25.5268 18.942C25.5268 25.8114 25.5268 33.4296 25.5268 41.4362L25.4254 41.3345H59.3103L59.2273 41.4177C59.2273 34.5761 59.2273 28.9641 59.2273 25.0533C59.2273 23.0932 59.2273 21.5677 59.2273 20.523V19.4413C59.2273 19.1732 59.2273 19.0345 59.2273 19.0345C59.2273 19.0345 59.2273 19.1639 59.2273 19.4228V20.597C59.2273 21.6417 59.2273 23.1672 59.2273 25.1087C59.2273 29.0288 59.2273 34.6593 59.2273 41.5286V41.6211H59.1444H25.2595H25.1489V41.5101C25.1489 33.5036 25.1489 25.8854 25.1489 19.016V18.9143H25.2503H49.7079H56.6655H58.5085H59.1352L59.3195 19.0345Z" fill="#E0E0E0"/>
<path d="M20.7437 15.2256C21.0101 15.3602 21.2605 15.5246 21.4901 15.7156C21.9324 16.0299 22.5406 16.483 23.1857 17.01C23.8308 17.5369 24.4114 18.0269 24.8168 18.3968C25.0488 18.5822 25.2563 18.7966 25.4343 19.0347C24.6101 18.4604 23.8165 17.8432 23.0567 17.1856C22.2429 16.5848 21.4702 15.93 20.7437 15.2256V15.2256Z" fill="#E0E0E0"/>
<path d="M64.0009 15.3086C63.2981 16.0148 62.5434 16.6669 61.7431 17.2594C60.9847 17.908 60.1809 18.5012 59.3379 19.0345C60.0482 18.3322 60.809 17.6833 61.6141 17.093C62.3652 16.4405 63.1629 15.8441 64.0009 15.3086V15.3086Z" fill="#E0E0E0"/>
<path d="M63.9734 45.2545L59.1445 41.3345Z" fill="white"/>
<path d="M59.1445 41.3345C60.0126 41.8924 60.8409 42.5102 61.6235 43.1836C62.4529 43.8093 63.2381 44.492 63.9734 45.2268C63.1053 44.6689 62.277 44.051 61.4945 43.3777C60.665 42.752 59.8798 42.0693 59.1445 41.3345V41.3345Z" fill="#E0E0E0"/>
<path d="M20.7437 45.2546C21.4622 44.5599 22.229 43.9173 23.0383 43.3316C23.7905 42.689 24.5882 42.1019 25.4251 41.575C24.7183 42.2683 23.9639 42.9109 23.1673 43.498C22.4032 44.1421 21.5932 44.7292 20.7437 45.2546V45.2546Z" fill="#E0E0E0"/>
<path d="M32.3179 26.0426V33.5776H53.6422V26.0426H32.3179Z" fill="#E0E0E0"/>
<path d="M261.661 14.3103H218.552V77.0035H261.661V14.3103Z" fill="#E0E0E0"/>
<path d="M259.505 14.3103H216.396V77.0035H259.505V14.3103Z" fill="#F5F5F5"/>
<path d="M254.15 21.1055H221.749V70.2172H254.15V21.1055Z" fill="white"/>
<path d="M254.141 70.2172V69.2927C254.141 68.6733 254.141 67.7764 254.141 66.6023C254.141 64.2447 254.141 60.8146 254.141 56.4878C254.141 47.8248 254.141 35.5654 254.086 21.124L254.187 21.2257H221.749L221.869 21.1148C221.869 39.6056 221.869 56.7189 221.869 70.2265L221.777 70.1248L245.359 70.1803H251.874H253.579H254.169H251.911H245.414L221.777 70.2357H221.685V70.1433C221.685 56.6357 221.685 39.5502 221.685 21.0316V20.9114H254.307V21.0223C254.307 35.4914 254.307 47.7786 254.252 56.4508C254.252 60.7777 254.252 64.1985 254.252 66.5468C254.252 67.7117 254.252 68.6085 254.252 69.2187V69.9029C254.15 70.134 254.141 70.2172 254.141 70.2172Z" fill="#E0E0E0"/>
<path d="M259.624 14.3103C259.404 14.7081 259.144 15.0829 258.85 15.429C258.352 16.1039 257.642 17.0192 256.832 18.0085C256.021 18.9977 255.265 19.8576 254.703 20.4955C254.42 20.827 254.112 21.1361 253.781 21.42C254.021 21.0348 254.295 20.6727 254.601 20.3383L256.675 17.8143L258.748 15.2811C259.012 14.9333 259.305 14.6085 259.624 14.3103V14.3103Z" fill="#E0E0E0"/>
<path d="M254.344 70.051C255.945 72.6112 257.831 74.9808 259.965 77.1145Z" fill="white"/>
<path d="M259.965 77.1143C259.602 76.8451 259.271 76.5349 258.979 76.1898C257.472 74.6579 256.128 72.9723 254.97 71.1603C254.713 70.7936 254.491 70.4036 254.307 69.9954C254.601 70.3313 254.869 70.6899 255.108 71.0678C255.578 71.7335 256.251 72.6488 257.025 73.6288C257.799 74.6088 258.555 75.4779 259.099 76.0788C259.407 76.4066 259.697 76.7524 259.965 77.1143V77.1143Z" fill="#E0E0E0"/>
<path d="M216.386 76.9571L222.035 69.9675Z" fill="white"/>
<path d="M222.035 69.9675C222.081 69.9675 220.855 71.604 219.27 73.5363C217.685 75.4686 216.404 76.9941 216.358 76.9571C217.211 75.7155 218.134 74.524 219.123 73.3883C220.031 72.1958 221.003 71.0538 222.035 69.9675Z" fill="#E0E0E0"/>
<path d="M216.396 14.3103C217.372 15.3593 218.295 16.4579 219.16 17.6017C220.074 18.6961 220.927 19.8413 221.713 21.0317C221.667 21.0317 220.441 19.5987 218.948 17.7496C218.03 16.6551 217.178 15.5066 216.396 14.3103V14.3103Z" fill="#E0E0E0"/>
<path d="M244.05 31.072H233.203V61.9702H244.05V31.072Z" fill="#E0E0E0"/>
<path d="M205.042 5H181.543V39.1803H205.042V5Z" fill="#E0E0E0"/>
<path d="M203.861 5H180.362V39.1803H203.861V5Z" fill="#F5F5F5"/>
<path d="M200.95 8.69824H183.284V35.473H200.95V8.69824Z" fill="white"/>
<path d="M200.941 35.5098V35.0013C200.941 34.6684 200.941 34.1692 200.941 33.5312C200.941 32.2461 200.941 30.3785 200.941 27.984C200.941 23.2596 200.941 16.5751 200.941 8.69802L200.996 8.76274H183.284L183.386 8.69802C183.386 18.8033 183.386 28.1134 183.386 35.5098L183.339 35.4635H196.241H183.339H183.284V35.5098C183.284 28.1134 183.284 18.868 183.284 8.69802V8.6333H201.07V8.69802C201.07 16.5936 201.07 23.2873 201.07 28.021C201.07 30.3785 201.07 32.2461 201.07 33.5682C201.07 34.2062 201.07 34.6869 201.07 35.029V35.3988C201.033 35.4422 200.989 35.4797 200.941 35.5098V35.5098Z" fill="#E0E0E0"/>
<path d="M203.927 5C203.811 5.21778 203.672 5.42237 203.513 5.6102C203.236 5.98002 202.849 6.47927 202.407 7.0155C201.964 7.55174 201.55 8.0325 201.246 8.36534C201.091 8.56023 200.918 8.7398 200.729 8.90157C200.86 8.68958 201.011 8.49134 201.181 8.30986L202.315 6.93229L203.439 5.55473C203.59 5.35988 203.753 5.17462 203.927 5V5Z" fill="#E0E0E0"/>
<path d="M201.033 35.3899C201.912 36.7892 202.945 38.0854 204.111 39.2545Z" fill="white"/>
<path d="M204.111 39.2545C203.916 39.1104 203.737 38.9461 203.577 38.7645C203.166 38.3488 202.778 37.9105 202.416 37.4516C202.051 36.9945 201.71 36.5193 201.393 36.0278C201.256 35.8251 201.136 35.6117 201.033 35.3899C201.192 35.5731 201.336 35.7678 201.466 35.9724C201.724 36.3329 202.093 36.8322 202.517 37.3684C202.941 37.9046 203.346 38.3669 203.641 38.6998C203.816 38.8687 203.973 39.0545 204.111 39.2545V39.2545Z" fill="#E0E0E0"/>
<path d="M180.354 39.1526L183.441 35.3435Z" fill="white"/>
<path d="M183.441 35.3435C183.441 35.3435 182.796 36.268 181.948 37.285C181.449 37.9293 180.917 38.5465 180.354 39.1341C180.354 39.1341 180.999 38.2096 181.846 37.1833C182.343 36.5408 182.876 35.9266 183.441 35.3435V35.3435Z" fill="#E0E0E0"/>
<path d="M180.362 5C180.891 5.5713 181.389 6.16999 181.855 6.79361C182.354 7.38282 182.818 8.00019 183.247 8.6427C182.715 8.07383 182.217 7.47499 181.754 6.84909C181.259 6.25707 180.794 5.6399 180.362 5V5Z" fill="#E0E0E0"/>
<path d="M195.44 14.1343H189.523V30.9794H195.44V14.1343Z" fill="#E0E0E0"/>
<path d="M266.554 176.123C266.554 176.179 206.885 176.234 133.282 176.234C59.6787 176.234 0 176.179 0 176.123C0 176.068 59.6602 176.04 133.282 176.04C206.903 176.04 266.554 176.04 266.554 176.123Z" fill="#1A2E35"/>
<path d="M252.925 176.124L218.349 176.142L218.644 141.453L253.22 141.749L252.925 176.124Z" fill="#FFE55C"/>
<g opacity="0.4">
<path opacity="0.4" d="M253.182 145.891C253.182 145.891 247.653 149.682 240.779 154.323C233.904 158.964 228.329 162.708 228.319 162.69C228.31 162.671 233.849 158.89 240.723 154.249C247.598 149.608 253.173 145.872 253.182 145.891Z" fill="white"/>
</g>
<g opacity="0.4">
<path opacity="0.4" d="M252.869 153.851C252.869 153.851 247.34 157.651 240.456 162.292C233.572 166.934 228.016 170.678 227.997 170.613C227.979 170.549 233.526 166.823 240.41 162.181C247.294 157.54 252.86 153.851 252.869 153.851Z" fill="white"/>
</g>
<g opacity="0.4">
<path opacity="0.4" d="M253.054 161.608C253.054 161.608 248.244 164.9 242.291 168.921C236.338 172.943 231.499 176.188 231.49 176.17C231.481 176.151 236.291 172.879 242.245 168.857C248.198 164.835 253.036 161.581 253.054 161.608Z" fill="white"/>
</g>
<g opacity="0.4">
<path opacity="0.4" d="M245.866 141.684C245.866 141.684 241.922 144.393 237.038 147.703C232.154 151.013 228.173 153.666 228.154 153.648C228.136 153.63 232.099 150.93 236.983 147.629C241.867 144.329 245.848 141.666 245.866 141.684Z" fill="white"/>
</g>
<g opacity="0.4">
<path opacity="0.4" d="M252.888 169.892C252.888 169.892 250.889 171.381 248.382 173.165C245.875 174.95 243.839 176.373 243.82 176.355C243.802 176.336 245.829 174.876 248.336 173.091C250.843 171.307 252.879 169.874 252.888 169.892Z" fill="white"/>
</g>
<path d="M228.568 141.55L193.993 141.253L193.697 175.941L228.272 176.237L228.568 141.55Z" fill="#FFE55C"/>
<path opacity="0.2" d="M228.568 141.55L193.993 141.253L193.697 175.941L228.272 176.237L228.568 141.55Z" fill="white"/>
<path d="M275.714 176.17L241.682 176.124L241.977 141.49L276 141.777L275.714 176.17Z" fill="#455A64"/>
<path d="M85.7026 71.2805V107.966H117.164C117.164 103.102 119.09 98.4359 122.519 94.996C125.948 91.556 130.598 89.6234 135.447 89.6234C140.296 89.6234 144.947 91.556 148.375 94.996C151.804 98.4359 153.73 103.102 153.73 107.966H184.952V71.2805H85.7026Z" fill="#FFE55C"/>
<path opacity="0.4" d="M85.7026 71.2805V107.966H117.164C117.164 103.102 119.09 98.4359 122.519 94.996C125.948 91.556 130.598 89.6234 135.447 89.6234C140.296 89.6234 144.947 91.556 148.375 94.996C151.804 98.4359 153.73 103.102 153.73 107.966H184.952V71.2805H85.7026Z" fill="black"/>
<path d="M63.1069 71.2805V107.966H94.559C94.559 103.102 96.4852 98.4359 99.914 94.996C103.343 91.556 107.993 89.6234 112.842 89.6234C117.691 89.6234 122.342 91.556 125.77 94.996C129.199 98.4359 131.125 103.102 131.125 107.966H162.329V71.2805H63.1069Z" fill="#FFE55C"/>
<path d="M184.952 73.2589C184.952 73.2589 179.948 76.7629 173.737 81.0343C167.526 85.3057 162.485 88.7449 162.476 88.7265C162.466 88.708 167.48 85.2317 173.691 80.9603C179.902 76.6889 184.943 73.2404 184.952 73.2589Z" fill="#FFE55C"/>
<path d="M185.146 80.2669C185.146 80.2669 180.133 83.7617 173.931 88.0331C167.729 92.3045 162.679 95.753 162.66 95.7345C162.642 95.716 167.673 92.2397 173.875 87.9684C180.077 83.697 185.127 80.2484 185.146 80.2669Z" fill="#FFE55C"/>
<path d="M184.915 87.534C184.915 87.534 179.911 91.038 173.7 95.3094C167.489 99.5808 162.448 103.002 162.438 103.002C162.429 103.002 167.442 99.5068 173.654 95.2355C179.865 90.9641 184.906 87.5155 184.915 87.534Z" fill="#FFE55C"/>
<path d="M184.731 94.5604C184.731 94.5604 180.39 97.5929 175.009 101.3C169.627 105.008 165.259 107.994 165.24 107.966C165.222 107.939 169.581 104.934 174.962 101.226C180.344 97.5189 184.722 94.5419 184.731 94.5604Z" fill="#FFE55C"/>
<path d="M175.664 71.2805L175.535 71.3822L175.157 71.6596L173.738 72.6488L169.038 75.894L164.329 79.1206L162.901 80.0452L162.504 80.304L162.366 80.3873C162.406 80.3518 162.449 80.3208 162.495 80.2948L162.873 80.0174L164.292 79.0282L168.992 75.783L173.701 72.5564L175.139 71.5856L175.526 71.3267L175.664 71.2805Z" fill="#FFE55C"/>
<path d="M121.56 91.7774C121.56 91.7774 116.316 95.4756 109.819 99.9134C103.322 104.351 98.0419 107.994 98.0327 107.966C98.0235 107.938 103.276 104.268 109.773 99.8394C116.27 95.4109 121.55 91.7589 121.56 91.7774Z" fill="#FFE55C"/>
<path d="M118.565 100.977L118.464 101.06L118.178 101.263L117.09 102.031L113.506 104.509L109.912 106.968L108.815 107.707L108.511 107.911L108.4 107.966L108.502 107.892L108.797 107.68L109.875 106.922L113.46 104.435L117.063 101.975L118.159 101.236L118.454 101.042L118.565 100.977Z" fill="#FFE55C"/>
<path d="M112.271 89.8085C112.271 89.8085 108.585 92.3602 104.115 95.4759C99.6458 98.5916 95.9135 101.088 95.9043 101.023C95.8951 100.958 99.5905 98.4622 104.06 95.3557C108.529 92.2492 112.262 89.79 112.271 89.8085Z" fill="#FFE55C"/>
<path d="M185.063 102.077C185.063 102.077 183.22 103.445 180.989 105.082C178.759 106.718 176.879 108.04 176.87 108.022C176.861 108.003 178.713 106.653 180.934 105.017C183.155 103.381 185.044 102.077 185.063 102.077Z" fill="#FFE55C"/>
<path d="M190.104 107.966H158.67V139.502H190.104V107.966Z" fill="#1A2E35"/>
<path d="M167.701 107.966H136.268V139.502H167.701V107.966Z" fill="#455A64"/>
<path d="M190.104 111.738C190.104 111.738 185.1 115.233 178.889 119.505C172.678 123.776 167.637 127.224 167.628 127.206C167.619 127.187 172.632 123.702 178.843 119.431C185.054 115.159 190.095 111.72 190.104 111.738Z" fill="#455A64"/>
<path d="M189.883 119.005C189.883 119.005 184.87 122.5 178.668 126.771C172.466 131.043 167.416 134.491 167.398 134.473C167.379 134.454 172.411 130.978 178.613 126.707C184.815 122.435 189.837 118.987 189.883 119.005Z" fill="#455A64"/>
<path d="M190.104 126.023C190.104 126.023 185.763 129.064 180.382 132.762C175 136.461 170.623 139.456 170.613 139.438C170.604 139.419 174.954 136.396 180.336 132.698C185.717 129 190.095 126.004 190.104 126.023Z" fill="#455A64"/>
<path d="M183.386 107.966C183.386 107.966 179.829 110.472 175.406 113.514C170.982 116.555 167.397 119.005 167.379 118.978C167.361 118.95 170.945 116.481 175.359 113.43C179.774 110.379 183.386 107.948 183.386 107.966Z" fill="#455A64"/>
<path d="M190.021 133.567C190.021 133.567 188.178 134.926 185.948 136.572C183.717 138.217 181.847 139.53 181.828 139.512C181.81 139.493 183.671 138.143 185.901 136.498C188.132 134.852 190.011 133.511 190.021 133.567Z" fill="#455A64"/>
<path d="M120.795 107.966H89.3613V139.502H120.795V107.966Z" fill="#1A2E35"/>
<path d="M98.3926 107.966H66.959V139.502H98.3926V107.966Z" fill="#455A64"/>
<path d="M120.804 111.738C120.804 111.738 115.791 115.233 109.589 119.505C103.387 123.776 98.3373 127.224 98.3189 127.206C98.3005 127.187 103.332 123.702 109.534 119.431C115.736 115.159 120.786 111.72 120.804 111.738Z" fill="#455A64"/>
<path d="M120.574 119.005C120.574 119.005 115.57 122.5 109.359 126.771C103.148 131.043 98.1069 134.491 98.0977 134.473C98.0885 134.454 103.102 130.978 109.313 126.707C115.524 122.435 120.565 118.987 120.574 119.005Z" fill="#455A64"/>
<path d="M120.804 126.023C120.804 126.023 116.464 129.064 111.082 132.762C105.7 136.461 101.323 139.456 101.305 139.438C101.286 139.419 105.645 136.396 111.027 132.698C116.409 129 120.786 126.004 120.804 126.023Z" fill="#455A64"/>
<path d="M114.114 107.966C114.114 107.966 110.556 110.472 106.133 113.514C101.71 116.555 98.1157 119.005 98.1065 118.978C98.0972 118.95 101.664 116.481 106.087 113.43C110.51 110.379 114.095 107.948 114.114 107.966Z" fill="#455A64"/>
<path d="M120.721 133.567C120.721 133.567 118.878 134.926 116.648 136.572C114.418 138.217 112.538 139.53 112.529 139.512C112.52 139.493 114.372 138.143 116.593 136.498C118.814 134.852 120.721 133.511 120.721 133.567Z" fill="#455A64"/>
<path d="M184.51 139.512H162.329V176.198H184.51V139.512Z" fill="#FFE55C"/>
<path opacity="0.4" d="M184.51 139.512H162.329V176.198H184.51V139.512Z" fill="black"/>
<path d="M162.338 139.512H63.1069V176.198H162.338V139.512Z" fill="#FFE55C"/>
<path d="M184.307 141.601C184.307 141.601 179.432 145.077 173.387 149.33C167.342 153.583 162.439 157.004 162.421 156.986C162.403 156.967 167.296 153.509 173.341 149.256C179.386 145.003 184.307 141.583 184.307 141.601Z" fill="#FFE55C"/>
<path d="M184.51 148.572C184.51 148.572 179.635 152.049 173.589 156.302C167.544 160.554 162.632 163.975 162.623 163.957C162.614 163.938 167.498 160.48 173.543 156.228C179.589 151.975 184.5 148.554 184.51 148.572Z" fill="#FFE55C"/>
<path d="M184.307 155.802C184.307 155.802 179.432 159.278 173.387 163.531C167.342 167.784 162.439 171.205 162.421 171.186C162.403 171.168 167.296 167.71 173.341 163.457C179.386 159.204 184.307 155.784 184.307 155.802Z" fill="#FFE55C"/>
<path d="M184.114 162.783C184.114 162.783 179.893 165.806 174.649 169.485C169.406 173.165 165.148 176.142 165.13 176.124C165.112 176.105 169.36 173.1 174.603 169.421C179.847 165.741 184.095 162.764 184.114 162.783Z" fill="#FFE55C"/>
<path d="M175.286 139.632L175.157 139.734L174.788 140.011L173.406 140.991L168.798 144.227L164.19 147.435L162.789 148.36L162.412 148.619L162.273 148.702L162.402 148.6L162.771 148.332L164.153 147.343C165.361 146.501 166.918 145.364 168.761 144.116L173.369 140.908L174.769 139.983L175.147 139.725L175.286 139.632Z" fill="#FFE55C"/>
<path d="M184.426 170.28C184.426 170.28 182.666 171.64 180.464 173.276C178.261 174.912 176.464 176.216 176.455 176.198C176.446 176.179 178.215 174.838 180.418 173.202C182.62 171.566 184.417 170.262 184.426 170.28Z" fill="#FFE55C"/>
<path d="M83.6665 71.3175L195.688 71.1511L139.595 15.4104L114.427 15.4381L83.6665 71.3175Z" fill="#FFE55C"/>
<path d="M58.499 71.3546L170.521 71.1882L114.427 15.4382L58.499 71.3546Z" fill="#FFE55C"/>
<g opacity="0.4">
<path opacity="0.4" d="M172.548 48.1575L172.4 48.2684L171.977 48.5735L170.392 49.6737L165.166 53.2979L159.932 56.9036C159.278 57.3382 158.743 57.708 158.338 57.9854L157.895 58.272L157.748 58.3737C157.791 58.3331 157.837 58.296 157.886 58.2627L158.319 57.9576L159.895 56.8482L165.12 53.224L170.364 49.6275L171.958 48.5458L172.391 48.2499L172.548 48.1575Z" fill="white"/>
<path opacity="0.4" d="M177.902 53.5938L177.755 53.7047L177.331 54.0098L175.746 55.11L170.484 58.7342L165.287 62.3214C164.632 62.756 164.098 63.1258 163.692 63.4031L163.25 63.6898L163.103 63.7915C163.146 63.7509 163.192 63.7138 163.241 63.6805L163.674 63.3754L165.25 62.266L170.484 58.6233L175.728 55.0268L177.313 54.0005L177.746 53.7047L177.902 53.5938Z" fill="white"/>
<path opacity="0.4" d="M183.081 58.8081L182.934 58.919L182.51 59.2242L180.934 60.3244L175.709 63.9486L170.484 67.5543L168.89 68.636L168.456 68.9226L168.3 69.0243L168.447 68.9134L168.871 68.6083L170.447 67.4988L175.672 63.8838L180.916 60.2781L182.464 59.1964L182.897 58.9006L183.081 58.8081Z" fill="white"/>
<path opacity="0.4" d="M188.703 64.1707L188.601 64.2446L188.316 64.4573L187.265 65.2061L183.754 67.6377L180.224 70.06L179.155 70.7811L178.861 70.9753L178.75 71.04C178.75 71.04 178.75 71.04 178.851 70.9568L179.137 70.7534L180.197 70.0045L183.708 67.573L187.228 65.1507L188.297 64.4295L188.592 64.2354L188.703 64.1707Z" fill="white"/>
<path opacity="0.4" d="M167.083 42.7209L166.936 42.8319L166.512 43.137L164.954 44.2372L159.729 47.8614L154.486 51.4671C153.832 51.9017 153.297 52.2715 152.892 52.5488L152.458 52.8354L152.302 52.9371C152.347 52.8953 152.396 52.8581 152.449 52.8262L152.873 52.5211L154.449 51.4116L159.674 47.7874L164.918 44.191L166.512 43.1093L166.945 42.8134L167.083 42.7209Z" fill="white"/>
<path opacity="0.4" d="M161.618 37.2849L161.48 37.3959L161.047 37.701L159.471 38.8012L154.246 42.4254L149.003 46.0311L147.445 47.1128L147.012 47.3994L146.855 47.5011L147.003 47.3902L147.427 47.0851L149.012 45.9756L154.237 42.3514L159.425 38.7549L161.019 37.6732L161.462 37.3774L161.618 37.2849Z" fill="white"/>
<path opacity="0.4" d="M156.163 31.8115L156.015 31.9225L155.592 32.2276L154.007 33.3278L148.781 36.952L143.547 40.5577L141.916 41.6764L141.474 41.963L141.326 42.0647C141.369 42.0241 141.415 41.987 141.464 41.9538L141.898 41.6487L143.473 40.5392L148.698 36.915L153.942 33.3185L155.536 32.2368L155.969 31.941L156.163 31.8115Z" fill="white"/>
<path opacity="0.4" d="M150.699 26.4121L150.551 26.5231L150.127 26.8282L148.552 27.9284L143.327 31.5526L138.083 35.1583C137.429 35.5928 136.894 35.9626 136.489 36.24L136.056 36.5266L135.899 36.6283C135.944 36.5865 135.994 36.5493 136.046 36.5174L136.47 36.2123L138.046 35.1028L143.271 31.4786L148.515 27.8821L150.109 26.8004L150.542 26.5046L150.699 26.4121Z" fill="white"/>
<path opacity="0.4" d="M145.234 20.9758L145.096 21.0868L144.663 21.3919L143.087 22.4921L137.862 26.1163L132.618 29.722L131.024 30.8037L130.591 31.0903L130.434 31.192C130.479 31.1502 130.529 31.113 130.582 31.0811L131.005 30.776L132.59 29.6665L137.816 26.0423L143.05 22.4459L144.681 21.3641L145.123 21.0683L145.234 20.9758Z" fill="white"/>
<path opacity="0.4" d="M139.778 15.5396L139.631 15.6505L139.207 15.9556L137.622 17.0188L132.397 20.717L127.172 24.2857C126.517 24.7203 125.983 25.0901 125.578 25.3674L125.135 25.654L124.979 25.7557L125.126 25.6448L125.559 25.3397L127.172 24.2303L132.397 20.606L137.594 17.0188L139.152 15.9279L139.585 15.632L139.778 15.5396Z" fill="white"/>
<path opacity="0.4" d="M126.324 15.6135C126.324 15.6135 124.822 16.7045 122.942 17.9988C121.062 19.2932 119.523 20.3379 119.514 20.3194C119.504 20.301 121.016 19.2285 122.896 17.9341C124.776 16.6398 126.315 15.595 126.324 15.6135Z" fill="white"/>
</g>
<path opacity="0.2" d="M58.499 71.3546L170.521 71.1882L114.427 15.4382L58.499 71.3546Z" fill="white"/>
<path d="M215.022 174.284L214.939 170.743L208.332 170.854L208.397 176.031H208.802C210.645 176.105 218.091 176.262 219.298 175.874C220.653 175.458 215.022 174.284 215.022 174.284Z" fill="#FFE55C"/>
<g opacity="0.4">
<path opacity="0.4" d="M217.777 174.959C217.777 174.959 219.749 175.495 219.509 175.819C219.27 176.142 211.722 176.272 208.396 176.031V175.883L217.196 175.819C217.196 175.819 217.39 174.977 217.777 174.959Z" fill="white"/>
</g>
<path d="M208.268 175.883H208.71H209.917C210.931 175.883 212.332 175.883 213.88 175.883C215.428 175.883 216.829 175.8 217.842 175.754L219.05 175.68H219.372C219.446 175.68 219.483 175.68 219.483 175.68H219.04H217.842C216.829 175.68 215.428 175.754 213.88 175.782C212.332 175.809 210.931 175.782 209.917 175.782H208.387C208.341 175.874 208.268 175.874 208.268 175.883Z" fill="#1A2E35"/>
<path d="M217.206 175.92C217.25 175.717 217.322 175.522 217.418 175.338C217.533 175.167 217.669 175.011 217.823 174.875C217.621 174.957 217.455 175.108 217.353 175.301C217.228 175.481 217.175 175.702 217.206 175.92V175.92Z" fill="#1A2E35"/>
<path d="M215.234 174.959C215.234 174.959 215.344 174.857 215.446 174.7C215.547 174.543 215.593 174.413 215.575 174.404C215.556 174.395 215.464 174.506 215.372 174.663C215.28 174.82 215.215 174.95 215.234 174.959Z" fill="#1A2E35"/>
<path d="M214.718 174.681C214.718 174.681 214.838 174.626 214.948 174.524C215.059 174.422 215.142 174.321 215.123 174.302C215.105 174.284 215.003 174.358 214.893 174.469C214.782 174.58 214.718 174.672 214.718 174.681Z" fill="#1A2E35"/>
<path d="M214.349 174.062C214.349 174.062 214.505 174.062 214.699 174.062C214.811 174.083 214.927 174.083 215.04 174.062C215.04 174.062 214.883 174.062 214.699 174.062C214.583 174.039 214.464 174.039 214.349 174.062Z" fill="#1A2E35"/>
<path d="M214.229 173.627C214.345 173.702 214.48 173.737 214.617 173.729C214.751 173.751 214.889 173.731 215.013 173.674C214.881 173.66 214.748 173.66 214.617 173.674C214.405 173.637 214.239 173.6 214.229 173.627Z" fill="#1A2E35"/>
<path d="M215.455 174.376C215.595 174.402 215.739 174.402 215.879 174.376C216.032 174.356 216.183 174.322 216.331 174.274C216.41 174.254 216.487 174.226 216.561 174.191C216.608 174.161 216.644 174.115 216.662 174.062C216.67 174.031 216.667 173.998 216.656 173.969C216.644 173.939 216.624 173.913 216.598 173.895C216.439 173.83 216.263 173.818 216.097 173.861C215.931 173.905 215.783 174.001 215.676 174.136C215.617 174.223 215.574 174.32 215.547 174.422C215.547 174.496 215.547 174.533 215.547 174.543C215.588 174.41 215.65 174.285 215.732 174.173C215.824 174.058 215.95 173.974 216.091 173.932C216.171 173.898 216.257 173.88 216.344 173.88C216.431 173.88 216.518 173.898 216.598 173.932C216.671 173.979 216.644 174.053 216.598 174.099C216.522 174.145 216.442 174.182 216.358 174.21C216.217 174.259 216.072 174.299 215.925 174.33L215.455 174.376Z" fill="#1A2E35"/>
<path d="M215.565 174.395C215.612 174.304 215.628 174.2 215.611 174.099C215.591 173.989 215.547 173.885 215.482 173.794C215.446 173.732 215.396 173.68 215.334 173.642C215.273 173.605 215.203 173.584 215.132 173.581C215.089 173.59 215.052 173.616 215.028 173.652C215.004 173.688 214.995 173.733 215.003 173.775C215.016 173.844 215.041 173.91 215.077 173.97C215.135 174.06 215.203 174.144 215.279 174.219C215.35 174.293 215.435 174.353 215.528 174.395C215.528 174.395 215.445 174.312 215.325 174.182C215.253 174.108 215.19 174.024 215.141 173.933C215.077 173.84 215.04 173.683 215.141 173.655C215.199 173.661 215.255 173.68 215.304 173.71C215.353 173.741 215.395 173.782 215.427 173.831C215.487 173.914 215.531 174.009 215.556 174.108C215.584 174.284 215.547 174.395 215.565 174.395Z" fill="#1A2E35"/>
<path d="M208.405 174.062C208.405 174.062 208.59 174.062 208.894 174.062C209.283 174.1 209.654 174.248 209.964 174.489C210.274 174.729 210.51 175.052 210.645 175.421C210.697 175.575 210.74 175.733 210.774 175.892C210.774 175.892 210.774 175.892 210.774 175.754C210.76 175.635 210.736 175.517 210.7 175.402C210.571 175.015 210.33 174.674 210.009 174.422C209.686 174.176 209.298 174.031 208.894 174.006C208.774 173.991 208.654 173.991 208.534 174.006L208.405 174.062Z" fill="#1A2E35"/>
<path d="M209.042 171.298C209.016 171.75 209.016 172.204 209.042 172.657C209.019 173.109 209.019 173.563 209.042 174.016C209.071 173.563 209.071 173.109 209.042 172.657C209.074 172.204 209.074 171.75 209.042 171.298V171.298Z" fill="#1A2E35"/>
<path d="M211.612 175.282C211.93 175.35 212.256 175.374 212.58 175.356C212.89 175.37 213.2 175.339 213.501 175.264C213.501 175.264 213.068 175.264 212.58 175.264C212.257 175.253 211.934 175.259 211.612 175.282V175.282Z" fill="#1A2E35"/>
<path d="M210.313 175.301C210.313 175.301 210.312 175.393 210.395 175.486C210.478 175.578 210.469 175.671 210.488 175.671C210.506 175.671 210.488 175.569 210.488 175.449C210.488 175.329 210.331 175.282 210.313 175.301Z" fill="#1A2E35"/>
<path d="M209.815 174.7C209.815 174.7 209.815 174.783 209.917 174.848C210.018 174.913 210.055 174.959 210.064 174.94C210.073 174.922 210.064 174.857 209.972 174.792C209.88 174.728 209.834 174.681 209.815 174.7Z" fill="#1A2E35"/>
<path d="M209.115 174.432C209.115 174.432 209.207 174.432 209.308 174.478C209.41 174.524 209.474 174.561 209.493 174.552C209.511 174.543 209.447 174.441 209.327 174.404C209.207 174.367 209.106 174.404 209.115 174.432Z" fill="#1A2E35"/>
<path d="M208.617 174.302C208.617 174.302 208.617 174.358 208.7 174.376C208.783 174.395 208.811 174.376 208.811 174.376C208.811 174.376 208.811 174.321 208.728 174.302C208.645 174.284 208.626 174.284 208.617 174.302Z" fill="#1A2E35"/>
<g opacity="0.3">
<path opacity="0.3" d="M208.414 173.886L215.012 173.674L214.985 172.869L208.35 173.47L208.414 173.886Z" fill="black"/>
</g>
<path d="M221.168 173.544L222.293 170.188L216.035 168.043L214.34 172.934L214.727 173.091C216.413 173.785 223.38 176.475 224.652 176.521C226.062 176.567 221.168 173.544 221.168 173.544Z" fill="#FFE55C"/>
<g opacity="0.4">
<path opacity="0.4" d="M223.528 175.116C223.528 175.116 225.205 176.299 224.864 176.521C224.523 176.743 217.391 174.293 214.331 172.934L214.396 172.795L222.689 175.735C222.689 175.735 223.159 175.005 223.528 175.116Z" fill="white"/>
</g>
<path d="M214.294 172.758C214.294 172.758 214.294 172.758 214.395 172.814L214.699 172.934L215.824 173.378C216.745 173.738 218.081 174.228 219.51 174.728C220.938 175.227 222.274 175.652 223.288 175.966L224.44 176.309L224.753 176.392H224.864H224.763L224.449 176.281L223.307 175.92C222.339 175.606 221.003 175.171 219.537 174.663C218.072 174.154 216.773 173.683 215.805 173.332L214.672 172.915L214.368 172.805L214.294 172.758Z" fill="#1A2E35"/>
<path d="M222.661 175.828C222.776 175.657 222.909 175.499 223.057 175.356C223.225 175.239 223.404 175.14 223.592 175.06C223.484 175.06 223.377 175.081 223.277 175.122C223.178 175.163 223.087 175.224 223.011 175.301C222.836 175.43 222.712 175.616 222.661 175.828Z" fill="#1A2E35"/>
<path d="M221.169 174.256C221.169 174.256 221.307 174.201 221.445 174.09C221.584 173.979 221.685 173.868 221.676 173.849C221.667 173.831 221.538 173.914 221.39 174.025C221.243 174.136 221.169 174.238 221.169 174.256Z" fill="#1A2E35"/>
<path d="M220.726 173.812C220.726 173.812 220.855 173.812 220.993 173.748C221.132 173.683 221.242 173.618 221.233 173.6C221.224 173.581 221.104 173.6 220.966 173.674C220.827 173.748 220.717 173.794 220.726 173.812Z" fill="#1A2E35"/>
<path d="M220.606 173.11C220.606 173.11 220.735 173.202 220.92 173.267C221.104 173.332 221.252 173.368 221.252 173.341C221.252 173.313 221.123 173.258 220.947 173.193C220.84 173.143 220.724 173.115 220.606 173.11Z" fill="#1A2E35"/>
<path d="M220.634 172.657C220.716 172.768 220.833 172.849 220.966 172.888C221.086 172.955 221.224 172.984 221.362 172.971C221.246 172.903 221.122 172.851 220.993 172.814C220.879 172.749 220.759 172.697 220.634 172.657Z" fill="#1A2E35"/>
<path d="M221.537 173.784C221.662 173.856 221.8 173.903 221.943 173.923C222.093 173.939 222.244 173.939 222.394 173.923C222.489 173.937 222.585 173.937 222.68 173.923C222.707 173.919 222.734 173.91 222.758 173.896C222.781 173.882 222.802 173.862 222.818 173.84C222.834 173.812 222.843 173.78 222.843 173.747C222.843 173.715 222.834 173.683 222.818 173.655C222.691 173.527 222.523 173.446 222.343 173.428C222.163 173.409 221.983 173.454 221.832 173.553C221.74 173.613 221.661 173.692 221.602 173.784C221.58 173.815 221.565 173.85 221.556 173.886C221.642 173.778 221.745 173.685 221.86 173.609C221.984 173.532 222.128 173.494 222.274 173.498C222.362 173.498 222.449 173.516 222.53 173.551C222.611 173.586 222.684 173.637 222.744 173.701C222.744 173.766 222.744 173.831 222.661 173.849C222.576 173.858 222.489 173.858 222.403 173.849C222.253 173.86 222.102 173.86 221.952 173.849L221.537 173.784Z" fill="#1A2E35"/>
<path d="M221.629 173.84C221.629 173.84 221.73 173.766 221.776 173.572C221.799 173.462 221.799 173.349 221.776 173.239C221.73 173.128 221.684 172.971 221.509 172.925C221.466 172.919 221.423 172.931 221.389 172.957C221.355 172.982 221.332 173.021 221.325 173.063C221.306 173.13 221.306 173.2 221.325 173.267C221.345 173.375 221.379 173.481 221.426 173.581C221.509 173.747 221.592 173.831 221.601 173.821C221.61 173.812 221.546 173.72 221.481 173.553C221.443 173.457 221.412 173.358 221.389 173.257C221.389 173.156 221.389 172.989 221.491 172.999C221.592 173.008 221.657 173.165 221.693 173.267C221.715 173.364 221.715 173.465 221.693 173.563C221.682 173.657 221.66 173.75 221.629 173.84V173.84Z" fill="#1A2E35"/>
<path d="M215.013 171.085C215.013 171.085 215.197 171.131 215.464 171.26C215.816 171.434 216.116 171.699 216.33 172.028C216.539 172.36 216.651 172.744 216.653 173.137C216.653 173.442 216.653 173.618 216.653 173.627C216.656 173.584 216.656 173.541 216.653 173.498C216.686 173.38 216.705 173.259 216.708 173.137C216.715 172.729 216.603 172.327 216.386 171.982C216.164 171.637 215.842 171.369 215.464 171.214C215.351 171.166 215.234 171.128 215.114 171.103L215.013 171.085Z" fill="#1A2E35"/>
<path d="M216.561 168.699C216.373 169.116 216.207 169.542 216.063 169.975C215.895 170.397 215.757 170.829 215.648 171.27C215.835 170.854 215.998 170.428 216.137 169.994C216.305 169.572 216.446 169.139 216.561 168.699V168.699Z" fill="#1A2E35"/>
<path d="M217.611 173.322C217.898 173.5 218.208 173.637 218.533 173.729C218.83 173.844 219.139 173.925 219.454 173.969C219.454 173.969 219.04 173.831 218.533 173.655C218.026 173.479 217.621 173.267 217.611 173.322Z" fill="#1A2E35"/>
<path d="M216.396 172.897C216.396 172.897 216.396 172.999 216.396 173.11C216.396 173.221 216.396 173.304 216.396 173.313C216.396 173.322 216.46 173.221 216.451 173.101C216.442 172.98 216.414 172.888 216.396 172.897Z" fill="#1A2E35"/>
<path d="M216.128 172.167C216.128 172.167 216.128 172.25 216.128 172.342C216.128 172.435 216.22 172.49 216.239 172.481C216.257 172.472 216.239 172.398 216.239 172.305C216.239 172.213 216.146 172.157 216.128 172.167Z" fill="#1A2E35"/>
<path d="M215.557 171.677C215.557 171.677 215.64 171.723 215.713 171.788C215.787 171.852 215.842 171.926 215.87 171.917C215.898 171.908 215.87 171.806 215.769 171.723C215.667 171.64 215.557 171.649 215.557 171.677Z" fill="#1A2E35"/>
<path d="M215.124 171.418C215.124 171.418 215.124 171.473 215.179 171.519C215.235 171.565 215.281 171.575 215.29 171.519C215.299 171.464 215.29 171.455 215.235 171.418C215.179 171.381 215.142 171.418 215.124 171.418Z" fill="#1A2E35"/>
<g opacity="0.3">
<path opacity="0.3" d="M215.077 170.928L221.362 172.971L221.602 172.213L215.16 170.512L215.077 170.928Z" fill="black"/>
</g>
<path d="M225.868 108.012L218.091 108.355L206.166 108.012L207.53 173.655L217.142 173.341C217.142 173.341 217.142 172.61 217.142 171.334L222.219 172.647C222.219 172.647 231.785 152.936 233.84 144.541C235.554 137.487 225.868 108.012 225.868 108.012ZM217.105 161.248C216.939 146.104 217.611 120.355 217.833 117.202C217.833 117.202 223.721 139.872 223.777 141.666C223.813 142.757 219.676 153.232 217.105 161.248Z" fill="#1A2E35"/>
<path d="M217.058 156.967C217.074 157.177 217.074 157.387 217.058 157.596C217.058 158.04 217.058 158.622 217.058 159.334C217.058 160.795 217.058 162.82 217.058 165.057C217.058 167.294 217.058 169.319 217.058 170.78V172.518C217.07 172.727 217.07 172.937 217.058 173.147C217.037 172.935 217.037 172.721 217.058 172.509C217.058 172.074 217.058 171.492 217.058 170.78C217.058 169.31 217.058 167.294 217.058 165.057C217.058 162.82 217.058 160.795 217.058 159.334C217.058 158.622 217.058 158.04 217.058 157.596C217.037 157.387 217.037 157.176 217.058 156.967V156.967Z" fill="#455A64"/>
<path d="M212.432 108.909C212.45 109.019 212.45 109.132 212.432 109.242C212.403 109.557 212.338 109.867 212.239 110.167C211.914 111.147 211.264 111.986 210.396 112.543C209.515 113.078 208.478 113.297 207.456 113.162C207.142 113.121 206.833 113.047 206.535 112.94C206.426 112.904 206.323 112.851 206.23 112.783C206.627 112.892 207.03 112.976 207.438 113.033C208.427 113.142 209.423 112.914 210.267 112.385C211.112 111.857 211.754 111.059 212.091 110.12C212.23 109.724 212.344 109.32 212.432 108.909Z" fill="#455A64"/>
<path d="M218.699 109.002C218.72 109.118 218.72 109.237 218.699 109.353C218.699 109.566 218.699 109.889 218.699 110.278C218.699 111.073 218.699 112.127 218.699 113.366V115.076C218.73 115.556 218.621 116.035 218.386 116.454C218.296 116.591 218.18 116.708 218.043 116.799C217.907 116.889 217.754 116.951 217.593 116.981C217.479 117.017 217.357 117.017 217.243 116.981C217.357 116.988 217.471 116.988 217.584 116.981C217.874 116.901 218.121 116.712 218.275 116.454C218.481 116.052 218.57 115.6 218.533 115.15C218.533 114.623 218.533 114.05 218.533 113.449C218.533 112.238 218.533 111.147 218.533 110.352C218.533 109.954 218.533 109.64 218.533 109.427C218.571 109.279 218.627 109.136 218.699 109.002V109.002Z" fill="#455A64"/>
<path d="M226.588 113.088C226.588 113.088 226.496 113.088 226.321 113.088C226.081 113.078 225.843 113.041 225.611 112.977C224.833 112.791 224.102 112.445 223.464 111.96C222.828 111.477 222.295 110.87 221.897 110.176C221.773 109.967 221.668 109.748 221.584 109.52C221.529 109.353 221.501 109.27 221.519 109.261C221.538 109.251 221.685 109.603 222.008 110.102C222.424 110.762 222.954 111.341 223.574 111.812C224.197 112.282 224.899 112.633 225.648 112.848C226.219 113.024 226.588 113.061 226.588 113.088Z" fill="#455A64"/>
<path d="M216.967 109.658C216.967 109.658 216.746 109.723 216.626 110.019C216.589 110.097 216.571 110.182 216.571 110.268C216.571 110.354 216.589 110.44 216.626 110.518C216.682 110.602 216.762 110.667 216.856 110.705C216.95 110.743 217.052 110.752 217.151 110.731C217.251 110.72 217.345 110.679 217.421 110.613C217.497 110.547 217.551 110.459 217.575 110.361C217.586 110.276 217.579 110.19 217.554 110.108C217.528 110.027 217.485 109.952 217.427 109.889C217.216 109.649 216.976 109.695 216.985 109.658C216.994 109.621 216.985 109.658 217.133 109.658C217.277 109.667 217.414 109.726 217.52 109.824C217.601 109.901 217.664 109.994 217.703 110.098C217.743 110.203 217.759 110.314 217.75 110.425C217.718 110.561 217.647 110.685 217.545 110.78C217.443 110.875 217.315 110.937 217.178 110.959C217.04 110.981 216.899 110.961 216.773 110.902C216.647 110.843 216.541 110.748 216.469 110.629C216.418 110.53 216.392 110.421 216.392 110.31C216.392 110.199 216.418 110.089 216.469 109.991C216.5 109.926 216.544 109.868 216.598 109.821C216.652 109.773 216.715 109.737 216.782 109.714C216.911 109.64 216.967 109.649 216.967 109.658Z" fill="#455A64"/>
<path d="M205.659 109.954C205.383 107.485 205.77 98.0829 205.77 98.0829C205.42 93.6081 203.927 88.745 203.66 85.4906C202.738 74.4885 211.373 74.8121 211.373 74.8121L214.138 74.4885C217.022 76.578 219.989 77.9556 220.478 81.0158L226.56 108.909L205.659 109.954Z" fill="#455A64"/>
<path d="M207.271 75.4871C207.665 75.5758 208.066 75.6223 208.469 75.6257L211.372 75.8106C212.506 75.8754 213.529 75.9586 214.266 76.0233C214.665 76.0836 215.069 76.1084 215.473 76.0973C215.091 75.968 214.695 75.8812 214.294 75.8384C213.547 75.7274 212.524 75.6257 211.391 75.5518C210.257 75.4778 209.225 75.4501 208.479 75.4408C208.076 75.4146 207.671 75.4301 207.271 75.4871V75.4871Z" fill="#1A2E35"/>
<g opacity="0.2">
<path opacity="0.2" d="M206.608 86.822L218.883 96.2061L217.565 89.5494L206.608 86.822Z" fill="black"/>
</g>
<path d="M226.126 106.811C226.126 106.866 221.519 107.079 215.814 107.282C210.11 107.486 205.493 107.597 205.493 107.541C205.493 107.486 210.101 107.273 215.805 107.07C221.509 106.866 226.126 106.746 226.126 106.811Z" fill="#FAFAFA"/>
<path d="M225.905 105.775C225.905 105.84 221.298 106.053 215.686 106.247C210.073 106.441 205.466 106.561 205.466 106.506C205.466 106.45 210.073 106.237 215.676 106.034C221.279 105.831 225.905 105.71 225.905 105.775Z" fill="#FAFAFA"/>
<path d="M213.004 59.012C213.305 58.5824 213.519 58.0975 213.632 57.5851C213.746 57.0727 213.758 56.5428 213.668 56.0257C213.572 55.5131 213.355 55.0311 213.034 54.6207C212.713 54.2103 212.298 53.8836 211.825 53.6681C211.34 53.4689 210.81 53.4118 210.294 53.5035C209.778 53.5951 209.299 53.8318 208.913 54.1859C208.258 54.8238 207.927 55.8316 207.07 56.1921C206.213 56.5527 205.227 56.1921 204.637 56.8116C204.305 57.1629 204.268 57.7361 203.992 58.1059C203.715 58.4757 202.978 58.7901 202.462 59.1507C202.113 59.4046 201.835 59.745 201.655 60.1387C201.476 60.5325 201.402 60.9661 201.439 61.3973C201.651 62.3332 202.098 63.1991 202.738 63.9121C203.366 64.6241 203.696 65.5511 203.66 66.5008" fill="#1A2E35"/>
<path d="M207.576 76.3192L202.342 62.3216L202.683 61.8501C204.959 58.7159 205.945 57.0055 209.788 57.4678C210.667 57.6341 211.489 58.0242 212.174 58.6005C212.86 59.1768 213.387 59.92 213.704 60.7591C214.469 62.7746 215.446 65.4466 215.907 67.1107C216.128 67.9443 216.053 68.8294 215.692 69.6128C215.332 70.3962 214.711 71.0286 213.935 71.4006L215.087 76.1528L207.576 76.3192Z" fill="#FFBE9D"/>
<path d="M213.27 62.7838C213.18 62.7223 213.116 62.6302 213.088 62.5245C213.06 62.4189 213.072 62.3068 213.12 62.2088C213.168 62.1109 213.25 62.0338 213.351 61.9916C213.451 61.9495 213.563 61.9452 213.667 61.9795C213.719 62.0041 213.767 62.0392 213.806 62.0826C213.845 62.126 213.874 62.1769 213.893 62.2321C213.912 62.2873 213.92 62.3458 213.916 62.4041C213.912 62.4623 213.896 62.5192 213.869 62.5712C213.816 62.677 213.724 62.7581 213.612 62.7976C213.501 62.8372 213.378 62.8323 213.27 62.7838V62.7838Z" fill="#1A2E35"/>
<path d="M213.852 61.8133C213.852 61.878 213.465 61.7394 213.059 61.8133C212.654 61.8873 212.424 62.2294 212.359 62.1924C212.295 62.1554 212.359 62.0722 212.451 61.9335C212.586 61.7544 212.778 61.6271 212.995 61.5729C213.204 61.5011 213.431 61.5011 213.64 61.5729C213.797 61.7024 213.87 61.7856 213.852 61.8133Z" fill="#1A2E35"/>
<path d="M209.41 63.5144C209.524 63.545 209.621 63.6197 209.679 63.722C209.738 63.8243 209.754 63.9458 209.723 64.0598C209.693 64.1739 209.618 64.271 209.516 64.33C209.415 64.3889 209.293 64.4048 209.18 64.3742C209.123 64.3603 209.069 64.335 209.022 64.2997C208.975 64.2644 208.936 64.2199 208.906 64.1688C208.877 64.1178 208.859 64.0614 208.852 64.0029C208.845 63.9444 208.85 63.8852 208.866 63.8287C208.881 63.7721 208.907 63.7191 208.943 63.6727C208.978 63.6262 209.023 63.5873 209.073 63.5581C209.124 63.5288 209.179 63.5099 209.237 63.5024C209.295 63.4949 209.354 63.499 209.41 63.5144V63.5144Z" fill="#1A2E35"/>
<path d="M209.668 63.3755C209.668 63.4402 209.281 63.3015 208.876 63.3755C208.47 63.4495 208.24 63.7915 208.184 63.7546C208.129 63.7176 208.184 63.6251 208.267 63.4957C208.404 63.3163 208.594 63.1865 208.811 63.1259C209.021 63.0586 209.246 63.0586 209.456 63.1259C209.613 63.2461 209.686 63.3478 209.668 63.3755Z" fill="#1A2E35"/>
<path d="M212.22 66.408C212.22 66.408 212.442 66.2508 212.838 66.0751C212.939 66.0751 213.013 65.9827 213.004 65.9179C212.974 65.8122 212.917 65.7164 212.838 65.6406L212.276 64.9102C211.77 64.297 211.323 63.6377 210.939 62.9409C211.51 63.5045 212.022 64.1239 212.469 64.79L213.013 65.5296C213.122 65.6463 213.19 65.7957 213.206 65.9549C213.202 66.0001 213.187 66.0436 213.163 66.082C213.139 66.1205 213.107 66.1529 213.068 66.1768C213.015 66.2139 212.956 66.242 212.893 66.26C212.677 66.3405 212.45 66.3903 212.22 66.408V66.408Z" fill="#1A2E35"/>
<path d="M213.935 71.3638C212.575 71.7613 211.13 71.7613 209.77 71.3638C209.77 71.3638 211.253 73.2129 214.11 72.1034L213.935 71.3638Z" fill="#EB996E"/>
<path d="M212.211 61.4432C212.311 61.5055 212.426 61.5385 212.543 61.5385C212.66 61.5385 212.775 61.5055 212.875 61.4432C213.114 61.3323 213.317 61.1474 213.308 60.9347C213.299 60.7221 212.958 60.5649 212.58 60.7313C212.202 60.8977 212.064 61.286 212.211 61.4432Z" fill="#1A2E35"/>
<path d="M208.138 62.8578C208.323 62.978 208.599 62.8578 208.866 62.793C209.134 62.7283 209.401 62.5712 209.456 62.3585C209.511 62.1459 209.456 62.1459 209.244 62.0719C209.036 61.9939 208.807 61.9939 208.599 62.0719C208.389 62.1521 208.215 62.3067 208.111 62.5064C208.037 62.6636 208.055 62.7931 208.138 62.8578Z" fill="#1A2E35"/>
<path d="M210.525 66.8797C210.46 66.8797 210.7 67.379 211.262 67.6008C211.824 67.8227 212.322 67.6471 212.294 67.6008C212.267 67.5546 211.843 67.6008 211.373 67.379C210.903 67.1571 210.589 66.8335 210.525 66.8797Z" fill="#1A2E35"/>
<path d="M213.004 59.0117C212.529 59.4357 211.961 59.7406 211.346 59.9013C210.73 60.062 210.086 60.074 209.465 59.9363C208.664 59.7606 207.853 59.2891 207.088 59.5849C206.771 59.7265 206.506 59.964 206.331 60.2641C206.156 60.5643 206.079 60.912 206.111 61.2584C206.082 61.6679 205.896 62.0503 205.592 62.3246C205.288 62.599 204.889 62.7438 204.48 62.7284C205.017 63.9644 205.287 65.3003 205.272 66.6484C205.272 66.9073 204.959 67.1754 204.812 67.3788C204.742 67.4884 204.638 67.5715 204.516 67.6151C204.395 67.6586 204.262 67.6601 204.139 67.6192C204.035 67.5497 203.946 67.4598 203.878 67.3549C203.81 67.25 203.764 67.1323 203.743 67.009C203.319 65.576 202.674 64.0967 202.25 62.6729C202.107 62.1525 202.107 61.6031 202.25 61.0827C202.458 60.4699 202.847 59.9349 203.365 59.548C204.233 58.6558 205.205 57.8706 206.258 57.2089C207.327 56.551 208.597 56.3016 209.834 56.5062C211.05 56.7651 212.599 57.4308 212.774 58.6881" fill="#1A2E35"/>
<path d="M204.378 65.6594C204.322 65.6594 202.157 65.7981 202.857 67.8044C202.941 68.0347 203.076 68.2429 203.253 68.4131C203.429 68.5833 203.641 68.7111 203.874 68.7868C204.106 68.8625 204.353 68.8841 204.595 68.8501C204.837 68.816 205.069 68.7272 205.271 68.5902L204.378 65.6594Z" fill="#FFBE9D"/>
<path d="M204.387 67.9334L204.314 67.9981C204.251 68.0471 204.172 68.0703 204.093 68.0629C203.89 68.0629 203.659 67.7947 203.567 67.4804C203.536 67.3279 203.536 67.1706 203.567 67.0181C203.571 66.9597 203.589 66.903 203.62 66.8531C203.65 66.8032 203.692 66.7614 203.742 66.7315C203.769 66.7081 203.804 66.6952 203.839 66.6952C203.875 66.6952 203.909 66.7081 203.936 66.7315C203.94 66.7591 203.94 66.7872 203.936 66.8147C203.936 66.8147 203.936 66.7685 203.936 66.7038C203.927 66.682 203.913 66.6625 203.895 66.6466C203.878 66.6306 203.857 66.6186 203.835 66.6113C203.807 66.5975 203.777 66.5903 203.747 66.5903C203.717 66.5903 203.687 66.5975 203.659 66.6113C203.592 66.6439 203.533 66.6932 203.49 66.7547C203.446 66.8161 203.419 66.8877 203.411 66.9627C203.37 67.1297 203.37 67.3042 203.411 67.4712C203.512 67.8225 203.779 68.1091 204.046 68.1183C204.097 68.1188 204.147 68.1084 204.193 68.0876C204.239 68.0669 204.28 68.0363 204.314 67.9981C204.343 67.9829 204.369 67.9607 204.387 67.9334Z" fill="#EB996E"/>
<path d="M262.795 80.7569L264.481 80.5905C265.608 80.4049 266.685 79.9862 267.642 79.3609C268.066 79.028 268.305 78.7229 268.222 78.4363C268.191 78.2761 268.098 78.1347 267.964 78.043C267.829 77.9512 267.664 77.9165 267.504 77.9463C267.504 77.9463 268.517 77.6967 268.186 76.9756C267.964 76.4948 267.2 76.7444 267.2 76.7444C267.2 76.7444 268.462 76.1435 268.296 75.5703C268.272 75.4517 268.209 75.3446 268.117 75.2659C268.025 75.1872 267.91 75.1414 267.789 75.1357C268.416 74.655 268.37 74.3221 268.149 74.054C267.928 73.7859 267.319 73.8044 266.914 73.9615L265.532 74.4978C264.675 74.8306 264.048 75.3576 264.822 73.9431C265.132 73.4762 265.343 72.9508 265.443 72.3991C265.542 71.8475 265.529 71.2811 265.403 70.7349C265.344 70.6367 265.254 70.5616 265.147 70.5222C265.04 70.4827 264.923 70.4812 264.815 70.518C264.707 70.5548 264.615 70.6277 264.554 70.7243C264.494 70.821 264.468 70.9357 264.481 71.0492C264.388 71.5846 264.22 72.1043 263.983 72.5932C263.812 72.9977 263.568 73.3674 263.265 73.6842C262.924 74.054 262.61 74.3591 262.343 74.6087L261.007 76.1897L262.795 80.7569Z" fill="#FFBE9D"/>
<path d="M220.937 103.004L249.285 97.78L244.078 69.3391L215.73 74.5629L220.937 103.004Z" fill="#FFE55C"/>
<path opacity="0.4" d="M220.937 103.004L249.285 97.78L244.078 69.3391L215.73 74.5629L220.937 103.004Z" fill="black"/>
<path d="M215.482 77.4749C215.482 77.4749 220.625 79.7307 226.946 82.5691C233.268 85.4074 238.383 87.728 238.373 87.7465C238.364 87.765 233.231 85.4906 226.909 82.6523C220.588 79.8139 215.473 77.4933 215.482 77.4749Z" fill="#FFE55C"/>
<path d="M216.883 84.0115C216.883 84.0115 222.025 86.2766 228.347 89.115C234.668 91.9533 239.783 94.2739 239.774 94.2924C239.765 94.3109 234.632 92.0273 228.31 89.1889C221.988 86.3506 216.874 84.0392 216.883 84.0115Z" fill="#FFE55C"/>
<path d="M217.833 90.4092C217.833 90.4092 222.293 92.36 227.776 94.8193C233.26 97.2785 237.692 99.3033 237.683 99.3033C237.674 99.3033 233.223 97.3433 227.74 94.884C222.256 92.4247 217.824 90.4277 217.833 90.4092Z" fill="#FFE55C"/>
<path d="M220.919 72.9539C220.919 72.9539 224.605 74.5533 229.084 76.5781C233.562 78.6028 237.221 80.2762 237.212 80.2762C237.203 80.2762 233.526 78.686 229.047 76.6613C224.568 74.6365 220.901 72.9723 220.919 72.9539Z" fill="#FFE55C"/>
<path d="M219.15 97.2139C219.15 97.2139 221.049 98.0829 223.362 99.1924C225.675 100.302 227.555 101.217 227.546 101.245C227.536 101.273 225.647 100.376 223.325 99.2664C221.003 98.1569 219.141 97.2416 219.15 97.2139Z" fill="#FFE55C"/>
<path d="M240.336 98.9244L268.793 93.7153L263.601 65.1652L235.144 70.3743L240.336 98.9244Z" fill="#FFE55C"/>
<path d="M267.043 73.9431L265.329 74.618C265.113 74.6867 264.913 74.7966 264.739 74.9416C264.656 75.017 264.595 75.1136 264.563 75.2211C264.53 75.3286 264.527 75.4429 264.555 75.5518C264.601 75.6571 264.678 75.7465 264.774 75.8089C264.871 75.8713 264.984 75.9041 265.099 75.9031C265.323 75.8973 265.545 75.8503 265.753 75.7645L267.596 75.1173" fill="#FFBE9D"/>
<path d="M266.757 75.3945L264.914 76.1157C264.685 76.1877 264.472 76.3039 264.287 76.4578C264.196 76.5374 264.13 76.6415 264.095 76.7577C264.061 76.874 264.061 76.9976 264.094 77.1142C264.143 77.2252 264.223 77.3194 264.324 77.3851C264.426 77.4508 264.544 77.4852 264.665 77.484C264.909 77.4804 265.15 77.4302 265.375 77.3361L267.347 76.6427" fill="#FFBE9D"/>
<path d="M266.775 76.7998L265.245 77.4008C265.054 77.466 264.876 77.5663 264.72 77.6966C264.642 77.7612 264.585 77.8474 264.556 77.9444C264.526 78.0413 264.526 78.1449 264.554 78.2421C264.595 78.3354 264.662 78.4147 264.748 78.4705C264.833 78.5263 264.932 78.5562 265.034 78.5564C265.24 78.5545 265.444 78.5105 265.633 78.427L267.291 77.8538" fill="#FFBE9D"/>
<path d="M267.402 77.8169L265.872 78.4178C265.679 78.4794 265.5 78.5801 265.347 78.7137C265.269 78.7783 265.212 78.8645 265.183 78.9615C265.153 79.0584 265.153 79.1619 265.181 79.2592C265.224 79.3511 265.292 79.4292 265.376 79.4848C265.461 79.5403 265.559 79.571 265.66 79.5735C265.866 79.567 266.069 79.5232 266.259 79.4441L267.918 78.8616" fill="#FFBE9D"/>
<path d="M267.919 74.9971C267.54 75.2387 267.127 75.4225 266.693 75.5426C266.278 75.7272 265.837 75.8458 265.385 75.8939C265.765 75.6459 266.182 75.4587 266.62 75.3392C267.033 75.1604 267.471 75.045 267.919 74.9971V74.9971Z" fill="#EB996E"/>
<path d="M267.402 76.6243C267.081 76.8613 266.714 77.0282 266.324 77.1143C265.948 77.2862 265.539 77.3715 265.126 77.3639C265.479 77.1628 265.857 77.0104 266.25 76.9109C266.62 76.7634 267.007 76.667 267.402 76.6243Z" fill="#EB996E"/>
<path d="M267.587 77.8631C267.587 77.9186 267.236 78.0758 266.766 78.2237C266.296 78.3716 265.9 78.4456 265.845 78.3809C265.79 78.3162 266.195 78.1683 266.665 78.0203C267.135 77.8724 267.568 77.7984 267.587 77.8631Z" fill="#EB996E"/>
<path d="M250.925 71.2528C250.308 70.5409 247.239 72.9725 246.991 73.1574C246.742 73.3423 246.438 72.954 246.696 72.7968C246.954 72.6396 250.861 70.1434 250.262 69.45C249.93 69.0616 249.294 69.7181 249.294 69.7181C249.294 69.7181 245.903 72.2606 245.608 71.9277C245.313 71.5949 247.276 70.0232 247.967 69.5424C248.658 69.0616 248.695 68.5439 248.235 68.4237C247.921 68.3313 245.774 69.7458 245.101 70.2728C244.429 70.7998 242.613 72.1219 242.954 70.7351C243.114 70.26 243.178 69.7576 243.141 69.2574C243.105 68.7573 242.969 68.2695 242.742 67.8228C242.667 67.7651 242.576 67.7325 242.481 67.7297C242.387 67.7269 242.294 67.754 242.215 67.8071C242.137 67.8602 242.077 67.9367 242.044 68.0258C242.011 68.1149 242.007 68.212 242.033 68.3035C242.075 68.7946 242.05 69.2892 241.959 69.7735C241.898 70.1612 241.773 70.536 241.59 70.883C241.498 71.0587 241.406 71.2158 241.314 71.373C238.881 72.7043 225.325 80.1007 223.897 80.7849C222.321 81.5522 210.258 78.2516 210.258 78.2516L208.415 85.8236C208.415 85.8236 220.395 89.7529 223.454 89.9378C225.97 90.095 238.881 80.6369 243.544 77.1514C245.362 76.4408 247.14 75.6322 248.87 74.7291C250.714 73.6659 250.658 73.4995 250.502 73.2961C250.068 72.7691 247.12 75.0342 247.47 74.2206C247.82 73.407 251.395 71.7891 250.925 71.2528Z" fill="#FFBE9D"/>
<path d="M207.871 87.1271L218.616 90.8253L220.699 80.5721C220.699 80.5721 216.46 79.0466 212.405 77.7985C209.502 76.8739 205.033 77.7985 204.701 80.8217C203.595 84.1963 205.696 86.295 207.871 87.1271Z" fill="#455A64"/>
<path d="M217.925 90.5942C218.078 90.1047 218.192 89.6039 218.266 89.0964C218.45 88.1719 218.736 86.9052 219.068 85.4999C219.399 84.0946 219.713 82.828 219.906 81.8942C220.037 81.4002 220.126 80.8961 220.173 80.3872C219.988 80.8648 219.84 81.3563 219.731 81.8572C219.491 82.7818 219.16 84.0299 218.809 85.4352C218.459 86.8405 218.22 88.1349 218.081 89.0687C217.983 89.5713 217.931 90.0819 217.925 90.5942Z" fill="#1A2E35"/>
<path d="M205.503 85.759C205.503 85.759 205.346 85.5278 205.106 85.0933C204.778 84.4753 204.569 83.801 204.489 83.1055C204.369 82.0799 204.562 81.0421 205.042 80.1285C205.647 79.0208 206.628 78.1677 207.807 77.7247C208.418 77.5039 209.064 77.3943 209.714 77.4011C210.333 77.3954 210.951 77.4542 211.557 77.5768C212.569 77.8166 213.564 78.1255 214.534 78.5013C215.372 78.8064 216.054 79.0468 216.533 79.1947L217.086 79.3519C217.215 79.3519 217.28 79.3519 217.289 79.3519C217.053 79.2409 216.81 79.1451 216.561 79.0653L214.598 78.3071C213.622 77.9218 212.618 77.6127 211.594 77.3826C210.325 77.075 208.995 77.123 207.751 77.5213C206.512 77.9807 205.483 78.8782 204.858 80.0453C204.36 81.0026 204.176 82.0929 204.332 83.161C204.426 83.871 204.664 84.554 205.033 85.1673C205.135 85.3325 205.249 85.4901 205.374 85.6388C205.411 85.6842 205.455 85.7246 205.503 85.759V85.759Z" fill="#1A2E35"/>
<path d="M219.326 80.1007C219.381 80.1007 218.782 82.3473 217.98 85.0747C217.179 87.8021 216.488 90.0118 216.432 89.9933C216.377 89.9748 216.976 87.7467 217.778 85.0193C218.579 82.2919 219.225 80.0822 219.326 80.1007Z" fill="#FAFAFA"/>
<path d="M218.247 79.8234C218.302 79.8234 217.667 82.033 216.837 84.7142C216.008 87.3954 215.271 89.568 215.215 89.5495C215.16 89.5311 215.796 87.3399 216.625 84.6495C217.455 81.9591 218.192 79.8049 218.247 79.8234Z" fill="#FAFAFA"/>
<path d="M57.3014 87.8945C44.3998 90.5942 31.2127 90.4462 15.4268 88.477L22.6792 58.4663C37.8477 60.3154 48.9522 60.7314 62.8951 58.7991L57.3014 87.8945Z" fill="#E0E0E0"/>
<path d="M47.6801 68.7936C47.6801 68.7936 47.6801 68.886 47.634 69.071L47.4774 69.8845C47.3299 70.5964 47.118 71.6412 46.8507 72.9633L44.5469 84.0578V84.1317H44.4732H39.718H39.6259V84.0208C40.0959 81.3766 40.6027 78.4735 41.1372 75.4503C41.1554 74.9547 41.0483 74.4626 40.826 74.0196C40.6036 73.5767 40.2732 73.1974 39.8655 72.917C38.9461 72.4221 37.8813 72.2713 36.8613 72.4918C36.2947 72.5996 35.7594 72.8334 35.2947 73.1759C34.8404 73.5244 34.4611 73.9616 34.1796 74.461C34.0413 74.7109 33.9212 74.9704 33.8202 75.2376C33.7375 75.508 33.6698 75.7827 33.6175 76.0605C33.4885 76.6214 33.3594 77.1761 33.2304 77.7247C32.7267 79.9251 32.2413 82.0392 31.7744 84.067V84.141H25.7476V84.0301C26.9732 79.4073 27.9961 75.5243 28.7057 72.8153L29.5719 69.7181L29.8023 68.8953L29.8853 68.6179L29.83 68.9045L29.6272 69.7274C29.4429 70.467 29.1757 71.521 28.8347 72.8616C28.1436 75.5797 27.1483 79.4443 25.9503 84.104L25.8674 83.9931H31.6823L31.5901 84.067C32.0509 82.0454 32.5331 79.9312 33.0369 77.7247L33.4147 76.0605C33.4885 75.7831 33.5345 75.4965 33.6359 75.2099C33.7321 74.9303 33.8556 74.6609 34.0045 74.4056C34.2964 73.8786 34.6951 73.4188 35.1749 73.0557C35.666 72.6902 36.233 72.4405 36.8336 72.3253C37.904 72.1144 39.0143 72.2913 39.9669 72.8246C40.4202 73.1159 40.7789 73.5336 40.999 74.0265C41.2228 74.5034 41.3362 75.0249 41.3307 75.552V75.552C40.787 78.5845 40.271 81.4783 39.801 84.1133L39.7088 84.0023H44.464L44.381 84.067C45.3671 79.4443 46.2241 75.6537 46.7494 72.9725C47.0443 71.6504 47.2654 70.6149 47.4221 69.8938C47.505 69.5517 47.5695 69.2836 47.6064 69.0894L47.6801 68.7936Z" fill="#1A2E35"/>
<path d="M29.489 68.7102H29.8761H30.9911H35.092H41.2294C43.5425 68.7102 46.1043 68.7102 48.8136 68.7102L48.7583 68.9136L47.3392 68.1832L39.5061 64.1615H39.5891L31.5809 67.6932L29.2586 68.6085L28.6504 68.8674C28.5835 68.9018 28.5122 68.9267 28.4385 68.9414C28.4385 68.9414 28.503 68.9414 28.632 68.8304L29.231 68.5531L31.4888 67.5176L39.4693 63.9119H39.5153L47.3576 67.9151L48.7768 68.6455L49.1822 68.8582H48.7215C46.0214 68.8582 43.4595 68.8582 41.1465 68.8582L35.0182 68.7934H30.9174H29.8023H29.5167C29.489 68.7195 29.489 68.7195 29.489 68.7102Z" fill="#1A2E35"/>
<path d="M47.6802 68.7933C47.7596 68.781 47.8404 68.781 47.9198 68.7933L48.6663 68.7286L51.4309 68.5437H51.606V68.6454C51.1544 70.6517 50.5646 73.3236 49.9195 76.2636C49.2745 79.2037 48.5925 82.079 48.0765 84.1222V84.187H48.0212L45.4409 84.1315H44.7313C44.6519 84.1431 44.5711 84.1431 44.4917 84.1315C44.5744 84.1234 44.6578 84.1234 44.7405 84.1315H45.4409H48.0212L47.9475 84.1962L49.6523 76.1897L51.394 68.5807L51.4769 68.6824L48.7123 68.7933H47.9198H47.6802Z" fill="#1A2E35"/>
<path d="M51.8823 68.5994C51.7147 68.5401 51.5515 68.4691 51.3939 68.3867L50.0945 67.7488C49.0071 67.2033 47.505 66.4359 45.8462 65.5761L43.0079 64.0876H40.4368C40.1103 64.0916 39.7839 64.0731 39.46 64.0321C39.7827 63.9794 40.1101 63.9608 40.4368 63.9767C41.0634 63.9767 41.9481 63.9767 43.0079 63.9767L45.8646 65.4467C47.5142 66.3158 49.0071 67.1016 50.0853 67.6841L51.3478 68.3775C51.5335 68.4316 51.7128 68.506 51.8823 68.5994V68.5994Z" fill="#1A2E35"/>
<path d="M49.1084 79.7772C49.1084 79.8327 47.1916 79.8696 44.8233 79.8512C42.4549 79.8327 40.5474 79.7772 40.5474 79.7217C41.9732 79.6161 43.4037 79.5883 44.8325 79.6385C46.2592 79.6107 47.6865 79.657 49.1084 79.7772V79.7772Z" fill="#1A2E35"/>
<path d="M49.9104 75.5428C49.9104 75.5982 47.9659 75.6445 45.5699 75.6352C43.1739 75.626 41.2295 75.5705 41.2295 75.515C41.2295 75.4596 43.1739 75.4133 45.5699 75.4226C47.0178 75.3837 48.4668 75.4238 49.9104 75.5428V75.5428Z" fill="#1A2E35"/>
<path d="M36.3454 79.7586C36.3454 79.8233 34.2535 79.851 31.6732 79.8418C29.0929 79.8326 27.001 79.7678 27.001 79.7031C27.001 79.6384 29.0929 79.6107 31.6732 79.6292C34.2535 79.6476 36.3454 79.7031 36.3454 79.7586Z" fill="#1A2E35"/>
<path d="M37.2854 75.524C37.2854 75.5887 35.1935 75.6257 32.6132 75.6257C30.0329 75.6257 27.9502 75.561 27.9502 75.5055C27.9502 75.45 30.0421 75.4038 32.6132 75.4038C35.1843 75.4038 37.2854 75.4685 37.2854 75.524Z" fill="#1A2E35"/>
<path d="M40.0502 72.9815H39.8751H39.6816L39.4051 73.037C39.1639 73.0904 38.9334 73.1842 38.7232 73.3144C38.4524 73.5005 38.2155 73.7319 38.0228 73.9985C37.7939 74.3282 37.6138 74.6894 37.4884 75.071C37.3593 75.4778 37.2856 75.9955 37.175 76.4393C36.9631 77.3639 36.7327 78.4733 36.4931 79.592C36.1245 81.2377 35.7835 82.7632 35.4886 84.0483V84.1223H35.4149H32.7148H31.9591H31.6919C31.7806 84.1106 31.8704 84.1106 31.9591 84.1223H32.7148H35.4149L35.3227 84.187C35.6084 82.9019 35.931 81.4134 36.2443 79.7215C36.4931 78.6028 36.7327 77.5395 36.9447 76.5688C37.0644 76.088 37.1382 75.6442 37.2856 75.1912C37.4227 74.7943 37.6184 74.4203 37.8662 74.0817C38.0728 73.8054 38.3291 73.5702 38.6218 73.3883C38.8497 73.2576 39.0996 73.1698 39.3591 73.1295C39.4511 73.1216 39.5435 73.1216 39.6355 73.1295H39.8383C39.9949 72.963 40.0502 72.9723 40.0502 72.9815Z" fill="#1A2E35"/>
<path d="M55.8083 64.0042C55.8636 64.0042 54.8867 68.553 53.5321 74.1279C52.1774 79.7029 51.0992 84.224 51.0347 84.2147C50.9702 84.2055 51.9563 79.666 53.3201 74.0447C54.684 68.4235 55.753 63.9857 55.8083 64.0042Z" fill="#1A2E35"/>
<path d="M54.6379 84.2424C53.5178 84.3129 52.3943 84.3129 51.2742 84.2424C50.1501 84.259 49.0262 84.1972 47.9106 84.0575C49.0309 83.9926 50.154 83.9926 51.2742 84.0575C52.3981 84.052 53.5213 84.1137 54.6379 84.2424V84.2424Z" fill="#1A2E35"/>
<path d="M51.6061 84.8342C51.5508 84.8342 51.3665 84.5754 51.1177 84.2425C50.8689 83.9097 50.6846 83.6416 50.6846 83.5861C50.6846 83.5306 51.0163 83.7525 51.2744 84.1039C51.5324 84.4552 51.6614 84.8065 51.6061 84.8342Z" fill="#1A2E35"/>
<path d="M56.4349 75.4688C55.3572 75.5768 54.2738 75.617 53.1911 75.589C52.1092 75.6334 51.0255 75.6056 49.9473 75.5058C51.0242 75.3864 52.1081 75.3432 53.1911 75.3763C54.2732 75.3375 55.3567 75.3684 56.4349 75.4688V75.4688Z" fill="#1A2E35"/>
<path d="M53.578 75.1173C53.578 75.1173 53.4121 75.3854 53.1264 75.6073C52.8407 75.8292 52.5827 75.9771 52.5458 75.9309C52.509 75.8846 52.7117 75.672 52.9974 75.4409C53.2831 75.2097 53.5411 75.071 53.578 75.1173Z" fill="#1A2E35"/>
<path d="M57.3842 68.9785C56.3655 69.0472 55.3434 69.0472 54.3247 68.9785C53.3033 68.9675 52.284 68.8841 51.2744 68.7289C52.2931 68.66 53.3152 68.66 54.3339 68.7289C55.3555 68.7349 56.3752 68.8183 57.3842 68.9785V68.9785Z" fill="#1A2E35"/>
<path d="M55.5319 68.4884C55.5319 68.5439 55.3107 68.7195 54.9697 68.8952C54.6288 69.0708 54.3339 69.154 54.3062 69.1078C54.2786 69.0616 54.5366 68.8674 54.8684 68.701C55.2001 68.5346 55.5134 68.4329 55.5319 68.4884Z" fill="#1A2E35"/>
<path d="M57.1813 64.448C57.1813 64.5034 54.0205 64.448 50.1132 64.3278C46.2059 64.2076 43.0542 64.0597 43.0542 64.0042C43.0542 63.9487 46.2151 64.0042 50.1224 64.1151C54.0297 64.2261 57.1813 64.3832 57.1813 64.448Z" fill="#1A2E35"/>
<path d="M56.6929 63.8562C56.4624 64.1291 56.1845 64.3577 55.8727 64.5311C55.6008 64.7582 55.288 64.9308 54.9512 65.0396C54.9512 65.0396 55.2829 64.6883 55.7713 64.3555C56.0431 64.1303 56.3562 63.9607 56.6929 63.8562V63.8562Z" fill="#1A2E35"/>
<path d="M25.6004 73.4163C24.2458 71.1234 23.8587 68.0724 23.5177 65.4375C23.3611 64.1986 23.0754 62.4235 23.9509 61.6468C24.8263 60.8702 24.9645 59.5296 26.0427 58.8732C26.5707 58.5379 27.1827 58.3599 27.8075 58.3599C28.4323 58.3599 29.0443 58.5379 29.5722 58.8732" fill="#1A2E35"/>
<path d="M29.3414 81.5614C29.8331 81.5977 30.327 81.5348 30.794 81.3762C31.261 81.2177 31.6915 80.9668 32.0601 80.6383C32.4287 80.3099 32.7279 79.9106 32.94 79.4641C33.1521 79.0176 33.2727 78.533 33.2948 78.0389C33.3685 76.0419 33.4423 74.0171 33.4423 74.0171C34.2807 73.9403 35.0657 73.5705 35.6602 72.9724C36.2547 72.3742 36.6211 71.5857 36.6953 70.7442C36.9257 67.7487 36.8427 60.8239 36.8427 60.8239C35.189 59.9796 33.3403 59.5945 31.4883 59.7082C29.6363 59.822 27.8482 60.4307 26.3096 61.4711L26.4662 72.0293V77.706C26.4662 79.6198 27.4523 81.4135 29.3414 81.5614Z" fill="#C78977"/>
<path d="M33.7282 67.083C33.5058 66.764 33.1721 66.5405 32.7932 66.4566C32.4144 66.3727 32.0179 66.4346 31.6824 66.63C31.3468 66.864 31.1045 67.2094 30.9983 67.6053C30.892 68.0012 30.9287 68.422 31.1018 68.7934C31.2544 69.0723 31.4637 69.316 31.7161 69.5087C31.9685 69.7014 32.2584 69.8388 32.567 69.9121C32.846 69.968 33.0945 70.1255 33.2646 70.3542C33.4348 70.583 33.5146 70.8668 33.4886 71.151C33.3964 71.8999 32.1523 72.1865 31.581 72.8059C30.6594 73.7305 28.8164 74.1742 27.4801 74.3222C26.1439 74.4701 26.3651 74.4886 25.6371 73.3976C25.1381 72.7037 24.8734 71.8679 24.8814 71.0123C24.8323 68.7996 24.7923 66.5899 24.7616 64.3833C24.6996 63.5864 24.7399 62.7847 24.8814 61.998C25.0372 61.2092 25.485 60.5089 26.1347 60.038C26.9227 59.6672 27.7563 59.403 28.6136 59.2521C29.6323 58.8181 30.6126 58.2985 31.5441 57.6989C32.0076 57.4132 32.5303 57.238 33.0719 57.1867C33.6134 57.1354 34.1595 57.2094 34.6681 57.403C35.3685 57.7544 35.8385 58.457 36.5112 58.8453C37.4788 59.4001 38.7966 59.2799 39.2758 60.6944C39.4416 61.1893 39.4416 61.725 39.2758 62.2199C39.0944 62.6658 38.8239 63.0698 38.4811 63.407C38.1383 63.7442 37.7304 64.0075 37.2824 64.1807C36.8345 64.3539 36.3559 64.4333 35.8762 64.4141C35.3965 64.3949 34.9258 64.2775 34.493 64.069C34.6275 64.7647 34.6054 65.4817 34.4285 66.1677C34.3179 66.5005 34.2811 66.9998 33.765 67.009" fill="#1A2E35"/>
<path d="M33.1753 68.96C33.1753 68.96 33.1753 69.0155 33.1753 69.0895C33.0868 69.1863 32.9649 69.2458 32.8343 69.2559C32.6249 69.2417 32.4289 69.1475 32.2866 68.9927C32.1444 68.838 32.0666 68.6343 32.0695 68.4238C32.0604 68.3079 32.0754 68.1914 32.1134 68.0816C32.1515 67.9718 32.2118 67.8711 32.2906 67.7859C32.4126 67.6458 32.5783 67.5513 32.7606 67.5177C33.0647 67.453 33.2398 67.5732 33.2306 67.5917C33.0842 67.6022 32.9391 67.627 32.7975 67.6657C32.6422 67.7176 32.508 67.8187 32.4149 67.9537C32.3219 68.0888 32.275 68.2505 32.2814 68.4145C32.2807 68.5765 32.3366 68.7336 32.4393 68.8585C32.5419 68.9835 32.685 69.0685 32.8436 69.0987C33.0647 69.1172 33.1753 68.9323 33.1753 68.96Z" fill="#BF654F"/>
<path d="M24.5772 65.0955C24.327 64.5938 23.9663 64.1558 23.5225 63.8146C23.0787 63.4734 22.5633 63.238 22.0153 63.1262C21.4659 63.0224 20.8987 63.069 20.3733 63.2609C19.848 63.4529 19.3838 63.7832 19.0296 64.2171C18.6944 64.6627 18.5011 65.1992 18.4748 65.7568C18.4485 66.3143 18.5904 66.8668 18.8821 67.3421C19.6101 68.3961 20.9924 68.7382 22.2549 68.9046C21.7916 69.4338 21.226 69.8632 20.5924 70.1668C19.9588 70.4703 19.2703 70.6417 18.5688 70.6704C19.0712 71.0032 19.6532 71.1949 20.2544 71.2258C20.8556 71.2567 21.454 71.1256 21.9877 70.8461L19.9234 72.6027C20.9536 72.8401 22.0338 72.7149 22.983 72.2481C23.9321 71.7813 24.6923 71.0014 25.1363 70.039C25.5803 69.0766 25.681 67.9904 25.4214 66.9624C25.1619 65.9344 24.558 65.0271 23.711 64.3928" fill="#1A2E35"/>
<path d="M22.6789 68.7936C23.0197 68.8142 23.3607 68.7541 23.6741 68.6179C24.0364 68.424 24.3468 68.1455 24.5794 67.806C24.8119 67.4665 24.9597 67.0759 25.0103 66.6671C25.0692 66.2596 25.0369 65.8441 24.9157 65.4507C24.7946 65.0573 24.5877 64.6959 24.31 64.3928C24.0632 64.1499 23.7948 63.9302 23.5082 63.7363C23.6032 63.746 23.6947 63.7776 23.7755 63.8288C24.009 63.9505 24.2233 64.1063 24.4113 64.2911C24.7288 64.599 24.9681 64.9789 25.1092 65.3987C25.2503 65.8185 25.289 66.2661 25.2223 66.7041C25.167 67.1438 25.002 67.5624 24.7427 67.9212C24.4834 68.2799 24.138 68.5673 23.7386 68.7566C23.4911 68.8599 23.2223 68.9012 22.9553 68.8768C22.7618 68.7936 22.6696 68.7936 22.6789 68.7936Z" fill="#FFE55C"/>
<path d="M18.3569 65.7333C18.3569 65.7333 18.5136 65.308 19.1402 65.0214C19.9537 64.7157 20.8404 64.6641 21.6837 64.8735C22.529 65.0492 23.3232 65.416 24.0059 65.946C24.2098 66.1064 24.4009 66.2826 24.5773 66.473C24.6971 66.6116 24.7524 66.6948 24.7432 66.7041C24.734 66.7133 24.4483 66.4267 23.9138 66.0662C23.2291 65.59 22.4544 65.2597 21.6376 65.0954C20.8323 64.8944 19.9873 64.92 19.1955 65.1694C18.8811 65.299 18.5959 65.4908 18.3569 65.7333Z" fill="#455A64"/>
<path d="M19.251 67.7488C19.251 67.7488 19.5367 67.7488 19.9882 67.7488C20.5694 67.7587 21.1454 67.6387 21.6746 67.3975C22.2011 67.1638 22.6675 66.8129 23.0385 66.3712C23.3242 66.0292 23.4532 65.7703 23.4808 65.7888C23.4344 66.0383 23.3231 66.2711 23.1583 66.4637C22.8092 66.9686 22.332 67.3708 21.776 67.6286C21.2173 67.8871 20.6012 67.9955 19.9882 67.943C19.7298 67.9438 19.4757 67.8768 19.251 67.7488Z" fill="#455A64"/>
<path d="M23.7939 71.789C23.7939 71.789 24.0796 71.5764 24.4575 71.1696C24.9572 70.6518 25.3186 70.0157 25.508 69.3205C25.6855 68.6197 25.6855 67.8855 25.508 67.1848C25.3698 66.6485 25.1947 66.3434 25.2315 66.325C25.4363 66.5613 25.5817 66.8435 25.6554 67.1478C25.8819 67.8702 25.9042 68.6415 25.72 69.3759C25.5266 70.1092 25.1304 70.7727 24.5773 71.2897C24.3563 71.5124 24.0887 71.6829 23.7939 71.789Z" fill="#455A64"/>
<path d="M30.0974 59.8995C29.7453 59.6468 29.332 59.4938 28.9007 59.4564C28.4695 59.419 28.0361 59.4986 27.6461 59.6868C27.1446 59.9423 26.7212 60.3287 26.4204 60.8055C25.8892 61.7002 25.5589 62.7004 25.4528 63.7363C25.4135 64.1744 25.3333 64.6077 25.2132 65.0307C25.2093 64.5913 25.2401 64.1523 25.3054 63.7178C25.3668 62.6477 25.6828 61.6078 26.2269 60.6853C26.5483 60.1978 26.9937 59.8052 27.5171 59.5482C27.9633 59.3421 28.458 59.2652 28.9454 59.3263C29.2775 59.3686 29.594 59.4925 29.867 59.6868C29.9569 59.7418 30.0352 59.8141 30.0974 59.8995V59.8995Z" fill="#455A64"/>
<path d="M38.5112 62.9964C38.637 62.9362 38.7573 62.8651 38.8706 62.7837C39.0203 62.6745 39.1338 62.5227 39.1963 62.3479C39.2587 62.1731 39.2673 61.9835 39.2208 61.8037C39.1545 61.5619 38.9998 61.3539 38.7877 61.2212C38.5252 61.0911 38.2299 61.0428 37.9399 61.0826C37.7683 61.1002 37.5954 61.1002 37.4238 61.0826C37.2346 61.0521 37.0567 60.9724 36.9077 60.8514C36.6324 60.6032 36.3795 60.3309 36.1521 60.0378C35.6767 59.5349 35.07 59.1761 34.4012 59.0023C33.8546 58.8536 33.2825 58.8252 32.724 58.9191C32.2083 59.0173 31.7109 59.1951 31.2495 59.4461C31.349 59.3425 31.464 59.2552 31.5905 59.1873C31.9324 58.9835 32.3063 58.8397 32.6963 58.762C33.273 58.634 33.8706 58.634 34.4472 58.762C35.1529 58.9363 35.7931 59.312 36.2903 59.8437C36.5093 60.1296 36.7529 60.3956 37.0183 60.6388C37.2854 60.8298 37.6146 60.9123 37.9399 60.8699C38.2593 60.8434 38.5795 60.9109 38.8614 61.0641C39.1087 61.2218 39.2842 61.4709 39.3498 61.7575C39.4006 61.9933 39.3646 62.2396 39.2484 62.4509C39.1697 62.6074 39.0523 62.7411 38.9075 62.8392C38.8154 62.9036 38.7123 62.9506 38.6034 62.9779C38.5481 63.0056 38.5112 63.0056 38.5112 62.9964Z" fill="#455A64"/>
<path d="M30.4844 71.3174C30.3298 71.2938 30.182 71.237 30.0513 71.151C29.6634 70.9361 29.3439 70.6156 29.1297 70.2264C28.9767 69.9465 28.8808 69.6389 28.8476 69.3214C28.8143 69.0039 28.8445 68.683 28.9362 68.3773C29.0513 68.0051 29.2535 67.6659 29.526 67.3881C29.8156 67.1021 30.1445 66.8592 30.5028 66.6669C30.8622 66.4635 31.2124 66.2786 31.5257 66.066C31.8271 65.8702 32.0947 65.6266 32.3183 65.3448C32.6949 64.8579 32.9393 64.2813 33.0278 63.6714C33.0936 63.1049 33.0529 62.531 32.908 61.9795C32.908 61.9795 32.908 61.9795 32.9633 62.0812C33.0152 62.1874 33.0554 62.299 33.0831 62.414C33.1979 62.829 33.2292 63.2627 33.1753 63.6899C33.1037 64.3337 32.8619 64.9465 32.4749 65.465C32.2401 65.7653 31.9603 66.0272 31.6455 66.2416C31.3138 66.4635 30.9636 66.6484 30.6134 66.8518C30.279 67.0405 29.9695 67.2703 29.6919 67.536C29.4408 67.7971 29.2546 68.1138 29.1482 68.4605C29.0511 68.7471 29.0126 69.0502 29.0347 69.352C29.0569 69.6538 29.1393 69.948 29.2772 70.2172C29.4651 70.5921 29.7479 70.911 30.0974 71.1417C30.337 71.2434 30.4936 71.2989 30.4844 71.3174Z" fill="#455A64"/>
<path d="M25.3149 66.9445C25.7969 66.9688 26.2798 66.9688 26.7618 66.9445C27.9202 66.834 29.0324 66.4334 29.9963 65.7795C30.9768 65.1602 31.7353 64.2438 32.162 63.1631C32.3403 62.6873 32.3724 62.1688 32.2541 61.6746C32.2541 61.6746 32.3463 61.7855 32.4016 62.0444C32.4865 62.3999 32.4865 62.7706 32.4016 63.1261C32.0058 64.2738 31.2323 65.2521 30.2083 65.8997C29.2198 66.5756 28.0666 66.9687 26.8723 67.0369C26.5138 67.0727 26.1527 67.0727 25.7941 67.0369C25.6301 67.0357 25.4677 67.0043 25.3149 66.9445V66.9445Z" fill="#455A64"/>
<path d="M59.4668 84.0946L57.6237 86.0824L48.8415 96.5852C48.116 97.4459 47.1183 98.031 46.0149 98.243C44.9114 98.4549 43.7689 98.281 42.7778 97.7501C41.7209 97.1961 40.9042 96.2714 40.4831 95.1522L37.396 88.5047L42.658 85.5277C42.9068 85.7218 45.653 91.0749 45.653 91.0749C46.4086 90.8253 55.4397 81.7371 55.4397 81.7371L55.5503 81.1638C55.6055 80.9235 55.6516 80.6646 55.6977 80.3595C55.753 80.0134 55.753 79.6608 55.6977 79.3147C55.6236 78.8723 55.4871 78.4427 55.2922 78.0389C55.0895 77.6876 55.412 77.2808 55.7346 77.4287C56.3756 78.0574 56.7432 78.9147 56.7575 79.814C56.8773 81.0991 57.937 79.814 58.3425 79.1668C58.877 78.3625 59.9368 78.8432 59.5497 79.814C59.6477 79.8312 59.7411 79.8689 59.8236 79.9247C59.9062 79.9804 59.9761 80.053 60.0289 80.1376C60.1687 80.4263 60.1886 80.7588 60.0842 81.0621C60.1838 81.4577 60.2088 81.8685 60.1579 82.2733C60.0549 82.9217 59.8196 83.5417 59.4668 84.0946V84.0946Z" fill="#C78977"/>
<path d="M33.7837 134.131L42.3448 173.738L48.8047 173.59L43.1834 135.712L33.7837 134.131Z" fill="#C78977"/>
<path d="M49.6891 174.256V173.526L42.3721 173.738L42.3905 176.133H42.8421C44.851 176.188 53.0803 176.262 54.4073 175.846C55.9094 175.384 49.6891 174.256 49.6891 174.256Z" fill="#FFE55C"/>
<g opacity="0.6">
<path opacity="0.6" d="M45.0444 176.04C44.9142 175.46 44.5682 174.95 44.0768 174.617C43.5713 174.272 42.9619 174.115 42.3535 174.173L42.3904 176.04H45.0444Z" fill="white"/>
</g>
<g opacity="0.6">
<path opacity="0.6" d="M52.7304 174.913C52.7304 174.913 54.9236 175.43 54.6564 175.772C54.3891 176.115 46.0861 176.336 42.4092 176.133V175.976L52.1037 175.8C52.1037 175.8 52.3065 174.94 52.7304 174.913Z" fill="white"/>
</g>
<path d="M42.2986 175.976H42.7871H44.1141C45.2291 175.976 46.7773 175.976 48.4821 175.976C50.187 175.976 51.7352 175.855 52.8502 175.791L54.1772 175.708H54.5366H54.6564H54.168L52.8502 175.772C51.7352 175.818 50.187 175.883 48.4821 175.929C46.7773 175.976 45.2291 175.985 44.1141 175.994H42.271L42.2986 175.976Z" fill="#1A2E35"/>
<path d="M52.1128 175.902C52.1716 175.698 52.2487 175.5 52.3432 175.31C52.4676 175.13 52.6165 174.968 52.7855 174.829C52.5634 174.906 52.3789 175.064 52.2695 175.273C52.1434 175.457 52.0877 175.68 52.1128 175.902Z" fill="#1A2E35"/>
<path d="M49.9382 174.949C49.9382 174.949 50.058 174.839 50.1594 174.681C50.2607 174.524 50.3252 174.385 50.3068 174.367C50.2884 174.349 50.187 174.478 50.0856 174.635C49.9843 174.792 49.9198 174.931 49.9382 174.949Z" fill="#1A2E35"/>
<path d="M49.339 174.672C49.339 174.672 49.468 174.617 49.5878 174.506C49.7076 174.395 49.7997 174.293 49.7813 174.275C49.6878 174.312 49.6031 174.369 49.5325 174.441C49.4035 174.552 49.3206 174.654 49.339 174.672Z" fill="#1A2E35"/>
<path d="M48.9429 174.043C49.0707 174.068 49.2021 174.068 49.3299 174.043C49.5419 174.043 49.7077 174.043 49.7077 173.997C49.5828 173.975 49.4549 173.975 49.3299 173.997C49.118 173.997 48.9429 174.016 48.9429 174.043Z" fill="#1A2E35"/>
<path d="M48.8413 173.59C48.9705 173.663 49.1173 173.698 49.2652 173.692C49.4158 173.713 49.5693 173.691 49.7076 173.627C49.7076 173.627 49.5048 173.627 49.2744 173.627C49.1312 173.604 48.9864 173.592 48.8413 173.59Z" fill="#1A2E35"/>
<path d="M50.1685 174.348C50.3239 174.377 50.483 174.377 50.6384 174.348C50.804 174.325 50.9674 174.288 51.1269 174.238C51.2246 174.204 51.32 174.164 51.4125 174.117C51.4657 174.087 51.5053 174.037 51.5231 173.979C51.5302 173.945 51.527 173.911 51.5138 173.879C51.5006 173.848 51.4781 173.821 51.4494 173.803C51.2673 173.728 51.0663 173.714 50.8756 173.762C50.6849 173.811 50.5146 173.919 50.3896 174.071C50.3243 174.159 50.2773 174.26 50.2514 174.367C50.2514 174.441 50.2514 174.478 50.2514 174.478C50.2989 174.345 50.3674 174.22 50.4541 174.108C50.5555 173.986 50.69 173.896 50.8412 173.849C51.023 173.784 51.2215 173.784 51.4033 173.849C51.477 173.905 51.4033 173.988 51.4033 174.034C51.3206 174.078 51.2343 174.115 51.1453 174.145C50.9892 174.201 50.829 174.244 50.6661 174.275C50.3435 174.33 50.1685 174.33 50.1685 174.348Z" fill="#1A2E35"/>
<path d="M50.2883 174.367C50.3277 174.269 50.3277 174.16 50.2883 174.062C50.27 173.947 50.2224 173.839 50.15 173.748C50.1076 173.681 50.0489 173.627 49.9795 173.59C49.9101 173.552 49.8324 173.534 49.7538 173.535C49.7088 173.544 49.6691 173.57 49.6432 173.608C49.6174 173.646 49.6074 173.693 49.6156 173.738C49.6279 173.809 49.6563 173.875 49.6985 173.933C49.7659 174.027 49.8431 174.114 49.9289 174.191C50.0041 174.271 50.0998 174.329 50.2053 174.358C50.2053 174.358 50.104 174.284 49.975 174.145C49.8985 174.07 49.8305 173.986 49.7722 173.896C49.6985 173.803 49.6524 173.637 49.7722 173.618C49.8347 173.62 49.8958 173.637 49.9504 173.667C50.005 173.698 50.0513 173.741 50.0855 173.794C50.1514 173.875 50.1986 173.97 50.2238 174.071C50.2558 174.167 50.2775 174.266 50.2883 174.367V174.367Z" fill="#1A2E35"/>
<path d="M42.3906 174.117C42.5717 174.106 42.7533 174.106 42.9343 174.117C43.3604 174.154 43.7699 174.301 44.1231 174.543C44.4573 174.773 44.7193 175.093 44.8788 175.467C44.9986 175.754 45.017 175.948 45.0354 175.948C45.0539 175.948 45.0354 175.948 45.0354 175.809C45.0145 175.687 44.9837 175.566 44.9433 175.449C44.7916 175.048 44.5215 174.702 44.1692 174.459C43.8058 174.205 43.3772 174.06 42.9343 174.043C42.8027 174.028 42.6697 174.028 42.5381 174.043L42.3906 174.117Z" fill="#1A2E35"/>
<path d="M45.9478 175.319C46.2969 175.386 46.6526 175.411 47.0075 175.393C47.3669 175.398 47.7257 175.361 48.0765 175.282C48.0765 175.282 47.5973 175.282 47.0075 175.282C46.4177 175.282 45.9478 175.301 45.9478 175.319Z" fill="#1A2E35"/>
<path d="M44.5195 175.356C44.5195 175.356 44.5195 175.449 44.6117 175.55C44.7038 175.652 44.6946 175.735 44.7131 175.735C44.7315 175.735 44.7131 175.624 44.7131 175.513C44.7131 175.402 44.5287 175.338 44.5195 175.356Z" fill="#1A2E35"/>
<path d="M43.9575 174.746C43.9575 174.746 43.9575 174.829 44.0681 174.903C44.1787 174.977 44.2248 175.014 44.2432 174.996C44.2616 174.977 44.2432 174.913 44.1326 174.839C44.022 174.765 43.976 174.728 43.9575 174.746Z" fill="#1A2E35"/>
<path d="M43.1832 174.478C43.1832 174.478 43.2846 174.478 43.3952 174.533C43.5057 174.589 43.5795 174.617 43.5979 174.598C43.6163 174.58 43.5518 174.496 43.4136 174.45C43.2754 174.404 43.174 174.459 43.1832 174.478Z" fill="#1A2E35"/>
<path d="M42.6299 174.358C42.6299 174.358 42.6299 174.413 42.722 174.432C42.8142 174.45 42.8418 174.432 42.8511 174.432C42.8603 174.432 42.8511 174.376 42.7589 174.358C42.6667 174.339 42.6391 174.339 42.6299 174.358Z" fill="#1A2E35"/>
<path d="M17.9792 132.79L15.8965 171.473L22.2551 173.017L27.0194 133.604L17.9792 132.79Z" fill="#C78977"/>
<path d="M15.7124 171.325L14.625 176.096H21.942L22.2553 172.989L15.7124 171.325Z" fill="#FFE55C"/>
<path d="M22.1172 175.402C21.7671 175.461 21.4119 175.483 21.0574 175.467C20.3939 175.467 19.4816 175.467 18.4863 175.467L15.9152 175.356C15.5602 175.361 15.2055 175.333 14.8555 175.273C15.2056 175.215 15.561 175.197 15.9152 175.217C16.5787 175.217 17.4818 175.217 18.4863 175.264L21.0574 175.375C21.4108 175.355 21.7652 175.364 22.1172 175.402Z" fill="#1A2E35"/>
<path d="M18.993 172.25C19.0591 172.765 19.0591 173.287 18.993 173.803C18.9917 174.322 18.9204 174.838 18.781 175.338C18.7123 174.822 18.7123 174.3 18.781 173.785C18.785 173.266 18.8563 172.75 18.993 172.25V172.25Z" fill="#1A2E35"/>
<g opacity="0.6">
<path opacity="0.6" d="M14.625 176.096H21.942L22.0157 175.402L14.754 175.227L14.625 176.013" fill="white"/>
</g>
<path d="M14.7449 90.8806L12.3029 96.7422C12.0384 97.5809 12.1147 98.4903 12.515 99.2729C12.9154 100.055 13.6075 100.648 14.4408 100.921V100.921C15.2695 101.188 16.1696 101.118 16.9471 100.725C17.7246 100.333 18.3171 99.6493 18.5969 98.8224L20.5598 93.044L14.7449 90.8806Z" fill="#C78977"/>
<path d="M21.4622 103.362C21.4622 103.362 16.9928 110.842 16.9928 115.316L13.9609 163.393L26.0515 164.789L28.9912 117.637C28.9912 117.637 38.8793 165.454 39.294 165.454C39.7086 165.454 50.3524 164.761 50.3524 164.761L38.9253 103.547L21.4622 103.362Z" fill="#1A2E35"/>
<path d="M48.0763 164.853C48.0118 164.853 45.5605 151.161 42.5471 134.26C39.5336 117.36 37.2206 103.621 37.2759 103.612C37.3312 103.602 39.7917 117.304 42.8051 134.223C45.8185 151.142 48.1316 164.844 48.0763 164.853Z" fill="#E0E0E0"/>
<path d="M44.5102 165.51C44.455 165.51 42.0313 151.642 39.11 134.584C36.1888 117.526 33.8573 103.621 33.9126 103.612C33.9679 103.602 36.3915 117.48 39.322 134.547C42.2525 151.614 44.5748 165.5 44.5102 165.51Z" fill="#E0E0E0"/>
<path d="M41.2939 165.399C41.2386 165.399 38.5293 151.531 35.2118 134.353C31.8943 117.175 29.2771 103.279 29.3324 103.27C29.3877 103.261 32.097 117.138 35.4238 134.316C38.7505 151.494 41.3492 165.39 41.2939 165.399Z" fill="#E0E0E0"/>
<path d="M24.4487 164.632C24.3842 164.632 25.0477 150.93 25.9139 134.038C26.7802 117.147 27.5358 103.445 27.6003 103.445C27.6648 103.445 27.0013 117.147 26.1259 134.048C25.2504 150.948 24.504 164.632 24.4487 164.632Z" fill="#E0E0E0"/>
<path d="M24.8814 103.362C24.8631 103.413 24.8415 103.462 24.8169 103.51L24.6234 103.926C24.4575 104.296 24.2179 104.851 23.9507 105.572C23.1978 107.621 22.7085 109.759 22.4946 111.933C22.0984 117.48 21.7298 125.089 21.269 133.521C20.8082 141.952 20.4212 149.58 20.1355 155.118L19.7761 161.664L19.6655 163.448V163.91C19.6655 164.012 19.6655 164.068 19.6655 164.068V163.448L19.7393 161.664L20.0249 155.118C20.283 149.571 20.6608 141.943 21.1031 133.511C21.5455 125.08 21.9509 117.443 22.3933 111.914C22.6191 109.732 23.1335 107.59 23.923 105.544C24.1995 104.823 24.4483 104.277 24.6326 103.908L24.8446 103.501L24.8814 103.362Z" fill="#E0E0E0"/>
<path d="M21.9693 103.27L21.914 103.418L21.7389 103.843C21.5823 104.222 21.3427 104.768 21.0846 105.489C20.3198 107.525 19.74 109.626 19.3521 111.766C19.1218 113.125 18.919 114.623 18.7808 116.232C18.6426 117.841 18.5504 119.569 18.4675 121.391C18.3385 125.034 18.0067 129.028 17.7118 133.216C17.0852 141.601 16.523 149.192 16.1176 154.693L15.666 161.248L15.5186 163.014V163.476C15.5186 163.578 15.5186 163.633 15.5186 163.633C15.5186 163.633 15.5186 163.578 15.5186 163.476V163.014L15.6291 161.239L16.0715 154.767C16.4585 149.22 16.993 141.675 17.6012 133.29C17.8961 129.092 18.2279 125.107 18.3753 121.465C18.4675 119.616 18.5596 117.915 18.7071 116.297C18.8545 114.679 19.0665 113.181 19.3061 111.831C19.6955 109.683 20.2911 107.577 21.0846 105.544C21.3519 104.823 21.6099 104.287 21.7758 103.917L21.9693 103.492C21.9417 103.316 21.9601 103.27 21.9693 103.27Z" fill="#E0E0E0"/>
<path d="M33.9123 118.894C33.9123 118.95 31.544 118.432 28.6688 117.72C25.7936 117.008 23.4529 116.398 23.4713 116.343C23.4897 116.287 25.8304 116.805 28.7148 117.517C31.5992 118.229 33.9215 118.839 33.9123 118.894Z" fill="#455A64"/>
<path d="M21.4622 103.362L23.5449 97.2971L22.0981 89.9007L20.9646 93.1459L13.9609 90.5664C13.9609 90.5664 18.4949 81.4781 18.7253 80.9974C20.7895 76.6335 26.3095 76.6335 26.3095 76.6335L33.3408 76.8185C34.4565 76.7471 35.5743 76.9201 36.6167 77.3256C37.659 77.7312 38.6009 78.3594 39.3769 79.1668C41.3858 81.2008 45.6986 90.5664 45.6986 90.5664L39.3769 93.8948L37.1191 89.6603L37.543 95.448L38.9991 104.268L21.4622 103.362Z" fill="#FFE55C"/>
<path d="M36.1334 78.7415C36.1334 78.7415 35.9307 78.7415 35.6081 78.9079C35.1667 79.1004 34.794 79.4228 34.5391 79.8324C34.1525 80.4658 33.9963 81.2138 34.0968 81.9496C34.2337 82.8367 34.5138 83.6955 34.9262 84.4921C35.7464 86.2395 36.4651 87.8297 36.972 88.9946C37.2208 89.5401 37.4143 90.0024 37.571 90.363C37.6541 90.528 37.719 90.7016 37.7645 90.8807C37.6639 90.7272 37.5746 90.5665 37.4973 90.3999L36.8614 89.0593C36.3085 87.9129 35.5713 86.2857 34.7511 84.5753C34.3246 83.7617 34.0439 82.8792 33.9217 81.9681C33.8303 81.2037 34.0098 80.4313 34.4286 79.7862C34.703 79.3576 35.1113 79.0325 35.5897 78.8616C35.7188 78.8086 35.8558 78.7773 35.9952 78.7692C36.0401 78.7549 36.0864 78.7456 36.1334 78.7415V78.7415Z" fill="#1A2E35"/>
<path d="M23.6099 97.6299C23.5547 97.6299 22.6884 93.8208 21.7669 89.0964C20.8453 84.372 20.0436 80.5351 20.0989 80.5259C20.1542 80.5167 21.0204 84.335 21.942 89.0502C22.8635 93.7653 23.6652 97.6207 23.6099 97.6299Z" fill="#1A2E35"/>
<g opacity="0.2">
<path opacity="0.2" d="M24.1256 97.1585C25.4526 98.1477 27.3878 97.8149 29.0189 97.5468C30.6635 97.3064 32.1693 96.4872 33.2672 95.2354C33.7981 94.6961 34.0961 93.9687 34.0966 93.2107C34.0753 92.8412 33.9133 92.494 33.644 92.241C33.3746 91.988 33.0187 91.8486 32.6498 91.8516C31.8112 91.9533 31.3965 92.8963 31.0002 93.6452C30.3321 94.818 29.3195 95.7554 28.1007 96.3295C26.882 96.9037 25.5163 97.0866 24.1901 96.8534C24.1901 96.8534 23.8952 96.9828 24.1256 97.1585Z" fill="black"/>
</g>
<path d="M34.1705 91.907C34.1906 92.0759 34.1906 92.2466 34.1705 92.4155C34.1202 92.8772 34.0022 93.3289 33.8203 93.7561C33.2235 95.1866 32.1345 96.3546 30.7516 97.0474C29.3764 97.7286 27.8509 98.0468 26.319 97.972C25.8617 97.9582 25.4059 97.9119 24.9551 97.8333C24.7861 97.8123 24.6195 97.7751 24.4575 97.7224C24.4575 97.7224 25.1763 97.8148 26.3006 97.8241C27.7968 97.8631 29.281 97.5463 30.6318 96.8995C31.9659 96.222 33.0315 95.1106 33.6544 93.7468C33.8978 93.156 34.071 92.5384 34.1705 91.907Z" fill="#1A2E35"/>
<g opacity="0.2">
<path opacity="0.2" d="M34.1704 82.8003C34.5759 86.1286 35.0919 88.856 35.8015 92.1289C36.0076 93.7698 36.6436 95.3266 37.6446 96.6407L37.0087 89.2444L34.1704 82.8003Z" fill="black"/>
</g>
</svg>
