<svg width="200" height="200" viewBox="0 0 200 200" fill="none" xmlns="http://www.w3.org/2000/svg">
<path d="M100 200C155.228 200 200 155.228 200 100C200 44.7715 155.228 0 100 0C44.7715 0 0 44.7715 0 100C0 155.228 44.7715 200 100 200Z" fill="#F5F5F5"/>
<g clip-path="url(#clip0)">
<path d="M37.9998 172.61C38.2998 171.39 37.4998 170.17 36.5998 169.29C35.5973 168.525 34.7632 167.562 34.1498 166.46C33.3798 164.57 34.3798 162.11 33.0898 160.54C32.3198 159.62 30.9598 159.31 30.2898 158.32C29.97 157.776 29.7594 157.175 29.6698 156.55C28.93 153.41 27.3663 150.524 25.1398 148.19C25.0042 150.996 25.626 153.787 26.9398 156.27C27.5585 157.208 28.018 158.242 28.2998 159.33C28.5898 161.13 27.5898 162.99 28.0498 164.75C28.5598 166.75 30.8398 168.11 30.9598 170.19C31.0598 171.95 29.5398 173.5 29.6598 175.26C29.7563 176.007 30.0306 176.721 30.4598 177.34C31.071 178.498 31.9947 179.462 33.126 180.121C34.2574 180.78 35.551 181.109 36.8598 181.07L40.5698 181.18L37.9998 172.61Z" fill="#F5F5F5"/>
<path d="M41.3 181.27C41.631 181.326 41.9691 181.326 42.3 181.27C42.7075 181.198 43.1088 181.095 43.5 180.96C44.0369 180.763 44.5396 180.482 44.99 180.13C45.2573 179.913 45.464 179.63 45.59 179.31C45.7039 178.951 45.7613 178.577 45.76 178.2C45.76 177.81 45.76 177.41 45.84 177C45.9091 176.577 46.0622 176.173 46.29 175.81C46.8812 175.038 47.347 174.177 47.67 173.26C47.8437 172.179 47.8029 171.075 47.55 170.01C47.2739 168.86 47.298 167.658 47.62 166.52C48.01 165.36 48.82 164.31 49.22 163C49.4705 161.632 49.5644 160.24 49.5 158.85C49.5177 158.139 49.6775 157.438 49.97 156.79C50.26 156.13 50.68 155.51 50.97 154.79C51.5185 153.335 51.8324 151.803 51.9 150.25C51.98 149.47 52.06 148.68 52.15 147.88C52.1987 147.075 52.3328 146.277 52.55 145.5C52.7944 144.717 53.0849 143.949 53.42 143.2C53.5976 142.813 53.7415 142.412 53.85 142C53.92 141.56 53.93 141.15 53.96 140.72C53.99 139.865 53.9498 139.009 53.84 138.16C53.74 137.3 53.58 136.45 53.48 135.6V135.45V135.28L53.32 135.36C52.529 135.757 51.8435 136.336 51.32 137.05C50.8112 137.747 50.4007 138.511 50.1 139.32C49.5925 140.908 49.2244 142.538 49 144.19C48.7823 145.768 48.2773 147.294 47.51 148.69C47.1 149.35 46.61 149.96 46.19 150.6C45.7336 151.231 45.4228 151.955 45.28 152.72C45.07 154.29 45.94 155.72 45.77 157.06C45.6897 157.744 45.461 158.403 45.1 158.99C44.77 159.58 44.38 160.13 44 160.69C43.6149 161.232 43.2801 161.807 43 162.41C42.738 162.997 42.5855 163.628 42.55 164.27C42.47 165.52 42.65 166.71 42.55 167.83C42.4453 168.879 42.1398 169.897 41.65 170.83C41.21 171.75 40.71 172.57 40.3 173.38C40.09 173.78 39.9 174.17 39.74 174.56C39.5949 174.941 39.491 175.337 39.43 175.74C39.3254 176.439 39.3254 177.151 39.43 177.85C39.5339 178.832 39.9077 179.767 40.51 180.55C40.5998 180.666 40.7002 180.773 40.81 180.87C40.8843 180.946 40.9646 181.017 41.05 181.08C41.12 181.132 41.1935 181.179 41.27 181.22C40.999 181.017 40.7538 180.782 40.54 180.52C39.971 179.733 39.6254 178.807 39.54 177.84C39.4412 177.147 39.4412 176.443 39.54 175.75C39.6012 175.359 39.7086 174.976 39.86 174.61C40.0221 174.209 40.2091 173.818 40.42 173.44C40.83 172.64 41.33 171.82 41.79 170.9C42.2986 169.933 42.6144 168.877 42.72 167.79C42.81 166.64 42.63 165.45 42.72 164.23C42.7595 163.61 42.905 163.001 43.15 162.43C43.435 161.843 43.7695 161.281 44.15 160.75C44.52 160.2 44.92 159.64 45.26 159.04C45.6287 158.429 45.867 157.748 45.96 157.04C46.13 155.56 45.26 154.18 45.48 152.72C45.6174 151.997 45.9147 151.314 46.35 150.72C46.77 150.08 47.27 149.48 47.68 148.8C48.4676 147.384 48.9864 145.835 49.21 144.23C49.4406 142.59 49.8154 140.974 50.33 139.4C50.6204 138.614 51.0211 137.873 51.52 137.2C52.0175 136.516 52.6682 135.958 53.42 135.57L53.25 135.47V135.62C53.34 136.49 53.5 137.34 53.61 138.19C53.7213 139.025 53.7581 139.868 53.72 140.71C53.7095 141.125 53.6728 141.539 53.61 141.95C53.5108 142.349 53.3735 142.737 53.2 143.11C52.8626 143.869 52.5688 144.647 52.32 145.44C52.1043 146.228 51.9703 147.035 51.92 147.85C51.84 148.65 51.75 149.44 51.67 150.23C51.6075 151.758 51.3037 153.267 50.77 154.7C50.46 155.37 50.05 155.99 49.77 156.7C49.4749 157.376 49.312 158.103 49.29 158.84C49.3582 160.212 49.271 161.588 49.03 162.94C48.65 164.21 47.85 165.26 47.44 166.46C47.1133 167.629 47.0961 168.863 47.39 170.04C47.6404 171.085 47.6846 172.168 47.52 173.23C47.2038 174.132 46.7482 174.979 46.17 175.74C45.9415 176.12 45.7886 176.542 45.72 176.98C45.6729 177.385 45.6496 177.792 45.65 178.2C45.6486 178.565 45.5981 178.928 45.5 179.28C45.3738 179.584 45.1746 179.852 44.92 180.06C44.4871 180.411 44.001 180.691 43.48 180.89C43.0937 181.034 42.6956 181.145 42.29 181.22C42.0421 181.263 41.7916 181.29 41.54 181.3L41.3 181.27Z" fill="#E1E1E1"/>
<path d="M52.7701 137.51C52.7701 137.51 52.7701 137.51 52.7701 137.62L52.6901 137.95C52.6201 138.25 52.5401 138.69 52.4001 139.24C52.2601 139.79 51.9301 140.41 51.6401 141.18C51.3501 141.95 51.0501 142.83 50.7801 143.82C50.5101 144.81 50.2501 145.91 50.0001 147.09C49.7752 148.347 49.3817 149.568 48.8301 150.72C48.5301 151.32 48.1901 151.93 47.9201 152.6C47.6606 153.286 47.486 154.001 47.4001 154.73C47.222 156.239 46.965 157.738 46.6301 159.22L44.5801 167.81C43.9301 170.44 43.3501 172.81 42.8601 174.81C42.3701 176.81 42.0001 178.4 41.7201 179.53C41.6001 180.083 41.5001 180.513 41.4201 180.82L41.3501 181.16C41.3501 181.23 41.3501 181.27 41.3501 181.27V181.16L41.4401 180.83C41.5201 180.52 41.6401 180.1 41.7801 179.56C42.0701 178.42 42.4901 176.82 42.9901 174.85C43.4901 172.88 44.1001 170.49 44.7601 167.85C45.4201 165.21 46.1001 162.31 46.8301 159.27C47.1691 157.779 47.4261 156.27 47.6001 154.75C47.6825 154.039 47.8504 153.341 48.1001 152.67C48.3601 152.02 48.7001 151.41 49.0001 150.8C49.5567 149.634 49.9472 148.395 50.1601 147.12C50.4101 145.94 50.6401 144.84 50.9101 143.85C51.1801 142.86 51.4601 141.98 51.7401 141.22C52.0201 140.46 52.3301 139.82 52.4601 139.22C52.5901 138.62 52.6501 138.22 52.7101 137.92L52.7701 137.58C52.771 137.557 52.771 137.533 52.7701 137.51Z" fill="#E1E1E1"/>
<path d="M42.0001 181.28C44.4201 179.83 45.0901 175.45 44.0601 172.83C43.0301 170.21 41.2501 167.83 40.9601 165C40.7401 162.85 41.4401 160.63 40.9601 158.53C40.2701 155.68 37.4801 153.53 37.4901 150.53C37.4901 148.89 38.4301 147.34 38.3401 145.7C38.2401 143.7 36.6901 142.11 35.7201 140.34C34.2401 137.64 34.1301 134.44 33.6101 131.4C33.0901 128.36 31.9201 125.11 29.2101 123.63C28.8301 126.22 28.2101 127.99 28.4001 131.48C28.4801 132.74 29.9501 135.13 30.1701 137.88C30.2901 139.53 30.3901 141.17 30.5001 142.82C30.5187 144.429 30.7886 146.025 31.3001 147.55C31.7401 148.69 32.4601 149.73 32.7901 150.91C33.4201 153.14 32.6201 155.56 33.1301 157.82C33.5601 159.73 34.9001 161.37 35.1801 163.31C35.5801 166.03 33.8301 168.88 34.7401 171.47C35.2001 172.76 36.2701 173.79 36.5801 175.12C36.8201 176.12 36.5801 177.25 36.7901 178.29C37.1401 179.96 40.3401 181.29 42.0401 181.13" fill="#E1E1E1"/>
<path d="M29.8101 126.23C29.8101 126.23 29.8101 126.23 29.8101 126.38L29.8701 126.8C29.8701 127.17 29.9901 127.72 30.1201 128.43C30.2501 129.14 30.6301 129.94 30.9301 130.9C31.2301 131.86 31.5601 132.97 31.8401 134.22C32.1201 135.47 32.3601 136.83 32.6101 138.31C32.8122 139.906 33.2398 141.464 33.8801 142.94C34.2201 143.71 34.6101 144.49 34.8801 145.31C35.1661 146.154 35.3409 147.031 35.4001 147.92C35.5476 149.815 35.798 151.702 36.1501 153.57L38.3001 164.33C39.0001 167.63 39.6301 170.6 40.1501 173.1C40.6701 175.6 41.1501 177.6 41.4201 179.01L41.7801 180.62L41.8801 181.03C41.8749 181.076 41.8749 181.123 41.8801 181.17C41.8846 181.123 41.8846 181.077 41.8801 181.03L41.8101 180.61C41.7301 180.22 41.6301 179.68 41.4901 178.99C41.2101 177.58 40.8001 175.56 40.3001 173.07C39.8001 170.58 39.1701 167.59 38.5001 164.29C37.8301 160.99 37.1201 157.34 36.3601 153.52C36.0149 151.661 35.7679 149.785 35.6201 147.9C35.5489 146.991 35.3641 146.094 35.0701 145.23C34.7701 144.39 34.3801 143.62 34.0701 142.85C33.4327 141.394 33.0018 139.855 32.7901 138.28C32.5301 136.8 32.2901 135.42 31.9901 134.18C31.7306 133.058 31.4135 131.95 31.0401 130.86C30.7301 129.86 30.3501 129.1 30.2001 128.41C30.0501 127.72 29.9801 127.16 29.9001 126.79L29.8201 126.37L29.8101 126.23Z" fill="#ECECEC"/>
<path d="M85.1901 34.24C87.2601 31.83 92.6401 33.34 96.3301 35.32C96.3301 35.32 98.8601 36.52 99.8101 37.14L108.43 36.07C109.117 35.9871 109.812 36.1089 110.43 36.42L111.14 36.79C111.221 36.828 111.289 36.8882 111.336 36.9634C111.384 37.0387 111.409 37.1259 111.409 37.215C111.409 37.3041 111.384 37.3913 111.336 37.4666C111.289 37.5418 111.221 37.602 111.14 37.64L104.83 40.35V40.43L111.1 44.55L111.19 44.61C112.377 45.3666 113.805 45.6487 115.19 45.4L118.55 44.8C118.717 44.7559 118.893 44.7559 119.06 44.8C119.196 44.8557 119.315 44.9456 119.405 45.0609C119.496 45.1761 119.555 45.3129 119.577 45.4578C119.599 45.6027 119.584 45.7509 119.532 45.888C119.479 46.0251 119.393 46.1463 119.28 46.24L115.39 49.49C115.096 49.7441 114.734 49.9068 114.348 49.9583C113.963 50.0098 113.571 49.9478 113.22 49.78L111.38 49L102.17 44.6L103.17 49.84C103.179 49.8907 103.176 49.9428 103.163 49.9924C103.149 50.0421 103.125 50.0881 103.091 50.1273C103.058 50.1664 103.016 50.1977 102.969 50.219C102.923 50.2402 102.872 50.2508 102.82 50.25H102.39C102.103 50.232 101.825 50.142 101.582 49.9881C101.339 49.8343 101.139 49.6217 101 49.37L97.3001 42.28L86.4301 37.11C85.0001 36.44 84.4701 35.2 85.1901 34.24Z" fill="#E1E1E1"/>
<path d="M24.8198 57.4501L52.1598 56.8301C52.1598 56.8301 49.6398 52.4901 42.6198 53.2901C35.9098 54.0501 35.5098 51.2901 32.0798 51.0201C28.6498 50.7501 25.8698 53.4401 24.8198 57.4501Z" fill="#F5F5F5"/>
<path d="M152.63 72.2299H178.38C178.38 72.2299 176.1 68.0899 169.47 68.6899C163.14 69.2699 162.82 66.6899 159.6 66.3299C156.38 65.9699 153.7 68.4799 152.63 72.2299Z" fill="#F5F5F5"/>
<path d="M40.3901 43.88H60.0001C60.0001 43.88 58.2601 40.72 53.2101 41.18C48.3801 41.62 48.1301 39.63 45.6801 39.38C43.2301 39.13 41.2101 41 40.3901 43.88Z" fill="#F5F5F5"/>
<path d="M152.65 85.2299H165.5C165.5 85.2299 164.37 83.1599 161.06 83.4599C157.9 83.7499 157.74 82.4599 156.13 82.2799C154.52 82.0999 153.19 83.3499 152.65 85.2299Z" fill="#F5F5F5"/>
<path d="M146.23 49.6601H159.08C159.08 49.6601 157.94 47.5901 154.63 47.8901C151.47 48.1801 151.31 46.8901 149.71 46.7101C148.11 46.5301 146.76 47.7801 146.23 49.6601Z" fill="#FAFAFA"/>
<path d="M178.81 181.3C178.81 181.3 143.03 181.39 98.91 181.39C54.79 181.39 19 181.35 19 181.3C19 181.25 54.77 181.21 98.91 181.21C143.05 181.21 178.81 181.25 178.81 181.3Z" fill="#1A2E35"/>
<path d="M154.32 118.8C154.295 118.553 154.179 118.323 153.994 118.157C153.809 117.99 153.569 117.899 153.32 117.9H145.75C145.601 117.897 145.454 117.928 145.318 117.99C145.182 118.051 145.062 118.143 144.966 118.257C144.871 118.371 144.801 118.505 144.764 118.649C144.727 118.793 144.722 118.944 144.75 119.09C144.795 119.321 144.92 119.529 145.103 119.677C145.285 119.825 145.515 119.904 145.75 119.9H153.29C153.433 119.905 153.575 119.879 153.707 119.825C153.839 119.771 153.958 119.688 154.055 119.584C154.153 119.48 154.227 119.356 154.273 119.221C154.318 119.086 154.335 118.942 154.32 118.8V118.8Z" fill="#1A2E35"/>
<path d="M170.82 178.82C170.742 179.294 170.806 179.781 171.005 180.218C171.205 180.655 171.53 181.023 171.939 181.275C172.348 181.527 172.823 181.651 173.303 181.632C173.783 181.613 174.246 181.452 174.634 181.169C175.022 180.886 175.317 180.493 175.482 180.042C175.646 179.59 175.672 179.1 175.557 178.634C175.442 178.167 175.19 177.746 174.835 177.423C174.479 177.1 174.035 176.89 173.56 176.82C172.932 176.728 172.293 176.885 171.781 177.26C171.268 177.634 170.923 178.194 170.82 178.82Z" fill="#1A2E35"/>
<path d="M172.71 179.19L171.24 176.15L172.01 175.65L173.44 178.83L172.71 179.19Z" fill="#385A64"/>
<path d="M159.08 141.75L149.94 117.9L148.2 118.77L157.06 142.4L159.08 141.75Z" fill="#1A2E35"/>
<path d="M180.183 173.25L166.689 178.612C166.443 178.71 166.167 178.706 165.924 178.601C165.68 178.495 165.489 178.298 165.391 178.052L151.957 144.243C151.45 142.966 151.47 141.54 152.014 140.278C152.558 139.017 153.581 138.023 154.858 137.516L160.536 135.26C161.813 134.752 163.239 134.773 164.5 135.317C165.762 135.861 166.756 136.884 167.263 138.161L180.704 171.988C180.802 172.235 180.798 172.51 180.693 172.754C180.588 172.997 180.39 173.189 180.144 173.287L180.183 173.25Z" fill="#FFE55C"/>
<path d="M165.39 178.22L165.33 178.02L165.1 177.42C164.9 176.88 164.6 176.11 164.22 175.12C163.45 173.12 162.33 170.24 160.95 166.68L156.07 154.17L153.18 146.79C152.93 146.15 152.68 145.5 152.42 144.85C152.166 144.216 152.069 143.529 152.14 142.85C152.229 142.151 152.504 141.489 152.937 140.933C153.369 140.377 153.944 139.948 154.6 139.692C155.256 139.435 155.969 139.359 156.664 139.474C157.359 139.588 158.011 139.887 158.55 140.34C159.081 140.783 159.485 141.36 159.72 142.01C159.98 142.66 160.23 143.31 160.48 143.95C161.48 146.5 162.48 148.95 163.38 151.33L168.3 163.82C169.71 167.36 170.84 170.24 171.64 172.23L172.55 174.52L172.8 175.11L172.88 175.31L172.82 175.1C172.76 174.96 172.69 174.76 172.59 174.5L171.71 172.2C170.94 170.2 169.82 167.32 168.44 163.76L163.56 151.25L160.67 143.87C160.42 143.23 160.17 142.58 159.91 141.93C159.6 141.048 159.001 140.297 158.209 139.8C157.417 139.304 156.481 139.09 155.552 139.194C154.623 139.299 153.757 139.715 153.096 140.376C152.434 141.036 152.016 141.901 151.91 142.83C151.828 143.551 151.931 144.28 152.21 144.95C152.47 145.6 152.72 146.24 152.97 146.88C153.97 149.44 154.97 151.88 155.87 154.26L160.79 166.75C162.2 170.3 163.33 173.17 164.13 175.17L165.04 177.45L165.29 178.04C165.32 178.102 165.354 178.162 165.39 178.22V178.22Z" fill="#1A2E35"/>
<path d="M164.52 154.2C165.876 153.787 167.197 153.265 168.47 152.64C169.799 152.12 171.084 151.491 172.31 150.76C170.954 151.175 169.634 151.697 168.36 152.32C167.031 152.84 165.746 153.469 164.52 154.2V154.2Z" fill="#1A2E35"/>
<path d="M152.58 117.9L151 114.78C150.824 114.43 150.53 114.154 150.17 114L147.68 113L141 103.9L140.38 110.85L144.64 115.24C144.64 115.24 147.31 120.86 149.49 120.57C149.432 120.064 149.283 119.573 149.05 119.12C148.34 117.9 149.05 117.9 149.19 117.9H152.58V117.9Z" fill="#FFBF9E"/>
<path d="M141.66 113.1C141.87 113.4 143.52 115.64 143.52 115.64L148.2 112.24L146.5 110.57L141.66 113.1Z" fill="#FFE55C"/>
<path d="M149.05 119.12C149.05 119.12 150.27 119.81 150.42 120.41V120.76L149 120.54L149.05 119.12Z" fill="#FFBF9E"/>
<path d="M150.68 119.79C150.462 119.621 150.293 119.396 150.19 119.14C150.145 119.012 150.148 118.872 150.2 118.746C150.251 118.621 150.348 118.519 150.47 118.46C150.72 118.37 150.98 118.56 151.18 118.74C151.431 118.962 151.669 119.199 151.89 119.45C151.998 119.539 152.083 119.653 152.137 119.782C152.191 119.911 152.212 120.051 152.2 120.19C152.167 120.299 152.101 120.395 152.012 120.464C151.922 120.534 151.813 120.575 151.7 120.58C151.587 120.581 151.475 120.56 151.37 120.517C151.265 120.474 151.17 120.41 151.09 120.33C150.935 120.17 150.81 119.984 150.72 119.78" fill="#FFBF9E"/>
<path d="M151.92 119.68C151.702 119.514 151.533 119.293 151.43 119.04C151.384 118.911 151.387 118.769 151.439 118.642C151.49 118.515 151.587 118.411 151.71 118.35C151.842 118.333 151.977 118.35 152.101 118.399C152.225 118.448 152.335 118.527 152.42 118.63C152.671 118.855 152.909 119.095 153.13 119.35C153.236 119.44 153.32 119.554 153.374 119.683C153.428 119.811 153.451 119.951 153.44 120.09C153.405 120.197 153.339 120.29 153.249 120.358C153.16 120.426 153.052 120.465 152.94 120.47C152.827 120.473 152.715 120.453 152.61 120.412C152.506 120.371 152.41 120.309 152.33 120.23C152.177 120.064 152.052 119.875 151.96 119.67" fill="#FFBF9E"/>
<path d="M148.2 114.36C148.2 114.36 148.52 114.36 148.88 114.65C149.051 114.862 149.195 115.094 149.31 115.34C149.493 115.629 149.577 115.969 149.55 116.31C149.523 116.651 149.386 116.974 149.16 117.23C148.897 117.651 148.778 118.146 148.82 118.64C148.702 118.416 148.673 118.155 148.74 117.91C148.786 117.639 148.881 117.378 149.02 117.14C149.194 116.889 149.31 116.602 149.36 116.3C149.364 115.991 149.292 115.685 149.15 115.41C149.055 115.173 148.93 114.948 148.78 114.74C148.662 114.619 148.527 114.514 148.38 114.43C148.322 114.403 148.262 114.379 148.2 114.36Z" fill="#FF9A6E"/>
<path d="M97.76 82.3701L92.79 98.2501L107.41 113.52L120.8 110.04L97.76 82.3701Z" fill="#F5F5F5"/>
<path d="M97.7602 82.3701L97.8702 82.5001L98.2102 82.9001L99.5102 84.4501L104.37 90.2401L120.87 110L120.96 110.11H120.83L113.27 112.11L107.43 113.63H107.38L92.7402 98.3001C94.2802 93.4401 95.5402 89.4601 96.4202 86.7001C96.8502 85.3301 97.1902 84.2601 97.4202 83.5301L97.6802 82.7101L97.7702 82.4401L92.8702 98.3401V98.2001L107.47 113.46H107.39L113.23 111.94L120.78 109.94V110.09L104.36 90.3601L99.5202 84.5101L98.2102 82.9301L97.8802 82.5201L97.7602 82.3701Z" fill="#1A2E35"/>
<path d="M98.21 92.85C98.3956 92.5608 98.6378 92.3122 98.922 92.119C99.2062 91.9258 99.5265 91.792 99.8636 91.7257C100.201 91.6594 100.548 91.6619 100.884 91.7331C101.22 91.8043 101.539 91.9427 101.82 92.14C102.74 92.84 103.15 94.14 104.25 94.53C105.05 94.79 105.92 94.42 106.74 94.53C107.226 94.6458 107.67 94.8941 108.023 95.2472C108.376 95.6002 108.624 96.0443 108.74 96.53C108.958 97.4842 109.002 98.4701 108.87 99.44L104.11 99.51L98.21 92.85Z" fill="#E1E1E1"/>
<path d="M89.4302 83.8201L120.22 115.56L107.67 114.28L90.1202 95.7501L89.4302 83.8201Z" fill="#F5F5F5"/>
<path d="M89.4302 83.8201C89.4302 84.2801 89.7102 88.3701 90.1802 95.7501L107.74 114.22H107.68L117.31 115.22L120.23 115.52L120.16 115.67L89.4302 83.8201L120.29 115.49L120.47 115.67H120.22L117.29 115.37L107.67 114.37L90.0702 95.7901C89.6702 88.3701 89.4502 84.2801 89.4302 83.8201Z" fill="#1A2E35"/>
<path d="M101.48 96.4299C101.052 97.0182 100.821 97.7272 100.821 98.4549C100.821 99.1827 101.052 99.8917 101.48 100.48C102.375 101.64 103.603 102.498 105 102.94C106.09 103.36 107.44 103.62 108.35 102.88" fill="#E1E1E1"/>
<path d="M99.88 94.71C99.94 94.97 99.6 95.17 99.33 95.14C99.06 95.11 98.81 94.97 98.54 94.95C97.8 94.95 97.4 95.79 96.79 96.22C96.4271 96.4568 95.9864 96.5432 95.561 96.4611C95.1356 96.379 94.7587 96.1348 94.51 95.78C94.11 95.15 94.12 94.22 93.51 93.78C93.132 93.6026 92.7037 93.5636 92.3 93.67C91.9046 93.7872 91.4912 93.8312 91.08 93.8C90.8738 93.7812 90.6802 93.6927 90.5312 93.5491C90.3821 93.4055 90.2864 93.2153 90.26 93.01L90 92.71L89.48 84L99.88 94.71Z" fill="#E1E1E1"/>
<path d="M114.89 114.91C115.046 114.951 115.208 114.96 115.368 114.936C115.527 114.912 115.68 114.856 115.817 114.771C115.954 114.686 116.071 114.573 116.163 114.441C116.255 114.308 116.318 114.158 116.35 114C116.391 113.649 116.295 113.295 116.083 113.012C115.871 112.73 115.558 112.539 115.21 112.48C114.58 112.4 113.94 112.76 113.33 112.57C112.72 112.38 112.33 111.57 112.19 110.86C112.05 110.15 111.77 109.37 111.1 109.1C110 108.65 108.84 110.1 107.69 109.75C106.83 109.52 106.5 108.5 105.83 107.92C105.559 107.686 105.233 107.527 104.882 107.459C104.531 107.39 104.168 107.415 103.83 107.53C103.522 107.605 103.243 107.767 103.026 107.998C102.81 108.229 102.665 108.518 102.61 108.83L107.7 114.19L114.89 114.91Z" fill="#E1E1E1"/>
<path d="M106.47 168.56L105.2 175.85C105.2 175.85 97.36 177 97 178.34L111 181.34L113.49 170L106.47 168.56Z" fill="#FFE55C"/>
<g opacity="0.6">
<path opacity="0.6" d="M109.68 176.16C109.806 176.23 109.903 176.344 109.951 176.48C109.999 176.617 109.995 176.766 109.94 176.9C109.875 177.029 109.763 177.128 109.627 177.177C109.491 177.225 109.342 177.219 109.21 177.16C109.077 177.086 108.976 176.965 108.926 176.821C108.876 176.678 108.881 176.52 108.94 176.38C109.02 176.251 109.148 176.159 109.296 176.124C109.444 176.088 109.6 176.112 109.73 176.19" fill="white"/>
</g>
<path opacity="0.6" d="M111.05 181.3L111.3 180.18L97.7 177.74C97.7 177.74 97.02 177.88 97 178.34L111.05 181.3Z" fill="white"/>
<path d="M105 175.73C105 175.8 105.32 175.9 105.62 176.2C105.92 176.5 106.03 176.81 106.09 176.8C106.15 176.79 106.09 176.37 105.79 176.02C105.49 175.67 105 175.67 105 175.73Z" fill="#1A2E35"/>
<path d="M103.39 176C103.39 176.06 103.63 176.24 103.8 176.58C103.97 176.92 103.98 177.24 104.05 177.25C104.12 177.26 104.24 176.89 104.05 176.47C103.86 176.05 103.4 176 103.39 176Z" fill="#1A2E35"/>
<path d="M102.18 177.62C102.24 177.62 102.4 177.32 102.31 176.91C102.22 176.5 101.92 176.28 101.88 176.33C101.84 176.38 102 176.63 102.07 176.97C102.14 177.31 102.11 177.6 102.18 177.62Z" fill="#1A2E35"/>
<path d="M105.46 174.1C105.46 174.17 105.81 174.1 106.2 174.25C106.59 174.4 106.85 174.54 106.9 174.49C106.95 174.44 106.71 174.13 106.26 174.01C105.81 173.89 105.44 174 105.46 174.1Z" fill="#1A2E35"/>
<path opacity="0.3" d="M106.22 170L105.99 171.3L112.91 172.69L113.17 171.53L106.22 170Z" fill="black"/>
<path d="M105.74 172.63C105.959 172.742 106.204 172.794 106.45 172.78C106.712 172.789 106.974 172.765 107.23 172.71C107.383 172.676 107.533 172.633 107.68 172.58C107.768 172.55 107.852 172.51 107.93 172.46C107.984 172.419 108.024 172.363 108.044 172.298C108.064 172.233 108.062 172.164 108.04 172.1C108.015 172.045 107.978 171.996 107.931 171.958C107.884 171.92 107.829 171.893 107.77 171.88C107.681 171.866 107.59 171.866 107.5 171.88C107.342 171.885 107.185 171.905 107.03 171.94C106.769 171.995 106.519 172.093 106.29 172.23C105.9 172.46 105.74 172.69 105.76 172.71C105.78 172.73 105.99 172.56 106.37 172.38C106.593 172.277 106.829 172.203 107.07 172.16C107.213 172.145 107.357 172.145 107.5 172.16C107.66 172.16 107.79 172.16 107.81 172.25C107.83 172.34 107.81 172.25 107.81 172.33C107.755 172.366 107.694 172.393 107.63 172.41C107.493 172.466 107.353 172.512 107.21 172.55C106.971 172.61 106.726 172.65 106.48 172.67C106.235 172.642 105.987 172.629 105.74 172.63V172.63Z" fill="#1A2E35"/>
<path d="M105.81 172.75C105.81 172.75 106.02 172.55 106.14 172.11C106.207 171.852 106.23 171.585 106.21 171.32C106.199 171.16 106.169 171.003 106.12 170.85C106.102 170.75 106.058 170.656 105.993 170.577C105.929 170.498 105.845 170.437 105.75 170.4C105.686 170.388 105.62 170.395 105.559 170.42C105.499 170.445 105.447 170.487 105.41 170.54C105.355 170.613 105.311 170.694 105.28 170.78C105.223 170.934 105.189 171.096 105.18 171.26C105.163 171.532 105.214 171.804 105.33 172.05C105.53 172.47 105.8 172.61 105.81 172.59C105.692 172.393 105.585 172.189 105.49 171.98C105.409 171.753 105.382 171.51 105.41 171.27C105.42 171.132 105.453 170.996 105.51 170.87C105.51 170.72 105.64 170.62 105.69 170.64C105.741 170.67 105.786 170.71 105.82 170.759C105.854 170.807 105.878 170.862 105.89 170.92C105.935 171.057 105.969 171.197 105.99 171.34C106.026 171.582 106.026 171.828 105.99 172.07C105.91 172.49 105.78 172.73 105.81 172.75Z" fill="#1A2E35"/>
<path d="M152.66 169L149.66 165L149.5 164.79L144.32 168.65L149.12 173.91L148.94 179.25C146.27 179.94 145.87 181.25 145.87 181.25H151.42L156.42 171.53L152.66 169Z" fill="#FFE55C"/>
<path opacity="0.6" d="M156.42 171.58L151.38 181.3H145.83L146.45 180.47L150.97 180.21L155.62 171.03L156.42 171.58Z" fill="white"/>
<path d="M148.94 176.83C148.94 176.89 149.3 176.71 149.73 176.72C150.16 176.73 150.47 176.91 150.51 176.85C150.55 176.79 150.25 176.48 149.73 176.48C149.21 176.48 148.88 176.79 148.94 176.83Z" fill="#1A2E35"/>
<path d="M149 175.51C149.06 175.51 149.31 175.22 149.75 175.14C150.19 175.06 150.55 175.25 150.58 175.19C150.61 175.13 150.58 175.08 150.38 174.99C150.171 174.881 149.93 174.849 149.7 174.9C149.468 174.943 149.259 175.067 149.11 175.25C149 175.38 149 175.5 149 175.51Z" fill="#1A2E35"/>
<path d="M149 173.81C149.06 173.81 149.25 173.52 149.63 173.39C150.01 173.26 150.37 173.39 150.4 173.32C150.43 173.25 150.34 173.21 150.19 173.16C149.983 173.084 149.757 173.084 149.55 173.16C149.346 173.228 149.172 173.366 149.06 173.55C149 173.7 149 173.8 149 173.81Z" fill="#1A2E35"/>
<path d="M147.5 172.5C147.57 172.5 147.72 172.2 148.07 171.98C148.42 171.76 148.76 171.72 148.76 171.65C148.76 171.58 148.35 171.5 147.93 171.78C147.51 172.06 147.43 172.49 147.5 172.5Z" fill="#1A2E35"/>
<path d="M146.78 171.36C146.967 171.19 147.128 170.995 147.26 170.78L147.73 170.11C147.835 169.971 147.923 169.82 147.99 169.66C148.029 169.55 148.029 169.43 147.99 169.32C147.959 169.262 147.91 169.214 147.851 169.184C147.792 169.154 147.726 169.142 147.66 169.15C147.464 169.186 147.283 169.28 147.14 169.42C147.009 169.529 146.894 169.657 146.8 169.8C146.645 170.041 146.545 170.315 146.51 170.6C146.455 170.861 146.502 171.132 146.64 171.36C146.624 171.117 146.624 170.873 146.64 170.63C146.696 170.378 146.801 170.14 146.95 169.93C147.034 169.806 147.135 169.695 147.25 169.6C147.36 169.503 147.49 169.431 147.63 169.39C147.69 169.39 147.72 169.39 147.74 169.44C147.761 169.491 147.761 169.549 147.74 169.6C147.687 169.735 147.617 169.863 147.53 169.98C147.39 170.22 147.24 170.45 147.11 170.68C146.961 170.885 146.849 171.116 146.78 171.36V171.36Z" fill="#1A2E35"/>
<path d="M146.58 171.52C146.58 171.52 146.58 171.23 146.28 170.9C146.076 170.676 145.804 170.525 145.506 170.471C145.208 170.416 144.9 170.462 144.63 170.6C144.601 170.624 144.579 170.655 144.565 170.69C144.551 170.725 144.546 170.763 144.55 170.8C144.55 170.831 144.556 170.863 144.568 170.892C144.58 170.921 144.598 170.948 144.62 170.97C144.673 171.04 144.737 171.101 144.81 171.15C144.937 171.235 145.071 171.308 145.21 171.37C145.442 171.476 145.688 171.547 145.94 171.58C146.37 171.58 146.63 171.58 146.62 171.51C146.406 171.464 146.189 171.431 145.97 171.41C145.739 171.355 145.514 171.274 145.3 171.17C145.197 171.119 145.097 171.063 145 171C144.949 170.965 144.902 170.925 144.86 170.88C144.86 170.83 144.86 170.88 144.86 170.83C144.91 170.801 144.964 170.781 145.02 170.77C145.09 170.76 145.16 170.76 145.23 170.77C145.359 170.75 145.491 170.75 145.62 170.77C145.843 170.816 146.05 170.92 146.22 171.07C146.46 171.28 146.54 171.54 146.58 171.52Z" fill="#1A2E35"/>
<path opacity="0.6" d="M152 171.42C152 171.595 152.07 171.763 152.193 171.887C152.317 172.01 152.485 172.08 152.66 172.08C152.835 172.08 153.003 172.01 153.127 171.887C153.25 171.763 153.32 171.595 153.32 171.42C153.32 171.245 153.25 171.077 153.127 170.953C153.003 170.83 152.835 170.76 152.66 170.76C152.485 170.76 152.317 170.83 152.193 170.953C152.07 171.077 152 171.245 152 171.42Z" fill="white"/>
<path opacity="0.3" d="M144.76 169.21L145.83 170.38L150.31 165.94L149.69 165.12L144.76 169.21Z" fill="black"/>
<path d="M131 76.77C133.96 75.7378 137.158 75.5918 140.2 76.35C141.582 76.6102 142.842 77.3121 143.79 78.35C144.79 79.64 144.94 81.35 145.1 83.04C145.423 86.3776 146.039 89.6803 146.94 92.91C147.795 95.5611 148.483 98.263 149 101C149.521 103.764 149.102 106.622 147.81 109.12C145.64 112.84 141.03 114.48 136.73 114.55C134.456 114.658 132.191 114.198 130.14 113.21C129.125 112.706 128.231 111.989 127.516 111.109C126.802 110.23 126.285 109.207 126 108.11" fill="#FFE55C"/>
<g opacity="0.5">
<path opacity="0.5" d="M131 76.77C133.96 75.7378 137.158 75.5918 140.2 76.35C141.582 76.6102 142.842 77.3121 143.79 78.35C144.79 79.64 144.94 81.35 145.1 83.04C145.423 86.3776 146.039 89.6803 146.94 92.91C147.795 95.5611 148.483 98.263 149 101C149.521 103.764 149.102 106.622 147.81 109.12C145.64 112.84 141.03 114.48 136.73 114.55C134.456 114.658 132.191 114.198 130.14 113.21C129.125 112.706 128.231 111.989 127.516 111.109C126.802 110.23 126.285 109.207 126 108.11" fill="black"/>
</g>
<path d="M136.87 80.1699C137.338 80.5748 137.751 81.0387 138.1 81.5499C138.48 82.1126 138.814 82.7044 139.1 83.3199C139.434 84.0844 139.818 84.826 140.25 85.5399C140.686 86.2622 141.285 86.872 142 87.3199C142.604 87.6716 143.309 87.809 144 87.7099C144.468 87.6431 144.905 87.4416 145.26 87.1299C145.353 87.0456 145.437 86.9517 145.51 86.8499C145.557 86.7699 145.577 86.7299 145.57 86.7299C145.57 86.7299 145.45 86.8699 145.2 87.0599C144.847 87.3336 144.424 87.5033 143.98 87.5499C143.324 87.6204 142.664 87.4728 142.1 87.1299C141.406 86.7012 140.827 86.1111 140.41 85.4099C139.987 84.7052 139.603 83.9774 139.26 83.2299C138.983 82.6101 138.648 82.0175 138.26 81.4599C137.994 81.0887 137.681 80.7527 137.33 80.4599C137.196 80.3359 137.04 80.2376 136.87 80.1699V80.1699Z" fill="#E1E1E1"/>
<path d="M143.1 113.37C143.111 113.277 143.111 113.183 143.1 113.09C143.1 112.89 143.1 112.62 143.1 112.3C143.1 111.61 143.1 110.61 142.99 109.38C142.89 106.91 142.69 103.51 142.4 99.7599C142.11 96.0099 141.76 92.6099 141.48 90.1599C141.34 88.9399 141.22 87.9499 141.13 87.2599L141.02 86.4799C141.02 86.2999 141.02 86.1999 141.02 86.2099C141.004 86.2992 141.004 86.3906 141.02 86.4799C141.02 86.6899 141.02 86.9499 141.08 87.2699C141.15 87.9899 141.25 88.9799 141.36 90.1799C141.6 92.6399 141.91 96.0299 142.21 99.7799C142.51 103.53 142.72 106.93 142.87 109.39C142.95 110.6 143.01 111.58 143.05 112.3L143.11 113.09C143.094 113.182 143.091 113.277 143.1 113.37V113.37Z" fill="#E1E1E1"/>
<path d="M142.22 98.2999C144.245 98.3371 146.265 98.0879 148.22 97.5599C148.22 97.4899 146.88 97.7099 145.22 97.9099C143.56 98.1099 142.21 98.2299 142.22 98.2999Z" fill="#E1E1E1"/>
<path d="M143.31 98.27C143.205 98.4678 143.143 98.6862 143.13 98.91C143.089 99.1513 143.065 99.3953 143.06 99.64C143.047 99.7967 143.071 99.9543 143.13 100.1C143.17 100.19 143.234 100.267 143.315 100.321C143.397 100.376 143.492 100.407 143.59 100.41C143.645 100.411 143.699 100.399 143.749 100.377C143.799 100.354 143.844 100.321 143.88 100.28C143.951 100.203 143.994 100.104 144 100C144.008 99.8443 143.988 99.6884 143.94 99.54C143.882 99.3031 143.801 99.0721 143.7 98.85C143.621 98.6373 143.498 98.4432 143.34 98.28C143.388 98.4969 143.458 98.7081 143.55 98.91C143.61 99.1 143.68 99.33 143.74 99.59C143.754 99.7196 143.754 99.8504 143.74 99.98C143.74 100.1 143.67 100.17 143.57 100.17C143.47 100.17 143.24 99.89 143.25 99.63C143.26 99.37 143.25 99.12 143.25 98.92C143.32 98.53 143.35 98.27 143.31 98.27Z" fill="#E1E1E1"/>
<path d="M128.042 78.0433L142.276 76.3814C144.141 76.1636 145.476 74.4751 145.259 72.61L144.95 69.968C144.732 68.1029 143.044 66.7674 141.179 66.9852L126.945 68.6472C125.08 68.865 123.745 70.5535 123.963 72.4186L124.271 75.0606C124.489 76.9257 126.177 78.2611 128.042 78.0433Z" fill="#385A64"/>
<path d="M140.94 67.2199C140.94 67.2199 140.94 67.2199 140.81 67.1599C140.674 67.1186 140.532 67.0983 140.39 67.0999C139.861 67.0998 139.348 67.2757 138.93 67.5999C138.292 68.0495 137.785 68.6603 137.46 69.3699C137.099 70.2459 136.962 71.1977 137.06 72.1399C137.121 73.1004 137.469 74.0204 138.06 74.7799C138.529 75.4056 139.178 75.8731 139.92 76.1199C140.414 76.2923 140.94 76.3504 141.46 76.2899C141.599 76.2744 141.737 76.2442 141.87 76.1999C141.96 76.1999 142.01 76.1999 142 76.1499C141.99 76.0999 141.8 76.1499 141.45 76.1999C140.946 76.225 140.443 76.1467 139.97 75.9699C139.276 75.7042 138.673 75.2463 138.23 74.6499C137.684 73.9194 137.37 73.0413 137.33 72.1299C137.232 71.2198 137.359 70.2994 137.7 69.4499C137.984 68.7775 138.43 68.1863 139 67.7299C139.383 67.4073 139.86 67.2178 140.36 67.1899C140.554 67.1856 140.748 67.1957 140.94 67.2199V67.2199Z" fill="#1A2E35"/>
<path d="M132.81 67.94L135 67.72C134.414 67.9011 133.913 68.2883 133.59 68.81C133.27 69.3268 133.065 69.9067 132.99 70.51C132.835 71.7912 133.045 73.0902 133.595 74.2577C134.145 75.4252 135.013 76.4138 136.1 77.11L134.33 77.35C134.33 77.35 129.26 72.82 132.81 67.94" fill="#1A2E35"/>
<path d="M130.32 72.59C130.886 72.7464 131.481 72.768 132.057 72.6531C132.633 72.5382 133.174 72.29 133.636 71.9284C134.099 71.5667 134.471 71.1017 134.721 70.5706C134.972 70.0395 135.095 69.4571 135.08 68.87C135.08 67.78 134.56 66.67 134.9 65.63C135.14 64.92 135.73 64.36 135.9 63.63C136.2 62.55 135.55 61.46 134.9 60.53C134.527 59.9151 134.066 59.3591 133.53 58.88C133.262 58.6382 132.943 58.4596 132.597 58.3575C132.251 58.2554 131.886 58.2323 131.53 58.29" fill="#1A2E35"/>
<path d="M120.25 58.3899C120.218 59.2203 119.859 60.0042 119.25 60.5699C118.632 61.1253 118.187 61.8476 117.97 62.6499C117.76 64.0999 119.18 65.4399 118.89 66.8799C118.73 67.6499 118.1 68.2699 117.99 69.0399C117.97 69.4195 118.03 69.799 118.166 70.1539C118.302 70.5088 118.511 70.8311 118.78 71.0999C119.325 71.6297 119.842 72.1871 120.33 72.7699C120.751 73.4513 121.106 74.1712 121.39 74.9199C121.676 75.6692 122.195 76.3071 122.87 76.7399C123.93 77.3199 125.41 77.0499 126.22 77.9399C127.03 78.8299 127.96 78.9399 128.93 79.5799" fill="#1A2E35"/>
<path d="M132.91 59.65C132.91 58.91 132.24 58.33 131.55 58.06C130.827 57.8685 130.126 57.6003 129.46 57.26C128.951 56.8372 128.488 56.3612 128.08 55.84C127.502 55.2611 126.78 54.8464 125.989 54.6385C125.198 54.4306 124.366 54.4369 123.578 54.6567C122.79 54.8766 122.075 55.3021 121.506 55.8896C120.937 56.4772 120.535 57.2055 120.34 58C120.181 58.521 120.166 59.0755 120.299 59.6041C120.431 60.1326 120.704 60.6152 121.09 61C122.09 61.82 123.51 61.64 124.76 61.39C126.01 61.14 127.42 60.88 128.46 61.61C129.046 62.1113 129.514 62.7363 129.83 63.44C130.162 64.1295 130.724 64.6814 131.42 65C132.15 65.25 133.13 64.82 133.16 64.05" fill="#1A2E35"/>
<path d="M130 59.81C130.311 59.8426 130.598 59.9917 130.804 60.2272C131.01 60.4627 131.119 60.7673 131.11 61.08V61.08L130.34 78C130.34 80 127.34 81.12 125.26 81.07C123.1 81 123 79.92 123 78C123 74.83 123 73.64 123 73.66C123 73.68 120.28 73.2 119.72 69.66C119.505 67.3316 119.505 64.9884 119.72 62.66C119.86 60.53 121.28 57.92 123.41 58.14L130 59.81Z" fill="#FFBF9E"/>
<path d="M120.33 64.6601C120.329 64.7192 120.339 64.778 120.361 64.8331C120.382 64.8882 120.414 64.9386 120.455 64.9813C120.496 65.024 120.545 65.0582 120.599 65.0821C120.653 65.1059 120.711 65.1188 120.77 65.1201C120.828 65.1256 120.887 65.1192 120.942 65.1013C120.998 65.0834 121.049 65.0544 121.093 65.016C121.137 64.9777 121.173 64.9308 121.198 64.8782C121.223 64.8256 121.238 64.7684 121.24 64.7101C121.24 64.5915 121.195 64.4774 121.113 64.3917C121.031 64.306 120.919 64.2553 120.8 64.2501C120.742 64.246 120.684 64.2534 120.629 64.2718C120.574 64.2903 120.524 64.3194 120.48 64.3575C120.436 64.3956 120.401 64.4419 120.375 64.4938C120.349 64.5458 120.334 64.6023 120.33 64.6601Z" fill="#1A2E35"/>
<path d="M120.28 64.1399C120.34 64.1999 120.68 63.9399 121.17 63.9499C121.66 63.9599 122.02 64.1999 122.08 64.1399C122.14 64.0799 122.08 63.9999 121.89 63.8899C121.68 63.7396 121.428 63.6591 121.17 63.6599C120.912 63.6604 120.66 63.7408 120.45 63.8899C120.3 63.9999 120.25 64.1099 120.28 64.1399Z" fill="#1A2E35"/>
<path d="M125.21 64.7901C125.209 64.8492 125.219 64.908 125.24 64.9631C125.262 65.0182 125.294 65.0685 125.335 65.1112C125.376 65.154 125.425 65.1882 125.479 65.212C125.533 65.2358 125.591 65.2488 125.65 65.2501C125.708 65.2542 125.766 65.2468 125.821 65.2283C125.876 65.2099 125.927 65.1808 125.97 65.1427C126.014 65.1046 126.05 65.0583 126.075 65.0064C126.101 64.9544 126.116 64.8979 126.12 64.8401C126.121 64.781 126.111 64.7222 126.09 64.6671C126.068 64.612 126.036 64.5616 125.995 64.5189C125.955 64.4762 125.906 64.4419 125.852 64.4181C125.797 64.3943 125.739 64.3814 125.68 64.3801C125.622 64.3746 125.563 64.381 125.508 64.3989C125.452 64.4168 125.401 64.4458 125.357 64.4841C125.313 64.5225 125.277 64.5694 125.252 64.622C125.227 64.6746 125.213 64.7318 125.21 64.7901V64.7901Z" fill="#1A2E35"/>
<path d="M125.1 64.24C125.16 64.3 125.5 64.05 125.99 64.05C126.48 64.05 126.84 64.3 126.9 64.24C126.96 64.18 126.9 64.1 126.71 63.99C126.499 63.842 126.247 63.7649 125.99 63.77C125.736 63.7657 125.487 63.8427 125.28 63.99C125.13 64.11 125.07 64.22 125.1 64.24Z" fill="#1A2E35"/>
<path d="M123.31 67.88C123.054 67.7965 122.789 67.746 122.52 67.73C122.39 67.73 122.27 67.73 122.25 67.61C122.242 67.4804 122.273 67.3513 122.34 67.24C122.45 66.93 122.58 66.62 122.71 66.24C123.055 65.4334 123.336 64.6008 123.55 63.75C123.15 64.5275 122.815 65.3369 122.55 66.17L122.19 67.17C122.113 67.3212 122.092 67.4947 122.13 67.66C122.147 67.7035 122.174 67.7424 122.209 67.7737C122.243 67.8049 122.285 67.8276 122.33 67.84C122.403 67.854 122.477 67.854 122.55 67.84C122.801 67.8784 123.056 67.8918 123.31 67.88Z" fill="#1A2E35"/>
<path d="M123 73.6799C124.673 73.7106 126.321 73.2742 127.76 72.4199C127.76 72.4199 126.6 74.8599 123.05 74.5199L123 73.6799Z" fill="#FF9A6E"/>
<path d="M123.52 69.0601C123.613 68.9431 123.735 68.8515 123.873 68.7939C124.011 68.7362 124.161 68.7143 124.31 68.7301C124.528 68.755 124.729 68.8623 124.87 69.0301C124.929 69.1174 124.96 69.2201 124.96 69.3251C124.96 69.4302 124.929 69.5328 124.87 69.6201C124.789 69.7072 124.685 69.7688 124.569 69.7972C124.454 69.8257 124.332 69.8197 124.22 69.7801C123.99 69.6964 123.779 69.5672 123.6 69.4001C123.542 69.3666 123.494 69.3183 123.46 69.2601C123.441 69.2341 123.43 69.2026 123.43 69.1701C123.43 69.1376 123.441 69.1061 123.46 69.0801" fill="#FF9A6E"/>
<path d="M124.76 68.22C124.68 68.22 124.67 68.75 124.22 69.12C123.77 69.49 123.22 69.44 123.22 69.52C123.22 69.6 123.35 69.62 123.59 69.63C123.899 69.6279 124.198 69.5223 124.44 69.33C124.673 69.1406 124.824 68.8681 124.86 68.57C124.85 68.35 124.79 68.22 124.76 68.22Z" fill="#1A2E35"/>
<path d="M124.88 63.3801C124.93 63.5201 125.42 63.4501 126 63.5301C126.58 63.6101 127 63.7501 127.11 63.6301C127.22 63.5101 127.11 63.4501 126.88 63.3201C126.63 63.1592 126.346 63.0598 126.05 63.0301C125.756 62.9956 125.458 63.0299 125.18 63.1301C125 63.2201 124.86 63.3201 124.88 63.3801Z" fill="#1A2E35"/>
<path d="M120.46 62.72C120.55 62.83 120.89 62.72 121.29 62.72C121.69 62.72 122.04 62.8 122.12 62.72C122.2 62.64 122.12 62.55 121.95 62.45C121.753 62.3173 121.517 62.254 121.28 62.27C121.041 62.262 120.807 62.3401 120.62 62.49C120.47 62.55 120.43 62.67 120.46 62.72Z" fill="#1A2E35"/>
<path d="M132.45 71.5001C131.959 71.5962 131.453 71.5757 130.972 71.4402C130.491 71.3047 130.048 71.058 129.68 70.7201C129.315 70.3765 129.035 69.9529 128.861 69.4827C128.688 69.0124 128.626 68.5084 128.68 68.0101C128.8 67.1401 129.27 66.2501 128.96 65.4201C128.56 64.3301 127.03 63.9901 126.63 62.9001C126.39 62.2701 126.63 61.5301 126.33 60.9001C126.176 60.6211 125.968 60.3761 125.717 60.1802C125.466 59.9842 125.178 59.8413 124.87 59.7601C124.253 59.6058 123.665 59.3525 123.13 59.0101C122.865 58.8312 122.671 58.5653 122.582 58.2585C122.492 57.9517 122.513 57.6233 122.64 57.3301C125.292 57.653 127.896 58.2874 130.4 59.2201C131.002 59.3902 131.539 59.7389 131.94 60.2201C132.24 60.8089 132.348 61.4767 132.25 62.1301L131.8 71.7001" fill="#1A2E35"/>
<path d="M134.37 74.4599C134.359 74.1545 134.295 73.8532 134.18 73.5699C134.036 73.2426 133.829 72.947 133.57 72.6999C133.228 72.3754 132.841 72.1025 132.42 71.8899C131.96 71.6399 131.42 71.4099 130.88 71.0999C130.281 70.7758 129.776 70.3042 129.41 69.7299C129.219 69.4052 129.116 69.0365 129.11 68.6599C129.128 68.2791 129.182 67.9008 129.27 67.5299C129.371 67.169 129.398 66.7916 129.35 66.4199C129.31 66.2355 129.231 66.062 129.117 65.9116C129.003 65.7613 128.857 65.6379 128.69 65.5499C128.35 65.3499 127.97 65.2299 127.61 65.0599C127.232 64.9035 126.911 64.6347 126.69 64.2899C126.514 63.9427 126.422 63.5592 126.42 63.1699C126.42 62.7999 126.42 62.4399 126.42 62.0899C126.428 61.7512 126.381 61.4134 126.28 61.0899C126.174 60.7996 125.987 60.546 125.74 60.3599C125.259 60.052 124.722 59.8414 124.16 59.7399C123.685 59.6442 123.232 59.4647 122.82 59.2099C122.511 58.9998 122.285 58.6887 122.18 58.3299C122.113 58.1049 122.113 57.865 122.18 57.6399C122.207 57.5632 122.248 57.4921 122.3 57.4299C122.3 57.4299 122.3 57.5099 122.22 57.6499C122.156 57.8652 122.156 58.0947 122.22 58.3099C122.332 58.6462 122.554 58.935 122.85 59.1299C123.255 59.3689 123.698 59.5348 124.16 59.6199C124.743 59.7137 125.301 59.9246 125.8 60.2399C126.074 60.4382 126.283 60.7131 126.4 61.0299C126.505 61.353 126.559 61.6903 126.56 62.0299C126.56 62.3799 126.56 62.7399 126.56 63.0999C126.563 63.4484 126.648 63.7912 126.81 64.0999C127.007 64.4157 127.302 64.6581 127.65 64.7899C128 64.9599 128.38 65.0799 128.74 65.2899C128.923 65.4013 129.088 65.5395 129.23 65.6999C129.355 65.8739 129.443 66.0712 129.49 66.2799C129.54 66.6781 129.513 67.0821 129.41 67.4699C129.319 67.8267 129.266 68.192 129.25 68.5599C129.251 68.9112 129.344 69.2561 129.52 69.5599C129.866 70.1713 130.379 70.671 131 70.9999C131.53 71.3199 132.06 71.5499 132.53 71.8199C132.958 72.0414 133.35 72.3282 133.69 72.6699C133.944 72.9341 134.147 73.2425 134.29 73.5799C134.378 73.7961 134.426 74.0266 134.43 74.2599C134.43 74.3399 134.43 74.3999 134.43 74.4399C134.409 74.4443 134.389 74.451 134.37 74.4599V74.4599Z" fill="#1A2E35"/>
<path d="M124 76.89C124 76.89 124 76.89 123.83 76.95C123.757 76.9569 123.683 76.9569 123.61 76.95C123.51 76.9651 123.409 76.9651 123.31 76.95C122.655 76.9581 122.014 76.7585 121.48 76.38C121.101 76.1214 120.786 75.7793 120.56 75.38C120.314 74.9259 120.151 74.4314 120.08 73.92C120.021 73.3704 119.865 72.8355 119.62 72.34C119.27 71.8671 118.848 71.4521 118.37 71.11C117.896 70.6948 117.588 70.1235 117.5 69.5C117.413 68.9219 117.529 68.3315 117.83 67.83C118.115 67.4197 118.363 66.9846 118.57 66.53C118.705 66.1212 118.756 65.6891 118.72 65.26C118.654 64.6291 118.502 64.0101 118.27 63.42C118.12 62.99 118.03 62.76 118.04 62.75L118.13 62.91L118.34 63.39C118.595 63.9835 118.766 64.6094 118.85 65.25C118.9 65.6982 118.852 66.152 118.71 66.58C118.522 67.0764 118.284 67.5523 118 68C117.737 68.4858 117.646 69.0459 117.74 69.5901C117.834 70.1343 118.109 70.6309 118.52 71C119.017 71.3536 119.452 71.7859 119.81 72.28C120.06 72.792 120.219 73.3436 120.28 73.91C120.338 74.4063 120.487 74.8876 120.72 75.33C120.939 75.7023 121.235 76.0229 121.59 76.27C122.101 76.6404 122.709 76.8526 123.34 76.88C123.559 76.8989 123.78 76.9022 124 76.89V76.89Z" fill="#1A2E35"/>
<path d="M134.33 59.9999C134.363 60.0435 134.384 60.0954 134.39 60.1499C134.398 60.2259 134.39 60.3028 134.366 60.3753C134.342 60.4478 134.302 60.5142 134.25 60.5699C134.172 60.6665 134.075 60.7457 133.965 60.8026C133.855 60.8594 133.734 60.8926 133.61 60.8999C133.294 60.8774 132.986 60.7852 132.71 60.6299C132.403 60.4555 132.062 60.3497 131.71 60.3199C131.287 60.314 130.865 60.3508 130.45 60.4299C129.983 60.5322 129.508 60.5958 129.03 60.6199C128.497 60.6348 127.978 60.4452 127.58 60.0899C127.222 59.7125 126.937 59.2717 126.74 58.7899C126.56 58.3588 126.332 57.9495 126.06 57.5699C125.832 57.2687 125.523 57.0383 125.169 56.9056C124.815 56.7728 124.43 56.7431 124.06 56.8199C123.546 56.9537 123.102 57.2793 122.82 57.7299C122.724 57.9018 122.637 58.0788 122.56 58.2599C122.56 58.2599 122.56 58.2099 122.56 58.1099C122.594 57.9649 122.651 57.8265 122.73 57.6999C122.946 57.2724 123.307 56.9363 123.75 56.7528C124.192 56.5693 124.685 56.5506 125.14 56.6999C125.566 56.8317 125.941 57.094 126.21 57.4499C126.491 57.8396 126.729 58.2588 126.92 58.6999C127.109 59.1587 127.38 59.5789 127.72 59.9399C128.084 60.2687 128.56 60.4443 129.05 60.4299C129.517 60.4103 129.982 60.3534 130.44 60.2599C130.868 60.1732 131.304 60.1396 131.74 60.1599C132.121 60.1922 132.49 60.3083 132.82 60.4999C133.074 60.6585 133.362 60.7544 133.66 60.7799C133.771 60.7787 133.88 60.755 133.982 60.7104C134.083 60.6657 134.174 60.6009 134.25 60.5199C134.299 60.4697 134.337 60.4102 134.363 60.345C134.389 60.2797 134.401 60.2101 134.4 60.1399C134.35 59.9999 134.32 59.9999 134.33 59.9999Z" fill="#385A64"/>
<path d="M132.34 58.9299C131.755 58.7943 131.235 58.4614 130.867 57.9871C130.499 57.5128 130.306 56.9262 130.32 56.3261C130.334 55.726 130.555 55.1491 130.944 54.6926C131.334 54.2361 131.869 53.9279 132.46 53.8199C132.741 53.7507 133.036 53.7598 133.313 53.8461C133.59 53.9325 133.838 54.0929 134.03 54.3099C134.35 54.7499 134.33 55.4099 134.74 55.7699C135.15 56.1299 135.87 55.9899 136.45 56.1199C136.888 56.245 137.268 56.5219 137.52 56.9012C137.773 57.2804 137.883 57.7372 137.83 58.1899C137.756 58.6377 137.565 59.0582 137.277 59.4093C136.99 59.7603 136.615 60.0295 136.19 60.1899C135.329 60.5143 134.382 60.532 133.51 60.2399C132.639 59.9577 131.812 59.5573 131.05 59.0499" fill="#1A2E35"/>
<path d="M136.61 56.3599C136.575 56.5938 136.486 56.8163 136.35 57.0099C136.054 57.5009 135.646 57.9154 135.16 58.2199C134.674 58.5261 134.122 58.7113 133.55 58.7599C133.316 58.7899 133.078 58.7729 132.85 58.7099C133.074 58.6659 133.302 58.6391 133.53 58.6299C134.072 58.5455 134.592 58.3523 135.058 58.0618C135.524 57.7714 135.926 57.3898 136.24 56.9399C136.48 56.5899 136.58 56.3499 136.61 56.3599Z" fill="#385A64"/>
<path d="M134.73 60.2899C134.238 59.7055 133.654 59.2055 133 58.8099C132.334 58.4582 131.614 58.2183 130.87 58.0999C131.094 58.053 131.326 58.053 131.55 58.0999C132.097 58.1785 132.623 58.3618 133.1 58.6399C133.576 58.9123 133.997 59.2719 134.34 59.6999C134.511 59.8659 134.645 60.0672 134.73 60.2899V60.2899Z" fill="#FFE55C"/>
<path d="M108.9 98.89L103.17 97.78L104.17 99.25L101.7 100.48L99.7002 99.48C99.8612 99.9016 100.062 100.307 100.3 100.69C100.75 101.44 101.3 102.04 101.74 102.07C101.868 102.586 102.13 103.059 102.5 103.44C102.831 103.776 103.245 104.019 103.699 104.145C104.154 104.272 104.633 104.277 105.09 104.16L108.95 102.76L108.9 98.89Z" fill="#FFBF9E"/>
<path d="M103.11 101.77C103.017 101.891 102.897 101.989 102.76 102.057C102.623 102.124 102.473 102.16 102.32 102.16C102.171 102.195 102.016 102.195 101.867 102.16C101.718 102.125 101.578 102.057 101.46 101.96C101.46 101.96 101.84 102.03 102.29 101.96C102.74 101.89 103.08 101.73 103.11 101.77Z" fill="#FF9A6E"/>
<path d="M103.86 103C103.86 103 103.65 103.31 103.22 103.42C102.79 103.53 102.44 103.42 102.46 103.36C102.48 103.3 102.8 103.36 103.17 103.24C103.54 103.12 103.82 103 103.86 103Z" fill="#FF9A6E"/>
<path d="M105.31 98.66C105.149 98.7659 104.982 98.8627 104.81 98.95C104.5 99.12 104.1 99.41 103.65 99.72C103.266 100.004 102.837 100.221 102.38 100.36C102.187 100.416 101.983 100.416 101.79 100.36C101.79 100.36 102.01 100.36 102.34 100.18C102.77 100.013 103.177 99.7915 103.55 99.52C103.929 99.2401 104.33 98.9925 104.75 98.78C105.08 98.68 105.3 98.63 105.31 98.66Z" fill="#FF9A6E"/>
<path d="M140.16 108.43C140.16 108.43 140.36 108.55 140.84 109.43C142.34 112.11 142.95 118.52 137.29 124.24C129.98 131.64 121.42 143.74 121.42 143.74L114.7 172.14L104.55 169.94L109.78 140.41L124.13 113.8L140.16 108.43Z" fill="#1A2E35"/>
<path d="M151.36 163.42L135.72 139.49L130.97 118.83L118.9 124.76L124.95 145.73L144.28 169.81L151.36 163.42Z" fill="#1A2E35"/>
<path d="M114.7 172.14V172L114.78 171.59L115.14 170.03C115.45 168.66 115.9 166.71 116.46 164.29C117.6 159.45 119.17 152.76 120.91 145.38L121.3 143.71C125.73 138.04 129.77 133.03 132.74 129.46C134.23 127.68 135.44 126.26 136.31 125.3C136.73 124.82 137.08 124.45 137.31 124.2L137.58 123.92L137.67 123.83C137.67 123.83 137.67 123.83 137.59 123.94L137.34 124.23C137.12 124.49 136.78 124.86 136.34 125.35C135.49 126.35 134.34 127.76 132.82 129.54C129.82 133.13 125.82 138.16 121.43 143.82C121.31 144.35 121.17 144.92 121.04 145.5C119.28 152.87 117.69 159.5 116.54 164.39C115.96 166.8 115.48 168.75 115.16 170.12L114.77 171.67L114.67 172.07C114.72 172.09 114.71 172.14 114.7 172.14Z" fill="#385A64"/>
<path d="M133 116C133 116 132.92 116.07 132.76 116.14C132.524 116.237 132.279 116.314 132.03 116.37C131.207 116.549 130.352 116.518 129.544 116.278C128.736 116.039 128.002 115.599 127.41 115C127.23 114.817 127.066 114.62 126.92 114.41C126.82 114.26 126.77 114.17 126.78 114.16C126.79 114.15 127.03 114.47 127.5 114.9C128.1 115.459 128.823 115.87 129.61 116.1C130.4 116.325 131.231 116.37 132.04 116.23C132.67 116.11 133 116 133 116Z" fill="#385A64"/>
<path d="M141.66 109.64C135.55 112.86 125.66 114.78 122.45 113.48L122.33 101.69C122.33 101.69 118 94.5201 118 91.8101C118 87.9001 122.84 78.9901 122.84 78.9901L130.14 77.0501C131.611 77.0249 133.066 77.3687 134.37 78.0501C135.733 78.8117 136.84 79.9598 137.552 81.3496C138.264 82.7394 138.549 84.3089 138.37 85.8601L136.53 97.5801L141.66 109.64Z" fill="#FFE55C"/>
<g opacity="0.3">
<path opacity="0.3" d="M133.83 77.9999C134.25 77.9399 134.41 78.6299 134.1 78.9299C133.753 79.186 133.332 79.3228 132.9 79.3199C131.961 79.5404 131.095 79.9983 130.384 80.6496C129.673 81.301 129.142 82.1241 128.84 83.0399C128.254 84.8793 127.96 86.7994 127.97 88.7299C127.966 90.661 127.554 92.5695 126.76 94.3299C125.917 92.8336 125.417 91.1683 125.297 89.4549C125.177 87.7415 125.441 86.0229 126.068 84.4239C126.695 82.8249 127.67 81.3856 128.923 80.2104C130.176 79.0353 131.674 78.1538 133.31 77.6299" fill="black"/>
</g>
<path d="M134.34 78C134.34 78 133.34 76.27 129.77 77C127.41 77.51 122.26 82.45 123.7 90.39C125.14 98.33 129 101.2 129 101.2C129 101.2 125.44 89 127.41 83.73C127.922 82.2273 128.841 80.8961 130.064 79.8845C131.288 78.8728 132.768 78.2205 134.34 78Z" fill="#1A2E35"/>
<g opacity="0.3">
<path opacity="0.3" d="M122.47 104.21C123.887 104.757 125.349 105.179 126.84 105.47C128.359 105.713 129.916 105.548 131.35 104.99C132.309 104.539 133.169 103.902 133.88 103.115C134.591 102.329 135.138 101.409 135.49 100.41C136.172 98.3981 136.391 96.2581 136.13 94.1499C134.8 95.7999 134.96 98.2299 133.83 100.02C133.072 101.099 132.035 101.953 130.83 102.49C128.241 103.741 125.383 104.332 122.51 104.21" fill="black"/>
</g>
<path d="M126.85 92.1699C126.85 92.1699 126.37 101.17 137.29 99.3399L138.39 101.93C138.39 101.93 126.91 104.35 125.29 94.8499L126.85 92.1699Z" fill="#1A2E35"/>
<path d="M136.79 81.05C137.254 81.7314 137.567 82.5045 137.706 83.3171C137.846 84.1296 137.81 84.9627 137.6 85.76L134.89 97.93C134.37 99.3684 133.495 100.652 132.346 101.663C131.198 102.673 129.813 103.377 128.32 103.71L108.94 105.71V98.52L126.94 95.85L127.78 86C127.907 84.3138 128.45 82.6853 129.36 81.26C130.3 80.12 131.75 78.56 134.11 78.95C134.684 79.0814 135.221 79.3377 135.685 79.7007C136.148 80.0636 136.525 80.5244 136.79 81.05Z" fill="#FFE55C"/>
<path d="M137.36 86.23C137.36 86.23 137.36 86.33 137.36 86.51C137.36 86.69 137.36 86.95 137.26 87.29C137.17 87.97 137.02 88.95 136.81 90.15C136.6 91.35 136.31 92.79 135.95 94.37C135.77 95.16 135.57 95.98 135.34 96.84C135.105 97.7214 134.787 98.5785 134.39 99.4C133.988 100.231 133.431 100.977 132.75 101.6C132.11 102.174 131.384 102.646 130.6 103C129.28 103.588 127.87 103.953 126.43 104.08C125.21 104.21 124.22 104.21 123.53 104.22H122.74C122.65 104.229 122.56 104.229 122.47 104.22H122.74H123.53C124.21 104.22 125.2 104.16 126.42 104.02C127.837 103.877 129.222 103.506 130.52 102.92C131.282 102.563 131.987 102.095 132.61 101.53C133.27 100.919 133.809 100.19 134.2 99.38C134.614 98.5706 134.949 97.7234 135.2 96.85C135.43 96 135.63 95.18 135.82 94.39C136.19 92.82 136.48 91.39 136.71 90.19C136.94 88.99 137.1 88.01 137.22 87.34L137.35 86.56C137.335 86.4502 137.339 86.3387 137.36 86.23V86.23Z" fill="#1A2E35"/>
<path d="M127.45 97.93C127.252 97.6012 127.107 97.2435 127.02 96.87C126.874 96.5161 126.782 96.1417 126.75 95.76C127.1 96.4402 127.337 97.1733 127.45 97.93Z" fill="#1A2E35"/>
<path d="M128.56 97.6499C128.172 97.473 127.83 97.2096 127.56 96.8799C127.246 96.6067 126.999 96.2644 126.84 95.8799C127.142 96.1613 127.426 96.4619 127.69 96.7799C127.998 97.0515 128.288 97.3421 128.56 97.6499Z" fill="#1A2E35"/>
<path d="M110.62 98.27H110.7H110.95L111.87 98.11L115.32 97.57L126.92 95.82L126.84 95.9C126.9 95.23 126.97 94.52 127.04 93.8C127.27 91.24 127.52 88.8 127.64 86.59C127.722 85.5308 127.924 84.4842 128.24 83.47C128.488 82.5679 128.921 81.7269 129.51 81C130.384 79.9766 131.573 79.273 132.89 79C133.251 78.9417 133.619 78.9417 133.98 79L134.25 79.07H134.34C133.87 78.9504 133.38 78.9266 132.9 79C131.615 79.2906 130.46 79.9929 129.61 81C129.041 81.7142 128.626 82.538 128.39 83.42C128.077 84.4204 127.882 85.4541 127.81 86.5C127.7 88.72 127.46 91.16 127.22 93.72L127.02 95.82V95.89H126.94L115.34 97.59L111.88 98.07L110.95 98.19H110.71C110.65 98.2567 110.62 98.2833 110.62 98.27Z" fill="#1A2E35"/>
<path d="M121.72 104.17C121.504 102.959 121.35 101.737 121.26 100.51C121.104 99.2892 121.013 98.0607 120.99 96.8301C121.04 96.8301 121.24 98.4601 121.44 100.49C121.597 101.711 121.69 102.939 121.72 104.17V104.17Z" fill="#FAFAFA"/>
<path d="M135.91 93.18C135.501 93.2133 135.09 93.2133 134.68 93.18C133.92 93.18 132.86 93.18 131.68 93.1L128.68 92.96C128.268 92.9473 127.858 92.9106 127.45 92.85C127.863 92.8173 128.278 92.8173 128.69 92.85C129.45 92.85 130.5 92.85 131.69 92.93L134.69 93.07C135.099 93.0831 135.506 93.1198 135.91 93.18V93.18Z" fill="#FAFAFA"/>
<path d="M123.6 90.88C123.338 90.9481 123.07 90.9851 122.8 90.99C122.3 90.99 121.61 91.05 120.8 90.99C120.148 90.9832 119.497 90.9432 118.85 90.87C118.578 90.8589 118.309 90.8118 118.05 90.73C118.319 90.7085 118.59 90.7085 118.86 90.73L120.8 90.8H122.8C123.069 90.7934 123.337 90.8202 123.6 90.88V90.88Z" fill="#FAFAFA"/>
<path d="M125.21 82.4599C125.21 82.4599 124.43 82.1199 123.47 81.7599C122.51 81.3999 121.69 81.1899 121.7 81.1299C122.331 81.1756 122.95 81.3278 123.53 81.5799C124.135 81.777 124.703 82.0745 125.21 82.4599Z" fill="#FAFAFA"/>
<path d="M139.28 104.58L139.12 104.66L138.66 104.85C138.25 105.01 137.66 105.24 136.92 105.5C134.983 106.163 133.014 106.727 131.02 107.19C129.039 107.628 127.036 107.962 125.02 108.19C124.24 108.28 123.61 108.34 123.17 108.36H122.67H122.49H122.66L123.16 108.29L125 108.1C126.55 107.89 128.69 107.54 131 107.01C133.31 106.48 135.4 105.86 136.89 105.37C137.64 105.13 138.24 104.93 138.65 104.78L139.13 104.62C139.22 104.59 139.28 104.57 139.28 104.58Z" fill="#FAFAFA"/>
<path d="M138.13 83.38C138.13 83.38 136.04 83.38 133.46 83.32C130.88 83.26 128.8 83.13 128.8 83.08C128.8 83.03 130.89 83.08 133.47 83.14C136.05 83.2 138.13 83.33 138.13 83.38Z" fill="#FAFAFA"/>
<path d="M113.15 105.22C113.1 105.22 113 103.64 112.92 101.69C112.84 99.7399 112.83 98.1399 112.92 98.1399C113.01 98.1399 113.07 99.7199 113.15 101.68C113.209 102.859 113.209 104.041 113.15 105.22Z" fill="#FAFAFA"/>
<path d="M73.4999 68.9999C76.6576 68.4215 79.9152 68.7688 82.8799 69.9999C84.2367 70.4724 85.4046 71.3702 86.2099 72.5599C87.0499 74.0199 86.9099 75.8299 86.8199 77.5599C86.6395 80.9872 86.76 84.4237 87.1799 87.8299C87.6587 90.6482 87.9593 93.4938 88.0799 96.3499C88.183 99.2143 87.324 102.031 85.6399 104.35C82.8799 107.78 77.9599 108.74 73.6399 108.16C71.3213 107.921 69.0982 107.11 67.1699 105.8C66.2071 105.14 65.3978 104.28 64.7973 103.28C64.1967 102.279 63.819 101.16 63.6899 99.9999" fill="#385A64"/>
<path d="M79 73.3201C79.3903 73.8085 79.7256 74.3383 80 74.9001C80.2816 75.5283 80.5156 76.1768 80.7 76.8401C80.924 77.6626 81.1978 78.4708 81.52 79.2601C81.8546 80.0639 82.3797 80.7743 83.05 81.3301C83.6057 81.7672 84.293 82.0034 85 82.0001C85.4829 82.0043 85.9562 81.8651 86.36 81.6001C86.4712 81.5312 86.5722 81.447 86.66 81.3501L86.74 81.2501C86.74 81.2501 86.59 81.3601 86.31 81.5301C85.9093 81.7487 85.456 81.8525 85 81.8301C84.3242 81.8075 83.6758 81.5573 83.16 81.1201C82.5227 80.5798 82.0253 79.8937 81.71 79.1201C81.3879 78.3399 81.1108 77.5419 80.88 76.7301C80.6893 76.0413 80.4348 75.3717 80.12 74.7301C79.9035 74.308 79.6347 73.9149 79.32 73.5601C79.2233 73.4676 79.1158 73.387 79 73.3201Z" fill="#1A2E35"/>
<path d="M80.2202 107.88C80.2202 107.88 80.2202 107.79 80.2702 107.6L80.3802 106.8C80.4702 106.1 80.5802 105.08 80.7102 103.8C80.9802 101.29 81.3002 97.8 81.5802 93.98C81.8602 90.16 82.0202 86.65 82.1102 84.12C82.1102 82.86 82.1902 81.84 82.2002 81.12V80.31C82.2115 80.217 82.2115 80.123 82.2002 80.03C82.1856 80.1228 82.1856 80.2173 82.2002 80.31C82.2002 80.52 82.2002 80.79 82.2002 81.12C82.2002 81.85 82.1002 82.87 82.0402 84.12C81.9002 86.64 81.7002 90.12 81.4302 93.97C81.1602 97.82 80.8602 101.28 80.6402 103.8C80.5302 105.03 80.4402 106.04 80.3802 106.8L80.3102 107.61C80.2675 107.695 80.2372 107.786 80.2202 107.88Z" fill="#1A2E35"/>
<path d="M81.6201 92.4901C82.6336 92.6953 83.6661 92.7925 84.7001 92.7801C85.7318 92.8463 86.7676 92.8027 87.7901 92.6501C87.7901 92.5801 86.4001 92.6501 84.7001 92.5501C83.0001 92.4501 81.6201 92.4201 81.6201 92.4901Z" fill="#1A2E35"/>
<path d="M82.7299 92.6201C82.5945 92.8088 82.4992 93.0232 82.4499 93.2501C82.3673 93.4846 82.3038 93.7254 82.2599 93.9701C82.2252 94.1282 82.2252 94.292 82.2599 94.4501C82.2863 94.548 82.3396 94.6365 82.4139 94.7054C82.4882 94.7744 82.5804 94.8211 82.6799 94.8401C82.7909 94.8505 82.9017 94.8183 82.9899 94.7501C83.0619 94.6781 83.1136 94.5884 83.1399 94.4901C83.16 94.3341 83.16 94.1761 83.1399 94.0201C83.1143 93.7699 83.0674 93.5224 82.9999 93.2801C82.8799 92.8701 82.7499 92.6401 82.7199 92.6501C82.7425 92.8762 82.7827 93.1002 82.8399 93.3201C82.8847 93.558 82.9148 93.7985 82.9299 94.0401C82.9451 94.1697 82.9451 94.3006 82.9299 94.4301C82.9299 94.5501 82.8299 94.6201 82.7299 94.6001C82.6299 94.5801 82.4399 94.2601 82.4799 94.0101C82.5199 93.7601 82.5699 93.4901 82.6199 93.2901C82.6818 93.0717 82.7187 92.8469 82.7299 92.6201V92.6201Z" fill="#1A2E35"/>
<path d="M70.2592 69.8396L85.0911 70.329C86.9679 70.391 88.5395 68.9198 88.6014 67.043L88.6964 64.1646C88.7583 62.2878 87.2871 60.7162 85.4104 60.6543L70.5784 60.1649C68.7017 60.1029 67.1301 61.5741 67.0681 63.4509L66.9732 66.3293C66.9112 68.2061 68.3824 69.7777 70.2592 69.8396Z" fill="#1A2E35"/>
<path d="M85.0598 60.8301C85.0598 60.8301 85.0598 60.8301 84.9298 60.7501C84.7977 60.6936 84.6603 60.6501 84.5198 60.6201C83.9821 60.5433 83.434 60.6452 82.9598 60.9101C82.2497 61.2676 81.6461 61.8056 81.2098 62.4701C80.71 63.3041 80.4249 64.2489 80.3798 65.2201C80.3048 66.1879 80.5207 67.1559 80.9998 68.0001C81.3796 68.7052 81.9658 69.2774 82.6798 69.6401C83.153 69.8874 83.6761 70.0242 84.2098 70.0401C84.3526 70.0572 84.497 70.0572 84.6398 70.0401H84.7798C84.7798 70.0401 84.5798 70.0401 84.2098 70.0401C83.697 69.9874 83.2002 69.8309 82.7498 69.5801C82.0841 69.2113 81.5416 68.6549 81.1898 67.9801C80.7531 67.1548 80.5688 66.2194 80.6598 65.2901C80.7041 64.3571 80.9716 63.4484 81.4398 62.6401C81.8158 61.9885 82.353 61.4444 82.9998 61.0601C83.4391 60.7966 83.9488 60.6744 84.4598 60.7101C84.6621 60.7378 84.8624 60.7779 85.0598 60.8301V60.8301Z" fill="#385A64"/>
<path d="M76.7098 60.3201L78.9698 60.4301C78.3492 60.5235 77.7839 60.8399 77.3798 61.3201C76.9732 61.7888 76.676 62.3422 76.5098 62.9401C76.1516 64.2152 76.1626 65.5658 76.5414 66.835C76.9202 68.1042 77.6513 69.2398 78.6498 70.1101H76.8198C76.8198 70.1101 72.3798 64.7501 76.7098 60.3501" fill="#385A64"/>
<path d="M65.6902 56.0701C64.7702 53.8401 64.6902 49.9701 66.1302 47.9301C67.7433 45.8838 70.0407 44.4883 72.6002 44.0001C72.9969 43.873 73.4235 43.873 73.8202 44.0001C74.0161 44.0706 74.1773 44.2138 74.2704 44.4C74.3635 44.5862 74.3813 44.8011 74.3202 45.0001C74.7915 44.6741 75.3112 44.4244 75.8602 44.2601C76.1375 44.1831 76.4295 44.1757 76.7103 44.2385C76.9911 44.3013 77.2521 44.4323 77.4702 44.6201C77.5742 44.7171 77.6581 44.8337 77.7169 44.9632C77.7758 45.0927 77.8085 45.2325 77.8131 45.3747C77.8177 45.5169 77.7943 45.6585 77.744 45.7916C77.6937 45.9247 77.6177 46.0465 77.5202 46.1501C77.8625 46.026 78.2333 46.0034 78.5881 46.085C78.9429 46.1666 79.2666 46.3489 79.5202 46.6101C79.7613 46.8764 79.9229 47.205 79.9865 47.5585C80.0501 47.9121 80.0133 48.2764 79.8802 48.6101C79.5477 49.2898 79.0897 49.9006 78.5302 50.4101C78.2922 50.6114 78.116 50.8761 78.0222 51.1734C77.9284 51.4708 77.9208 51.7886 78.0002 52.0901" fill="#1A2E35"/>
<path d="M66.2699 52L65.6299 65.63C65.6042 66.1802 65.6905 66.73 65.8835 67.2459C66.0764 67.7618 66.3722 68.2332 66.7527 68.6315C67.1332 69.0298 67.5906 69.3467 68.0972 69.563C68.6038 69.7793 69.1491 69.8906 69.6999 69.89V69.89C70.7351 69.8733 71.725 69.4627 72.4681 68.7419C73.2112 68.0211 73.6517 67.0441 73.6999 66.01C73.6999 65.01 73.7899 64.13 73.7999 64.01C74.7673 63.9622 75.6872 63.5769 76.3998 62.921C77.1124 62.265 77.5724 61.38 77.6999 60.42C77.8999 58.77 78.0299 55.33 78.1099 52.21C78.1521 50.597 77.5863 49.0272 76.5248 47.812C75.4634 46.5968 73.9839 45.8251 72.3799 45.65H72.0499C68.5099 45.44 66.3499 48.39 66.2699 52Z" fill="#FFBF9E"/>
<path d="M73.8598 64C72.2745 63.8603 70.7669 63.251 69.5298 62.25C69.5298 62.25 70.2098 64.39 73.6598 64.45L73.8598 64Z" fill="#FF9A6E"/>
<path d="M76.9201 54.4C76.9074 54.5283 76.8447 54.6464 76.7455 54.7288C76.6463 54.8112 76.5186 54.8511 76.3901 54.84C76.3275 54.8387 76.2658 54.8249 76.2086 54.7995C76.1514 54.774 76.0999 54.7374 76.057 54.6917C76.0142 54.6461 75.9809 54.5923 75.9591 54.5337C75.9373 54.475 75.9274 54.4125 75.9301 54.35C75.9452 54.2218 76.0082 54.1041 76.1066 54.0206C76.2049 53.9371 76.3312 53.894 76.4601 53.9C76.5866 53.9077 76.7051 53.9641 76.7908 54.0573C76.8766 54.1505 76.9229 54.2733 76.9201 54.4Z" fill="#1A2E35"/>
<path d="M77.2399 53.81C77.1799 53.87 76.8399 53.56 76.3099 53.5C75.7799 53.44 75.3699 53.67 75.3099 53.6C75.2499 53.53 75.3099 53.46 75.5399 53.35C75.7847 53.2189 76.0641 53.1665 76.3399 53.2C76.6158 53.227 76.8754 53.3428 77.0799 53.53C77.2399 53.67 77.2799 53.79 77.2399 53.81Z" fill="#1A2E35"/>
<path d="M71.73 54.0001C71.7173 54.1284 71.6546 54.2466 71.5554 54.3289C71.4562 54.4113 71.3285 54.4513 71.2 54.4401C71.1378 54.4389 71.0766 54.4251 71.0199 54.3995C70.9632 54.3739 70.9123 54.3371 70.8702 54.2913C70.8282 54.2455 70.7958 54.1917 70.7752 54.133C70.7545 54.0744 70.7459 54.0122 70.75 53.9501C70.755 53.887 70.7725 53.8255 70.8014 53.7692C70.8303 53.7128 70.8701 53.6628 70.9184 53.6219C70.9668 53.581 71.0227 53.55 71.0831 53.5309C71.1434 53.5117 71.2069 53.5046 71.27 53.5101C71.3326 53.5114 71.3943 53.5251 71.4515 53.5506C71.5087 53.576 71.5603 53.6127 71.6031 53.6583C71.646 53.704 71.6793 53.7577 71.701 53.8164C71.7228 53.8751 71.7327 53.9375 71.73 54.0001V54.0001Z" fill="#1A2E35"/>
<path d="M72.0499 53.3501C71.9899 53.4101 71.6399 53.1001 71.1199 53.0401C70.5999 52.9801 70.1799 53.2101 70.1199 53.1401C70.0599 53.0701 70.1199 53.0001 70.3499 52.8901C70.5948 52.759 70.8742 52.7066 71.1499 52.7401C71.4258 52.767 71.6855 52.8828 71.8899 53.0701C71.9999 53.2101 72.0899 53.3301 72.0499 53.3501Z" fill="#1A2E35"/>
<path d="M73.5498 57.47C73.8362 57.414 74.1284 57.3938 74.4198 57.41C74.5498 57.41 74.6798 57.41 74.7198 57.3C74.7605 57.1698 74.7605 57.0303 74.7198 56.9L74.4298 55.83C74.1575 54.9205 73.9569 53.991 73.8298 53.05C74.1751 53.9334 74.4493 54.843 74.6498 55.7701C74.7498 56.1501 74.8398 56.5 74.9198 56.85C74.9852 57.0207 74.9852 57.2094 74.9198 57.38C74.8947 57.4263 74.8589 57.4658 74.8154 57.4954C74.7719 57.5249 74.722 57.5437 74.6698 57.55C74.5934 57.5598 74.5162 57.5598 74.4398 57.55C74.1409 57.5616 73.8418 57.5347 73.5498 57.47Z" fill="#1A2E35"/>
<path d="M71.9998 57.67C72.0798 57.67 71.9998 58.24 72.4698 58.67C72.9398 59.1 73.5298 59.13 73.4698 59.21C73.4098 59.29 73.3298 59.31 73.0698 59.29C72.7328 59.2597 72.4175 59.1109 72.1798 58.87C71.9545 58.6357 71.8259 58.325 71.8198 58C71.8398 57.79 71.9198 57.66 71.9998 57.67Z" fill="#1A2E35"/>
<path d="M72.4098 51.3C72.3498 51.44 71.8298 51.3 71.1998 51.3C70.5698 51.3 70.0598 51.42 69.9898 51.3C69.9198 51.18 70.0598 51.11 70.2798 50.99C70.5654 50.8476 70.8808 50.7756 71.1998 50.78C71.5189 50.7756 71.8343 50.8476 72.1198 50.99C72.3398 51.11 72.4398 51.24 72.4098 51.3Z" fill="#1A2E35"/>
<path d="M77.2198 52.27C77.1098 52.38 76.7598 52.22 76.3198 52.16C75.8798 52.1 75.5098 52.16 75.4398 52.02C75.3698 51.88 75.4398 51.84 75.6498 51.75C75.8809 51.6319 76.1434 51.5899 76.3998 51.63C76.6555 51.659 76.8945 51.7715 77.0798 51.95C77.2298 52.09 77.2598 52.21 77.2198 52.27Z" fill="#1A2E35"/>
<path d="M66.2802 54.5599C66.2202 54.5599 64.0002 53.5599 63.8202 55.9599C63.7726 56.2543 63.7997 56.5559 63.8991 56.837C63.9985 57.1182 64.1669 57.3699 64.3889 57.569C64.6109 57.7681 64.8794 57.9082 65.1696 57.9765C65.4599 58.0448 65.7627 58.0391 66.0502 57.9599C66.0602 57.8699 66.2802 54.5599 66.2802 54.5599Z" fill="#FFBF9E"/>
<path d="M65.4 57.0001C65.4 57.0001 65.4 57.0001 65.29 57.0501C65.2408 57.0614 65.1898 57.0629 65.14 57.0543C65.0902 57.0457 65.0426 57.0272 65 57.0001C64.855 56.8938 64.7413 56.7504 64.671 56.585C64.6006 56.4196 64.5761 56.2382 64.6 56.0601C64.6091 55.8571 64.6638 55.6589 64.76 55.4801C64.7865 55.408 64.8306 55.3438 64.8882 55.2931C64.9458 55.2425 65.0152 55.207 65.09 55.1901C65.1376 55.1801 65.1872 55.1877 65.2296 55.2117C65.2719 55.2356 65.3041 55.2741 65.32 55.3201C65.32 55.3901 65.32 55.4401 65.32 55.4401C65.32 55.4401 65.38 55.4401 65.32 55.3101C65.3193 55.2791 65.3118 55.2488 65.2979 55.2211C65.2841 55.1935 65.2643 55.1692 65.24 55.1501C65.18 55.0957 65.101 55.0669 65.02 55.0701C64.922 55.0828 64.8289 55.1209 64.75 55.1805C64.6712 55.2401 64.6091 55.3192 64.57 55.4101C64.4546 55.605 64.3862 55.8241 64.37 56.0501C64.3414 56.2596 64.3766 56.4728 64.4712 56.662C64.5658 56.8511 64.7152 57.0073 64.9 57.1101C64.9574 57.1391 65.0208 57.1542 65.085 57.1542C65.1493 57.1542 65.2127 57.1391 65.27 57.1101C65.39 57.0501 65.41 57.0001 65.4 57.0001Z" fill="#FF9A6E"/>
<path d="M79.9999 47.89C79.9986 48.507 79.8151 49.1097 79.4723 49.6227C79.1296 50.1356 78.6429 50.5358 78.0734 50.773C77.5039 51.0102 76.877 51.0738 76.2714 50.9559C75.6659 50.8379 75.1087 50.5437 74.6699 50.11C73.9699 49.27 73.3799 48.23 72.3699 47.79C72.0233 47.6575 71.6537 47.5954 71.2829 47.6074C70.912 47.6194 70.5472 47.7053 70.2099 47.86V47.86C69.7146 48.1129 69.285 48.4778 68.9552 48.9256C68.6254 49.3734 68.4044 49.892 68.3099 50.44C67.9899 51.93 68.1299 53.28 67.6299 54.64C67.5755 54.8401 67.4601 55.0184 67.2999 55.15C67.1359 55.2131 66.955 55.2167 66.7887 55.16C66.6224 55.1034 66.4813 54.9901 66.3899 54.84C66.0748 54.3661 65.9077 53.8092 65.9099 53.24C65.8002 51.9567 65.9498 50.6644 66.3499 49.44C66.7475 48.2131 67.499 47.131 68.5099 46.33C69.7987 45.3729 71.4071 44.9502 72.9999 45.15C74.6021 45.3686 76.0937 46.0898 77.2599 47.21C77.8309 47.6913 78.274 48.3062 78.5499 49" fill="#1A2E35"/>
<path d="M77.64 46.0001C77.7448 45.9716 77.8553 45.9716 77.96 46.0001C78.2531 46.0855 78.5141 46.2561 78.71 46.4901C79.0083 46.8326 79.1811 47.2664 79.2 47.7201C79.2033 48.2766 79.0002 48.8146 78.63 49.2301C78.2737 49.6512 77.8058 49.9632 77.28 50.1301C76.8601 50.2647 76.4209 50.3289 75.98 50.3201C75.6844 50.3117 75.39 50.2782 75.1 50.2201C74.9925 50.2071 74.8878 50.1767 74.79 50.1301C74.79 50.1301 75.25 50.2001 75.98 50.1901C76.4041 50.1923 76.8258 50.1282 77.23 50.0001C77.7186 49.8347 78.1537 49.5412 78.49 49.1501C78.838 48.7669 79.0305 48.2677 79.03 47.7501C79.0137 47.3323 78.8668 46.9301 78.61 46.6001C78.4315 46.3781 78.2015 46.2031 77.94 46.0901C77.75 46.0501 77.64 46.0001 77.64 46.0001Z" fill="#385A64"/>
<path d="M76.1499 44.8201C76.1499 44.8201 76.2399 44.8201 76.3699 44.8801C76.4617 44.9374 76.5391 45.015 76.5963 45.1068C76.6535 45.1987 76.6889 45.3024 76.6999 45.4101C76.719 45.7264 76.6309 46.0399 76.4499 46.3001C76.2516 46.6134 76.0129 46.8992 75.7399 47.1501C75.2367 47.6028 74.6282 47.9225 73.9699 48.0801C73.7065 48.1701 73.4257 48.1975 73.1499 48.1601C73.1499 48.1601 73.4599 48.1101 73.9399 47.9601C74.5667 47.7545 75.1404 47.413 75.6199 46.9601C75.8827 46.7235 76.1145 46.4547 76.3099 46.1601C76.4807 45.9323 76.5721 45.6548 76.5699 45.3701C76.5558 45.1848 76.4696 45.0125 76.3299 44.8901C76.2199 44.8501 76.1399 44.8401 76.1499 44.8201Z" fill="#385A64"/>
<path d="M66.1801 78.3099L67.2801 70.2499L51.4401 73.4299L37.0001 68.4399L33.1001 72.4399L48.4401 80.3399C49.8093 80.9917 51.3513 81.1879 52.8401 80.8999L66.1801 78.3099Z" fill="#FFBF9E"/>
<path d="M37 68.4399C37 68.4399 31.49 65.7999 31.13 65.7099C30.77 65.6199 26.7 65.4199 24.8 65.3199C24.7225 65.3121 24.6443 65.3195 24.5697 65.3419C24.4951 65.3643 24.4256 65.4011 24.3652 65.4503C24.2434 65.5497 24.1659 65.6935 24.15 65.8499C24.1421 65.9274 24.1496 66.0057 24.172 66.0803C24.1943 66.1549 24.2312 66.2243 24.2804 66.2847C24.3296 66.3451 24.3902 66.3951 24.4588 66.4321C24.5274 66.469 24.6025 66.4921 24.68 66.4999H24.76C25.76 66.5899 28.14 67.1199 28.14 67.1199L27.12 69.6099C27.0667 69.7323 27.0564 69.8692 27.091 69.9981C27.1255 70.1271 27.2027 70.2405 27.31 70.3199L30.52 72.6899C30.9389 72.8802 31.4004 72.9572 31.8584 72.9134C32.3164 72.8695 32.7548 72.7063 33.13 72.4399V72.4399L34.55 72.7299L37 68.4399Z" fill="#FFBF9E"/>
<path d="M27.1001 69.75C27.303 70.1327 27.5954 70.4608 27.9523 70.7063C28.3092 70.9518 28.7201 71.1074 29.1501 71.16C29.3339 71.1681 29.5136 71.1034 29.6501 70.98C29.7188 70.9189 29.7671 70.8382 29.7885 70.7488C29.81 70.6595 29.8036 70.5656 29.7701 70.48C29.712 70.3754 29.6297 70.2863 29.5301 70.22L27.6501 68.76" fill="#FFBF9E"/>
<path d="M27.6501 68.76C27.9265 68.9111 28.1878 69.0886 28.4301 69.29L29.2501 69.9C29.4101 70.02 29.5601 70.12 29.7401 70.28C29.8311 70.3704 29.8846 70.4918 29.8901 70.62C29.8947 70.7536 29.8522 70.8846 29.7701 70.99C29.69 71.0816 29.5893 71.153 29.4763 71.1982C29.3633 71.2433 29.2413 71.2611 29.1201 71.25C28.9058 71.2393 28.6955 71.1885 28.5001 71.1C28.1776 70.9694 27.8825 70.7795 27.6301 70.54C27.4515 70.3859 27.2994 70.2035 27.1801 70C27.0901 69.85 27.0901 69.75 27.1001 69.75C27.1101 69.75 27.1001 69.83 27.2401 69.96C27.375 70.14 27.533 70.3013 27.7101 70.44C27.9671 70.6504 28.2535 70.8222 28.5601 70.95C28.7377 71.0242 28.9276 71.0649 29.1201 71.07C29.2148 71.0787 29.3102 71.0652 29.3988 71.0305C29.4873 70.9958 29.5665 70.9408 29.6301 70.87C29.6877 70.8073 29.7197 70.7252 29.7197 70.64C29.7197 70.5548 29.6877 70.4727 29.6301 70.41C29.4901 70.28 29.3101 70.15 29.1701 70.03L28.3701 69.39C28.1073 69.2075 27.8658 68.9962 27.6501 68.76V68.76Z" fill="#FF9A6E"/>
<path d="M31.5499 71.18C31.5499 71.18 31.4299 71.12 31.3099 70.94C31.1651 70.7042 31.0827 70.4354 31.0704 70.159C31.0582 69.8826 31.1165 69.6076 31.2399 69.36C31.3399 69.17 31.4399 69.09 31.4599 69.1C31.3389 69.4201 31.2713 69.7579 31.2599 70.1C31.3015 70.4725 31.3992 70.8367 31.5499 71.18V71.18Z" fill="#FF9A6E"/>
<path d="M29.3502 69.91C29.4335 70.043 29.558 70.145 29.7047 70.2007C29.8514 70.2564 30.0122 70.2627 30.1628 70.2185C30.3134 70.1744 30.4454 70.0822 30.5388 69.9562C30.6322 69.8301 30.6818 69.6769 30.6802 69.52C30.6513 69.3196 30.5813 69.1274 30.4746 68.9553C30.3679 68.7832 30.2268 68.635 30.0602 68.52L28.6802 67.28" fill="#FFBF9E"/>
<path d="M28.6802 67.28C28.8853 67.4021 29.0764 67.5463 29.2502 67.71L29.8502 68.22C30.0998 68.4259 30.3307 68.6535 30.5402 68.9C30.6568 69.0402 30.7329 69.2097 30.7602 69.39C30.7876 69.5621 30.7559 69.7383 30.6702 69.89C30.602 70.0187 30.4996 70.1259 30.3743 70.2001C30.2491 70.2742 30.1057 70.3122 29.9602 70.31C29.7671 70.301 29.5847 70.2188 29.4502 70.08C29.3602 69.99 29.3402 69.92 29.3502 69.91C29.3602 69.9 29.4002 69.96 29.5002 70.03C29.6322 70.1295 29.7951 70.1791 29.9602 70.17C30.0778 70.1683 30.1926 70.1337 30.2916 70.07C30.3906 70.0064 30.4698 69.9163 30.5202 69.81C30.5787 69.6792 30.5985 69.5342 30.5773 69.3925C30.556 69.2507 30.4946 69.118 30.4002 69.01C30.1945 68.7728 29.9704 68.5522 29.7302 68.35L29.1702 67.81C28.9831 67.6569 28.8182 67.4785 28.6802 67.28V67.28Z" fill="#FF9A6E"/>
<path d="M31.7102 67.0701C30.5971 67.3315 29.5357 67.7777 28.5702 68.3901C28.5382 68.4021 28.5092 68.4208 28.4851 68.445C28.4609 68.4691 28.4422 68.4981 28.4302 68.5301C28.4302 68.6201 28.4302 68.7101 28.5502 68.7701C28.8426 68.9704 29.1987 69.0559 29.5502 69.0101C29.9079 68.9536 30.2684 68.9169 30.6302 68.9001C31.255 68.9809 31.8668 69.1422 32.4502 69.3801C32.7457 69.4932 33.0663 69.5242 33.378 69.4696C33.6897 69.415 33.9807 69.2769 34.2202 69.0701" fill="#FFBF9E"/>
<path d="M34.2598 69.0701C34.2456 69.1007 34.2252 69.1279 34.1998 69.1501C34.1331 69.2245 34.0555 69.2886 33.9698 69.3401C33.6488 69.5131 33.2811 69.5796 32.9198 69.5301C32.4018 69.4348 31.8932 69.2943 31.3998 69.1101C31.1122 69.0193 30.8112 68.9787 30.5098 68.9901C30.1998 68.9901 29.8798 69.0801 29.5098 69.1001C29.1585 69.1413 28.8041 69.0562 28.5098 68.8601C28.4248 68.8068 28.3611 68.7254 28.3298 68.6301C28.31 68.5717 28.31 68.5084 28.3298 68.4501C28.3558 68.4041 28.3938 68.366 28.4398 68.3401L28.8298 68.1001C29.2931 67.8454 29.7744 67.6248 30.2698 67.4401C30.5976 67.3196 30.9314 67.2161 31.2698 67.1301C31.3939 67.0961 31.5213 67.076 31.6498 67.0701C31.6498 67.0701 31.1198 67.2301 30.2898 67.5601C29.8119 67.7595 29.3476 67.99 28.8998 68.2501L28.5198 68.4801C28.4598 68.5301 28.4498 68.5501 28.4498 68.5901C28.4753 68.6448 28.5172 68.6903 28.5698 68.7201C28.8349 68.8864 29.149 68.957 29.4598 68.9201C29.7798 68.9201 30.1098 68.8201 30.4598 68.8101C30.7823 68.7989 31.1042 68.8464 31.4098 68.9501C31.8916 69.1355 32.3863 69.2859 32.8898 69.4001C33.2277 69.4578 33.5751 69.4161 33.8898 69.2801C34.0188 69.2205 34.1425 69.1503 34.2598 69.0701V69.0701Z" fill="#FF9A6E"/>
<path d="M51.6901 76.2201C51.4994 75.7719 51.4106 75.2869 51.4301 74.8001C51.3875 74.3161 51.4489 73.8285 51.6101 73.3701C51.6101 73.3701 51.6101 74.0101 51.6101 74.8001C51.6101 75.5901 51.7401 76.2101 51.6901 76.2201Z" fill="#FF9A6E"/>
<path d="M65.5501 66.51L61.0501 71.58C61.0501 71.58 58.6501 89.07 58.4801 90.44C58.3101 91.81 57.8501 96.21 57.8501 97.44C57.8501 98.67 56.8501 107.23 56.8501 107.23C56.8501 107.23 75.9201 111.23 79.1101 107.23L78.1101 99.88L79.0001 81.6C79.0001 81.6 80.4301 68.94 73.7501 66C73.7501 66 69.5301 68.54 65.5501 66.51Z" fill="#FFE55C"/>
<path d="M76.81 67.7899C76.81 67.7899 75.49 66.4899 71.29 67.5799C66.87 68.7299 64.53 72.8699 65.63 84.5799C66.53 94.2499 70.36 95.6399 70.36 95.6399C70.36 95.6399 68.27 81.0799 68.63 74.9999C69.08 67.2899 76.81 69.2099 76.81 69.2099C77.91 68.8299 76.81 67.7899 76.81 67.7899Z" fill="#1A2E35"/>
<path d="M65.5499 66.51L61.6599 67.58L52.9199 72.93L55.4099 80.84L60.5499 80.28L65.5499 66.51Z" fill="#FFE55C"/>
<path d="M60.4901 72C60.4901 72 60.3201 74.83 60.0001 78.31C59.6801 81.79 59.3701 84.61 59.3201 84.61C59.2701 84.61 59.4901 81.78 59.8201 78.29C60.1501 74.8 60.4401 72 60.4901 72Z" fill="#1A2E35"/>
<path d="M78.29 96.57C78.29 96.57 77.04 100.57 72.66 93.97C68.28 87.37 68.89 90.33 68.89 90.33L68 91.4C68 91.4 72.82 102.26 78.24 100.56L78.29 96.57Z" fill="#1A2E35"/>
<path opacity="0.3" d="M60.3199 73.8999L56.8599 80.6799L59.7199 80.3699L60.3199 73.8999Z" fill="black"/>
<g opacity="0.3">
<path opacity="0.3" d="M58.73 91.9001C61.2749 94.6681 64.2791 96.9754 67.61 98.7201C68.9531 99.5571 70.5192 99.9652 72.1 99.8901C72.956 99.7408 73.7647 99.3913 74.4599 98.8699C75.155 98.3485 75.717 97.6701 76.1 96.8901C76.91 95.3601 76.79 94.6301 76.99 92.8901C77.2 91.0001 77.2 88.4701 77.3 86.7401C77.3 86.4401 77.3 86.0801 77.3 85.7401C77.2995 85.3744 77.417 85.0183 77.635 84.7246C77.8529 84.431 78.1598 84.2155 78.51 84.1101C77.9637 83.8493 77.3653 83.716 76.76 83.7201C76.4162 83.8045 76.0954 83.964 75.8205 84.187C75.5456 84.41 75.3235 84.6911 75.17 85.0101C73.22 88.2201 74.07 92.9201 70.36 94.9101C69.1296 95.5467 67.7218 95.7543 66.36 95.5001C63.36 95.0001 60.99 93.0101 58.75 91.0601" fill="black"/>
</g>
<path d="M62.93 85.2599C63.8578 85.2599 64.61 82.9945 64.61 80.1999C64.61 77.4053 63.8578 75.1399 62.93 75.1399C62.0022 75.1399 61.25 77.4053 61.25 80.1999C61.25 82.9945 62.0022 85.2599 62.93 85.2599Z" fill="#FAFAFA"/>
<path d="M63.83 168.23L64.21 176.56C64.21 176.56 55.87 179.76 55.79 181.3L72 181.13L71.93 168.13L63.83 168.23Z" fill="#FFE55C"/>
<g opacity="0.6">
<path opacity="0.6" d="M69.21 175.81C69.3655 175.857 69.4983 175.959 69.5832 176.097C69.6681 176.236 69.699 176.4 69.67 176.56C69.6318 176.717 69.5348 176.853 69.3989 176.941C69.263 177.028 69.0987 177.06 68.94 177.03C68.7725 176.983 68.629 176.874 68.5381 176.726C68.4473 176.578 68.4158 176.401 68.45 176.23C68.5068 176.069 68.6246 175.937 68.778 175.862C68.9315 175.787 69.1082 175.776 69.27 175.83" fill="white"/>
</g>
<path opacity="0.6" d="M71.9998 181.13V179.84L56.4498 180.47C56.4498 180.47 55.7398 180.8 55.8198 181.3L71.9998 181.13Z" fill="white"/>
<path d="M63.9999 176.48C63.9999 176.56 64.3999 176.6 64.7899 176.85C65.1799 177.1 65.3899 177.43 65.4599 177.39C65.5299 177.35 65.4599 176.91 64.9399 176.61C64.4199 176.31 63.9299 176.41 63.9999 176.48Z" fill="#1A2E35"/>
<path d="M62.2598 177.2C62.2598 177.28 62.5898 177.41 62.8598 177.74C63.1298 178.07 63.2098 178.43 63.2898 178.42C63.3698 178.41 63.4098 177.97 63.0698 177.57C62.7298 177.17 62.2598 177.13 62.2598 177.2Z" fill="#1A2E35"/>
<path d="M61.3198 179.25C61.3898 179.25 61.4898 178.87 61.3198 178.44C61.1498 178.01 60.7398 177.84 60.7098 177.9C60.6798 177.96 60.8998 178.2 61.0698 178.55C61.2398 178.9 61.2398 179.24 61.3198 179.25Z" fill="#1A2E35"/>
<path d="M64.0698 174.58C64.0698 174.65 64.4698 174.53 64.9098 174.58C65.3498 174.63 65.7098 174.74 65.7498 174.68C65.7898 174.62 65.4498 174.33 64.9298 174.31C64.4098 174.29 63.9998 174.51 64.0698 174.58Z" fill="#1A2E35"/>
<path opacity="0.3" d="M63.9102 169.88L63.9702 171.37L71.9202 171.21V169.87L63.9102 169.88Z" fill="black"/>
<path d="M64.0002 172.89C64.0002 172.89 64.3102 172.97 64.8102 172.89C65.1009 172.837 65.3833 172.746 65.6502 172.62C65.8096 172.548 65.9634 172.465 66.1102 172.37C66.2031 172.32 66.2874 172.256 66.3602 172.18C66.4042 172.119 66.4278 172.045 66.4278 171.97C66.4278 171.895 66.4042 171.821 66.3602 171.76C66.321 171.704 66.2686 171.658 66.2076 171.626C66.1466 171.595 66.0788 171.579 66.0102 171.58C65.9106 171.567 65.8098 171.567 65.7102 171.58C65.5362 171.628 65.3658 171.688 65.2002 171.76C64.9327 171.893 64.6838 172.061 64.4602 172.26C64.2444 172.431 64.0815 172.66 63.9902 172.92C63.9902 172.92 64.2102 172.7 64.5902 172.41C64.8095 172.237 65.0519 172.096 65.3102 171.99C65.4581 171.927 65.6123 171.88 65.7702 171.85C65.9402 171.85 66.0902 171.85 66.1302 171.85C66.1702 171.85 66.1302 171.85 66.1302 171.94C66.0788 171.997 66.0179 172.044 65.9502 172.08C65.8123 172.172 65.6687 172.256 65.5202 172.33C65.2713 172.459 65.01 172.563 64.7402 172.64C64.4892 172.71 64.2421 172.793 64.0002 172.89V172.89Z" fill="#1A2E35"/>
<path d="M64.1299 173C64.2798 172.765 64.3532 172.489 64.3399 172.21C64.3491 171.909 64.3086 171.608 64.2199 171.32C64.1573 171.152 64.0838 170.988 63.9999 170.83C63.9556 170.724 63.8843 170.631 63.7931 170.561C63.7019 170.491 63.5939 170.445 63.4799 170.43C63.4086 170.432 63.3394 170.455 63.2809 170.496C63.2223 170.537 63.1768 170.594 63.1499 170.66C63.1014 170.753 63.0741 170.855 63.0699 170.96C63.0399 171.139 63.0399 171.321 63.0699 171.5C63.1201 171.805 63.2437 172.093 63.4299 172.34C63.58 172.575 63.8115 172.746 64.0799 172.82C64.0799 172.82 63.8299 172.63 63.5899 172.23C63.4492 171.998 63.3573 171.739 63.3199 171.47C63.305 171.314 63.305 171.156 63.3199 171C63.3199 170.83 63.4099 170.69 63.4699 170.71C63.5299 170.73 63.6899 170.83 63.7599 170.97C63.8399 171.112 63.91 171.259 63.9699 171.41C64.0606 171.668 64.1145 171.937 64.1299 172.21C64.1699 172.7 64.0899 173 64.1299 173Z" fill="#1A2E35"/>
<path d="M79.5098 163.17L86.0498 168.34C86.0498 168.34 82.9898 176.73 84.1098 177.81L94.5898 165.48L84.7298 157L79.5098 163.17Z" fill="#FFE55C"/>
<g opacity="0.6">
<path opacity="0.6" d="M88.7598 164.08C88.8966 163.992 89.0611 163.958 89.2216 163.983C89.3822 164.009 89.5275 164.094 89.6298 164.22C89.7205 164.353 89.7575 164.516 89.7334 164.675C89.7093 164.835 89.6259 164.979 89.4998 165.08C89.3555 165.175 89.181 165.212 89.0107 165.184C88.8404 165.156 88.6866 165.065 88.5798 164.93C88.4954 164.782 88.4723 164.608 88.5153 164.443C88.5583 164.279 88.664 164.137 88.8098 164.05" fill="white"/>
</g>
<path opacity="0.6" d="M94.5899 165.48L93.5899 164.63L83.8999 176.79C83.8999 176.79 83.6699 177.54 84.1099 177.79L94.5899 165.48Z" fill="white"/>
<path d="M85.8201 168.49C85.8801 168.49 86.1601 168.26 86.6101 168.13C87.0601 168 87.4401 168.06 87.4701 167.98C87.5001 167.9 87.0601 167.7 86.5301 167.87C86.0001 168.04 85.7501 168.46 85.8201 168.49Z" fill="#1A2E35"/>
<path d="M85.2501 170.24C85.2501 170.3 85.6201 170.13 86.0501 170.14C86.4801 170.15 86.8001 170.32 86.8501 170.26C86.9001 170.2 86.5901 169.87 86.0601 169.87C85.5301 169.87 85.2001 170.19 85.2501 170.24Z" fill="#1A2E35"/>
<path d="M86.18 172.29C86.24 172.29 86.01 171.91 85.54 171.78C85.07 171.65 84.71 171.78 84.74 171.89C84.77 172 85.09 171.94 85.47 172.05C85.85 172.16 86.12 172.34 86.18 172.29Z" fill="#1A2E35"/>
<path d="M84.4602 167.15C84.5302 167.15 84.6902 166.82 85.0002 166.5C85.3102 166.18 85.6402 166.01 85.6202 165.93C85.6002 165.85 85.1602 165.93 84.8002 166.31C84.4402 166.69 84.3902 167.14 84.4602 167.15Z" fill="#1A2E35"/>
<path opacity="0.3" d="M80.7998 164.19L81.9698 165.12L87.0698 159.01L86.0598 158.14L80.7998 164.19Z" fill="black"/>
<path d="M83.1601 166.08C83.1601 166.08 83.4201 165.89 83.6801 165.46C83.8332 165.204 83.951 164.928 84.0301 164.64C84.0831 164.474 84.1199 164.303 84.1401 164.13C84.1611 164.028 84.1611 163.922 84.1401 163.82C84.1283 163.745 84.0929 163.675 84.039 163.621C83.9851 163.567 83.9154 163.532 83.8401 163.52C83.7724 163.514 83.7043 163.524 83.6416 163.551C83.5789 163.577 83.5235 163.618 83.4801 163.67C83.41 163.743 83.3526 163.828 83.3101 163.92C83.2354 164.082 83.1719 164.249 83.1201 164.42C83.0391 164.709 83.002 165.009 83.0101 165.31C82.9908 165.587 83.0571 165.862 83.2001 166.1C83.2001 166.1 83.2001 165.79 83.2001 165.31C83.2193 165.034 83.2731 164.762 83.3601 164.5C83.4106 164.345 83.4741 164.194 83.5501 164.05C83.6301 163.89 83.7201 163.78 83.8101 163.79C83.9001 163.8 83.8101 163.79 83.8701 163.87C83.8795 163.943 83.8795 164.017 83.8701 164.09L83.7801 164.58C83.7085 164.85 83.6148 165.115 83.5001 165.37C83.3001 165.81 83.1201 166.05 83.1601 166.08Z" fill="#1A2E35"/>
<path d="M83.3099 166.07C83.3099 166.07 83.2199 165.76 82.8499 165.4C82.6298 165.195 82.3761 165.029 82.0999 164.91C81.9378 164.843 81.7706 164.79 81.5999 164.75C81.4895 164.714 81.3718 164.708 81.258 164.73C81.1442 164.753 81.0382 164.805 80.9499 164.88C80.9038 164.935 80.8745 165.002 80.8657 165.073C80.8568 165.144 80.8687 165.216 80.8999 165.28C80.9448 165.374 81.0019 165.461 81.0699 165.54C81.1901 165.679 81.3319 165.797 81.4899 165.89C81.7475 166.056 82.0438 166.153 82.3499 166.17C82.6298 166.216 82.9168 166.152 83.1499 165.99C82.8903 166.011 82.6295 166.011 82.3699 165.99C82.1056 165.941 81.8539 165.839 81.6299 165.69C81.4975 165.606 81.3793 165.501 81.2799 165.38C81.1699 165.25 81.0999 165.11 81.1599 165.07C81.2196 165.043 81.2844 165.029 81.3499 165.029C81.4154 165.029 81.4802 165.043 81.5399 165.07C81.7007 165.097 81.8582 165.14 82.0099 165.2C82.2672 165.3 82.5094 165.434 82.7299 165.6C83.0999 165.84 83.2699 166.1 83.3099 166.07Z" fill="#1A2E35"/>
<path d="M61.3601 133C61.3601 133 61.8001 113.09 61.3601 113.09C60.1518 112.594 58.9819 112.009 57.8601 111.34L54.0001 140.9C54.0001 140.9 53.6501 144.22 57.7601 146.56C61.8701 148.9 80.2401 165.24 80.2401 165.24L86.4601 157.67C86.4601 157.67 74.3701 145.06 69.4601 140.9C66.618 138.416 63.914 135.779 61.3601 133V133Z" fill="#1A2E35"/>
<path d="M72.6298 128.34L72.9998 125.19C72.9998 125.19 75.9998 118.82 76.4698 116.09C76.7207 113.234 76.7675 110.363 76.6098 107.5H57.5298C57.5298 107.5 57.6098 129.08 59.9198 135.14C59.9198 135.14 61.0898 146.73 61.2598 147.7C61.6298 149.76 62.8998 170.87 62.8998 170.87L72.5498 170.52C72.5498 170.52 73.3798 151.11 72.7098 145.61C72.3798 142.88 72.2298 139.97 72.1498 137.61C72.0572 134.512 72.2178 131.412 72.6298 128.34V128.34Z" fill="#1A2E35"/>
<path d="M58.0498 113.79C58.0498 113.79 58.0498 113.79 58.0498 113.89V114.16L58.1098 115.24C58.1098 116.17 58.2098 117.52 58.3098 119.24C58.4998 122.57 58.8598 127.16 59.3798 132.24C59.8998 137.32 60.4698 141.88 60.8798 145.24C61.0798 146.88 61.2398 148.24 61.3598 149.16L61.4798 150.23V150.5C61.4798 150.57 61.4798 150.6 61.4798 150.6C61.4778 150.57 61.4778 150.54 61.4798 150.51V150.23L61.3198 149.17C61.1898 148.23 61.0098 146.89 60.7798 145.25C60.3398 141.94 59.7798 137.37 59.2298 132.25C58.6798 127.13 58.3598 122.58 58.2298 119.25C58.1498 117.59 58.0998 116.25 58.0798 115.25C58.0798 114.8 58.0798 114.44 58.0798 114.18V113.8L58.0498 113.79Z" fill="#385A64"/>
<path d="M72.1398 139.34C72.1398 139.34 72.1398 139.45 72.1398 139.65L72.2698 140.56C72.3598 141.34 72.4798 142.48 72.5898 143.89C72.8198 146.71 72.9898 150.61 73.0498 154.89C73.1098 159.17 73.0498 163.11 72.8798 165.89C72.8098 167.3 72.7198 168.44 72.6498 169.23L72.5398 170.13C72.5398 170.34 72.5398 170.45 72.5398 170.45C72.5247 170.344 72.5247 170.236 72.5398 170.13L72.5998 169.22C72.6598 168.43 72.7298 167.29 72.7798 165.88C72.8998 163.06 72.9498 159.16 72.8998 154.88C72.8498 150.6 72.6898 146.67 72.4898 143.88C72.3998 142.47 72.2998 141.33 72.2198 140.54L72.1298 139.64C72.1254 139.54 72.1287 139.44 72.1398 139.34V139.34Z" fill="#385A64"/>
<path d="M75.9002 67.3501C75.9002 67.3501 79.0302 68.1801 79.6902 72.8501C80.3502 77.5201 79.1202 78.8501 79.1202 78.8501C79.1202 78.8501 79.6302 70.1701 75.7402 68.9901L75.9002 67.5301" fill="#1A2E35"/>
<path d="M54.5699 82.58L38.4199 82.27L38.6099 83.05L54.4899 83.29L54.5699 82.58Z" fill="#1A2E35"/>
<path d="M74.1602 68.81C73.5557 68.6622 72.9193 68.7184 72.3502 68.97C71.0402 69.52 68.6402 71.11 68.4702 75.58L68.2002 82.8L78.5302 84.15C78.5302 84.15 79.4102 70.21 74.1602 68.81Z" fill="#FFE55C"/>
<path d="M55.1498 84.11L68.2498 88.05L68.4398 82.78L76.2898 83.92L75.8498 92.5C75.805 93.724 75.3587 94.8991 74.5798 95.8443C73.8009 96.7895 72.7326 97.4521 71.5398 97.73C70.1808 98.0414 68.7545 97.8346 67.5398 97.15L53.5898 89.23L55.1498 84.11Z" fill="#FFBF9E"/>
<path d="M78.5301 84.1499C78.5257 84.11 78.5257 84.0698 78.5301 84.0299V83.6799C78.5301 83.3699 78.5301 82.9199 78.5301 82.3599C78.5301 81.2099 78.4401 79.5599 78.3801 77.5299C78.3801 76.5299 78.3101 75.3999 78.2801 74.2099V73.2999V72.8399C78.2801 72.6899 78.2201 72.5399 78.1801 72.3899C78.0204 71.7603 77.7309 71.171 77.3301 70.6599C76.9017 70.1128 76.3599 69.665 75.7418 69.3474C75.1238 69.0298 74.4443 68.8498 73.7501 68.8199C73.0174 68.8106 72.2979 69.0157 71.6801 69.4099C70.9891 69.8039 70.3947 70.3471 69.9401 70.9999C69.3455 71.9085 68.9439 72.9296 68.7601 73.9999C68.5763 75.0272 68.4694 76.0667 68.4401 77.1099C68.3801 79.1099 68.3201 81.1099 68.2801 82.7999L68.2101 82.7199L75.6801 83.7199L77.7801 84.0199L78.3301 84.0999H78.5301H78.3501L77.8101 84.0299L75.7201 83.7799L68.1901 82.8399H68.1201V82.7999C68.1201 81.0599 68.1901 79.1499 68.2601 77.1099C68.2909 76.0668 68.3979 75.0274 68.5801 73.9999C68.7644 72.9001 69.1765 71.851 69.7901 70.9199C70.217 70.2647 70.7797 69.7088 71.4401 69.2899C72.0918 68.8774 72.8489 68.6621 73.6201 68.6699C74.6781 68.7234 75.6918 69.1115 76.5149 69.7783C77.3381 70.4451 77.9282 71.3561 78.2001 72.3799C78.2001 72.5299 78.2601 72.6899 78.2901 72.8499L78.3401 73.3299V74.2499L78.4101 77.5999L78.4901 82.4299V83.7399V84.1799L78.5301 84.1499Z" fill="#1A2E35"/>
<path d="M55.4101 84.2701L52.2701 81.9401C51.5909 81.6186 50.8392 81.4806 50.0901 81.5401C48.7638 81.5347 47.4539 81.8323 46.2601 82.4101L47.2101 83.1701L41.1001 83.0001C41.3096 83.4147 41.6277 83.7648 42.0204 84.0131C42.413 84.2614 42.8657 84.3986 43.3301 84.4101C43.4389 84.8642 43.6932 85.2703 44.0543 85.5664C44.4154 85.8625 44.8635 86.0324 45.3301 86.0501C45.6077 86.6993 46.1228 87.218 46.7701 87.5001C46.8589 87.8875 47.0932 88.2259 47.4245 88.4456C47.7557 88.6652 48.1587 88.7491 48.5501 88.6801L53.9101 89.2901L55.4101 84.2701Z" fill="#FFBF9E"/>
<path d="M47.1598 84.6199C46.5146 84.6823 45.865 84.6823 45.2198 84.6199C44.5749 84.6139 43.9321 84.547 43.2998 84.4199C43.9418 84.3603 44.5879 84.3603 45.2298 84.4199C45.8781 84.4232 46.5246 84.4902 47.1598 84.6199V84.6199Z" fill="#FF9A6E"/>
<path d="M48.7098 86.0899C48.1479 86.1798 47.5781 86.2099 47.0098 86.1799C46.4449 86.2098 45.8784 86.1796 45.3198 86.0899C45.8751 86.001 46.4382 85.9708 46.9998 85.9999C47.5714 85.9692 48.1446 85.9994 48.7098 86.0899Z" fill="#FF9A6E"/>
<path d="M50.37 87.4799C49.8114 87.5696 49.2449 87.5997 48.68 87.5699C48.1117 87.5999 47.5419 87.5698 46.98 87.4799C47.5419 87.39 48.1117 87.3599 48.68 87.3899C49.2449 87.3601 49.8114 87.3902 50.37 87.4799V87.4799Z" fill="#FF9A6E"/>
<path d="M69.1099 90.7301C68.8565 90.3297 68.6612 89.8954 68.5299 89.4401C68.3421 89.0052 68.2272 88.5423 68.1899 88.0701C68.4053 88.4877 68.5762 88.9268 68.6999 89.3801C68.888 89.8128 69.0256 90.2658 69.1099 90.7301V90.7301Z" fill="#FF9A6E"/>
<path d="M70.0599 90.2199C69.694 89.8806 69.3593 89.5091 69.0599 89.1099C68.7221 88.748 68.4176 88.3564 68.1499 87.9399C68.5591 88.2327 68.9172 88.5908 69.2099 88.9999C69.5539 89.3608 69.8406 89.7722 70.0599 90.2199V90.2199Z" fill="#FF9A6E"/>
</g>
<defs>
<clipPath id="clip0">
<rect width="161.81" height="148.59" fill="white" transform="translate(19 33)"/>
</clipPath>
</defs>
</svg>
