<svg xmlns="http://www.w3.org/2000/svg" xmlns:xlink="http://www.w3.org/1999/xlink" viewBox="0 0 200.48 359.16"><defs><style>.cls-1,.cls-9{fill:none;}.cls-2{opacity:0.6;}.cls-3{fill:#4d4d4d;}.cls-4{fill:gold;}.cls-5{fill:#bfa100;}.cls-6{clip-path:url(#clip-path);}.cls-7{fill:#333;}.cls-8{clip-path:url(#clip-path-2);}.cls-9{stroke:#333;stroke-linecap:round;stroke-miterlimit:10;stroke-width:2px;opacity:0.9;}</style><clipPath id="clip-path"><path class="cls-1" d="M68.14,200.62H67.6c-21,0-38,22.75-38,50.81s17,50.81,38,50.81h.54Z"/></clipPath><clipPath id="clip-path-2"><path class="cls-1" d="M122.62,30.64l-1.12,0c-43.5,0-78.77,47.14-78.77,105.29S78,241.2,121.5,241.2l1.12,0Z"/></clipPath></defs><title>Asset 18</title><g id="Layer_2" data-name="Layer 2"><g id="Layer_1-2" data-name="Layer 1"><g class="cls-2"><rect class="cls-3" x="63.92" y="265" width="7.35" height="94.16"/><ellipse class="cls-4" cx="67.6" cy="251.42" rx="38.01" ry="50.81"/><path class="cls-5" d="M68.14,200.62H67.6c-21,0-38,22.75-38,50.81s17,50.81,38,50.81h.54Z"/><g class="cls-2"><g class="cls-6"><rect class="cls-7" x="27.1" y="210.25" width="50.53" height="2.45" transform="translate(97.56 -1.64) rotate(25.88)"/><rect class="cls-7" x="27.1" y="196.74" width="50.53" height="2.45" transform="translate(91.67 -3) rotate(25.88)"/><rect class="cls-7" x="24.22" y="222.99" width="53.11" height="2.45" transform="translate(102.97 0.33) rotate(25.88)"/><rect class="cls-7" x="24.49" y="236.64" width="53.11" height="2.45" transform="translate(108.95 1.58) rotate(25.88)"/><rect class="cls-7" x="21.8" y="249.33" width="55.11" height="2.45" transform="translate(114.32 3.59) rotate(25.88)"/><rect class="cls-7" x="19.14" y="262.23" width="57.92" height="2.45" transform="translate(119.83 5.43) rotate(25.88)"/><rect class="cls-7" x="19.92" y="276.12" width="57.92" height="2.45" transform="translate(125.97 6.48) rotate(25.88)"/><rect class="cls-7" x="19.92" y="289.64" width="57.92" height="2.45" transform="translate(131.87 7.84) rotate(25.88)"/></g></g></g><g class="cls-2"><rect class="cls-3" x="114.09" y="163.03" width="15.24" height="195.11"/><ellipse class="cls-4" cx="121.71" cy="134.89" rx="78.77" ry="105.29"/><path class="cls-5" d="M122.84,29.62l-1.13,0c-43.5,0-78.77,47.14-78.77,105.29s35.27,105.29,78.77,105.29l1.13,0Z"/><rect class="cls-3" x="113.88" y="164.05" width="15.24" height="195.11"/><ellipse class="cls-4" cx="121.5" cy="135.91" rx="78.77" ry="105.29"/><path class="cls-5" d="M122.62,30.64l-1.12,0c-43.5,0-78.77,47.14-78.77,105.29S78,241.2,121.5,241.2l1.12,0Z"/><g class="cls-2"><g class="cls-8"><rect class="cls-7" x="37.57" y="50.6" width="104.7" height="5.07" transform="translate(32.21 -33.92) rotate(25.88)"/><rect class="cls-7" x="37.57" y="22.6" width="104.7" height="5.07" transform="translate(19.99 -36.73) rotate(25.88)"/><rect class="cls-7" x="31.61" y="77" width="110.04" height="5.07" transform="translate(43.41 -29.84) rotate(25.88)"/><rect class="cls-7" x="32.17" y="105.27" width="110.04" height="5.07" transform="translate(55.81 -27.25) rotate(25.88)"/><rect class="cls-7" x="26.6" y="131.58" width="114.19" height="5.07" transform="translate(66.94 -23.08) rotate(25.88)"/><rect class="cls-7" x="21.09" y="158.32" width="120.02" height="5.07" transform="translate(78.35 -19.27) rotate(25.88)"/><rect class="cls-7" x="22.7" y="187.1" width="120.02" height="5.07" transform="translate(91.07 -17.08) rotate(25.88)"/><rect class="cls-7" x="22.7" y="215.1" width="120.02" height="5.07" transform="translate(103.3 -14.27) rotate(25.88)"/></g></g></g><g class="cls-2"><path class="cls-9" d="M1,58.17C3.79,56.93,7.86,55.69,12,57c4.54,1.42,5.81,4.85,8.83,4.42,3.36-.48,3.58-5,8.1-7.91a15.09,15.09,0,0,1,9.56-2"/><path class="cls-9" d="M29.5,35.64a10.06,10.06,0,0,1,6.77,1.88c2.35,1.91,2.29,4.24,4.18,4.69,2.1.51,3.29-2.09,6.65-2.76a9.62,9.62,0,0,1,6.13,1"/></g></g></g></svg>