<svg xmlns="http://www.w3.org/2000/svg" viewBox="0 0 1081.12 53.08"><defs><style>.cls-1{fill:none;stroke:#fff;stroke-miterlimit:10;stroke-width:2px;}</style></defs><title>Asset 30</title><g id="Layer_2" data-name="Layer 2"><g id="Layer_1-2" data-name="Layer 1"><path class="cls-1" d="M823.89,52.08h23.63l20.12-.88a137.76,137.76,0,0,0,17.91-13.89c9.46-8.66,10-11.56,14.33-12.79,12.49-3.54,20,16.82,35,16.88,18.36.07,23-30.35,41.34-30.77,11.31-.26,14.58,11.13,38.86,26.68a161.94,161.94,0,0,0,29.22,14.77h36.82"/><path class="cls-1" d="M823.89,42.46c9.79-.21,17.86-.13,23.63,0,12.87.27,15.45.78,20.12-.89,1.82-.65,4.9-2,17.91-13.88,12.25-11.22,11.71-12.06,14.33-12.8,12.49-3.53,20,16.82,35,16.88,18.36.07,23-30.35,41.34-30.77,11.31-.25,14.58,11.13,38.86,26.69a162.61,162.61,0,0,0,29.22,14.77h36.82"/><path class="cls-1" d="M0,52.08H823.89"/></g></g></svg>